<?xml version="1.0" encoding="UTF-8" standalone="no"?>
<svg
   xmlns:dc="http://purl.org/dc/elements/1.1/"
   xmlns:cc="http://creativecommons.org/ns#"
   xmlns:rdf="http://www.w3.org/1999/02/22-rdf-syntax-ns#"
   xmlns:svg="http://www.w3.org/2000/svg"
   xmlns="http://www.w3.org/2000/svg"
   xmlns:sodipodi="http://sodipodi.sourceforge.net/DTD/sodipodi-0.dtd"
   xmlns:inkscape="http://www.inkscape.org/namespaces/inkscape"
   version="1.1"
   id="Capa_1"
   x="0px"
   y="0px"
   viewBox="0 0 400 400"
   xml:space="preserve"
   sodipodi:docname="add-btn.svg"
   inkscape:version="1.0.2 (e86c870879, 2021-01-15, custom)"
   width="400"
   height="400"><metadata
   id="metadata49"><rdf:RDF><cc:Work
       rdf:about=""><dc:format>image/svg+xml</dc:format><dc:type
         rdf:resource="http://purl.org/dc/dcmitype/StillImage" /><dc:title></dc:title></cc:Work></rdf:RDF></metadata><defs
   id="defs47" /><sodipodi:namedview
   pagecolor="#ffffff"
   bordercolor="#666666"
   borderopacity="1"
   objecttolerance="10"
   gridtolerance="10"
   guidetolerance="10"
   inkscape:pageopacity="0"
   inkscape:pageshadow="2"
   inkscape:window-width="1920"
   inkscape:window-height="1017"
   id="namedview45"
   showgrid="false"
   inkscape:zoom="1.2577574"
   inkscape:cx="45.14973"
   inkscape:cy="243.68127"
   inkscape:window-x="-8"
   inkscape:window-y="-8"
   inkscape:window-maximized="1"
   inkscape:current-layer="Capa_1"
   inkscape:document-rotation="0" />

<g
   id="g12"
   style="fill:#ffffff;fill-opacity:1;stroke-width:1.01168"
   transform="matrix(0.97704601,0,0,1,-3.2265458,-1.5901292)">
	<g
   id="g10"
   style="fill:#ffffff;fill-opacity:1;stroke-width:1.01168">
		<path
   d="M 335.93729,176.5905 H 233.58796 V 76.590499 c 0,-13.80755 -11.45578,-25.00037 -25.58771,-25.00037 -14.13193,0 -25.5877,11.19282 -25.5877,25.00037 V 176.5905 H 80.064721 c -14.13193,0 -25.58771,11.19281 -25.58771,25.00036 0,13.80755 11.45578,24.9989 25.58771,24.9989 H 182.41405 v 100 c 0,13.80755 11.45577,25.00037 25.5877,25.00037 14.13194,0 25.58621,-11.19428 25.58621,-25.00037 v -100 h 102.34933 c 14.13193,0 25.5877,-11.19281 25.5877,-25.00036 0,-13.80755 -11.45727,-24.9989 -25.5877,-24.9989 z"
   id="path8"
   style="fill:#ffffff;fill-opacity:1;stroke-width:1.01168" />
	</g>
</g>
<g
   id="g14">
</g>
<g
   id="g16">
</g>
<g
   id="g18">
</g>
<g
   id="g20">
</g>
<g
   id="g22">
</g>
<g
   id="g24">
</g>
<g
   id="g26">
</g>
<g
   id="g28">
</g>
<g
   id="g30">
</g>
<g
   id="g32">
</g>
<g
   id="g34">
</g>
<g
   id="g36">
</g>
<g
   id="g38">
</g>
<g
   id="g40">
</g>
<g
   id="g42">
</g>
</svg>
