<?xml version="1.0" encoding="UTF-8" standalone="no"?>
<svg
   xmlns:dc="http://purl.org/dc/elements/1.1/"
   xmlns:cc="http://creativecommons.org/ns#"
   xmlns:rdf="http://www.w3.org/1999/02/22-rdf-syntax-ns#"
   xmlns:svg="http://www.w3.org/2000/svg"
   xmlns="http://www.w3.org/2000/svg"
   xmlns:sodipodi="http://sodipodi.sourceforge.net/DTD/sodipodi-0.dtd"
   xmlns:inkscape="http://www.inkscape.org/namespaces/inkscape"
   version="1.1"
   id="Layer_1"
   x="0px"
   y="0px"
   viewBox="0 0 469.333 469.333"
   style="enable-background:new 0 0 469.333 469.333;"
   xml:space="preserve"
   sodipodi:docname="save-btn.svg"
   inkscape:version="1.0.2 (e86c870879, 2021-01-15, custom)"><metadata
   id="metadata47"><rdf:RDF><cc:Work
       rdf:about=""><dc:format>image/svg+xml</dc:format><dc:type
         rdf:resource="http://purl.org/dc/dcmitype/StillImage" /></cc:Work></rdf:RDF></metadata><defs
   id="defs45" /><sodipodi:namedview
   pagecolor="#ffffff"
   bordercolor="#666666"
   borderopacity="1"
   objecttolerance="10"
   gridtolerance="10"
   guidetolerance="10"
   inkscape:pageopacity="0"
   inkscape:pageshadow="2"
   inkscape:window-width="1920"
   inkscape:window-height="1017"
   id="namedview43"
   showgrid="false"
   inkscape:zoom="0.9055404"
   inkscape:cx="236.45205"
   inkscape:cy="368.41793"
   inkscape:window-x="-8"
   inkscape:window-y="-8"
   inkscape:window-maximized="1"
   inkscape:current-layer="Layer_1" />
<g
   id="g10"
   style="fill:#ffffff;fill-opacity:1">
	<g
   id="g8"
   style="fill:#ffffff;fill-opacity:1">
		<g
   id="g6"
   style="fill:#ffffff;fill-opacity:1">
			<path
   d="M466.208,88.458L380.875,3.125c-2-2-4.708-3.125-7.542-3.125H42.667C19.146,0,0,19.135,0,42.667v384     c0,23.531,19.146,42.667,42.667,42.667h384c23.521,0,42.667-19.135,42.667-42.667V96     C469.333,93.167,468.208,90.458,466.208,88.458z M106.667,21.333h234.667v128c0,11.76-9.563,21.333-21.333,21.333H128     c-11.771,0-21.333-9.573-21.333-21.333V21.333z M384,448H85.333V256H384V448z M448,426.667c0,11.76-9.563,21.333-21.333,21.333     h-21.333V245.333c0-5.896-4.771-10.667-10.667-10.667h-320c-5.896,0-10.667,4.771-10.667,10.667V448H42.667     c-11.771,0-21.333-9.573-21.333-21.333v-384c0-11.76,9.563-21.333,21.333-21.333h42.667v128C85.333,172.865,104.479,192,128,192     h192c23.521,0,42.667-19.135,42.667-42.667v-128h6.25L448,100.417V426.667z"
   id="path2"
   style="fill:#ffffff;fill-opacity:1" />
			<path
   d="M266.667,149.333h42.667c5.896,0,10.667-4.771,10.667-10.667V53.333c0-5.896-4.771-10.667-10.667-10.667h-42.667     c-5.896,0-10.667,4.771-10.667,10.667v85.333C256,144.562,260.771,149.333,266.667,149.333z M277.333,64h21.333v64h-21.333V64z"
   id="path4"
   style="fill:#ffffff;fill-opacity:1" />
		</g>
	</g>
</g>
<g
   id="g12">
</g>
<g
   id="g14">
</g>
<g
   id="g16">
</g>
<g
   id="g18">
</g>
<g
   id="g20">
</g>
<g
   id="g22">
</g>
<g
   id="g24">
</g>
<g
   id="g26">
</g>
<g
   id="g28">
</g>
<g
   id="g30">
</g>
<g
   id="g32">
</g>
<g
   id="g34">
</g>
<g
   id="g36">
</g>
<g
   id="g38">
</g>
<g
   id="g40">
</g>
</svg>
