<?xml version="1.0" encoding="UTF-8" standalone="no"?>
<svg
   xmlns:dc="http://purl.org/dc/elements/1.1/"
   xmlns:cc="http://creativecommons.org/ns#"
   xmlns:rdf="http://www.w3.org/1999/02/22-rdf-syntax-ns#"
   xmlns:svg="http://www.w3.org/2000/svg"
   xmlns="http://www.w3.org/2000/svg"
   xmlns:sodipodi="http://sodipodi.sourceforge.net/DTD/sodipodi-0.dtd"
   xmlns:inkscape="http://www.inkscape.org/namespaces/inkscape"
   version="1.1"
   id="Capa_1"
   x="0px"
   y="0px"
   viewBox="0 0 512 512"
   style="enable-background:new 0 0 512 512;"
   xml:space="preserve"
   sodipodi:docname="time.svg"
   inkscape:version="1.0.2 (e86c870879, 2021-01-15, custom)"><metadata
   id="metadata43"><rdf:RDF><cc:Work
       rdf:about=""><dc:format>image/svg+xml</dc:format><dc:type
         rdf:resource="http://purl.org/dc/dcmitype/StillImage" /></cc:Work></rdf:RDF></metadata><defs
   id="defs41" /><sodipodi:namedview
   pagecolor="#ffffff"
   bordercolor="#666666"
   borderopacity="1"
   objecttolerance="10"
   gridtolerance="10"
   guidetolerance="10"
   inkscape:pageopacity="0"
   inkscape:pageshadow="2"
   inkscape:window-width="1920"
   inkscape:window-height="1017"
   id="namedview39"
   showgrid="false"
   inkscape:zoom="0.83007813"
   inkscape:cx="329.29957"
   inkscape:cy="237.03696"
   inkscape:window-x="-8"
   inkscape:window-y="-8"
   inkscape:window-maximized="1"
   inkscape:current-layer="Capa_1" />
<g
   id="g6"
   style="fill:#ffffff;fill-opacity:1">
	<g
   id="g4"
   style="fill:#ffffff;fill-opacity:1">
		<path
   d="M336.655,202.803c33.946-30.949,79.852-72.806,84.036-172.803H451V0H61v30h30.309    c4.184,99.997,50.09,141.854,84.036,172.803C198.116,223.564,211,236.271,211,256s-12.884,32.436-35.655,53.197    C141.399,340.146,95.493,382.003,91.309,482H61v30h390v-30h-30.309c-4.184-99.997-50.09-141.854-84.036-172.803    C313.884,288.436,301,275.729,301,256S313.884,223.564,336.655,202.803z M241,368.438c-4.633,0.956-9.21,2.347-13.677,4.195    l-91.877,38.019c15.004-38.15,39.17-60.193,60.111-79.285C218.927,310.06,241,289.935,241,256V368.438z M316.443,331.367    c20.941,19.092,45.106,41.135,60.111,79.284l-91.877-38.019c-4.467-1.848-9.044-3.239-13.677-4.195V256    C271,289.935,293.073,310.06,316.443,331.367z M134.919,100c-7.253-18.899-12.262-41.718-13.573-70h269.307    c-1.311,28.282-6.319,51.101-13.573,70H134.919z"
   id="path2"
   style="fill:#ffffff;fill-opacity:1" />
	</g>
</g>
<g
   id="g8">
</g>
<g
   id="g10">
</g>
<g
   id="g12">
</g>
<g
   id="g14">
</g>
<g
   id="g16">
</g>
<g
   id="g18">
</g>
<g
   id="g20">
</g>
<g
   id="g22">
</g>
<g
   id="g24">
</g>
<g
   id="g26">
</g>
<g
   id="g28">
</g>
<g
   id="g30">
</g>
<g
   id="g32">
</g>
<g
   id="g34">
</g>
<g
   id="g36">
</g>
</svg>
