<?xml version="1.0" encoding="UTF-8" standalone="no"?>
<svg
   xmlns:dc="http://purl.org/dc/elements/1.1/"
   xmlns:cc="http://creativecommons.org/ns#"
   xmlns:rdf="http://www.w3.org/1999/02/22-rdf-syntax-ns#"
   xmlns:svg="http://www.w3.org/2000/svg"
   xmlns="http://www.w3.org/2000/svg"
   xmlns:sodipodi="http://sodipodi.sourceforge.net/DTD/sodipodi-0.dtd"
   xmlns:inkscape="http://www.inkscape.org/namespaces/inkscape"
   id="Capa_1"
   enable-background="new 0 0 512 512"
   height="170"
   viewBox="0 0 160 170"
   width="160"
   version="1.1"
   sodipodi:docname="action.svg"
   inkscape:version="1.0.2 (e86c870879, 2021-01-15, custom)">
  <metadata
     id="metadata19">
    <rdf:RDF>
      <cc:Work
         rdf:about="">
        <dc:format>image/svg+xml</dc:format>
        <dc:type
           rdf:resource="http://purl.org/dc/dcmitype/StillImage" />
        <dc:title />
      </cc:Work>
    </rdf:RDF>
  </metadata>
  <defs
     id="defs17" />
  <sodipodi:namedview
     pagecolor="#ffffff"
     bordercolor="#666666"
     borderopacity="1"
     objecttolerance="10"
     gridtolerance="10"
     guidetolerance="10"
     inkscape:pageopacity="0"
     inkscape:pageshadow="2"
     inkscape:window-width="1920"
     inkscape:window-height="1017"
     id="namedview15"
     showgrid="false"
     inkscape:zoom="3.3203125"
     inkscape:cx="-19.047731"
     inkscape:cy="80.070214"
     inkscape:window-x="-8"
     inkscape:window-y="-8"
     inkscape:window-maximized="1"
     inkscape:current-layer="g12"
     inkscape:document-rotation="0" />
  <g
     id="g12"
     transform="matrix(0.37026598,0,0,0.27854821,-8.7290012,20.870465)"
     style="stroke-width:3.11382">
    <path
       d="M 229.725,457.151 338.261,457 338.5,502 h -109 z"
       fill="#a0e5a5"
       id="path2"
       style="stroke-width:8.76136;fill:#3ba14d;fill-opacity:1" />
    <path
       d="m -247.02567,303.24138 v -172.167 c 0,-12.426 -10.074,-22.5 -22.5,-22.5 -12.426,0 -22.5,10.074 -22.5,22.5 v 208.5 l -17.844,-64.701 c -4.039,-19.926 -17.167,-33.766 -37.383,-32.357 -8.625,0.601 -14.9,8.458 -13.602,17.035 4.332,28.616 16.526,82.192 21.475,98.616 7.003,23.243 17.919,62.757 29.354,80.407 20.323,31.368 41.725,33.151 41.725,33.151 l 108.536,-0.151 c 31.114,-18.675 47.739,-46.333 47.739,-132 v -91.5 c 0,-12.426 -10.074,-22.5 -22.5,-22.5 -12.426,0 -22.5,10.074 -22.5,22.5 v 65.167 -75.167 c 0,-12.426 -10.074,-22.5 -22.5,-22.5 -12.426,0 -22.5,10.074 -22.5,22.5 v 70.167 -80.167 c 0,-12.426 -10.074,-22.5 -22.5,-22.5 -12.426,0 -22.5,10.074 -22.5,22.5 z"
       fill="#ffffff"
       id="path4"
       style="fill:#ffffff;fill-opacity:1;stroke-width:8.76136" />
    <g
       id="g10"
       style="stroke-width:3.11382;fill:#ffffff;fill-opacity:1"
       transform="translate(-7.844,9.449)">
      <path
         d="m 386.48,210.52 c -6.14,-6.14 -14.3,-9.52 -22.98,-9.52 -6.24,0 -12.3,1.78 -17.53,5.13 -2.87,-4.54 -6.86,-8.33 -11.54,-10.96 -4.83,-2.73 -10.34,-4.17 -15.93,-4.17 -3.96,0 -7.845,0.722 -11.494,2.102 C 328.753,172.003 341,143.275 341,112.5 341,50.468 290.533,0 228.5,0 166.467,0 116,50.468 116,112.5 c 0,25.585 8.822,50.629 24.84,70.518 14.227,17.665 33.614,30.67 55.16,37.185 v 30.647 c -2.74,-8.43 -6.98,-15.5 -12.58,-21.03 -3.79,-3.77 -8.24,-6.72 -13.24,-8.779 -5.15,-2.12 -10.65,-3.2 -16.35,-3.2 -1.26,0 -2.52,0.04 -3.74,0.13 0,-0.01 -0.01,-0.01 -0.01,0 -6.34,0.45 -12.2,3.26 -16.49,7.91 -4.25,4.61 -6.59,10.59 -6.59,16.84 0,1.26 0.1,2.53 0.29,3.771 2.7,17.869 7.82,41.829 10.62,54.529 4.39,19.82 12.81,50.98 13.72,54.03 3.09,10.43 6.6,22.26 10.55,34.03 4.68,13.81 10.4,29.41 17.43,40.359 11.62,17.96 23.83,27.12 32.03,31.65 2.984,1.652 5.694,2.85 8.047,3.725 L 219.5,501.95 c -0.013,2.66 1.034,5.217 2.911,7.104 1.877,1.886 4.428,2.946 7.089,2.946 h 109 c 2.661,0 5.213,-1.061 7.09,-2.947 1.877,-1.888 2.924,-4.444 2.91,-7.105 l -0.209,-39.451 c 6.528,-4.318 12.159,-9.022 17.079,-14.296 6.92,-7.41 12.32,-15.761 16.53,-25.53 2.2,-5.061 -0.12,-10.96 -5.18,-13.17 -1.27,-0.55 -2.61,-0.83 -3.99,-0.83 -3.98,0 -7.58,2.359 -9.17,6.01 -6.29,14.22 -14.45,23.59 -28.16,32.32 l -104.97,0.149 c -1.06,-0.189 -4.95,-1.069 -10.35,-4.27 -8.56,-5.11 -16.53,-13.29 -23.69,-24.32 -4.32,-6.58 -9.74,-19.319 -15.25,-35.85 -3.79,-11.29 -7.26,-22.97 -10.32,-33.28 -0.92,-3.09 -9.28,-34.17 -13.38,-52.729 -4.69,-21.2 -10.44,-53.721 -10.44,-53.98 0,-2.5 2,-4.66 4.47,-4.8 0,0 1.38,-0.08 2.1,-0.08 6.52,0.06 11.4,1.99 15.82,6.24 4.31,4.21 7.41,10.51 8.96,18.21 l 18.01,65.37 c 1.19,4.319 5.828,7.59 10.305,7.295 2.523,-0.111 5.275,-1.556 6.865,-3.375 1.59,-1.82 2.47,-4.16 2.47,-6.58 V 116.5 c 0.01,-6.88 5.62,-12.49 12.5,-12.5 6.88,0.01 12.49,5.62 12.5,12.5 v 172.17 c 0,2.63 1.07,5.2 2.93,7.07 1.86,1.859 4.44,2.93 7.07,2.93 2.63,0 5.21,-1.07 7.07,-2.93 1.86,-1.87 2.93,-4.44 2.93,-7.07 V 213.5 c 0.01,-6.88 5.62,-12.49 12.5,-12.5 6.88,0.01 12.49,5.62 12.5,12.5 v 80.17 c 0,2.63 1.07,5.21 2.93,7.07 1.86,1.859 4.44,2.92 7.07,2.92 2.63,0 5.21,-1.061 7.07,-2.92 1.86,-1.86 2.93,-4.44 2.93,-7.07 V 223.5 c 0.01,-6.88 5.62,-12.49 12.5,-12.5 6.88,0.01 12.49,5.62 12.5,12.5 v 75.17 c 0,2.63 1.07,5.21 2.93,7.07 1.86,1.859 4.44,2.93 7.07,2.93 2.63,0 5.21,-1.07 7.07,-2.93 1.86,-1.86 2.93,-4.44 2.93,-7.07 V 233.5 c 0.01,-6.88 5.62,-12.49 12.5,-12.5 6.88,0.01 12.49,5.62 12.5,12.5 0,0 -0.01,95.02 -0.02,96.7 -0.02,2.67 1,5.189 2.87,7.1 1.87,1.9 4.37,2.96 7.04,2.979 h 0.09 c 5.47,0 9.95,-4.449 10,-9.909 0.01,-1.74 0.02,-96.87 0.02,-96.87 0,-8.681 -3.38,-16.851 -9.52,-22.98 z m -146.805,256.618 87.128,-0.122 1.511,-0.002 0.133,24.986 H 239.55 Z M 251.48,93.52 C 245.34,87.38 237.18,84 228.5,84 c -8.68,0 -16.84,3.38 -22.98,9.52 -6.14,6.141 -9.52,14.3 -9.52,22.98 v 37.198 C 183.649,143.886 176,128.723 176,112.5 176,83.552 199.551,60 228.5,60 c 28.949,0 52.5,23.552 52.5,52.5 0,16.223 -7.649,31.386 -20,41.198 V 116.5 c 0,-8.681 -3.38,-16.84 -9.52,-22.98 z m 35.684,90.5 C 282.908,182.044 278.235,181 273.5,181 c -4.33,0 -8.54,0.84 -12.5,2.49 v -6.192 C 285.178,165.123 301,139.91 301,112.5 301,72.523 268.477,40 228.5,40 188.523,40 156,72.523 156,112.5 c 0,27.41 15.822,52.623 40,64.798 v 21.855 c -35.86,-13.321 -60,-47.415 -60,-86.654 0,-51.005 41.495,-92.5 92.5,-92.5 51.005,0 92.5,41.496 92.5,92.501 0,27.955 -12.295,53.857 -33.836,71.52 z"
         id="path6"
         style="stroke-width:3.11382;fill:#ffffff;fill-opacity:1" />
      <circle
         cx="383.427"
         cy="375.17001"
         r="10"
         id="circle8"
         style="stroke-width:3.11382;fill:#ffffff;fill-opacity:1" />
    </g>
  </g>
</svg>
