<?xml version="1.0" encoding="UTF-8" standalone="no"?>
<svg
   xmlns:dc="http://purl.org/dc/elements/1.1/"
   xmlns:cc="http://creativecommons.org/ns#"
   xmlns:rdf="http://www.w3.org/1999/02/22-rdf-syntax-ns#"
   xmlns:svg="http://www.w3.org/2000/svg"
   xmlns="http://www.w3.org/2000/svg"
   xmlns:sodipodi="http://sodipodi.sourceforge.net/DTD/sodipodi-0.dtd"
   xmlns:inkscape="http://www.inkscape.org/namespaces/inkscape"
   version="1.1"
   id="Layer_1"
   x="0px"
   y="0px"
   viewBox="0 0 159.99999 169.99999"
   xml:space="preserve"
   sodipodi:docname="alchemy.svg"
   width="160"
   height="170"
   inkscape:version="1.0.2 (e86c870879, 2021-01-15, custom)"><metadata
   id="metadata87"><rdf:RDF><cc:Work
       rdf:about=""><dc:format>image/svg+xml</dc:format><dc:type
         rdf:resource="http://purl.org/dc/dcmitype/StillImage" /><dc:title></dc:title></cc:Work></rdf:RDF></metadata><defs
   id="defs85" /><sodipodi:namedview
   pagecolor="#ffffff"
   bordercolor="#666666"
   borderopacity="1"
   objecttolerance="10"
   gridtolerance="10"
   guidetolerance="10"
   inkscape:pageopacity="0"
   inkscape:pageshadow="2"
   inkscape:window-width="1920"
   inkscape:window-height="1017"
   id="namedview83"
   showgrid="false"
   inkscape:zoom="2.347797"
   inkscape:cx="48.067535"
   inkscape:cy="123.59339"
   inkscape:window-x="-8"
   inkscape:window-y="-8"
   inkscape:window-maximized="1"
   inkscape:current-layer="Layer_1" />
<g
   id="g50"
   transform="matrix(0.25213085,0,0,0.26127991,15.759751,24.704748)"
   style="stroke-width:3.89613">
	<g
   id="g16"
   style="stroke-width:3.89613">
		<path
   style="fill:#c7cfe3;stroke-width:3.89613"
   d="m 187.737,68.267 c -4.71,0 -8.533,-3.823 -8.533,-8.533 v -51.2 c 0,-4.71 3.823,-8.533 8.533,-8.533 4.71,0 8.533,3.823 8.533,8.533 v 51.2 c 0,4.71 -3.823,8.533 -8.533,8.533"
   id="path2" />
		<path
   style="fill:#c7cfe3;stroke-width:3.89613"
   d="m 213.337,34.133 h -51.2 c -4.71,0 -8.533,-3.823 -8.533,-8.533 0,-4.71 3.823,-8.533 8.533,-8.533 h 51.2 c 4.71,0 8.533,3.823 8.533,8.533 0,4.71 -3.823,8.533 -8.533,8.533"
   id="path4" />
		<path
   style="fill:#c7cfe3;stroke-width:3.89613"
   d="m 332.803,162.133 h -51.2 c -4.71,0 -8.533,-3.823 -8.533,-8.533 0,-4.71 3.823,-8.533 8.533,-8.533 h 51.2 c 4.71,0 8.533,3.823 8.533,8.533 0,4.71 -3.822,8.533 -8.533,8.533"
   id="path6" />
		<path
   style="fill:#c7cfe3;stroke-width:3.89613"
   d="M 281.603,85.333 H 221.87 c -4.71,0 -8.533,-3.823 -8.533,-8.533 0,-4.71 3.823,-8.533 8.533,-8.533 h 59.733 c 4.71,0 8.533,3.823 8.533,8.533 10e-4,4.71 -3.822,8.533 -8.533,8.533"
   id="path8" />
		<path
   style="fill:#c7cfe3;stroke-width:3.89613"
   d="M 153.603,85.333 H 85.337 c -4.71,0 -8.533,-3.823 -8.533,-8.533 0,-4.71 3.823,-8.533 8.533,-8.533 h 68.267 c 4.71,0 8.533,3.823 8.533,8.533 0,4.71 -3.823,8.533 -8.534,8.533"
   id="path10" />
		<path
   style="fill:#c7cfe3;stroke-width:3.89613"
   d="m 281.603,162.133 c -4.71,0 -8.533,-3.823 -8.533,-8.533 V 76.8 c 0,-4.71 3.823,-8.533 8.533,-8.533 4.71,0 8.533,3.823 8.533,8.533 v 76.8 c 10e-4,4.71 -3.822,8.533 -8.533,8.533"
   id="path12" />
		<path
   style="fill:#c7cfe3;stroke-width:3.89613"
   d="m 85.337,162.133 c -4.71,0 -8.533,-3.823 -8.533,-8.533 V 76.8 c 0,-4.71 3.823,-8.533 8.533,-8.533 4.71,0 8.533,3.823 8.533,8.533 v 76.8 c 0,4.71 -3.823,8.533 -8.533,8.533"
   id="path14" />
	</g>
	<path
   style="fill:#5ab4e5;stroke-width:3.89613"
   d="m 477.87,307.2 c 0,61.269 -49.664,110.933 -110.933,110.933 -61.269,0 -110.934,-49.664 -110.934,-110.933 0,-61.269 49.664,-110.933 110.933,-110.933 61.269,0 110.934,49.664 110.934,110.933"
   id="path18" />
	<path
   style="fill:#f0785a;stroke-width:3.89613"
   d="m 477.87,307.2 c 0,-5.811 -0.58,-11.477 -1.442,-17.058 l -7.091,0.009 C 439.846,265.242 393.271,269.15 366.971,290.134 l -0.068,0.017 c -26.3,20.983 -72.875,24.892 -102.366,-0.017 h -7.091 c -0.862,5.581 -1.442,11.247 -1.442,17.067 0,61.269 49.664,110.933 110.933,110.933 61.269,0 110.933,-49.665 110.933,-110.934"
   id="path20" />
	<path
   style="fill:#5ab4e5;stroke-width:3.89613"
   d="M 51.203,187.733 V 256 401.067 c 0,18.85 15.283,34.133 34.133,34.133 18.85,0 34.133,-15.283 34.133,-34.133 V 256 187.733 Z"
   id="path22" />
	<polygon
   style="fill:#556080;stroke-width:3.89613"
   points="136.537,153.6 34.137,153.6 34.137,187.733 136.537,187.733 "
   id="polygon24" />
	<path
   style="fill:#0e9aa7;stroke-width:3.89613"
   d="m 85.337,435.2 v 0 c -18.85,0 -34.133,-15.283 -34.133,-34.133 V 307.2 h 68.267 v 93.867 C 119.47,419.917 104.187,435.2 85.337,435.2"
   id="path26" />
	<polygon
   style="fill:#556080;stroke-width:3.89613"
   points="418.137,59.733 315.737,59.733 315.737,93.867 418.137,93.867 "
   id="polygon28" />
	<polygon
   style="fill:#d69c77;stroke-width:3.89613"
   points="315.737,17.067 418.137,17.067 401.07,59.733 332.803,59.733 "
   id="polygon30" />
	<g
   id="g42"
   style="stroke-width:3.89613">
		<path
   style="fill:#c7cfe3;stroke-width:3.89613"
   d="M 145.07,375.467 H 25.603 c -4.71,0 -8.533,-3.823 -8.533,-8.533 0,-4.71 3.823,-8.533 8.533,-8.533 H 145.07 c 4.71,0 8.533,3.823 8.533,8.533 0,4.71 -3.823,8.533 -8.533,8.533"
   id="path32" />
		<path
   style="fill:#c7cfe3;stroke-width:3.89613"
   d="M 486.403,358.4 H 247.47 c -4.71,0 -8.533,-3.823 -8.533,-8.533 0,-4.71 3.823,-8.533 8.533,-8.533 h 238.933 c 4.71,0 8.533,3.823 8.533,8.533 0.001,4.71 -3.822,8.533 -8.533,8.533"
   id="path34" />
		<path
   style="fill:#c7cfe3;stroke-width:3.89613"
   d="m 8.541,512.004 c -0.845,0 -1.707,-0.128 -2.551,-0.393 -4.497,-1.408 -7.006,-6.187 -5.598,-10.692 L 43.059,364.386 c 1.399,-4.506 6.195,-6.997 10.692,-5.598 4.497,1.408 7.006,6.195 5.598,10.692 L 16.682,506.014 c -1.144,3.652 -4.506,5.99 -8.141,5.99"
   id="path36" />
		<path
   style="fill:#c7cfe3;stroke-width:3.89613"
   d="m 230.412,512 c -0.614,0 -1.237,-0.068 -1.86,-0.205 -4.599,-1.024 -7.501,-5.581 -6.477,-10.18 l 34.133,-153.6 c 1.024,-4.599 5.589,-7.492 10.18,-6.477 4.599,1.024 7.501,5.581 6.477,10.18 l -34.133,153.6 c -0.879,3.977 -4.412,6.682 -8.32,6.682"
   id="path38" />
		<path
   style="fill:#c7cfe3;stroke-width:3.89613"
   d="m 162.132,512.004 c -3.635,0 -6.997,-2.338 -8.141,-5.99 L 111.324,369.481 c -1.408,-4.497 1.101,-9.284 5.598,-10.692 4.497,-1.382 9.284,1.101 10.692,5.598 l 42.667,136.533 c 1.408,4.506 -1.101,9.284 -5.598,10.692 -0.844,0.264 -1.706,0.392 -2.551,0.392"
   id="path40" />
	</g>
	<path
   style="fill:#4096bc;stroke-width:3.89613"
   d="m 366.937,196.267 c 11.921,0 23.373,1.929 34.133,5.41 V 179.2 93.867 h -68.267 v 85.333 22.477 c 10.761,-3.482 22.213,-5.41 34.134,-5.41"
   id="path44" />
	<polygon
   style="fill:#556080;stroke-width:3.89613"
   points="221.87,59.733 153.603,59.733 153.603,93.867 221.87,93.867 "
   id="polygon46" />
	<path
   style="fill:#c7cfe3;stroke-width:3.89613"
   d="m 503.462,512 c -3.908,0 -7.441,-2.705 -8.32,-6.682 l -34.133,-153.6 c -1.024,-4.599 1.877,-9.156 6.477,-10.18 4.591,-1.007 9.156,1.877 10.18,6.477 l 34.133,153.6 c 1.024,4.599 -1.877,9.156 -6.477,10.18 -0.623,0.137 -1.246,0.205 -1.86,0.205"
   id="path48" />
</g>
<g
   id="g52">
</g>
<g
   id="g54">
</g>
<g
   id="g56">
</g>
<g
   id="g58">
</g>
<g
   id="g60">
</g>
<g
   id="g62">
</g>
<g
   id="g64">
</g>
<g
   id="g66">
</g>
<g
   id="g68">
</g>
<g
   id="g70">
</g>
<g
   id="g72">
</g>
<g
   id="g74">
</g>
<g
   id="g76">
</g>
<g
   id="g78">
</g>
<g
   id="g80">
</g>
</svg>
