<?xml version="1.0" encoding="UTF-8" standalone="no"?>
<svg
   xmlns:dc="http://purl.org/dc/elements/1.1/"
   xmlns:cc="http://creativecommons.org/ns#"
   xmlns:rdf="http://www.w3.org/1999/02/22-rdf-syntax-ns#"
   xmlns:svg="http://www.w3.org/2000/svg"
   xmlns="http://www.w3.org/2000/svg"
   xmlns:sodipodi="http://sodipodi.sourceforge.net/DTD/sodipodi-0.dtd"
   xmlns:inkscape="http://www.inkscape.org/namespaces/inkscape"
   id="Layer_1"
   enable-background="new 0 0 511.928 511.928"
   height="170"
   viewBox="0 0 159.9775 169.97609"
   width="160"
   version="1.1"
   sodipodi:docname="archer.svg"
   inkscape:version="1.0.2 (e86c870879, 2021-01-15, custom)">
  <metadata
     id="metadata59">
    <rdf:RDF>
      <cc:Work
         rdf:about="">
        <dc:format>image/svg+xml</dc:format>
        <dc:type
           rdf:resource="http://purl.org/dc/dcmitype/StillImage" />
        <dc:title></dc:title>
      </cc:Work>
    </rdf:RDF>
  </metadata>
  <defs
     id="defs57" />
  <sodipodi:namedview
     pagecolor="#ffffff"
     bordercolor="#666666"
     borderopacity="1"
     objecttolerance="10"
     gridtolerance="10"
     guidetolerance="10"
     inkscape:pageopacity="0"
     inkscape:pageshadow="2"
     inkscape:window-width="1920"
     inkscape:window-height="1017"
     id="namedview55"
     showgrid="false"
     inkscape:zoom="3.3203125"
     inkscape:cx="86.91614"
     inkscape:cy="103.05744"
     inkscape:window-x="-8"
     inkscape:window-y="-8"
     inkscape:window-maximized="1"
     inkscape:current-layer="g52" />
  <g
     id="g52"
     transform="matrix(0.28337654,0,0,0.29296919,14.242961,17.165558)"
     style="stroke-width:3.47062">
    <g
       id="XMLID_1057_"
       style="stroke-width:3.47062">
      <path
         d="M 101.064,511.792 C 87.875,510.414 78.3,498.606 79.677,485.417 l 10.744,-102.863 3.601,-79.821 c 0.598,-13.248 11.821,-23.501 25.069,-22.904 13.247,0.598 23.502,11.821 22.904,25.069 l -3.633,80.528 c -0.021,0.472 -0.056,0.943 -0.105,1.412 L 127.44,490.405 c -1.372,13.133 -13.132,22.77 -26.376,21.387 z"
         fill="#783c28"
         id="path2"
         style="stroke-width:6.51966" />
    </g>
    <g
       id="XMLID_1061_"
       style="stroke-width:3.47062">
      <g
         id="g7"
         style="stroke-width:3.47062">
        <path
           d="m 329.48,137.428 -7.607,-20.942 -67.016,4.451 -88.41,-4.643 c -11.33,-0.593 -20.979,8.1 -21.574,19.421 -0.594,11.32 8.101,20.979 19.421,21.574 l 89.629,4.707 c 0.359,0.018 0.717,0.028 1.077,0.028 0.453,0 0.908,-0.015 1.36,-0.045 l 68.427,-4.543 z"
           fill="#dcbe82"
           id="path5"
           style="stroke-width:6.51966" />
      </g>
    </g>
    <g
       id="XMLID_104_"
       style="stroke-width:3.47062">
      <g
         id="g12"
         style="stroke-width:3.47062">
        <path
           d="M 354.151,134.913 C 353.4,123.602 343.599,115.039 332.31,115.792 l -10.437,0.693 2.912,40.949 10.244,-0.68 c 11.313,-0.751 19.873,-10.529 19.122,-21.841 z"
           fill="#ffb69e"
           id="path10"
           style="stroke-width:6.51966" />
      </g>
    </g>
    <g
       id="XMLID_1060_"
       style="stroke-width:3.47062">
      <path
         d="m 162.438,510.744 c -12.611,-4.103 -19.507,-17.651 -15.405,-30.261 l 32.503,-99.907 -32.319,-91.829 c -4.403,-12.509 2.169,-26.218 14.678,-30.62 12.509,-4.403 26.219,2.169 30.62,14.678 l 35.018,99.498 c 1.751,4.974 1.815,10.386 0.183,15.4 l -35.018,107.638 c -4.096,12.591 -17.637,19.51 -30.26,15.403 z"
         fill="#5a2d19"
         id="path15"
         style="stroke-width:6.51966" />
    </g>
    <g
       id="g20"
       style="stroke-width:3.47062">
      <path
         d="m 172.947,115.893 h -51.599 c -15.562,0 -28.178,12.615 -28.178,28.178 V 301.535 H 201.125 V 144.071 c 0,-15.563 -12.616,-28.178 -28.178,-28.178 z"
         fill="#dc1428"
         id="path18"
         style="stroke-width:6.51966" />
    </g>
    <circle
       cx="169.866"
       cy="67.343002"
       fill="#ffb69e"
       transform="matrix(0.969,-0.249,0.249,0.969,-11.412,44.37)"
       id="ellipse22"
       r="42.494999"
       style="stroke-width:6.51966" />
    <g
       id="g28"
       style="stroke-width:3.47062">
      <g
         id="g26"
         style="stroke-width:3.47062">
        <path
           d="M 330.092,271.286 197.12,148.404 c -1.19,-1.1 -1.875,-2.64 -1.895,-4.26 -0.02,-1.62 0.627,-3.177 1.789,-4.306 L 329.559,11.112 337.78,19.577 209.703,143.965 338.101,262.62 Z"
           fill="#b48255"
           id="path24"
           style="stroke-width:6.51966" />
      </g>
    </g>
    <g
       id="g32"
       style="stroke-width:3.47062">
      <path
         d="m 314.647,272.481 c 0,-3.802 2.169,-7.235 5.552,-8.97 19.306,-9.905 27.99,-49.172 21.483,-81.866 -3.613,-17.696 -9.426,-22.352 -9.518,-40.329 0.005,-9.305 1.847,-16.331 5.009,-24.69 13.222,-33.469 5.723,-86.031 -17.15,-97.581 -3.354,-1.694 -5.376,-5.23 -5.376,-8.988 0,-6.497 6.086,-11.315 12.395,-9.763 18.135,4.46 32.506,22.622 40.067,41.534 20.659,50.908 -3.837,100.874 0.554,88.793 -1.142,3.245 -1.854,6.447 -1.877,10.695 -0.024,5.59 1.301,9.162 2.71,13.029 19.755,55.598 -5.576,119.27 -41.62,128.011 -6.246,1.515 -12.229,-3.37 -12.229,-9.797 z"
         fill="#783c28"
         id="path30"
         style="stroke-width:6.51966" />
    </g>
    <g
       id="g38"
       style="stroke-width:3.47062">
      <g
         id="g36"
         style="stroke-width:3.47062">
        <path
           d="m 204.833,144.661 c 0.004,-4.616 3.75,-8.355 8.366,-8.351 l 192.819,0.174 -0.016,16.718 -192.818,-0.174 c -4.616,-0.005 -8.355,-3.751 -8.351,-8.367 z"
           fill="#6c9baa"
           id="path34"
           style="stroke-width:6.51966" />
      </g>
    </g>
    <g
       id="XMLID_1052_"
       style="stroke-width:3.47062">
      <g
         id="g42"
         style="stroke-width:3.47062">
        <path
           d="m 232.314,178.946 -16.385,-13.741 -42.851,22.182 -27.5,-49.145 c -5.535,-9.893 -18.044,-13.424 -27.935,-7.889 -9.893,5.535 -13.425,18.043 -7.889,27.935 l 37.203,66.484 c 5.434,9.711 17.557,13.274 27.348,8.205 l 59.467,-30.783 z"
           fill="#dcbe82"
           id="path40"
           style="stroke-width:6.51966" />
      </g>
    </g>
    <g
       id="XMLID_102_"
       style="stroke-width:3.47062">
      <g
         id="g47"
         style="stroke-width:3.47062">
        <path
           d="m 233.771,202.195 11.595,-6.002 c 10.067,-5.211 14.004,-17.597 8.792,-27.664 -5.21,-10.066 -17.595,-14.004 -27.664,-8.792 l -10.565,5.469 z"
           fill="#ffb69e"
           id="path45"
           style="stroke-width:6.51966" />
      </g>
    </g>
    <path
       d="m 404.242,123.345 -6.608,20.825 7.49,20.839 27.259,-20.805 z"
       fill="#a5c8cd"
       id="path50"
       style="stroke-width:6.51966" />
  </g>
</svg>
