<?xml version="1.0" encoding="UTF-8" standalone="no"?>
<svg
   xmlns:dc="http://purl.org/dc/elements/1.1/"
   xmlns:cc="http://creativecommons.org/ns#"
   xmlns:rdf="http://www.w3.org/1999/02/22-rdf-syntax-ns#"
   xmlns:svg="http://www.w3.org/2000/svg"
   xmlns="http://www.w3.org/2000/svg"
   xmlns:sodipodi="http://sodipodi.sourceforge.net/DTD/sodipodi-0.dtd"
   xmlns:inkscape="http://www.inkscape.org/namespaces/inkscape"
   height="170pt"
   viewBox="0 -61 160 170"
   width="160pt"
   version="1.1"
   id="svg32"
   sodipodi:docname="area.svg"
   inkscape:version="1.0.2 (e86c870879, 2021-01-15, custom)">
  <metadata
     id="metadata38">
    <rdf:RDF>
      <cc:Work
         rdf:about="">
        <dc:format>image/svg+xml</dc:format>
        <dc:type
           rdf:resource="http://purl.org/dc/dcmitype/StillImage" />
        <dc:title></dc:title>
      </cc:Work>
    </rdf:RDF>
  </metadata>
  <defs
     id="defs36" />
  <sodipodi:namedview
     pagecolor="#ffffff"
     bordercolor="#666666"
     borderopacity="1"
     objecttolerance="10"
     gridtolerance="10"
     guidetolerance="10"
     inkscape:pageopacity="0"
     inkscape:pageshadow="2"
     inkscape:window-width="1920"
     inkscape:window-height="1017"
     id="namedview34"
     showgrid="false"
     inkscape:zoom="1.7608616"
     inkscape:cx="62.148917"
     inkscape:cy="159.84173"
     inkscape:window-x="-8"
     inkscape:window-y="-8"
     inkscape:window-maximized="1"
     inkscape:current-layer="svg32" />
  <path
     d="m 82.50282,80.372406 c -0.643621,0.297103 -1.328418,0.4524 -2.019717,0.463656 -0.03359,0.0031 -0.06935,0.0031 -0.102936,0.0031 -0.723802,0 -1.444357,-0.155297 -2.118317,-0.467024 L 12.457416,49.952137 c -1.874523,-0.867672 -3.0870034,-2.803333 -3.0870034,-4.933686 0,-2.128103 1.2124804,-4.063764 3.0870034,-4.930309 L 78.258597,9.6667479 c 0.67396,-0.3139815 1.397764,-0.4692868 2.121567,-0.4670334 H 80.4831 c 0.691299,0.01239 1.376096,0.1699318 2.019717,0.4670334 L 148.30401,40.088142 c 1.87561,0.866545 3.087,2.802206 3.087,4.930309 0,2.130353 -1.21139,4.066014 -3.087,4.933686"
     fill="#00ceb3"
     id="path2"
     style="stroke-width:0.999999" />
  <path
     d="m 151.39101,45.018451 c 0,2.130353 -1.21139,4.066014 -3.087,4.933686 L 82.50282,80.372406 c -0.643621,0.297103 -1.328418,0.4524 -2.019717,0.463656 V 9.1997145 c 0.691299,0.011267 1.376096,0.1699318 2.019717,0.4670334 l 65.80119,30.4213941 c 1.87561,0.866545 3.087,2.802206 3.087,4.930309 z m 0,0"
     fill="#00ae93"
     id="path4"
     style="stroke-width:0.999999" />
  <path
     d="m 151.3921,24.781789 c 0,2.131476 -1.21248,4.067137 -3.08701,4.933685 L 82.503902,60.136868 c -0.643622,0.297102 -1.328419,0.452404 -2.019717,0.463657 -0.0325,0.0023 -0.06935,0.0023 -0.10185,0.0023 -0.724891,0 -1.445442,-0.155302 -2.119405,-0.465907 L 12.4585,29.715474 c -1.875607,-0.866548 -3.0870039,-2.802209 -3.0870039,-4.933685 0,-2.128103 1.2113969,-4.06264 3.0870039,-4.930312 l 65.801179,-30.421393 c 0.673961,-0.313982 1.397764,-0.469285 2.12157,-0.46591 h 0.102936 c 0.690214,0.01126 1.376095,0.169934 2.019717,0.46591 l 65.801188,30.421393 c 1.87453,0.867672 3.08701,2.802209 3.08701,4.930312 z m 0,0"
     fill="#ca5c49"
     id="path6"
     style="stroke-width:0.999999" />
  <path
     d="m 151.3921,24.781789 c 0,2.131476 -1.21248,4.067137 -3.08701,4.933685 L 82.503902,60.136868 c -0.643622,0.297102 -1.328419,0.452404 -2.019717,0.463657 v -71.636351 c 0.691298,0.01126 1.376095,0.169934 2.019717,0.46591 l 65.801188,30.421393 c 1.87453,0.867672 3.08701,2.802209 3.08701,4.930312 z m 0,0"
     fill="#9e4127"
     id="path8"
     style="stroke-width:0.999999" />
  <path
     d="m 151.39101,4.3009146 c 0,2.1303525 -1.21139,4.0660136 -3.087,4.9325618 L 82.50282,39.65487 c -0.643621,0.297102 -1.328418,0.452404 -2.019717,0.463658 -0.03359,0.0033 -0.06935,0.0033 -0.102936,0.0033 -0.723802,0 -1.444357,-0.156429 -2.118317,-0.467034 L 12.457416,9.2334764 C 10.582893,8.3669282 9.3704126,6.4312671 9.3704126,4.3009146 c 0,-2.1281023 1.2124804,-4.06376335 3.0870034,-4.93143515 L 78.258597,-31.050788 c 0.67396,-0.313982 1.397764,-0.469286 2.121567,-0.467034 H 80.4831 c 0.691302,0.01126 1.376099,0.169932 2.01972,0.467034 l 65.80119,30.42026745 c 1.87561,0.8676718 3.087,2.80333285 3.087,4.93143515 z m 0,0"
     fill="#a2ee00"
     id="path10"
     style="stroke-width:0.999999" />
  <g
     fill="#76d400"
     id="g18"
     transform="matrix(0.27738608,0,0,0.28809842,9.3704126,-31.518947)"
     style="stroke-width:3.53742">
    <path
       d="m 511.99609,124.33203 c 0,7.39453 -4.36718,14.11328 -11.1289,17.1211 L 263.64844,247.04688 c -2.32031,1.03125 -4.78906,1.57031 -7.28125,1.60937 V 0.00390625 C 258.85938,0.0429688 261.32813,0.59375 263.64844,1.621094 L 500.86719,107.21484 c 6.76172,3.01172 11.1289,9.73047 11.1289,17.11719 z m 0,0"
       id="path12"
       style="stroke-width:3.53742" />
    <path
       d="M 175.57031,118.77344 68.558594,167.01563 11.128906,141.45313 C 4.371094,138.44531 0,131.72656 0,124.33203 0,116.94531 4.371094,110.22656 11.128906,107.21484 L 81.460938,75.90625 Z m 0,0"
       id="path14"
       style="stroke-width:3.53742" />
    <path
       d="m 360.69922,203.85156 -97.05078,43.19532 c -2.32031,1.03125 -4.78906,1.57031 -7.28125,1.60937 -0.11719,0.0117 -0.25,0.0117 -0.36719,0.0117 -0.10156,0 -0.21094,0 -0.3125,-0.0117 -2.50781,-0.0312 -5,-0.57031 -7.32812,-1.60937 L 151.80078,204.07422 256,156.21875 l 0.36719,0.17188 z m 0,0"
       id="path16"
       style="stroke-width:3.53742" />
  </g>
  <path
     d="m 151.39101,4.3009146 c 0,2.1303525 -1.21139,4.0660136 -3.087,4.9325618 l -15.79692,7.3037446 -29.61098,-13.8208473 26.02987,-12.3060801 19.37803,8.95918585 c 1.87561,0.8676718 3.087,2.80333285 3.087,4.93143515 z m 0,0"
     fill="#00bd00"
     id="path20"
     style="stroke-width:0.999999" />
  <path
     d="M 106.97889,-19.736173 80.483103,-7.6776784 53.915798,-19.799194 78.258597,-31.050788 c 0.705384,-0.328612 1.468196,-0.483915 2.224506,-0.467034 0.691299,0.01126 1.376096,0.169932 2.019717,0.467034 z m 0,0"
     fill="#76d400"
     id="path22"
     style="stroke-width:0.999999" />
  <path
     d="M 102.89611,2.7163737 80.483103,13.439037 80.380167,13.487432 58.071176,2.6994969 80.483106,-7.6776754 Z m 0,0"
     fill="#76d400"
     id="path24"
     style="stroke-width:0.999999" />
  <path
     d="M 102.89611,2.7163737 80.483103,13.439037 V -7.6776784 Z m 0,0"
     fill="#00bd00"
     id="path26"
     style="stroke-width:0.999999" />
  <path
     d="M 106.97889,-19.736173 80.483103,-7.6776784 V -31.517822 c 0.691299,0.01126 1.376096,0.169932 2.019717,0.465908 z m 0,0"
     fill="#00bd00"
     id="path28"
     style="stroke-width:0.999999" />
  <path
     d="M 109.42336,27.210366 82.50282,39.65487 c -0.643621,0.297102 -1.328418,0.452404 -2.019717,0.463658 V 13.536947 Z m 0,0"
     fill="#00bd00"
     id="path30"
     style="stroke-width:0.999999" />
</svg>
