<?xml version="1.0" encoding="UTF-8" standalone="no"?>
<svg
   xmlns:dc="http://purl.org/dc/elements/1.1/"
   xmlns:cc="http://creativecommons.org/ns#"
   xmlns:rdf="http://www.w3.org/1999/02/22-rdf-syntax-ns#"
   xmlns:svg="http://www.w3.org/2000/svg"
   xmlns="http://www.w3.org/2000/svg"
   xmlns:sodipodi="http://sodipodi.sourceforge.net/DTD/sodipodi-0.dtd"
   xmlns:inkscape="http://www.inkscape.org/namespaces/inkscape"
   height="170pt"
   viewBox="0 -27 160.28402 170"
   width="160pt"
   version="1.1"
   id="svg82"
   sodipodi:docname="army.svg"
   inkscape:version="1.0.2 (e86c870879, 2021-01-15, custom)">
  <metadata
     id="metadata88">
    <rdf:RDF>
      <cc:Work
         rdf:about="">
        <dc:format>image/svg+xml</dc:format>
        <dc:type
           rdf:resource="http://purl.org/dc/dcmitype/StillImage" />
        <dc:title></dc:title>
      </cc:Work>
    </rdf:RDF>
  </metadata>
  <defs
     id="defs86" />
  <sodipodi:namedview
     pagecolor="#ffffff"
     bordercolor="#666666"
     borderopacity="1"
     objecttolerance="10"
     gridtolerance="10"
     guidetolerance="10"
     inkscape:pageopacity="0"
     inkscape:pageshadow="2"
     inkscape:window-width="1920"
     inkscape:window-height="1017"
     id="namedview84"
     showgrid="false"
     inkscape:zoom="2.4951076"
     inkscape:cx="105.13732"
     inkscape:cy="97.365422"
     inkscape:window-x="-8"
     inkscape:window-y="-8"
     inkscape:window-maximized="1"
     inkscape:current-layer="svg82" />
  <path
     d="m 56.013155,100.50629 v 22.55359 L 43.966131,118.42362 39.123792,59.684208 56.013155,50.387216 Z m 0,0"
     fill="#aab2bd"
     id="path2"
     style="stroke-width:1" />
  <path
     d="M 104.20125,50.387216 80.107202,59.684208 56.013155,50.387216 80.08367,37.130623 h 0.02352 z m 0,0"
     fill="#434a54"
     id="path4"
     style="stroke-width:1" />
  <path
     d="m 104.20125,75.446755 v 25.059535 l -24.094048,9.29699 -24.094047,-9.29699 V 75.446755 l 24.094047,9.296993 z m 0,0"
     fill="#434a54"
     id="path6"
     style="stroke-width:1" />
  <path
     d="m 104.20125,100.50629 v 22.55359 l -24.094048,9.29699 -24.094047,-9.29699 v -22.55359 l 24.094047,9.29699 z m 0,0"
     fill="#656d78"
     id="path8"
     style="stroke-width:1" />
  <path
     d="M 104.20125,50.387216 V 75.446755 L 80.107202,84.743748 56.013155,75.446755 V 50.387216 l 24.094047,9.296992 z m 0,0"
     fill="#656d78"
     id="path10"
     style="stroke-width:1" />
  <path
     d="m 121.06708,59.684208 -4.81881,58.739412 -12.04702,4.63626 V 50.387216 Z m 0,0"
     fill="#aab2bd"
     id="path12"
     style="stroke-width:1" />
  <path
     d="m 123.47649,33.146548 9.63761,11.602271 16.86584,-7.618196 2.4094,15.035723 -21.68464,5.011908 -3.01175,-10.023816 z m 0,0"
     fill="#aab2bd"
     id="path14"
     style="stroke-width:1" />
  <path
     d="m 143.23407,19.588945 11.54115,15.386898 -4.79528,2.15478 -16.86584,7.618196 -9.63761,-11.602271 -11.25174,-13.557603 20.14347,12.555465 z m 0,0"
     fill="#ccd1d9"
     id="path16"
     style="stroke-width:1" />
  <path
     d="m 147.57053,14.577036 -4.33646,5.011909 -10.86585,12.555465 -20.14347,-12.555465 -8.0235,-5.011909 12.04702,-20.0476312 z m 0,0"
     fill="#aab2bd"
     id="path18"
     style="stroke-width:1" />
  <path
     d="M 104.20125,-5.4705952 80.107202,14.577036 56.013155,-5.4705952 Z m 0,0"
     fill="#434a54"
     id="path20"
     style="stroke-width:1" />
  <path
     d="M 80.107202,14.577036 104.20125,-5.4705952 h 12.04702 l -12.04702,20.0476312 8.0235,5.011909 11.25174,13.557603 4.21646,14.00789 -6.62587,12.52977 -16.86583,-9.296992 -24.094048,-13.256593 h -0.02352 L 56.013165,50.387216 39.1238,59.684208 32.497938,47.154438 36.714396,33.146548 47.966128,19.588945 55.989633,14.577036 43.94261,-5.4705952 h 12.070555 z m 0,0"
     fill="#656d78"
     id="path22"
     style="stroke-width:1" />
  <path
     d="M 32.497928,47.154438 29.486173,57.178254 7.8015313,52.166346 10.210936,37.130623 27.076768,44.748819 36.714387,33.146548 Z m 0,0"
     fill="#aab2bd"
     id="path24"
     style="stroke-width:1" />
  <path
     d="M 47.96612,19.588945 36.714387,33.146548 27.076768,44.748819 10.210936,37.130623 5.415656,34.975843 16.956798,19.588945 27.823825,32.14441 Z m 0,0"
     fill="#ccd1d9"
     id="path26"
     style="stroke-width:1" />
  <path
     d="M 43.942601,-5.4705952 55.989624,14.577036 47.96612,19.588945 27.823825,32.14441 16.956798,19.588945 12.62034,14.577036 Z m 0,0"
     fill="#aab2bd"
     id="path28"
     style="stroke-width:1" />
  <path
     d="m 43.952013,120.92223 c -1.237642,0 -2.290582,-0.98745 -2.397641,-2.29304 L 36.767327,60.425714 30.392053,48.362142 c -0.643528,-1.210154 -0.216471,-2.735995 0.951762,-3.400414 1.161173,-0.666868 2.630579,-0.225144 3.269403,0.989899 l 6.623507,12.52977 c 0.161177,0.305905 0.260002,0.644845 0.289412,0.992348 l 4.830575,58.732075 c 0.112941,1.379 -0.867057,2.59161 -2.195289,2.70907 -0.06941,0.005 -0.141176,0.008 -0.20941,0.008 z m 0,0"
     id="path30"
     style="stroke-width:1" />
  <path
     d="m 27.823825,34.660153 c -0.662352,0 -1.319997,-0.286324 -1.790583,-0.829608 L 10.829758,16.253383 c -0.47647,-0.553072 -0.696469,-1.298252 -0.595293,-2.034865 0.104705,-0.736613 0.51647,-1.387573 1.123527,-1.776682 L 42.680251,-7.6057958 c 1.136467,-0.726824 2.616462,-0.360964 3.315286,0.8198186 0.696468,1.180784 0.344705,2.723757 -0.788234,3.4481343 L 16.345036,15.136226 28.286177,28.943446 54.748453,12.4296 c 1.144702,-0.714588 2.624696,-0.325481 3.305872,0.860198 0.684704,1.186902 0.315292,2.726204 -0.825881,3.437122 L 29.062645,34.304082 c -0.385882,0.238604 -0.815292,0.356071 -1.23882,0.356071 z m 0,0"
     id="path32"
     style="stroke-width:1" />
  <path
     d="m 27.076768,47.252327 c -0.324705,0 -0.650585,-0.0673 -0.95882,-0.208013 L 4.4591882,37.271338 C 3.7780137,36.962987 3.26978,36.34384 3.0862511,35.592543 2.9003691,34.840024 3.0627218,34.043453 3.5227204,33.431647 L 15.059157,18.048419 c 0.814114,-1.092684 2.329405,-1.288462 3.379989,-0.434383 1.050586,0.850411 1.236468,2.42642 0.41647,3.516657 L 9.2356448,33.961471 26.414417,41.714266 46.137888,17.952977 c 0.864705,-1.052305 2.391759,-1.164877 3.396462,-0.260629 1.007056,0.901801 1.121171,2.486376 0.250588,3.533787 l -20.87994,25.156203 c -0.471763,0.566534 -1.143525,0.869989 -1.82823,0.869989 z m 0,0"
     id="path34"
     style="stroke-width:1" />
  <path
     d="m 29.488526,59.684208 c -0.172941,0 -0.351763,-0.01958 -0.524704,-0.05751 L 7.2791798,54.614788 C 6.0285952,54.327243 5.2156564,53.071816 5.4238913,51.755213 L 7.8227075,36.719489 c 0.2176467,-1.36555 1.4611723,-2.295494 2.7717565,-2.059336 1.312937,0.225144 2.198817,1.516052 1.979995,2.881603 l -2.025877,12.692509 17.294066,3.997536 6.570567,-21.847565 c 0.395293,-1.320274 1.739998,-2.059336 3.018816,-1.640861 1.268232,0.411133 1.976465,1.81951 1.57882,3.139785 l -7.228215,24.045167 c -0.318822,1.062092 -1.259996,1.755881 -2.29411,1.755881 z m 0,0"
     id="path36"
     style="stroke-width:1" />
  <path
     d="m 116.23886,120.92223 c -0.0671,0 -0.14,-0.002 -0.20706,-0.01 -1.32705,-0.11746 -2.30823,-1.33006 -2.19528,-2.70907 l 4.83174,-58.732073 c 0.0283,-0.351175 0.12706,-0.686447 0.28824,-0.992349 l 6.62351,-12.529769 c 0.64117,-1.212597 2.11058,-1.654321 3.27058,-0.989902 1.16588,0.666869 1.59176,2.190263 0.95058,3.400413 l -6.37527,12.063575 -4.78705,58.203475 c -0.10823,1.30804 -1.16117,2.2955 -2.39999,2.2955 z m 0,0"
     id="path38"
     style="stroke-width:1" />
  <path
     d="m 132.36822,34.660153 c -0.42706,0 -0.85293,-0.117467 -1.24117,-0.358518 l -28.1658,-17.577163 c -1.14235,-0.710917 -1.51059,-2.25022 -0.82706,-3.437122 0.68471,-1.185677 2.16118,-1.574786 3.30588,-0.860197 l 26.46228,16.513846 11.94113,-13.80722 -28.85991,-18.4691746 c -1.13177,-0.7243772 -1.48352,-2.2673506 -0.78705,-3.4481336 0.69294,-1.1807846 2.17293,-1.5466436 3.31528,-0.8198186 l 31.32226,20.0476318 c 0.60705,0.389107 1.01882,1.040068 1.12235,1.776681 0.10112,0.737838 -0.11765,1.481792 -0.5953,2.034864 L 134.15763,33.83299 c -0.46941,0.538389 -1.1247,0.827163 -1.78941,0.827163 z m 0,0"
     id="path40"
     style="stroke-width:1" />
  <path
     d="m 133.1141,47.252327 c -0.68353,0 -1.35646,-0.303455 -1.82352,-0.869989 L 110.41064,21.226135 c -0.86941,-1.047411 -0.75647,-2.631986 0.25059,-3.533787 1.0047,-0.904248 2.53058,-0.791676 3.39763,0.260629 l 19.72348,23.761289 17.17878,-7.752795 -9.62116,-12.830778 c -0.81882,-1.092684 -0.63294,-2.666246 0.41764,-3.516657 1.04824,-0.854079 2.56353,-0.658301 3.37999,0.434383 l 11.53644,15.383228 c 0.45765,0.611806 0.62118,1.410823 0.4353,2.160896 -0.18236,0.751297 -0.69059,1.370444 -1.37294,1.678795 l -21.65758,9.772976 c -0.31647,0.140713 -0.64118,0.208013 -0.96471,0.208013 z m 0,0"
     id="path42"
     style="stroke-width:1" />
  <path
     d="m 130.70235,59.684208 c -1.03294,0 -1.97529,-0.69134 -2.29529,-1.755881 L 121.17884,33.88316 c -0.39764,-1.320275 0.3106,-2.728652 1.57765,-3.139785 1.27764,-0.416026 2.62117,0.323034 3.01881,1.640861 l 6.57057,21.847565 17.29524,-3.997536 -2.02705,-12.692509 c -0.21882,-1.365551 0.66824,-2.658905 1.98117,-2.881603 1.33412,-0.25084 2.55647,0.696235 2.77058,2.059336 l 2.4,15.035724 c 0.20941,1.314157 -0.6047,2.56958 -1.8553,2.859575 l -21.68463,5.011909 c -0.17413,0.03793 -0.34941,0.05751 -0.52353,0.05751 z m 0,0"
     id="path44"
     style="stroke-width:1" />
  <path
     d="M 116.24827,-2.9646415 H 43.942601 c -1.332937,0 -2.409405,-1.1196035 -2.409405,-2.5059537 0,-1.385128 1.076468,-2.5059536 2.409405,-2.5059536 h 72.305669 c 1.33294,0 2.40941,1.1208256 2.40941,2.5059536 0,1.3863502 -1.07647,2.5059537 -2.40941,2.5059537 z m 0,0"
     id="path46"
     style="stroke-width:1" />
  <path
     d="m 39.126144,62.190162 c -0.86235,0 -1.698818,-0.483326 -2.131758,-1.332513 -0.624704,-1.22361 -0.174118,-2.739662 1.002349,-3.388175 l 40.95988,-22.553585 c 1.179996,-0.649738 2.632934,-0.17865 3.256461,1.042514 0.624704,1.222386 0.174118,2.738441 -1.002349,3.388178 L 40.250848,61.900167 c -0.361176,0.196999 -0.745883,0.289995 -1.124704,0.289995 z m 0,0"
     id="path48"
     style="stroke-width:1" />
  <path
     d="m 121.05297,62.190162 c -0.37766,0 -0.76353,-0.093 -1.12471,-0.289995 L 78.968381,39.346581 c -1.176466,-0.649737 -1.627055,-2.163343 -1.002351,-3.388178 0.623527,-1.221164 2.074112,-1.692252 3.257638,-1.042514 l 40.959882,22.553585 c 1.17528,0.648513 1.62588,2.162118 1.00235,3.388175 -0.43412,0.849187 -1.27059,1.332513 -2.13293,1.332513 z m 0,0"
     id="path50"
     style="stroke-width:1" />
  <path
     d="m 80.095435,62.190162 c -0.276471,0 -0.561175,-0.05017 -0.837644,-0.157847 L 55.163744,52.737772 c -1.248231,-0.480879 -1.8847,-1.924739 -1.422348,-3.220542 0.459998,-1.297028 1.850583,-1.961447 3.096462,-1.478122 l 24.094047,9.294543 c 1.248231,0.480881 1.883522,1.924739 1.421172,3.220543 -0.358824,1.011926 -1.278822,1.635968 -2.257642,1.635968 z m 0,0"
     id="path52"
     style="stroke-width:1" />
  <path
     d="m 80.095435,62.190162 c -0.977643,0 -1.898816,-0.624042 -2.259992,-1.633522 -0.462353,-1.29825 0.174116,-2.739662 1.422348,-3.220542 l 24.094049,-9.294543 c 1.24705,-0.483326 2.63293,0.181093 3.09528,1.479347 0.46235,1.297025 -0.17294,2.738437 -1.42117,3.219317 l -24.094045,9.294542 c -0.275296,0.105237 -0.558822,0.155401 -0.83647,0.155401 z m 0,0"
     id="path54"
     style="stroke-width:1" />
  <path
     d="m 80.095435,87.249701 c -0.276471,0 -0.561175,-0.05017 -0.837644,-0.157847 L 55.163744,77.797312 c -1.248231,-0.48088 -1.8847,-1.924738 -1.422348,-3.220543 0.459998,-1.297028 1.850583,-1.963894 3.096462,-1.47812 l 24.094047,9.294542 c 1.248231,0.48088 1.883522,1.924738 1.421172,3.220543 -0.358824,1.011925 -1.278822,1.635967 -2.257642,1.635967 z m 0,0"
     id="path56"
     style="stroke-width:1" />
  <path
     d="m 80.095435,87.249701 c -0.977643,0 -1.898816,-0.624042 -2.259992,-1.633521 -0.462353,-1.298251 0.174116,-2.739662 1.422348,-3.220543 l 24.094049,-9.294543 c 1.24705,-0.488222 2.63293,0.181094 3.09528,1.479344 0.46235,1.297028 -0.17294,2.738441 -1.42117,3.21932 l -24.094045,9.294543 c -0.275296,0.105236 -0.558822,0.1554 -0.83647,0.1554 z m 0,0"
     id="path58"
     style="stroke-width:1" />
  <path
     d="m 80.095435,112.30924 c -0.276471,0 -0.561175,-0.0502 -0.837644,-0.15785 l -24.094047,-9.29454 c -1.248231,-0.48088 -1.8847,-1.92473 -1.422348,-3.22054 0.459998,-1.29703 1.850583,-1.961449 3.096462,-1.478122 l 24.094047,9.294542 c 1.248231,0.48088 1.883522,1.92474 1.421172,3.22054 -0.358824,1.01192 -1.278822,1.63597 -2.257642,1.63597 z m 0,0"
     id="path60"
     style="stroke-width:1" />
  <path
     d="m 80.095435,112.30924 c -0.977643,0 -1.898816,-0.62405 -2.259992,-1.63353 -0.462353,-1.29824 0.174116,-2.73965 1.422348,-3.22054 l 24.094049,-9.294535 c 1.24705,-0.483327 2.63293,0.181092 3.09528,1.479342 0.46235,1.297033 -0.17294,2.738443 -1.42117,3.219323 l -24.094045,9.29454 c -0.275296,0.10518 -0.558822,0.1554 -0.83647,0.1554 z m 0,0"
     id="path62"
     style="stroke-width:1" />
  <path
     d="m 80.095435,134.86283 c -0.276471,0 -0.561175,-0.0502 -0.837644,-0.15785 L 43.11672,120.76439 c -1.248231,-0.48088 -1.884699,-1.92474 -1.422347,-3.22055 0.459998,-1.29702 1.855287,-1.96633 3.096462,-1.47811 l 36.14107,13.94059 c 1.248231,0.48087 1.883522,1.92474 1.421172,3.22054 -0.358824,1.01192 -1.278822,1.63597 -2.257642,1.63597 z m 0,0"
     id="path64"
     style="stroke-width:1" />
  <path
     d="m 80.095435,134.86283 c -0.977643,0 -1.898816,-0.62405 -2.259992,-1.63353 -0.462353,-1.29824 0.174116,-2.73965 1.422348,-3.22054 l 36.141069,-13.94059 c 1.24706,-0.48822 2.63529,0.1811 3.09529,1.47934 0.46235,1.29703 -0.17294,2.73844 -1.42117,3.21933 l -36.141075,13.94059 c -0.275296,0.10518 -0.558822,0.1554 -0.83647,0.1554 z m 0,0"
     id="path66"
     style="stroke-width:1" />
  <path
     d="m 55.991976,17.08299 c -0.80235,0 -1.588228,-0.416027 -2.045877,-1.177113 L 41.899076,-4.1417548 c -0.70588,-1.1758894 -0.361176,-2.7213094 0.763529,-3.453028 1.132938,-0.737837 2.615285,-0.37932 3.321166,0.7941226 L 58.030794,13.246972 c 0.70588,1.174665 0.361176,2.721309 -0.764703,3.453028 -0.396467,0.260629 -0.837645,0.38299 -1.274115,0.38299 z m 0,0"
     id="path68"
     style="stroke-width:1" />
  <path
     d="m 104.19889,17.08299 c -0.43529,0 -0.87646,-0.122361 -1.27411,-0.380542 -1.12705,-0.73172 -1.46941,-2.278363 -0.76353,-3.453029 l 12.04703,-20.0476322 c 0.70352,-1.1758896 2.1894,-1.5319596 3.31999,-0.7941226 1.12705,0.7317196 1.4694,2.2771386 0.76352,3.4530284 L 106.24477,15.908324 c -0.45764,0.758639 -1.24352,1.174666 -2.04588,1.174666 z m 0,0"
     id="path70"
     style="stroke-width:1" />
  <path
     d="m 80.093082,17.08299 c -0.527057,0 -1.057644,-0.177424 -1.503525,-0.548177 L 54.49551,-3.5128189 c -1.037643,-0.8675404 -1.207055,-2.4435493 -0.375292,-3.5239969 0.835293,-1.074331 2.349404,-1.255425 3.387048,-0.390332 L 81.601312,12.620484 c 1.038822,0.866316 1.207058,2.443549 0.37647,3.522773 -0.477643,0.6167 -1.176467,0.939733 -1.8847,0.939733 z m 0,0"
     id="path72"
     style="stroke-width:1" />
  <path
     d="m 80.09779,17.08299 c -0.708235,0 -1.407057,-0.320585 -1.883525,-0.939733 -0.831763,-1.082895 -0.659999,-2.658905 0.375292,-3.522773 L 102.6836,-7.4271478 c 1.04353,-0.86754 2.55882,-0.688893 3.38823,0.390332 0.82823,1.0804476 0.66,2.6589042 -0.37647,3.5239969 L 81.601312,16.534813 c -0.44588,0.370753 -0.975291,0.548177 -1.503522,0.548177 z m 0,0"
     id="path74"
     style="stroke-width:1" />
  <path
     d="m 80.095435,24.600852 c -1.33176,0 -2.409405,-1.119603 -2.409405,-2.505954 v -7.517862 c 0,-1.385127 1.077645,-2.505954 2.409405,-2.505954 1.332936,0 2.409404,1.120827 2.409404,2.505954 v 7.517862 c 0,1.386351 -1.076468,2.505954 -2.409404,2.505954 z m 0,0"
     id="path76"
     style="stroke-width:1" />
  <path
     d="m 56.001389,125.56339 c -1.33176,0 -2.409406,-1.11961 -2.409406,-2.50596 V 50.389663 c 0,-1.385125 1.077646,-2.505955 2.409406,-2.505955 1.332935,0 2.409404,1.12083 2.409404,2.505955 v 72.667767 c 0,1.38635 -1.076469,2.50596 -2.409404,2.50596 z m 0,0"
     id="path78"
     style="stroke-width:1" />
  <path
     d="m 104.18948,125.56339 c -1.33176,0 -2.4094,-1.11961 -2.4094,-2.50596 V 50.389663 c 0,-1.385125 1.07764,-2.505955 2.4094,-2.505955 1.33294,0 2.40941,1.12083 2.40941,2.505955 v 72.667767 c 0,1.38635 -1.07647,2.50596 -2.40941,2.50596 z m 0,0"
     id="path80"
     style="stroke-width:1" />
</svg>
