<?xml version="1.0" encoding="UTF-8" standalone="no"?>
<svg
   xmlns:dc="http://purl.org/dc/elements/1.1/"
   xmlns:cc="http://creativecommons.org/ns#"
   xmlns:rdf="http://www.w3.org/1999/02/22-rdf-syntax-ns#"
   xmlns:svg="http://www.w3.org/2000/svg"
   xmlns="http://www.w3.org/2000/svg"
   xmlns:sodipodi="http://sodipodi.sourceforge.net/DTD/sodipodi-0.dtd"
   xmlns:inkscape="http://www.inkscape.org/namespaces/inkscape"
   version="1.1"
   id="Capa_1"
   x="0px"
   y="0px"
   viewBox="0 0 160 170"
   xml:space="preserve"
   width="160"
   height="170"
   sodipodi:docname="balance.svg"
   inkscape:version="1.0.2 (e86c870879, 2021-01-15, custom)"><metadata
   id="metadata73"><rdf:RDF><cc:Work
       rdf:about=""><dc:format>image/svg+xml</dc:format><dc:type
         rdf:resource="http://purl.org/dc/dcmitype/StillImage" /><dc:title></dc:title></cc:Work></rdf:RDF></metadata><defs
   id="defs71" /><sodipodi:namedview
   pagecolor="#ffffff"
   bordercolor="#666666"
   borderopacity="1"
   objecttolerance="10"
   gridtolerance="10"
   guidetolerance="10"
   inkscape:pageopacity="0"
   inkscape:pageshadow="2"
   inkscape:window-width="1920"
   inkscape:window-height="1017"
   id="namedview69"
   showgrid="false"
   inkscape:zoom="2.3478155"
   inkscape:cx="115.00004"
   inkscape:cy="114.64326"
   inkscape:window-x="-8"
   inkscape:window-y="-8"
   inkscape:window-maximized="1"
   inkscape:current-layer="Capa_1" />
<g
   id="g66"
   transform="matrix(0.28941315,0,0,0.28457812,5.1111342,19.27809)"
   style="stroke-width:3.4845">
	<path
   style="fill:#feca57;stroke-width:3.4845"
   d="m 151.977,297.818 c -4.385,32.7 -32.377,57.924 -66.278,57.924 -33.901,0 -61.892,-25.224 -66.278,-57.924 z"
   id="path2" />
	<path
   style="fill:#ccd2db;stroke-width:3.4845"
   d="M 148.13,284.974 90.424,128.943 c -1.48,-4.002 0.564,-8.447 4.567,-9.927 4.001,-1.482 8.447,0.564 9.927,4.567 l 57.706,156.031 c 1.48,4.002 -0.564,8.447 -4.567,9.927 -3.997,1.479 -8.445,-0.561 -9.927,-4.567 z"
   id="path4" />
	<path
   style="fill:#ccd2db;stroke-width:3.4845"
   d="m 19.566,289.541 c -4.002,-1.48 -6.047,-5.925 -4.567,-9.927 L 72.705,123.583 c 1.48,-4.002 5.922,-6.049 9.927,-4.567 4.002,1.48 6.047,5.925 4.567,9.927 L 29.493,284.974 c -1.48,4.002 -5.925,6.047 -9.927,4.567 z"
   id="path6" />
	<path
   style="fill:#ccd2db;stroke-width:3.4845"
   d="m 353.916,289.531 c -3.997,-1.495 -6.025,-5.948 -4.53,-9.944 l 57.706,-154.278 c 1.496,-3.997 5.948,-6.024 9.944,-4.53 3.997,1.495 6.026,5.948 4.53,9.944 L 363.86,285.001 c -1.495,3.997 -5.948,6.024 -9.944,4.53 z"
   id="path8" />
	<path
   style="fill:#ccd2db;stroke-width:3.4845"
   d="M 482.517,285.001 424.811,130.723 c -1.495,-3.997 0.533,-8.449 4.53,-9.944 3.998,-1.494 8.449,0.533 9.944,4.53 l 57.706,154.278 c 1.495,3.997 -0.533,8.449 -4.53,9.944 -3.994,1.494 -8.448,-0.531 -9.944,-4.53 z"
   id="path10" />
	<g
   id="g14"
   style="stroke-width:3.4845">
		<path
   style="fill:#3e4b5a;stroke-width:3.4845"
   d="m 101.321,134.48 c -3.942,0 -7.308,-3.002 -7.684,-7.005 -0.399,-4.249 2.722,-8.017 6.971,-8.416 25.676,-2.411 32.516,-5.334 134.295,-33.25 4.115,-1.128 8.367,1.292 9.496,5.408 1.129,4.115 -1.292,8.367 -5.408,9.496 -102.314,28.063 -109.932,31.197 -136.938,33.733 -0.246,0.023 -0.49,0.034 -0.732,0.034 z"
   id="path12" />
	</g>
	<g
   id="g18"
   style="stroke-width:3.4845">
		<path
   style="fill:#3e4b5a;stroke-width:3.4845"
   d="m 412.574,135.02 c -0.242,0 -0.485,-0.011 -0.731,-0.034 -28.034,-2.633 -35.536,-5.772 -142.381,-35.077 -4.115,-1.129 -6.537,-5.38 -5.408,-9.496 1.129,-4.115 5.382,-6.536 9.496,-5.408 106.996,29.346 113.421,32.123 139.738,34.594 4.249,0.399 7.37,4.167 6.971,8.416 -0.376,4.003 -3.743,7.005 -7.685,7.005 z"
   id="path16" />
	</g>
	<path
   style="fill:#c46f5f;stroke-width:3.4845"
   d="m 255.49,57.83 c 5.529,0 10.707,1.495 15.163,4.091 V 33.249 c 0,-5.782 -4.687,-10.47 -10.47,-10.47 h -9.387 c -5.782,0 -10.47,4.688 -10.47,10.47 v 28.672 c 4.458,-2.598 9.635,-4.091 15.164,-4.091 z"
   id="path20" />
	<path
   style="fill:#c46f5f;stroke-width:3.4845"
   d="M 270.653,430.215 V 114.078 c -4.456,2.597 -9.634,4.091 -15.163,4.091 -5.529,0 -10.707,-1.495 -15.163,-4.091 v 316.137 z"
   id="path22" />
	<g
   id="g26"
   style="stroke-width:3.4845">
		<path
   style="fill:#b45f4a;stroke-width:3.4845"
   d="m 260.738,33.249 c 0,-3.757 1.985,-7.042 4.958,-8.889 -1.602,-0.996 -3.487,-1.581 -5.512,-1.581 h -9.387 c -5.782,0 -10.47,4.688 -10.47,10.47 v 28.672 c 4.456,-2.598 9.634,-4.091 15.163,-4.091 1.792,0 3.542,0.173 5.248,0.473 z"
   id="path24" />
	</g>
	<g
   id="g30"
   style="stroke-width:3.4845">
		<path
   style="fill:#b45f4a;stroke-width:3.4845"
   d="m 255.49,118.17 c -5.529,0 -10.707,-1.494 -15.163,-4.091 v 316.137 h 20.411 v -312.52 c -1.706,0.301 -3.456,0.474 -5.248,0.474 z"
   id="path28" />
	</g>
	<path
   style="fill:#f4b537;stroke-width:3.4845"
   d="m 347.374,266.77 h 151.63 c 7.148,0 12.997,5.848 12.997,12.997 v 5.055 c 0,7.148 -5.849,12.997 -12.997,12.997 h -151.63 c -7.148,0 -12.997,-5.848 -12.997,-12.997 v -5.055 c 0,-7.149 5.849,-12.997 12.997,-12.997 z"
   id="path32" />
	<path
   style="fill:#e59d1f;stroke-width:3.4845"
   d="M 499.003,277.213 H 347.374 c -4.235,0 -8.002,-2.062 -10.379,-5.222 -1.635,2.174 -2.618,4.862 -2.618,7.775 v 5.055 c 0,7.148 5.848,12.997 12.997,12.997 h 151.629 c 7.148,0 12.997,-5.848 12.997,-12.997 v -5.055 c 0,-2.913 -0.983,-5.602 -2.618,-7.775 -2.377,3.16 -6.143,5.222 -10.379,5.222 z"
   id="path34" />
	<path
   style="fill:#feca57;stroke-width:3.4845"
   d="m 492.579,297.818 c -4.385,32.7 -32.377,57.924 -66.278,57.924 -33.901,0 -61.892,-25.224 -66.278,-57.924 z"
   id="path36" />
	<path
   style="fill:#f4b537;stroke-width:3.4845"
   d="M 50.329,297.818 H 19.421 c 4.386,32.7 32.377,57.924 66.278,57.924 5.32,0 10.493,-0.622 15.454,-1.796 -26.65,-6.306 -47.127,-28.559 -50.824,-56.128 z"
   id="path38" />
	<path
   style="fill:#f4b537;stroke-width:3.4845"
   d="m 390.931,297.818 h -30.907 c 4.386,32.7 32.377,57.924 66.278,57.924 5.32,0 10.493,-0.622 15.454,-1.796 -26.651,-6.306 -47.127,-28.559 -50.825,-56.128 z"
   id="path40" />
	<circle
   style="fill:#feca57;stroke-width:3.4845"
   cx="88.811996"
   cy="126.263"
   r="20.712"
   id="circle42" />
	<circle
   style="fill:#feca57;stroke-width:3.4845"
   cx="423.189"
   cy="126.263"
   r="20.712"
   id="circle44" />
	<path
   style="fill:#3e4b5a;stroke-width:3.4845"
   d="M 313.976,427.125 H 197.005 c -7.148,0 -12.997,5.848 -12.997,12.997 v 21.142 h 142.965 v -21.142 c 0,-7.149 -5.849,-12.997 -12.997,-12.997 z"
   id="path46" />
	<path
   style="fill:#303f49;stroke-width:3.4845"
   d="m 184.264,437.568 c -0.167,0.827 -0.257,1.68 -0.257,2.553 v 21.142 h 142.965 v -21.142 c 0,-0.874 -0.09,-1.727 -0.257,-2.553 z"
   id="path48" />
	<path
   style="fill:#576574;stroke-width:3.4845"
   d="m 331.581,458.173 h -151.63 c -7.148,0 -12.997,5.848 -12.997,12.997 v 5.055 c 0,7.148 5.849,12.997 12.997,12.997 h 151.63 c 7.148,0 12.997,-5.848 12.997,-12.997 v -5.055 c 0,-7.149 -5.849,-12.997 -12.997,-12.997 z"
   id="path50" />
	<path
   style="fill:#3e4b5a;stroke-width:3.4845"
   d="m 331.581,468.616 h -151.63 c -4.235,0 -8.002,-2.062 -10.378,-5.222 -1.635,2.174 -2.618,4.862 -2.618,7.775 v 5.055 c 0,7.148 5.849,12.997 12.997,12.997 h 151.63 c 7.148,0 12.997,-5.848 12.997,-12.997 v -5.055 c 0,-2.913 -0.983,-5.602 -2.618,-7.775 -2.378,3.16 -6.145,5.222 -10.38,5.222 z"
   id="path52" />
	<circle
   style="fill:#feca57;stroke-width:3.4845"
   cx="255.49001"
   cy="87.999001"
   r="30.17"
   id="circle54" />
	<path
   style="fill:#f4b537;stroke-width:3.4845"
   d="m 99.007,126.263 c 0,-5.287 1.998,-10.096 5.258,-13.756 -3.794,-4.258 -9.302,-6.956 -15.454,-6.956 -11.439,0 -20.712,9.273 -20.712,20.712 0,11.439 9.273,20.712 20.712,20.712 6.152,0 11.66,-2.697 15.454,-6.956 -3.26,-3.66 -5.258,-8.469 -5.258,-13.756 z"
   id="path56" />
	<path
   style="fill:#f4b537;stroke-width:3.4845"
   d="m 433.385,126.263 c 0,-5.287 1.998,-10.096 5.258,-13.756 -3.793,-4.258 -9.302,-6.956 -15.454,-6.956 -11.439,0 -20.712,9.273 -20.712,20.712 0,11.439 9.273,20.712 20.712,20.712 6.152,0 11.66,-2.697 15.454,-6.956 -3.261,-3.66 -5.258,-8.469 -5.258,-13.756 z"
   id="path58" />
	<path
   style="fill:#f4b537;stroke-width:3.4845"
   d="m 256.228,87.999 c 0,-11.013 5.904,-20.644 14.716,-25.912 -4.52,-2.702 -9.804,-4.258 -15.454,-4.258 -16.662,0 -30.17,13.508 -30.17,30.17 0,16.662 13.508,30.17 30.17,30.17 5.649,0 10.933,-1.556 15.454,-4.258 -8.813,-5.267 -14.716,-14.899 -14.716,-25.912 z"
   id="path60" />
	<path
   style="fill:#f4b537;stroke-width:3.4845"
   d="m 12.997,266.77 h 151.63 c 7.148,0 12.997,5.848 12.997,12.997 v 5.055 c 0,7.148 -5.849,12.997 -12.997,12.997 H 12.997 C 5.848,297.818 0,291.969 0,284.821 v -5.055 C 0,272.618 5.848,266.77 12.997,266.77 Z"
   id="path62" />
	<path
   style="fill:#e59d1f;stroke-width:3.4845"
   d="M 164.626,277.213 H 12.997 c -4.235,0 -8.002,-2.062 -10.379,-5.222 C 0.983,274.165 0,276.853 0,279.766 v 5.055 c 0,7.148 5.848,12.997 12.997,12.997 h 151.629 c 7.148,0 12.997,-5.848 12.997,-12.997 v -5.055 c 0,-2.913 -0.983,-5.602 -2.618,-7.775 -2.377,3.16 -6.144,5.222 -10.379,5.222 z"
   id="path64" />
</g>















</svg>
