<?xml version="1.0" encoding="UTF-8" standalone="no"?>
<svg
   xmlns:dc="http://purl.org/dc/elements/1.1/"
   xmlns:cc="http://creativecommons.org/ns#"
   xmlns:rdf="http://www.w3.org/1999/02/22-rdf-syntax-ns#"
   xmlns:svg="http://www.w3.org/2000/svg"
   xmlns="http://www.w3.org/2000/svg"
   xmlns:sodipodi="http://sodipodi.sourceforge.net/DTD/sodipodi-0.dtd"
   xmlns:inkscape="http://www.inkscape.org/namespaces/inkscape"
   version="1.1"
   id="Capa_1"
   x="0px"
   y="0px"
   viewBox="0 0 160 170"
   xml:space="preserve"
   sodipodi:docname="budget.svg"
   width="160"
   height="170"
   inkscape:version="1.0.2 (e86c870879, 2021-01-15, custom)"><metadata
   id="metadata165"><rdf:RDF><cc:Work
       rdf:about=""><dc:format>image/svg+xml</dc:format><dc:type
         rdf:resource="http://purl.org/dc/dcmitype/StillImage" /><dc:title></dc:title></cc:Work></rdf:RDF></metadata><defs
   id="defs163" /><sodipodi:namedview
   pagecolor="#ffffff"
   bordercolor="#666666"
   borderopacity="1"
   objecttolerance="10"
   gridtolerance="10"
   guidetolerance="10"
   inkscape:pageopacity="0"
   inkscape:pageshadow="2"
   inkscape:window-width="1920"
   inkscape:window-height="1017"
   id="namedview161"
   showgrid="false"
   inkscape:zoom="1.6601562"
   inkscape:cx="50.442581"
   inkscape:cy="88.313958"
   inkscape:window-x="-8"
   inkscape:window-y="-8"
   inkscape:window-maximized="1"
   inkscape:current-layer="Capa_1" />
<path
   style="fill:#f6b545;stroke-width:1"
   d="M 80.194213,155.93972 H 15.00989 c -1.777546,0 -2.962831,-1.23103 -2.962831,-3.07743 v -6.15458 c 0,-1.8464 1.185285,-3.07716 2.962831,-3.07716 h 65.184323 c 1.7778,0 2.962831,1.23103 2.962831,3.07716 v 6.15458 c 2.55e-4,1.8464 -1.185031,3.07743 -2.962831,3.07743 z"
   id="path2" />
<path
   style="fill:#ffcb5b;stroke-width:1"
   d="M 68.342633,146.70798 H 12.047059 v 0 c 0,-1.8464 1.185285,-3.07716 2.962831,-3.07716 h 53.332743 z"
   id="path4" />
<g
   id="g20"
   transform="matrix(0.25462626,0,0,0.26445159,12.047059,23.617665)"
   style="stroke-width:3.85368">
	<path
   style="fill:#f19920;stroke-width:3.85368"
   d="m 221.091,465.455 v 11.636 c 0,6.982 -4.655,11.636 -11.636,11.636 H 0 c 0,6.982 4.655,11.636 11.636,11.636 h 197.818 58.182 c 6.982,0 11.636,-4.655 11.636,-11.636 v -23.273 h -58.181 z"
   id="path6" />
	<path
   style="fill:#f19920;stroke-width:3.85368"
   d="m 34.909,488.727 v -17.455 c 0,-3.491 -2.327,-5.818 -5.818,-5.818 -3.491,0 -5.818,2.327 -5.818,5.818 v 17.455"
   id="path8" />
	<path
   style="fill:#f19920;stroke-width:3.85368"
   d="m 69.818,488.727 v -17.455 c 0,-3.491 -2.327,-5.818 -5.818,-5.818 -3.491,0 -5.818,2.327 -5.818,5.818 v 17.455"
   id="path10" />
	<path
   style="fill:#f19920;stroke-width:3.85368"
   d="m 104.727,488.727 v -17.455 c 0,-3.491 -2.327,-5.818 -5.818,-5.818 -3.491,0 -5.818,2.327 -5.818,5.818 v 17.455"
   id="path12" />
	<path
   style="fill:#f19920;stroke-width:3.85368"
   d="m 139.636,488.727 v -17.455 c 0,-3.491 -2.327,-5.818 -5.818,-5.818 -3.491,0 -5.818,2.327 -5.818,5.818 v 17.455"
   id="path14" />
	<path
   style="fill:#f19920;stroke-width:3.85368"
   d="m 174.545,488.727 v -17.455 c 0,-3.491 -2.327,-5.818 -5.818,-5.818 -3.491,0 -5.818,2.327 -5.818,5.818 v 17.455"
   id="path16" />
	<path
   style="fill:#f19920;stroke-width:3.85368"
   d="m 209.455,488.727 v -17.455 c 0,-3.491 -2.327,-5.818 -5.818,-5.818 -3.491,0 -5.818,2.327 -5.818,5.818 v 17.455"
   id="path18" />
</g>
<path
   style="fill:#f6b545;stroke-width:1"
   d="M 86.12013,143.63055 H 20.935807 c -1.7778,0 -2.962831,-1.23102 -2.962831,-3.07716 v -6.15458 c 0,-1.8464 1.185285,-3.07716 2.962831,-3.07716 H 86.12013 c 1.7778,0 2.962831,1.23103 2.962831,3.07716 v 6.15458 c 0,1.84641 -1.185031,3.07716 -2.962831,3.07716 z"
   id="path22" />
<path
   style="fill:#ffcb5b;stroke-width:1"
   d="M 74.26855,134.39881 H 17.972976 v 0 c 0,-1.8464 1.185285,-3.07716 2.962831,-3.07716 H 74.26855 Z"
   id="path24" />
<g
   id="g40"
   transform="matrix(0.25462626,0,0,0.26445159,12.047059,23.617665)"
   style="stroke-width:3.85368">
	<path
   style="fill:#f19920;stroke-width:3.85368"
   d="m 244.364,418.909 v 11.636 c 0,6.982 -4.655,11.636 -11.636,11.636 H 23.273 c 0,6.982 4.655,11.636 11.636,11.636 h 197.818 58.182 c 6.982,0 11.636,-4.655 11.636,-11.636 v -23.273 h -58.181 z"
   id="path26" />
	<path
   style="fill:#f19920;stroke-width:3.85368"
   d="m 58.182,442.182 v -17.455 c 0,-3.491 -2.327,-5.818 -5.818,-5.818 -3.491,0 -5.818,2.327 -5.818,5.818 v 17.455"
   id="path28" />
	<path
   style="fill:#f19920;stroke-width:3.85368"
   d="m 93.091,442.182 v -17.455 c 0,-3.491 -2.327,-5.818 -5.818,-5.818 -3.491,0 -5.818,2.327 -5.818,5.818 v 17.455"
   id="path30" />
	<path
   style="fill:#f19920;stroke-width:3.85368"
   d="m 128,442.182 v -17.455 c 0,-3.491 -2.327,-5.818 -5.818,-5.818 -3.491,0 -5.818,2.327 -5.818,5.818 v 17.455"
   id="path32" />
	<path
   style="fill:#f19920;stroke-width:3.85368"
   d="m 162.909,442.182 v -17.455 c 0,-3.491 -2.327,-5.818 -5.818,-5.818 -3.491,0 -5.818,2.327 -5.818,5.818 v 17.455"
   id="path34" />
	<path
   style="fill:#f19920;stroke-width:3.85368"
   d="m 197.818,442.182 v -17.455 c 0,-3.491 -2.327,-5.818 -5.818,-5.818 -3.491,0 -5.818,2.327 -5.818,5.818 v 17.455"
   id="path36" />
	<path
   style="fill:#f19920;stroke-width:3.85368"
   d="m 232.727,442.182 v -17.455 c 0,-3.491 -2.327,-5.818 -5.818,-5.818 -3.491,0 -5.818,2.327 -5.818,5.818 v 17.455"
   id="path38" />
</g>
<path
   style="fill:#f6b545;stroke-width:1"
   d="M 92.046047,119.01249 H 26.861724 c -1.7778,0 -2.962831,-1.23102 -2.962831,-3.07716 v -6.15458 c 0,-1.8464 1.185285,-3.07716 2.962831,-3.07716 h 65.184323 c 1.7778,0 2.962831,1.23102 2.962831,3.07716 v 6.15458 c 0,1.8464 -1.185031,3.07716 -2.962831,3.07716 z"
   id="path42" />
<path
   style="fill:#ffcb5b;stroke-width:1"
   d="M 80.194213,109.78075 H 23.898638 v 0 c 0,-1.8464 1.185286,-3.07716 2.962831,-3.07716 h 53.332744 z"
   id="path44" />
<g
   id="g60"
   transform="matrix(0.25462626,0,0,0.26445159,12.047059,23.617665)"
   style="stroke-width:3.85368">
	<path
   style="fill:#f19920;stroke-width:3.85368"
   d="m 267.636,325.818 v 11.636 c 0,6.982 -4.655,11.636 -11.636,11.636 H 46.545 c 0,6.982 4.655,11.636 11.636,11.636 H 256 314.182 c 6.982,0 11.636,-4.655 11.636,-11.636 v -23.273 h -58.182 z"
   id="path46" />
	<path
   style="fill:#f19920;stroke-width:3.85368"
   d="m 81.455,349.091 v -17.455 c 0,-3.491 -2.327,-5.818 -5.818,-5.818 -3.491,0 -5.818,2.327 -5.818,5.818 v 17.455"
   id="path48" />
	<path
   style="fill:#f19920;stroke-width:3.85368"
   d="m 116.364,349.091 v -17.455 c 0,-3.491 -2.327,-5.818 -5.818,-5.818 -3.491,0 -5.818,2.327 -5.818,5.818 v 17.455"
   id="path50" />
	<path
   style="fill:#f19920;stroke-width:3.85368"
   d="m 151.273,349.091 v -17.455 c 0,-3.491 -2.327,-5.818 -5.818,-5.818 -3.491,0 -5.818,2.327 -5.818,5.818 v 17.455"
   id="path52" />
	<path
   style="fill:#f19920;stroke-width:3.85368"
   d="m 186.182,349.091 v -17.455 c 0,-3.491 -2.327,-5.818 -5.818,-5.818 -3.491,0 -5.818,2.327 -5.818,5.818 v 17.455"
   id="path54" />
	<path
   style="fill:#f19920;stroke-width:3.85368"
   d="m 221.091,349.091 v -17.455 c 0,-3.491 -2.327,-5.818 -5.818,-5.818 -3.491,0 -5.818,2.327 -5.818,5.818 v 17.455"
   id="path56" />
	<path
   style="fill:#f19920;stroke-width:3.85368"
   d="m 256,349.091 v -17.455 c 0,-3.491 -2.327,-5.818 -5.818,-5.818 -3.491,0 -5.818,2.327 -5.818,5.818 v 17.455"
   id="path58" />
</g>
<path
   style="fill:#f6b545;stroke-width:1"
   d="M 86.12013,106.70359 H 20.935807 c -1.7778,0 -2.962831,-1.23102 -2.962831,-3.07716 v -6.154576 c 0,-1.846401 1.185285,-3.077159 2.962831,-3.077159 H 86.12013 c 1.7778,0 2.962831,1.231023 2.962831,3.077159 v 6.154576 c 0,1.84614 -1.185031,3.07716 -2.962831,3.07716 z"
   id="path62" />
<path
   style="fill:#ffcb5b;stroke-width:1"
   d="M 74.26855,97.471854 H 17.972976 v 0 c 0,-1.846401 1.185285,-3.077159 2.962831,-3.077159 H 74.26855 Z"
   id="path64" />
<g
   id="g80"
   transform="matrix(0.25462626,0,0,0.26445159,12.047059,23.617665)"
   style="stroke-width:3.85368">
	<path
   style="fill:#f19920;stroke-width:3.85368"
   d="m 244.364,279.273 v 11.636 c 0,6.982 -4.655,11.636 -11.636,11.636 H 23.273 c 0,6.982 4.655,11.636 11.636,11.636 h 197.818 58.182 c 6.982,0 11.636,-4.655 11.636,-11.636 v -23.273 h -58.181 z"
   id="path66" />
	<path
   style="fill:#f19920;stroke-width:3.85368"
   d="M 58.182,302.545 V 285.09 c 0,-3.491 -2.327,-5.818 -5.818,-5.818 -3.491,0 -5.818,2.327 -5.818,5.818 v 17.455"
   id="path68" />
	<path
   style="fill:#f19920;stroke-width:3.85368"
   d="M 93.091,302.545 V 285.09 c 0,-3.491 -2.327,-5.818 -5.818,-5.818 -3.491,0 -5.818,2.327 -5.818,5.818 v 17.455"
   id="path70" />
	<path
   style="fill:#f19920;stroke-width:3.85368"
   d="M 128,302.545 V 285.09 c 0,-3.491 -2.327,-5.818 -5.818,-5.818 -3.491,0 -5.818,2.327 -5.818,5.818 v 17.455"
   id="path72" />
	<path
   style="fill:#f19920;stroke-width:3.85368"
   d="M 162.909,302.545 V 285.09 c 0,-3.491 -2.327,-5.818 -5.818,-5.818 -3.491,0 -5.818,2.327 -5.818,5.818 v 17.455"
   id="path74" />
	<path
   style="fill:#f19920;stroke-width:3.85368"
   d="M 197.818,302.545 V 285.09 c 0,-3.491 -2.327,-5.818 -5.818,-5.818 -3.491,0 -5.818,2.327 -5.818,5.818 v 17.455"
   id="path76" />
	<path
   style="fill:#f19920;stroke-width:3.85368"
   d="M 232.727,302.545 V 285.09 c 0,-3.491 -2.327,-5.818 -5.818,-5.818 -3.491,0 -5.818,2.327 -5.818,5.818 v 17.455"
   id="path78" />
</g>
<path
   style="fill:#f6b545;stroke-width:1"
   d="M 80.194213,131.32165 H 15.00989 c -1.777546,0 -2.962831,-1.23102 -2.962831,-3.07742 v -6.15458 c 0,-1.8464 1.185285,-3.07716 2.962831,-3.07716 h 65.184323 c 1.7778,0 2.962831,1.23102 2.962831,3.07716 v 6.15458 c 2.55e-4,1.8464 -1.185031,3.07742 -2.962831,3.07742 z"
   id="path82" />
<path
   style="fill:#ffcb5b;stroke-width:1"
   d="M 68.342633,122.08991 H 12.047059 v 0 c 0,-1.8464 1.185285,-3.07716 2.962831,-3.07716 h 53.332743 z"
   id="path84" />
<g
   id="g100"
   transform="matrix(0.25462626,0,0,0.26445159,12.047059,23.617665)"
   style="stroke-width:3.85368">
	<path
   style="fill:#f19920;stroke-width:3.85368"
   d="M 221.091,372.364 V 384 c 0,6.982 -4.655,11.636 -11.636,11.636 H 0 c 0,6.982 4.655,11.636 11.636,11.636 h 197.818 58.182 c 6.982,0 11.636,-4.655 11.636,-11.636 v -23.273 h -58.181 z"
   id="path86" />
	<path
   style="fill:#f19920;stroke-width:3.85368"
   d="m 34.909,395.636 v -17.455 c 0,-3.491 -2.327,-5.818 -5.818,-5.818 -3.491,0 -5.818,2.327 -5.818,5.818 v 17.455"
   id="path88" />
	<path
   style="fill:#f19920;stroke-width:3.85368"
   d="m 69.818,395.636 v -17.455 c 0,-3.491 -2.327,-5.818 -5.818,-5.818 -3.491,0 -5.818,2.327 -5.818,5.818 v 17.455"
   id="path90" />
	<path
   style="fill:#f19920;stroke-width:3.85368"
   d="m 104.727,395.636 v -17.455 c 0,-3.491 -2.327,-5.818 -5.818,-5.818 -3.491,0 -5.818,2.327 -5.818,5.818 v 17.455"
   id="path92" />
	<path
   style="fill:#f19920;stroke-width:3.85368"
   d="m 139.636,395.636 v -17.455 c 0,-3.491 -2.327,-5.818 -5.818,-5.818 -3.491,0 -5.818,2.327 -5.818,5.818 v 17.455"
   id="path94" />
	<path
   style="fill:#f19920;stroke-width:3.85368"
   d="m 174.545,395.636 v -17.455 c 0,-3.491 -2.327,-5.818 -5.818,-5.818 -3.491,0 -5.818,2.327 -5.818,5.818 v 17.455"
   id="path96" />
	<path
   style="fill:#f19920;stroke-width:3.85368"
   d="m 209.455,395.636 v -17.455 c 0,-3.491 -2.327,-5.818 -5.818,-5.818 -3.491,0 -5.818,2.327 -5.818,5.818 v 17.455"
   id="path98" />
</g>
<path
   style="fill:#c97629;stroke-width:1"
   d="m 136.48978,135.93739 c -3.85173,-2.7696 -5.92592,-7.38534 -5.92592,-12.3089 0,-18.7713 -7.11095,-36.619399 -19.85168,-49.851498 L 97.971709,60.544892 V 51.313151 L 108.34187,37.77323 c 0.88915,-1.231022 1.48167,-2.769601 1.48167,-4.308445 0,-3.692802 -2.96283,-6.769961 -6.51843,-6.769961 H 92.046047 l -2.962832,6.154582 -5.925916,-6.154582 h -14.22215 c -3.555601,0 -6.518432,3.077159 -6.518432,6.769961 0,1.538579 0.592515,3.077158 1.481415,4.308181 l 10.370164,13.539921 v 9.231741 L 61.527816,73.776727 C 48.787337,87.008827 41.676134,104.85693 41.676134,123.62823 v 0 c 0,4.92356 -2.07393,9.53956 -5.925916,12.3089 -3.851987,2.76933 -5.925917,7.38534 -5.925917,12.3089 v 0 c 0,4.30818 3.259216,7.69316 7.407332,7.69316 h 97.776477 c 4.14811,0 7.40733,-3.38498 7.40733,-7.69316 v 0 c 2.6e-4,-4.92303 -2.07368,-9.53904 -5.92566,-12.30864 z"
   id="path102" />
<path
   style="fill:#b06328;stroke-width:1"
   d="m 136.48978,135.93739 c -3.85173,-3.07716 -5.92592,-7.69316 -5.92592,-12.61672 0.29639,-19.38668 -8.29623,-37.542601 -21.33309,-51.390079 L 97.971709,60.544628 V 51.312887 L 108.34187,37.772966 c 1.7778,-2.153959 2.07393,-5.231382 0.59251,-8.000983 -1.18528,-2.153958 -3.5556,-3.077159 -5.92591,-3.077159 -2.07393,0 -3.259215,2.46178 -2.6667,4.308181 0.29638,0.615379 0.59251,1.538579 0.59251,2.46178 0,1.538579 -0.59251,3.077158 -1.48141,4.308181 L 89.082706,51.312887 v 9.231741 H 74.268041 l -2.962831,3.077158 h 20.740582 l 10.962938,11.385963 c 12.14795,12.616721 16.88858,29.849441 15.70355,47.389721 -0.29638,5.23138 1.7778,10.15494 5.62953,13.2321 0.29639,0.30782 0.59252,0.61538 0.8889,0.61538 4.44451,4.92356 0.59252,13.2321 -6.22204,13.2321 H 30.12094 c 0.592515,3.38498 3.555601,6.15458 7.110948,6.15458 h 85.924892 7.40734 4.4445 c 4.14786,2.7e-4 7.40708,-3.38472 7.40708,-7.6929 v -0.61538 c 0,-4.616 -2.37032,-8.61636 -5.92592,-11.38596 z"
   id="path104" />
<path
   style="fill:#ffcb5b;stroke-width:1"
   d="M 99.453379,60.544628 H 72.78688 c -2.370316,0 -4.444501,-2.153959 -4.444501,-4.616003 v 0 c 0,-2.46178 2.073931,-4.616002 4.444501,-4.616002 h 26.666245 c 2.370315,0 4.444495,2.153958 4.444495,4.616002 v 0 c 0,2.462044 -2.07393,4.616003 -4.444241,4.616003 z"
   id="path106" />
<path
   style="fill:#ffe278;stroke-width:1"
   d="m 72.78688,51.312887 h 14.814665 c 0.888901,0 1.481416,0.615379 1.481416,1.538579 v 0 c 0,0.923201 -0.592515,1.53858 -1.481416,1.53858 H 72.78688 c -0.8889,0 -1.481415,-0.615379 -1.481415,-1.53858 v 0 c 0,-0.922936 0.59277,-1.538579 1.481415,-1.538579 z"
   id="path108" />
<path
   style="fill:#f6b545;stroke-width:1"
   d="m 99.453379,51.312887 h -1.481415 v 3.077159 c 0,1.846401 -1.185286,3.077158 -2.962832,3.077158 H 68.639018 c 0.592516,1.846401 2.370316,3.077159 4.148117,3.077159 h 26.666244 c 2.370311,0 4.444501,-2.153958 4.444501,-4.616002 0,-2.462045 -2.07419,-4.615474 -4.444501,-4.615474 z"
   id="path110" />
<path
   style="fill:#f19920;stroke-width:1"
   d="m 90.564631,57.467469 h 8.888748 c 0.888901,0 1.481411,0.615379 1.481411,1.538579 v 0 c 0,0.923201 -0.59251,1.53858 -1.481411,1.53858 h -8.888748 c -0.8889,0 -1.481416,-0.615379 -1.481416,-1.53858 v 0 c -2.54e-4,-0.9232 0.592516,-1.538579 1.481416,-1.538579 z"
   id="path112" />
<rect
   x="83.157303"
   y="60.544628"
   style="fill:#f6b545;stroke-width:1"
   width="5.9259171"
   height="24.618063"
   id="rect114" />
<polygon
   style="fill:#f19920;stroke-width:3.85368"
   points="302.545,139.636 279.273,139.636 279.273,151.273 290.909,151.273 290.909,232.727 302.545,232.727 302.545,151.273 "
   id="polygon116"
   transform="matrix(0.25462626,0,0,0.26445159,12.047059,23.617665)" />
<ellipse
   style="fill:#f6b545;stroke-width:1"
   cx="86.120125"
   cy="106.70361"
   id="circle118"
   rx="23.703415"
   ry="24.618063" />
<path
   style="fill:#b06328;stroke-width:1"
   d="m 104.19401,91.009451 c 3.5556,4.308181 5.62953,9.539559 5.62953,15.694139 0,13.53992 -10.666546,24.61806 -23.70341,24.61806 -5.925917,0 -10.962934,-2.15395 -15.110796,-5.84676 4.444502,5.53894 10.962934,8.92392 18.073881,8.92392 13.036865,0 23.703405,-11.07814 23.703405,-24.61806 -2.5e-4,-7.69316 -3.25947,-14.463118 -8.59261,-18.771299 z"
   id="path120" />
<ellipse
   style="fill:#ffcb5b;stroke-width:1"
   cx="86.120125"
   cy="106.70361"
   id="circle122"
   rx="20.740583"
   ry="21.540905" />
<path
   style="fill:#f19920;stroke-width:1"
   d="m 106.86071,106.70359 c 0,12.00134 -9.185131,21.54091 -20.74058,21.54091 v 3.07715 c 13.036864,0 23.70341,-11.07814 23.70341,-24.61806 z"
   id="path124" />
<path
   style="fill:#ffe27a;stroke-width:1"
   d="m 86.12013,85.16269 v -3.077158 c -13.036865,0 -23.703413,11.078141 -23.703413,24.618058 h 2.962831 c 2.54e-4,-12.001337 9.185133,-21.5409 20.740582,-21.5409 z"
   id="path126" />
<path
   style="fill:#e78825;stroke-width:1"
   d="m 89.082961,103.62617 h -5.925917 c -1.777801,0 -2.962831,-1.23102 -2.962831,-3.07716 0,-1.846398 1.185285,-3.077156 2.962831,-3.077156 h 8.888748 c 1.777801,0 2.962831,-1.231022 2.962831,-3.077159 0,-1.846401 -1.185285,-3.077158 -2.962831,-3.077158 h -2.962831 v 0 c 0,-1.846401 -1.185285,-3.077159 -2.962831,-3.077159 -1.777801,0 -2.962831,1.231022 -2.962831,3.077159 v 0 c -5.037017,0 -8.888749,4.000359 -8.888749,9.231743 0,5.23138 3.851732,9.23173 8.888749,9.23173 h 5.925916 c 1.777801,0 2.962832,1.23103 2.962832,3.07716 0,1.84614 -1.185286,3.07716 -2.962832,3.07716 h -8.888748 c -1.7778,0 -2.962831,1.23102 -2.962831,3.07716 0,1.8464 1.185285,3.07716 2.962831,3.07716 h 2.962832 v 0 c 0,1.8464 1.185285,3.07716 2.962831,3.07716 1.7778,0 2.962831,-1.23102 2.962831,-3.07716 v 0 c 5.037017,0 8.888748,-4.00036 8.888748,-9.23174 0,-5.23138 -3.851731,-9.23174 -8.888748,-9.23174 z"
   id="path128" />
<g
   id="g130">
</g>
<g
   id="g132">
</g>
<g
   id="g134">
</g>
<g
   id="g136">
</g>
<g
   id="g138">
</g>
<g
   id="g140">
</g>
<g
   id="g142">
</g>
<g
   id="g144">
</g>
<g
   id="g146">
</g>
<g
   id="g148">
</g>
<g
   id="g150">
</g>
<g
   id="g152">
</g>
<g
   id="g154">
</g>
<g
   id="g156">
</g>
<g
   id="g158">
</g>
</svg>
