<?xml version="1.0" encoding="UTF-8" standalone="no"?>
<svg
   xmlns:dc="http://purl.org/dc/elements/1.1/"
   xmlns:cc="http://creativecommons.org/ns#"
   xmlns:rdf="http://www.w3.org/1999/02/22-rdf-syntax-ns#"
   xmlns:svg="http://www.w3.org/2000/svg"
   xmlns="http://www.w3.org/2000/svg"
   xmlns:sodipodi="http://sodipodi.sourceforge.net/DTD/sodipodi-0.dtd"
   xmlns:inkscape="http://www.inkscape.org/namespaces/inkscape"
   id="line_color"
   height="170"
   viewBox="0 0 23.125 24.570312"
   width="160"
   data-name="line color"
   version="1.1"
   sodipodi:docname="cargo.svg"
   inkscape:version="1.0.2 (e86c870879, 2021-01-15, custom)">
  <metadata
     id="metadata75">
    <rdf:RDF>
      <cc:Work
         rdf:about="">
        <dc:format>image/svg+xml</dc:format>
        <dc:type
           rdf:resource="http://purl.org/dc/dcmitype/StillImage" />
        <dc:title></dc:title>
      </cc:Work>
    </rdf:RDF>
  </metadata>
  <defs
     id="defs73" />
  <sodipodi:namedview
     pagecolor="#ffffff"
     bordercolor="#666666"
     borderopacity="1"
     objecttolerance="10"
     gridtolerance="10"
     guidetolerance="10"
     inkscape:pageopacity="0"
     inkscape:pageshadow="2"
     inkscape:window-width="1920"
     inkscape:window-height="1017"
     id="namedview71"
     showgrid="false"
     inkscape:zoom="1.6601562"
     inkscape:cx="17.918871"
     inkscape:cy="5.7308499"
     inkscape:window-x="-8"
     inkscape:window-y="-8"
     inkscape:window-maximized="1"
     inkscape:current-layer="line_color" />
  <path
     d="m 18.921472,20.558553 h -0.0095 a 0.12819576,0.13783173 0 0 1 -0.118453,-0.147481 c 0.0038,-0.05678 0.0064,-0.11247 0.0093,-0.167604 l 0.0053,-0.106133 a 0.12999049,0.13976137 0 0 1 0.135632,-0.129286 0.12819576,0.13783173 0 0 1 0.120247,0.145827 l -0.0053,0.103652 c -0.0027,0.05734 -0.0053,0.114952 -0.0095,0.173668 a 0.12819576,0.13783173 0 0 1 -0.127684,0.127357 z"
     fill="#323c6b"
     id="path2"
     style="stroke-width:1" />
  <path
     d="m 18.443815,23.734471 a 0.12819576,0.13783173 0 0 1 -0.0559,-0.261881 1.3727202,1.475902 0 0 0 0.742254,-1.009479 1.3463118,1.4475088 0 0 0 -0.287927,-1.286797 0.12819576,0.13783173 0 1 1 0.193318,-0.180835 1.6001394,1.7204156 0 0 1 0.34459,1.528829 1.6283424,1.7507385 0 0 1 -0.880961,1.19638 0.12819576,0.13783173 0 0 1 -0.05538,0.01379 z"
     fill="#323c6b"
     id="path4"
     style="stroke-width:1" />
  <path
     d="m 5.8398661,11.878186 c -0.6881554,1.604362 -1.5578356,4.767599 -0.7591764,9.549258 a 0.03256173,0.03500926 0 0 1 -0.00795,0.0055 0.73404889,0.78922445 0 0 0 0.3256169,1.496852 71.878589,77.28142 0 0 0 12.3885814,0 0.73404889,0.78922445 0 0 0 0.325617,-1.496852 0.03256173,0.03500926 0 0 1 -0.008,-0.0055 c 0.79866,-4.781659 -0.07102,-7.944896 -0.756611,-9.549258 z"
     fill="#e2b68d"
     id="path6"
     style="stroke-width:1" />
  <g
     opacity="0.4"
     id="g10"
     transform="matrix(0.2563915,0,0,0.27566345,2.0562956,3.5123516)"
     style="stroke-width:3.76148">
    <path
       d="M 62.625,65.01 A 0.127,0.127 0 0 1 62.594,64.989 C 65.709,47.643 62.317,36.168 59.643,30.348 H 56.51 c 2.162,6.466 3.881,16.629 1.369,30.615 a 0.127,0.127 0 0 0 0.031,0.021 2.863,2.863 0 0 1 -1.271,5.43 280.308,280.308 0 0 1 -46.307,0.152 2.884,2.884 0 0 0 2.7,3.874 280.34,280.34 0 0 0 48.319,0 2.863,2.863 0 0 0 1.274,-5.43 z"
       fill="#b98c6c"
       id="path8"
       style="stroke-width:12.715" />
  </g>
  <path
     d="m 11.550216,15.471183 a 0.91249742,0.98108623 0 0 0 0.258187,1.564115 0.91249742,0.98108623 0 0 0 -0.258187,-1.564115 z"
     fill="#fcd462"
     id="path12"
     style="stroke-width:1" />
  <path
     d="m 11.808403,17.17313 a 0.12819576,0.13783173 0 0 1 -0.0623,-0.01709 1.0401804,1.1183667 0 0 1 -0.2928,-1.774996 0.12819576,0.13783173 0 0 1 0.158963,-0.03032 1.0401804,1.1183667 0 0 1 0.293057,1.774997 0.12819576,0.13783173 0 0 1 -0.09691,0.04741 z m -0.228189,-1.519733 a 0.76917453,0.82699034 0 0 0 0.197934,1.199412 0.76917453,0.82699034 0 0 0 -0.197934,-1.199412 z"
     fill="#323c6b"
     id="path14"
     style="stroke-width:1" />
  <path
     d="m 13.282141,16.872932 a 0.91249742,0.98108623 0 0 1 -1.469636,0.165397 0.91249742,0.98108623 0 0 1 1.469636,-0.165397 z"
     fill="#fcd462"
     id="path16"
     style="stroke-width:1" />
  <path
     d="m 12.495788,17.501996 a 1.0935098,1.1757047 0 0 1 -0.773533,-0.365529 0.12819576,0.13783173 0 0 1 -0.01693,-0.172842 1.0401804,1.1183667 0 0 1 1.666545,-0.188278 0.12819576,0.13783173 0 0 1 0.01693,0.172841 1.0768444,1.1577865 0 0 1 -0.789431,0.547744 0.97428774,1.0475211 0 0 1 -0.103579,0.0061 z m -0.512782,-0.48241 a 0.76917453,0.82699034 0 0 0 1.128123,-0.127081 0.76917453,0.82699034 0 0 0 -1.128123,0.127081 z"
     fill="#323c6b"
     id="path18"
     style="stroke-width:1" />
  <path
     d="m 10.901802,16.066616 a 1.0671014,1.1473112 0 0 0 0.30203,1.829578 1.0671014,1.1473112 0 0 0 -0.30203,-1.829578 z"
     fill="#fcd462"
     id="path20"
     style="stroke-width:1" />
  <path
     d="m 11.204857,18.034026 a 0.12819576,0.13783173 0 0 1 -0.0623,-0.01709 1.1947845,1.2845917 0 0 1 -0.336386,-2.039911 0.12819576,0.13783173 0 0 1 0.159218,-0.03032 1.1950409,1.2848673 0 0 1 0.336643,2.03991 0.12819576,0.13783173 0 0 1 -0.09718,0.04741 z m -0.271775,-1.786023 a 0.92429135,0.99376669 0 0 0 0.242034,1.467357 0.92429135,0.99376669 0 0 0 -0.242034,-1.467357 z"
     fill="#323c6b"
     id="path22"
     style="stroke-width:1" />
  <path
     d="m 12.928834,17.706263 a 1.0671014,1.1473112 0 0 1 -1.717824,0.192965 1.0671014,1.1473112 0 0 1 1.717824,-0.192965 z"
     fill="#fcd462"
     id="path24"
     style="stroke-width:1" />
  <path
     d="m 12.009157,18.418853 a 1.2576004,1.3521292 0 0 1 -0.889422,-0.420663 0.12819576,0.13783173 0 0 1 -0.01693,-0.17284 1.1947845,1.2845917 0 0 1 1.916526,-0.216397 0.12819576,0.13783173 0 0 1 0.01693,0.172841 1.2368327,1.3298004 0 0 1 -0.90737,0.630443 1.1332504,1.2184325 0 0 1 -0.119735,0.0066 z m -0.628928,-0.537544 a 0.92454777,0.99404236 0 0 0 1.378618,-0.155473 0.92454777,0.99404236 0 0 0 -1.378618,0.155473 z"
     fill="#323c6b"
     id="path26"
     style="stroke-width:1" />
  <path
     d="m 10.222621,16.882029 a 1.1411986,1.226978 0 0 0 0.322797,1.95721 1.1411986,1.226978 0 0 0 -0.322797,-1.95721 z"
     fill="#fcd462"
     id="path28"
     style="stroke-width:1" />
  <path
     d="m 10.545418,18.975693 a 0.12819576,0.13783173 0 0 1 -0.0623,-0.01709 1.269138,1.3645341 0 0 1 -0.357666,-2.167266 0.12819576,0.13783173 0 0 1 0.158963,-0.03032 1.269138,1.3645341 0 0 1 0.358948,2.167265 0.12819576,0.13783173 0 0 1 -0.09794,0.04741 z m -0.293055,-1.913931 a 0.99992691,1.0750874 0 0 0 0.263314,1.59554 0.99864494,1.0737091 0 0 0 -0.263314,-1.59554 z"
     fill="#323c6b"
     id="path30"
     style="stroke-width:1" />
  <path
     d="m 12.388873,18.634697 a 1.1411986,1.226978 0 0 1 -1.83807,0.207575 1.1411986,1.226978 0 0 1 1.83807,-0.207575 z"
     fill="#fcd462"
     id="path32"
     style="stroke-width:1" />
  <path
     d="m 11.405355,19.386982 a 1.3360561,1.4364822 0 0 1 -0.945059,-0.447125 0.12819576,0.13783173 0 0 1 -0.01693,-0.172841 1.2688816,1.3642584 0 0 1 2.036005,-0.229903 0.12819576,0.13783173 0 0 1 0.01692,0.17284 1.3147756,1.4136021 0 0 1 -0.963774,0.669863 1.2422168,1.3355894 0 0 1 -0.127172,0.0071 z m -0.684821,-0.563731 a 0.99838852,1.0734335 0 0 0 1.498864,-0.169257 0.99838852,1.0734335 0 0 0 -1.498864,0.169257 z"
     fill="#323c6b"
     id="path34"
     style="stroke-width:1" />
  <path
     d="m 13.118563,15.169056 a 0.91249742,0.98108623 0 0 0 -0.888653,1.268052 0.91249742,0.98108623 0 0 0 0.888653,-1.268052 z"
     fill="#fcd462"
     id="path36"
     style="stroke-width:1" />
  <g
     fill="#323c6b"
     id="g44"
     transform="matrix(0.2563915,0,0,0.27566345,2.0562956,3.5123516)"
     style="stroke-width:3.76148">
    <path
       d="m 39.68,47.39 a 0.5,0.5 0 0 1 -0.485,-0.379 4.057,4.057 0 0 1 3.934,-5.224 0.5,0.5 0 0 1 0.5,0.379 4.057,4.057 0 0 1 -3.929,5.223 z m 3.062,-4.567 a 3,3 0 0 0 -2.658,3.531 3,3 0 0 0 2.658,-3.531 z"
       id="path38"
       style="stroke-width:3.76148" />
    <path
       d="m 30.937,59 a 0.5,0.5 0 0 1 -0.4,-0.8 L 39.28,46.589 a 0.5,0.5 0 1 1 0.8,0.6 L 31.337,58.8 a 0.5,0.5 0 0 1 -0.4,0.2 z"
       id="path40"
       style="stroke-width:3.76148" />
    <path
       d="m 37.2,71.978 c -8.084,0 -16.173,-0.346 -24.206,-1.04 A 3.365,3.365 0 0 1 11.246,64.725 C 8.161,47.116 11.831,35.508 14.308,30.139 a 0.5,0.5 0 0 1 0.454,-0.291 h 44.881 a 0.5,0.5 0 0 1 0.454,0.291 c 2.471,5.377 6.134,16.995 3.052,34.585 a 3.278,3.278 0 0 1 1.493,3.576 3.325,3.325 0 0 1 -3.288,2.637 C 53.349,71.632 45.276,71.978 37.2,71.978 Z M 15.08,30.848 C 12.639,36.27 9.194,47.676 12.288,64.9 a 0.5,0.5 0 0 1 -0.139,0.442 0.756,0.756 0 0 1 -0.161,0.114 2.272,2.272 0 0 0 -1.266,2.624 2.316,2.316 0 0 0 2.313,1.859 281.619,281.619 0 0 0 48.276,0 2.334,2.334 0 0 0 2.355,-1.861 A 2.269,2.269 0 0 0 62.408,65.457 0.743,0.743 0 0 1 62.24,65.339 0.5,0.5 0 0 1 62.1,64.9 C 65.189,47.695 61.753,36.277 59.319,30.847 Z"
       id="path42"
       style="stroke-width:3.76148" />
  </g>
  <path
     d="m 6.1049736,19.903576 a 0.17947405,0.19296442 0 0 1 -0.1794733,-0.173668 17.770239,19.105958 0 0 1 -0.065633,-3.054351 0.18152518,0.19516973 0 0 1 0.1899858,-0.181111 0.17947405,0.19296442 0 0 1 0.1684498,0.204267 17.430777,18.740979 0 0 0 0.064359,2.992326 0.17947405,0.19296442 0 0 1 -0.1794743,0.212537 z"
     fill="#ffffff"
     id="path46"
     style="stroke-width:1" />
  <path
     d="M 6.097796,16.086465 A 0.17947405,0.19296442 0 0 1 5.9198596,15.867312 q 0.030257,-0.238173 0.065894,-0.464769 a 0.18152518,0.19516973 0 0 1 0.206651,-0.158506 0.17947405,0.19296442 0 0 1 0.1474257,0.222184 q -0.034613,0.220531 -0.064358,0.453191 a 0.17947405,0.19296442 0 0 1 -0.1776794,0.167053 z"
     fill="#ffffff"
     id="path48"
     style="stroke-width:1" />
  <path
     d="m 17.174421,8.8748326 c 0,0.7415347 -2.499818,1.3424814 -5.581643,1.3424814 -3.081826,0 -5.5816434,-0.6009467 -5.5816434,-1.3424814 0,-0.7415346 2.4998174,-1.2322156 5.5816434,-1.2322156 3.081825,0 5.581643,0.490681 5.581643,1.2322156 z"
     fill="#c49474"
     id="path50"
     style="stroke-width:1" />
  <path
     d="m 11.592778,10.355146 c -2.7690285,0 -5.7098388,-0.5187992 -5.7098388,-1.4803134 0,-0.9466283 2.8677385,-1.3700474 5.7098388,-1.3700474 2.842099,0 5.709838,0.4236948 5.709838,1.3700474 0,0.9615142 -2.941836,1.4803134 -5.709838,1.4803134 z m 0,-2.5746972 c -3.3684716,0 -5.4534479,0.5681422 -5.4534479,1.0943838 0,0.5697963 2.2395795,1.2046494 5.4534479,1.2046494 3.213866,0 5.453447,-0.6340261 5.453447,-1.2046494 0,-0.5262416 -2.084976,-1.0943838 -5.453447,-1.0943838 z"
     fill="#323c6b"
     id="path52"
     style="stroke-width:1" />
  <path
     d="M 8.1894368,5.7791321 A 0.12819576,0.13783173 0 0 1 8.1125202,5.531035 3.7253686,4.0053899 0 0 1 8.4545465,5.2796299 0.12819576,0.13783173 0 0 1 8.5863318,5.5158735 3.5053847,3.7688706 0 0 0 8.2676365,5.750463 0.12819576,0.13783173 0 0 1 8.1894456,5.7791322 Z"
     fill="#323c6b"
     id="path54"
     style="stroke-width:1" />
  <path
     d="M 9.1919277,5.1663322 A 0.12819576,0.13783173 0 0 1 9.1388528,4.9027979 L 9.3021737,4.8236824 A 4.0476527,4.3518989 0 0 0 10.173905,4.3189426 c 0.03744,-0.032528 0.07358,-0.066987 0.109736,-0.1011685 a 2.5534031,2.7453322 0 0 1 0.701486,-0.5171448 0.1282346,0.13787349 0 0 1 0.101281,0.2533347 2.2990626,2.4718741 0 0 0 -0.622262,0.461185 c -0.04999,0.047414 -0.08871,0.084353 -0.128196,0.1193624 A 4.2137945,4.5305289 0 0 1 9.4078127,5.0770171 l -0.162039,0.078288 a 0.12819576,0.13783173 0 0 1 -0.053837,0.011027 z"
     fill="#323c6b"
     id="path56"
     style="stroke-width:1" />
  <path
     d="m 16.662407,9.9606709 c -1.066075,0.4879241 -2.995165,0.6797861 -5.067322,0.6797861 -2.0995894,0 -4.0891877,-0.215569 -5.1470592,-0.7123143 C 6.6503181,9.5165772 7.1992535,9.0945363 7.4589773,8.6978567 A 4.7688821,5.1273402 0 0 0 7.9484282,7.5094716 2.6898033,2.8919852 0 0 1 8.3230171,6.7219011 C 8.9106668,5.899597 10.023406,5.7672786 10.773607,5.1111995 A 2.5413526,2.7323761 0 0 1 11.361256,4.6378854 1.4898911,1.6018802 0 0 1 11.853272,4.529274 c 0.593289,-0.052927 1.298623,0.00883 1.615266,0.5496729 0.185884,0.3175644 0.183063,0.7200329 0.306131,1.0728822 0.174859,0.4937132 0.582265,0.8377412 0.880192,1.2550956 0.01924,0.023432 0.03564,0.047138 0.05128,0.07057 0.352538,0.5262414 0.533037,1.2052005 1.019668,1.5842377 a 3.9133036,4.2074512 0 0 1 0.936598,0.8989385 z"
     fill="#eeefee"
     id="path58"
     style="stroke-width:1" />
  <path
     d="m 11.161528,5.0447647 c 0.593289,-0.052927 1.298623,0.00883 1.615266,0.5496728 0.185883,0.3175644 0.183063,0.720033 0.306131,1.0728821 0.174859,0.4937133 0.582266,0.8377413 0.880192,1.2550958 0.01923,0.023431 0.03564,0.047138 0.05128,0.07057 0.352538,0.5262415 0.533039,1.2052005 1.01967,1.5842378 A 6.0349434,6.4885662 0 0 1 15.80324,10.249291 5.3249952,5.7252542 0 0 0 16.661894,9.960671 3.9130472,4.2071755 0 0 0 15.725296,9.0622838 C 15.238152,8.6832466 15.058678,8.0042874 14.705627,7.4780459 14.689218,7.4546145 14.672808,7.4309075 14.654348,7.4074761 14.356422,6.9901217 13.949015,6.6463693 13.774156,6.1523804 13.651088,5.7998068 13.653909,5.3970626 13.468025,5.0794982 13.150869,4.5386465 12.445535,4.4768979 11.852759,4.5298253 a 1.4901474,1.6021559 0 0 0 -0.492016,0.1086114 2.5410963,2.7321005 0 0 0 -0.587136,0.4727628 l -0.0038,0.00303 a 1.8119188,1.9481136 0 0 1 0.391765,-0.069467 z"
     fill="#e1e6e9"
     id="path60"
     style="stroke-width:1" />
  <path
     d="M 8.4814673,6.531969 C 9.0134794,6.238663 9.6172814,6.0332937 10.081606,5.6269659 10.136729,5.5781741 10.190573,5.5263489 10.244671,5.4747996 9.6390744,5.815244 8.9504071,6.0299858 8.4814673,6.531969 Z"
     fill="#e1e6e9"
     id="path62"
     style="stroke-width:1" />
  <path
     d="m 11.59406,10.778289 c -1.365798,0 -3.8568977,-0.09401 -5.1983379,-0.723892 A 0.12819576,0.13783173 0 0 1 6.333678,9.863913 3.1082342,3.341868 0 0 1 6.91184,9.1358858 3.8633073,4.1536968 0 0 0 7.3543731,8.6190169 3.5325622,3.798091 0 0 0 7.749985,7.6944417 c 0.025639,-0.077461 0.051278,-0.1549229 0.078452,-0.2318329 A 2.7997953,3.0102449 0 0 1 8.2217425,6.6389264 C 8.5788928,6.1385972 9.1160338,5.8814032 9.6354835,5.6324791 A 4.6681202,5.0190043 0 0 0 10.691559,5.005069 c 0.04538,-0.040522 0.09076,-0.082698 0.135888,-0.1270807 a 1.7901255,1.9246823 0 0 1 0.482785,-0.3663567 1.6021905,1.7226209 0 0 1 0.5315,-0.1190867 c 0.867373,-0.076083 1.450407,0.1292863 1.734231,0.6136269 a 1.8785805,2.0197862 0 0 1 0.216395,0.682267 2.6733942,2.8743428 0 0 0 0.102555,0.4157005 2.522636,2.7122526 0 0 0 0.543551,0.8214771 c 0.107686,0.1270808 0.218958,0.2585723 0.318437,0.3977823 0.01564,0.018746 0.03333,0.044106 0.05128,0.069191 a 5.1360347,5.5220901 0 0 1 0.340487,0.6130755 2.4693067,2.6549146 0 0 0 0.65226,0.9441473 l 0.06897,0.055132 a 3.6440925,3.9180045 0 0 1 0.903267,0.8843284 0.12819576,0.13783173 0 0 1 -0.05948,0.1982031 c -1.248116,0.570899 -3.472568,0.690813 -5.119627,0.690813 z M 6.6372427,9.8625347 c 0.9840306,0.4077063 2.7741555,0.6400903 4.9578423,0.6400903 2.175738,0 3.890997,-0.213914 4.866054,-0.604254 A 4.6609412,5.0112858 0 0 0 15.718886,9.2274061 l -0.06896,-0.055133 A 2.694162,2.8966715 0 0 1 14.923302,8.1366059 4.9427155,5.31424 0 0 0 14.602045,7.5577126 c -0.0141,-0.020123 -0.02795,-0.040247 -0.04435,-0.06037 -0.0982,-0.137832 -0.205119,-0.2640859 -0.309726,-0.3859291 A 2.7515936,2.95842 0 0 1 13.654165,6.2017241 2.8992752,3.1172023 0 0 1 13.542635,5.7452255 1.6611606,1.7860234 0 0 0 13.360085,5.153376 C 13.131383,4.7630367 12.628086,4.5998438 11.863783,4.6676571 A 1.392975,1.4976795 0 0 0 11.413304,4.7649661 1.5727055,1.6909196 0 0 0 10.99795,5.083633 C 10.95026,5.129118 10.90257,5.174602 10.854114,5.2178812 A 4.85785,5.2229953 0 0 1 9.7398372,5.8830569 C 9.2270532,6.128673 8.74273,6.3607817 8.4248047,6.8059782 A 2.5746836,2.7682123 0 0 0 8.068933,7.5574366 c -0.025639,0.076359 -0.051289,0.1527176 -0.076917,0.2288007 A 3.7781853,4.0621766 0 0 1 7.5640999,8.7775231 4.0881626,4.3954536 0 0 1 7.0915703,9.332985 4.1220062,4.4318412 0 0 0 6.6372448,9.8625344 Z"
     fill="#323c6b"
     id="path64"
     style="stroke-width:1" />
  <path
     d="m 16.682149,12.304086 c -1.199913,0.380415 -3.058752,0.609216 -5.089371,0.609216 -2.0306213,0 -3.8894592,-0.228801 -5.0893716,-0.609216 A 1.3270825,1.426834 0 0 1 5.5316822,10.520544 L 6.0111346,8.8748326 c 0,0.7415347 2.4998174,1.3424814 5.5816434,1.3424814 3.081825,0 5.581643,-0.6009467 5.581643,-1.3424814 l 0.479452,1.6457114 a 1.3270825,1.426834 0 0 1 -0.971724,1.783542 z"
     fill="#e2b68d"
     id="path66"
     style="stroke-width:1" />
  <path
     d="m 11.592778,13.050307 c -2.0254924,0 -3.8930491,-0.224114 -5.125779,-0.614729 A 1.5780898,1.6967085 0 0 1 5.5001466,11.606933 1.3447735,1.4458547 0 0 1 5.4098976,10.476713 L 5.8888359,8.8326561 a 0.12819576,0.13783173 0 0 1 0.2504942,0.041075 c 0,0.5697964 2.2395795,1.2046489 5.4534479,1.2046489 3.213866,0 5.453447,-0.6340256 5.453447,-1.2046489 a 0.12819576,0.13783173 0 0 1 0.108709,-0.1361778 0.12819576,0.13783173 0 0 1 0.141785,0.095104 l 0.479453,1.6457117 a 1.3437478,1.4447521 0 0 1 -0.09076,1.12829 1.5773206,1.6958815 0 0 1 -0.966853,0.828644 c -1.232733,0.391717 -3.101057,0.615005 -5.125781,0.615004 z M 6.0383114,9.2425676 5.653725,10.561893 a 1.0912022,1.1732236 0 0 0 0.073072,0.91796 1.3234929,1.4229746 0 0 0 0.812761,0.692466 c 1.2099119,0.383724 3.0510597,0.603428 5.052963,0.603428 2.001906,0 3.842796,-0.220532 5.052964,-0.603428 a 1.3237494,1.4232504 0 0 0 0.812761,-0.693294 1.0912022,1.1732236 0 0 0 0.07385,-0.916305 l -0.38459,-1.3209794 c -0.640979,0.7252706 -3.162846,1.1125784 -5.554466,1.1125784 -2.3916192,0 -4.9129737,-0.3864808 -5.5547221,-1.1117514 z"
     fill="#323c6b"
     id="path68"
     style="stroke-width:1" />
</svg>
