<?xml version="1.0" encoding="UTF-8" standalone="no"?>
<svg
   xmlns:dc="http://purl.org/dc/elements/1.1/"
   xmlns:cc="http://creativecommons.org/ns#"
   xmlns:rdf="http://www.w3.org/1999/02/22-rdf-syntax-ns#"
   xmlns:svg="http://www.w3.org/2000/svg"
   xmlns="http://www.w3.org/2000/svg"
   xmlns:sodipodi="http://sodipodi.sourceforge.net/DTD/sodipodi-0.dtd"
   xmlns:inkscape="http://www.inkscape.org/namespaces/inkscape"
   id="Capa_1"
   enable-background="new 0 0 512 512"
   height="170"
   viewBox="0 0 160 170"
   width="160"
   version="1.1"
   sodipodi:docname="catapult.svg"
   inkscape:version="1.0.2 (e86c870879, 2021-01-15, custom)">
  <metadata
     id="metadata65">
    <rdf:RDF>
      <cc:Work
         rdf:about="">
        <dc:format>image/svg+xml</dc:format>
        <dc:type
           rdf:resource="http://purl.org/dc/dcmitype/StillImage" />
        <dc:title></dc:title>
      </cc:Work>
    </rdf:RDF>
  </metadata>
  <defs
     id="defs63" />
  <sodipodi:namedview
     pagecolor="#ffffff"
     bordercolor="#666666"
     borderopacity="1"
     objecttolerance="10"
     gridtolerance="10"
     guidetolerance="10"
     inkscape:pageopacity="0"
     inkscape:pageshadow="2"
     inkscape:window-width="1920"
     inkscape:window-height="1017"
     id="namedview61"
     showgrid="false"
     inkscape:zoom="3.3203125"
     inkscape:cx="105.06188"
     inkscape:cy="79.806882"
     inkscape:window-x="-8"
     inkscape:window-y="-8"
     inkscape:window-maximized="1"
     inkscape:current-layer="Capa_1" />
  <g
     id="g58"
     transform="matrix(0.28794439,0,0,0.28459677,6.2935916,19.252246)"
     style="stroke-width:3.49325">
    <g
       id="g34"
       style="stroke-width:3.49325">
      <path
         d="m 214.249,446.397 c -5.314,0 -10.462,-2.829 -13.184,-7.823 L 36.921,137.464 c -3.966,-7.273 -1.283,-16.385 5.99,-20.35 7.276,-3.966 16.386,-1.283 20.35,5.99 l 164.145,301.11 c 3.966,7.273 1.283,16.385 -5.99,20.35 -2.281,1.244 -4.741,1.833 -7.167,1.833 z"
         fill="#f4da90"
         id="path2"
         style="stroke-width:11.7265" />
      <g
         id="g32"
         style="stroke-width:3.49325">
        <g
           id="g16"
           style="stroke-width:3.49325">
          <g
             id="g8"
             style="stroke-width:3.49325">
            <path
               d="m 270.843,75.129 h 33.788 c 8.284,0 15,6.716 15,15 V 436.261 H 255.843 V 90.129 c 0,-8.284 6.716,-15 15,-15 z"
               fill="#a56032"
               id="path4"
               style="stroke-width:11.7265" />
            <path
               d="m 304.631,75.129 h -16.894 v 361.133 h 31.894 V 90.129 c 0,-8.284 -6.716,-15 -15,-15 z"
               fill="#854d29"
               id="path6"
               style="stroke-width:11.7265" />
          </g>
          <g
             id="g14"
             style="stroke-width:3.49325">
            <path
               d="m 470.764,249.291 -11.556,31.75 c -2.833,7.785 -11.441,11.798 -19.226,8.965 L 77.106,157.928 c -7.785,-2.833 -11.798,-11.441 -8.965,-19.226 l 11.556,-31.75 C 82.53,99.167 91.138,95.154 98.923,97.987 l 362.876,132.078 c 7.785,2.834 11.799,11.441 8.965,19.226 z"
               fill="#c28459"
               id="path10"
               style="stroke-width:11.7265" />
            <path
               d="M 461.799,230.065 287.737,166.711 v 67.882 l 152.245,55.413 c 7.785,2.833 16.392,-1.18 19.226,-8.965 l 11.556,-31.75 c 2.834,-7.785 -1.18,-16.392 -8.965,-19.226 z"
               fill="#a56032"
               id="path12"
               style="stroke-width:11.7265" />
          </g>
        </g>
        <g
           id="g30"
           style="stroke-width:3.49325">
          <g
             id="g22"
             style="stroke-width:3.49325">
            <circle
               cx="96.748001"
               cy="61.428001"
               fill="#fbf4f4"
               transform="matrix(0.869,-0.496,0.496,0.869,-17.727,56.038)"
               id="ellipse18"
               r="61.428001"
               style="stroke-width:11.7265" />
            <path
               d="m 140.379,18.188 c -0.086,-0.087 -0.176,-0.166 -0.263,-0.252 l -86.863,86.863 c 23.892,23.962 62.682,24.096 86.733,0.26 24.098,-23.881 24.273,-62.774 0.393,-86.871 z"
               fill="#eae0db"
               id="path20"
               style="stroke-width:11.7265" />
          </g>
          <g
             id="g28"
             style="stroke-width:3.49325">
            <path
               d="m 27.158,130.392 c 32.153,32.444 82.139,36.472 118.717,11.943 7.821,-5.244 8.914,-16.328 2.286,-23.016 L 39.323,9.494 C 32.695,2.806 21.602,3.799 16.287,11.572 -8.571,47.928 -4.995,97.948 27.158,130.392 Z"
               fill="#457899"
               id="path24"
               style="stroke-width:11.7265" />
            <path
               d="M 148.161,119.319 93.694,64.358 27.413,130.639 c 32.161,32.212 81.978,36.161 118.461,11.696 7.822,-5.244 8.915,-16.328 2.287,-23.016 z"
               fill="#2b495d"
               id="path26"
               style="stroke-width:11.7265" />
          </g>
        </g>
      </g>
    </g>
    <g
       id="g56"
       style="stroke-width:3.49325">
      <g
         id="g40"
         style="stroke-width:3.49325">
        <path
           d="m 224.106,299.347 h 63.788 V 586.17 h -63.788 z"
           fill="#854d29"
           transform="rotate(90,256,442.759)"
           id="path36"
           style="stroke-width:11.7265" />
        <path
           d="m 287.737,410.865 h 111.674 v 63.788 H 287.737 Z"
           fill="#633a1e"
           id="path38"
           style="stroke-width:11.7265" />
      </g>
      <g
         id="g54"
         style="stroke-width:3.49325">
        <g
           id="g46"
           style="stroke-width:3.49325">
          <circle
             cx="68.223999"
             cy="443.776"
             fill="#457899"
             transform="matrix(0.707,-0.707,0.707,0.707,-293.814,178.221)"
             id="ellipse42"
             r="68.223999"
             style="stroke-width:11.7265" />
          <path
             d="m 68.223,458.777 c -5.83,0 -11.265,-3.52 -13.662,-8.828 -2.627,-5.817 -1.209,-12.895 3.51,-17.22 4.467,-4.094 11.09,-5.063 16.565,-2.507 6.014,2.808 9.503,9.566 8.367,16.095 -1.234,7.094 -7.559,12.46 -14.78,12.46 z"
             fill="#fbf4f4"
             id="path44"
             style="stroke-width:11.7265" />
        </g>
        <g
           id="g52"
           style="stroke-width:3.49325">
          <circle
             cx="443.776"
             cy="443.776"
             fill="#2b495d"
             transform="matrix(0.23,-0.973,0.973,0.23,-90.087,773.721)"
             id="ellipse48"
             r="68.223999"
             style="stroke-width:11.7265" />
          <path
             d="m 443.776,458.777 c -6.29,0 -12.038,-4.089 -14.135,-10.005 -2.128,-6.003 -0.121,-12.908 4.913,-16.823 4.821,-3.75 11.579,-4.179 16.838,-1.09 5.399,3.172 8.312,9.623 7.106,15.771 -1.363,6.948 -7.622,12.147 -14.722,12.147 z"
             fill="#eae0db"
             id="path50"
             style="stroke-width:11.7265" />
        </g>
      </g>
    </g>
  </g>
</svg>
