<?xml version="1.0" encoding="UTF-8" standalone="no"?>
<svg
   xmlns:dc="http://purl.org/dc/elements/1.1/"
   xmlns:cc="http://creativecommons.org/ns#"
   xmlns:rdf="http://www.w3.org/1999/02/22-rdf-syntax-ns#"
   xmlns:svg="http://www.w3.org/2000/svg"
   xmlns="http://www.w3.org/2000/svg"
   xmlns:sodipodi="http://sodipodi.sourceforge.net/DTD/sodipodi-0.dtd"
   xmlns:inkscape="http://www.inkscape.org/namespaces/inkscape"
   id="Layer_1"
   enable-background="new 0 0 512 512"
   height="170"
   viewBox="0 0 160 170"
   width="160"
   version="1.1"
   sodipodi:docname="knight.svg"
   inkscape:version="1.0.2 (e86c870879, 2021-01-15, custom)">
  <metadata
     id="metadata44">
    <rdf:RDF>
      <cc:Work
         rdf:about="">
        <dc:format>image/svg+xml</dc:format>
        <dc:type
           rdf:resource="http://purl.org/dc/dcmitype/StillImage" />
        <dc:title></dc:title>
      </cc:Work>
    </rdf:RDF>
  </metadata>
  <defs
     id="defs42" />
  <sodipodi:namedview
     pagecolor="#ffffff"
     bordercolor="#666666"
     borderopacity="1"
     objecttolerance="10"
     gridtolerance="10"
     guidetolerance="10"
     inkscape:pageopacity="0"
     inkscape:pageshadow="2"
     inkscape:window-width="1920"
     inkscape:window-height="1017"
     id="namedview40"
     showgrid="false"
     showguides="false"
     inkscape:zoom="2.3478155"
     inkscape:cx="197.69867"
     inkscape:cy="126.82871"
     inkscape:window-x="-8"
     inkscape:window-y="-8"
     inkscape:window-maximized="1"
     inkscape:current-layer="Layer_1">
    <sodipodi:guide
       position="-23.85196,209.18536"
       orientation="0,-1"
       id="guide869" />
  </sodipodi:namedview>
  <g
     id="g37"
     transform="matrix(0.29382019,0,0,0.28107429,4.4563701,19.627263)"
     style="stroke-width:3.47975">
    <g
       id="XMLID_201_"
       style="stroke-width:3.47975">
      <path
         d="M 261.853,136.917 249.924,123.998 206.31,138.35 180.499,92.882 c -4.397,-7.746 -14.24,-10.458 -21.983,-6.062 -7.745,4.396 -10.459,14.238 -6.062,21.983 l 32.33,56.953 c 2.295,4.043 6.122,6.766 10.405,7.754 2.792,0.644 5.778,0.55 8.657,-0.397 l 54,-17.77 z"
         fill="#6c9baa"
         id="path2"
         style="stroke-width:14.2776" />
    </g>
    <g
       id="XMLID_200_"
       style="stroke-width:3.47975">
      <path
         d="m 278.718,131.498 c -2.783,-8.459 -11.898,-13.06 -20.357,-10.277 l -8.437,2.776 7.922,31.344 10.595,-3.487 c 8.46,-2.782 13.062,-11.896 10.277,-20.356 z"
         fill="#ffb69e"
         id="path5"
         style="stroke-width:14.2776" />
    </g>
    <path
       d="M 469.602,128.316 170.89,165.881 c -6.303,0.793 -12.055,-3.674 -12.848,-9.977 -0.793,-6.303 3.674,-12.055 9.977,-12.848 0.14,-0.018 0.325,-0.036 0.464,-0.049 l 299.989,-25.425 c 2.97,-0.252 5.582,1.952 5.834,4.922 0.246,2.894 -1.851,5.449 -4.704,5.812 z"
       fill="#c8e6eb"
       id="path8"
       style="stroke-width:14.2776" />
    <path
       d="m 152.322,349.135 -11.573,33.201 c -2.36,6.771 -3.321,13.95 -2.826,21.103 l 7.002,101.05 c 0.293,4.229 3.81,7.511 8.049,7.511 4.266,0 7.796,-3.322 8.054,-7.58 l 5.944,-98.036 c 0.335,-5.524 2.615,-10.751 6.435,-14.755 l 36.176,-37.913 z"
       fill="#5a2d19"
       id="path10"
       style="stroke-width:14.2776" />
    <path
       d="m 282.758,353.716 14.385,150.98 c 0.395,4.141 3.872,7.303 8.032,7.303 h 0.322 c 4.213,0 7.717,-3.242 8.044,-7.442 l 14.13,-181.551 z"
       fill="#5a2d19"
       id="path12"
       style="stroke-width:14.2776" />
    <path
       d="m 410.999,189.219 c -12.85,-26.167 -40.756,-53.654 -54.647,-66.387 -5.089,-4.665 -11.729,-7.266 -18.634,-7.266 V 97.385 c 0,-3.887 -5.121,-5.304 -7.118,-1.969 l -12.069,20.15 -61.694,109.78 -51.26,9.413 -62.793,-9.413 c -11.579,0 -22.201,4.092 -30.505,10.904 -5.947,0.39 -16.447,24.045 -15.786,24.061 -1.188,4.185 -1.837,8.597 -1.837,13.162 v 75.909 L 83.17,382.335 c -2.36,6.771 -3.321,13.95 -2.826,21.103 l 7.002,101.05 c 0.293,4.229 3.81,7.511 8.049,7.511 4.266,0 7.796,-3.322 8.054,-7.58 l 5.944,-98.036 c 0.335,-5.524 2.615,-10.751 6.435,-14.754 l 30.643,-32.115 h 94.34 l 13.832,145.183 c 0.395,4.141 3.872,7.303 8.032,7.303 h 0.387 c 4.186,0 7.677,-3.202 8.038,-7.372 L 283.975,355.98 c 37.078,-10.777 64.179,-44.999 64.179,-85.554 v -45.08 -20.44 l 20.293,0.383 13.358,8.131 c 7.469,4.546 17.188,2.466 22.142,-4.74 l 6.27,-9.12 c 2.101,-3.056 2.417,-7.012 0.782,-10.341 z"
       fill="#783c28"
       id="path14"
       style="stroke-width:14.2776" />
    <path
       d="m 86.089,324.704 c -4.224,-36.309 -4.265,-36.904 -6.258,-47.147 0,0 -2.608,-9.388 3.321,-14.68 3.688,-2.246 4.303,-2.786 13.339,-2.565 -0.007,0.025 -0.013,0.051 -0.02,0.076 0.175,-0.007 0.343,-0.026 0.523,-0.026 8.301,0 15.03,-6.729 15.03,-15.03 v -9.067 c -6.603,0.427 -13.306,0.646 -19.484,0.721 -0.688,0.214 -16.049,-1.346 -28.911,11.695 -14.251,14.534 -14.067,26.022 -25.955,130.401 29.152,0 51.784,-25.422 48.415,-54.378 z"
       fill="#b48255"
       id="path16"
       style="stroke-width:14.2776" />
    <path
       d="m 347.501,145.57 c -2.041,0 -3.696,1.655 -3.696,3.696 0,2.041 1.655,3.696 3.696,3.696 2.041,0 3.696,-1.655 3.696,-3.696 10e-4,-2.041 -1.654,-3.696 -3.696,-3.696 z"
       fill="#ffffff"
       id="path18"
       style="stroke-width:14.2776" />
    <g
       id="g22"
       style="stroke-width:3.47975">
      <path
         d="m 141.467,225.214 v 75.573 c 0,8.028 6.508,14.536 14.536,14.536 H 242.3 c 8.028,0 14.536,-6.508 14.536,-14.536 v -75.573 z"
         fill="#dc1428"
         id="path20"
         style="stroke-width:14.2776" />
    </g>
    <circle
       cx="164.424"
       cy="35.674"
       fill="#ffb69e"
       transform="matrix(0.755,-0.655,0.655,0.755,16.843,116.468)"
       id="ellipse24"
       r="35.673"
       style="stroke-width:14.2776" />
    <g
       id="XMLID_199_"
       style="stroke-width:3.47975">
      <path
         d="m 163.688,338.491 c -9.25,-5.351 -12.411,-17.188 -7.06,-26.438 l 38.096,-65.854 -36.571,-19.319 -9.023,-5.579 c -9.379,-5.122 -12.83,-16.877 -7.708,-26.256 5.121,-9.378 16.875,-12.832 26.257,-7.708 l 62.999,34.403 c 4.576,2.499 7.95,6.74 9.357,11.761 1.407,5.021 0.729,10.397 -1.883,14.911 l -48.026,83.02 c -5.341,9.233 -17.171,12.42 -26.438,7.059 z"
         fill="#3c5a73"
         id="path26"
         style="stroke-width:14.2776" />
    </g>
    <path
       d="m 165.083,81.75 h -11.319 c -18.396,0 -33.309,14.913 -33.309,33.309 v 74.124 c 0,20.82 16.878,37.698 37.698,37.698 l 40.238,-22.772 v -89.05 C 198.392,96.662 183.479,81.75 165.083,81.75 Z"
       fill="#55879b"
       id="path29"
       style="stroke-width:14.2776" />
    <g
       id="XMLID_197_"
       style="stroke-width:3.47975">
      <path
         d="m 233.728,165.282 -36.348,-8.838 -16.919,-53.791 c -2.673,-8.496 -11.727,-13.216 -20.22,-10.544 -8.495,2.672 -13.216,11.725 -10.544,20.22 l 19.649,62.472 c 1.694,5.387 6.084,9.496 11.572,10.83 l 46.313,11.261 10.628,-13.305 z"
         fill="#6c9baa"
         id="path31"
         style="stroke-width:14.2776" />
    </g>
    <g
       id="XMLID_196_"
       style="stroke-width:3.47975">
      <path
         d="m 244.067,167.796 -10.338,-2.514 -6.496,31.61 9.215,2.241 c 8.695,2.113 17.385,-3.248 19.478,-11.859 2.104,-8.654 -3.206,-17.374 -11.859,-19.478 z"
         fill="#ffb69e"
         id="path34"
         style="stroke-width:14.2776" />
    </g>
  </g>
</svg>
