<?xml version="1.0" encoding="UTF-8" standalone="no"?>
<svg
   xmlns:osb="http://www.openswatchbook.org/uri/2009/osb"
   xmlns:dc="http://purl.org/dc/elements/1.1/"
   xmlns:cc="http://creativecommons.org/ns#"
   xmlns:rdf="http://www.w3.org/1999/02/22-rdf-syntax-ns#"
   xmlns:svg="http://www.w3.org/2000/svg"
   xmlns="http://www.w3.org/2000/svg"
   xmlns:sodipodi="http://sodipodi.sourceforge.net/DTD/sodipodi-0.dtd"
   xmlns:inkscape="http://www.inkscape.org/namespaces/inkscape"
   version="1.1"
   id="Capa_1"
   x="0px"
   y="0px"
   viewBox="0 0 160 170"
   xml:space="preserve"
   sodipodi:docname="coin.svg"
   width="160"
   height="170"
   inkscape:version="1.0.2 (e86c870879, 2021-01-15, custom)"><metadata
   id="metadata49"><rdf:RDF><cc:Work
       rdf:about=""><dc:format>image/svg+xml</dc:format><dc:type
         rdf:resource="http://purl.org/dc/dcmitype/StillImage" /><dc:title></dc:title></cc:Work></rdf:RDF></metadata><defs
   id="defs47"><linearGradient
     id="linearGradient2910"
     osb:paint="solid"><stop
       style="stop-color:#000000;stop-opacity:1;"
       offset="0"
       id="stop2908" /></linearGradient><clipPath
     clipPathUnits="userSpaceOnUse"
     id="clipPath911"><rect
       style="fill:#7d2626;fill-opacity:1;stroke-width:3.77953"
       id="rect913"
       width="3112.96"
       height="3199.6987"
       x="5943.0381"
       y="303.39536" /></clipPath><clipPath
     clipPathUnits="userSpaceOnUse"
     id="clipPath2955"><rect
       style="fill:#ffcc33;fill-opacity:1;stroke:#000000;stroke-width:0;stroke-miterlimit:4;stroke-dasharray:none;stroke-opacity:1"
       id="rect2957"
       width="35.448273"
       height="111.55141"
       x="79.978172"
       y="37.907578" /></clipPath></defs><sodipodi:namedview
   pagecolor="#ffffff"
   bordercolor="#666666"
   borderopacity="1"
   objecttolerance="10"
   gridtolerance="10"
   guidetolerance="10"
   inkscape:pageopacity="0"
   inkscape:pageshadow="2"
   inkscape:window-width="1920"
   inkscape:window-height="1017"
   id="namedview45"
   showgrid="false"
   showguides="false"
   inkscape:guide-bbox="true"
   inkscape:zoom="3.3203125"
   inkscape:cx="71.398267"
   inkscape:cy="94.998188"
   inkscape:window-x="-8"
   inkscape:window-y="-8"
   inkscape:window-maximized="1"
   inkscape:current-layer="Capa_1"><sodipodi:guide
     position="214.43765,424.19294"
     orientation="0,-1"
     id="guide874" /></sodipodi:namedview>
<path
   style="fill:#fedb41;stroke-width:1"
   d="m 79.978175,17.037114 c -41.220117,0 -75.2929687,33.486328 -75.2929687,74.707031 0,41.220695 34.0728517,75.292965 75.2929687,75.292965 41.220125,0 74.707035,-34.07227 74.707035,-75.292965 0,-41.220703 -33.48691,-74.707031 -74.707035,-74.707031 z"
   id="path2" />
<path
   style="fill:#ffcc33;stroke-width:1"
   d="m 154.68521,91.744145 c 0,41.220695 -33.48691,75.292965 -74.707035,75.292965 V 17.037114 c 41.220125,0 74.707035,33.486328 74.707035,74.707031 z"
   id="path4" />
<path
   style="fill:#fea832;stroke-width:1"
   d="m 79.978175,34.615239 c -31.46543,0 -57.714844,25.66377 -57.714844,57.128906 0,31.465135 26.249414,57.714845 57.714844,57.714845 31.465435,0 57.128915,-26.24971 57.128915,-57.714845 0,-31.465136 -25.66348,-57.128906 -57.128915,-57.128906 z"
   id="path6" />
<path
   style="fill:#fe9923;stroke-width:1"
   d="m 137.10709,91.744145 c 0,31.465135 -25.66348,57.714845 -57.128915,57.714845 V 34.615239 c 31.465435,0 57.128915,25.66377 57.128915,57.128906 z"
   id="path8" />


<g
   id="g14">
</g>
<g
   id="g16">
</g>
<g
   id="g18">
</g>
<g
   id="g20">
</g>
<g
   id="g22">
</g>
<g
   id="g24">
</g>
<g
   id="g26">
</g>
<g
   id="g28">
</g>
<g
   id="g30">
</g>
<g
   id="g32">
</g>
<g
   id="g34">
</g>
<g
   id="g36">
</g>
<g
   id="g38">
</g>
<g
   id="g40">
</g>
<g
   id="g42">
</g>
<path
   style="font-variation-settings:normal;vector-effect:none;fill:#fedb41;fill-opacity:1;stroke:#000000;stroke-width:0;stroke-linecap:butt;stroke-linejoin:miter;stroke-miterlimit:4;stroke-dasharray:none;stroke-dashoffset:0;stroke-opacity:1;stop-color:#000000"
   d="m 74.541375,40.000216 0.768472,0.504955 0.393161,0.504945 -0.0358,3.404318 0.679113,0.814427 0.08934,0.407209 -0.01785,0.521239 -0.375302,0.521229 -0.893557,0.293199 -1.543115,-0.163399 -2.097723,6.035311 -2.350456,7.786014 -2.198825,7.302269 0.657125,0.460711 0.884575,0.483744 0.631852,0.621963 0.556022,0.714094 0.429656,0.691073 0.22746,0.76017 v 0.529821 l 0.07586,0.714104 -0.278016,0.691062 -0.581296,0.184284 H 69.182967 L 68.525852,73.598674 68.12147,73.391357 67.81819,72.976712 67.5149,72.723328 c 0,0 -0.202186,-0.09212 -0.328552,-0.138218 -0.126377,-0.04611 -0.328564,-0.138209 -0.328564,-0.138209 l -0.606568,0.05756 -0.366472,0.06911 -0.353836,0.241872 c 0,0 -0.366463,0.368569 -0.391737,0.437669 -0.02526,0.06911 -0.404383,0.610451 -0.442292,0.737138 -0.03788,0.126697 -0.353836,0.760181 -0.391746,0.886877 -0.03788,0.126688 -0.341199,1.4282 -0.366473,1.497309 -0.02526,0.06911 -0.353826,1.531864 -0.353826,1.531864 l -0.338104,1.675169 -0.303812,0.830721 -0.125094,0.814428 0.08934,0.358345 c 0,0 0.375292,0.276904 0.464651,0.309482 0.08934,0.03255 0.893566,0.439789 0.893566,0.439789 l 1.393953,0.456081 1.125888,0.09773 c 0,0 0.643367,0.06519 0.822085,0.09773 0.178707,0.03255 0.607622,0.09773 0.607622,0.09773 0,0 0.268067,0.09773 0.285934,0 0.01785,-0.09773 0.01785,-0.276904 0.01785,-0.276904 0,0 -0.16084,-0.244326 -0.196576,-0.309482 -0.0357,-0.0652 -0.39317,-0.423503 -0.39317,-0.423503 l -0.661236,-0.553818 c 0,0 -0.142972,-0.228041 -0.196585,-0.342061 -0.05364,-0.114021 -0.16084,-0.439788 -0.16084,-0.504944 0,-0.0652 0.07149,-0.26062 0.07149,-0.26062 0,0 0.196584,-0.293188 0.285934,-0.37463 0.08934,-0.08143 0.500396,-0.211757 0.500396,-0.211757 l 0.679113,-0.04887 0.661237,0.06519 0.982924,0.504944 1.10801,0.586397 1.161632,0.830712 0.78634,0.504955 0.107227,-0.09773 -0.178717,-0.325778 v 0 l -0.16084,-0.456081 v -0.37464 l 0.196585,-0.276904 0.428915,-0.114019 c 0,0 0.393161,-0.09773 0.536132,-0.09773 0.142972,0 0.857821,0.04887 0.857821,0.04887 l 0.804209,0.293197 0.231991,-0.06725 0.03607,-0.128205 v 0 L 75.1847,79.744405 74.434106,78.750801 74.040945,77.985236 c 0,0 -0.285943,-0.961026 -0.285943,-1.026183 0,-0.0652 -0.125105,-0.63526 -0.125105,-0.63526 l 0.107236,-1.254214 0.446774,-1.254225 0.446784,-0.765564 0.750594,-1.12391 1.197377,-1.205361 1.322472,-0.977311 1.644152,-0.912164 1.036538,-0.293188 1.215246,-0.358356 0.9293,-0.423502 0.696982,-0.358346 0.732717,-0.521239 0.39317,-0.342061 0.303811,-0.472366 0.07149,-0.765565 -0.142963,-0.86329 -0.321688,-0.635259 -0.589746,-0.293198 -0.822085,-0.228032 c 0,0 -0.786329,-0.04887 -0.85782,-0.06519 -0.07149,-0.01633 -0.94717,-0.03255 -0.94717,-0.03255 l -1.000792,0.04888 -0.643369,0.162884 c 0,0 -0.446783,0.276903 -0.589745,0.37464 -0.142972,0.09773 -0.804208,0.521229 -0.875699,0.586386 -0.07149,0.06519 -0.589744,0.472367 -0.714849,0.553817 -0.125094,0.08143 -0.571877,0.439789 -0.661235,0.488651 -0.08934,0.04888 -0.500407,0.26062 -0.500407,0.26062 0,0 -0.107226,0.03255 -0.214453,0.309482 -0.107225,0.276904 -0.23233,0.586386 -0.23233,0.586386 l -0.214452,0.700418 0.03569,1.156488 -0.05364,0.456072 -0.16084,0.211756 -0.268066,0.472366 -0.446783,0.03255 -0.875699,-0.04887 -0.411038,-0.08143 -0.268066,-0.195462 -0.250198,-0.390925 -0.214452,-0.749279 -0.142972,-1.026184 -0.07149,-1.156488 -0.125094,-0.63525 -0.142972,-0.521239 c 0,0 -0.05364,-0.407209 -0.05364,-0.472366 0,-0.06519 0.08934,-0.602681 0.08934,-0.602681 l 0.268066,-0.732985 v 0 l 0.303811,-0.716701 0.357425,-0.472367 0.214452,-0.130305 0.125105,-0.407218 c 0,0 -0.285944,-0.553808 -0.285944,-0.684123 0,-0.130305 -0.0357,-0.847005 -0.01785,-0.912153 0.01785,-0.06519 0.750594,-1.172783 0.750594,-1.172783 l 0.911434,-0.86329 0.500396,-0.667838 0.268066,-0.570102 0.196585,-1.205351 0.07149,-1.205362 0.250198,-0.830712 0.39317,-0.765564 0.428906,-0.944742 c 0,0 0.375302,-0.553808 0.411047,-0.618965 0.0357,-0.06519 0.768462,-0.74927 0.768462,-0.74927 l 0.661237,-0.521239 0.661235,-0.0652 0.714849,0.01622 0.196585,0.390924 c 0,0 0.107227,0.651544 0.08934,0.749279 -0.01785,0.09773 -0.250198,0.684124 -0.285943,0.814428 -0.03569,0.130314 -0.268066,0.602681 -0.285944,0.667837 -0.01785,0.0652 -0.446783,1.742876 -0.446783,1.742876 l -0.107227,0.912163 0.0358,1.319372 0.07149,0.570103 0.16085,0.211746 c 0,0 0.62549,-0.04887 0.696971,-0.08143 0.07149,-0.03255 1.125897,-0.162883 1.125897,-0.162883 l 0.625453,-0.09773 0.589753,-0.162883 0.446774,-0.456083 0.464661,-0.358345 0.518264,-0.618966 c 0,0 0.16084,-0.749279 0.196585,-0.814427 0.03569,-0.06519 0.07149,-0.781858 0.07149,-0.781858 l 0.357425,-0.309483 c 0,0 0.804207,-0.01622 0.875689,-0.01622 0.07149,0 0.518273,0.04888 0.518273,0.04888 l 0.375283,0.423503 c 0,0 0.285945,0.602681 0.303812,0.667838 0.01785,0.0652 0.08934,1.009889 0.08934,1.12391 0,0.11402 0,0.74928 -0.01785,0.814427 -0.01785,0.0652 -0.214463,0.74928 -0.214463,0.74928 l -0.518264,0.618965 -0.893566,0.553808 -0.696972,0.407218 -0.571887,0.325768 -0.732717,0.342061 -0.643368,0.244335 -0.696981,0.423503 v 0 l -0.589745,0.228041 -0.107226,0.195462 c 0,0 0.232321,0.04888 0.321679,0.04888 0.08934,0 1.161631,-0.08143 1.161631,-0.08143 h 1.090142 l 0.965057,0.04888 0.732717,0.211746 0.696981,0.309484 0.641109,0.502538 0.909848,0.691062 0.505476,0.529821 0.556023,0.875355 0.480202,0.944456 0.151649,1.082664 -0.07586,0.852323 -0.202186,0.898379 -0.480203,0.944456 -0.556022,0.760181 -0.328562,0.598919 -1.112045,0.783204 c 0,0 -0.909858,0.621963 -1.036224,0.691072 -0.126367,0.06911 -0.884576,0.29946 -1.162592,0.345536 -0.278016,0.0461 -1.112044,0.253384 -1.339514,0.29946 -0.22746,0.04611 -0.909848,0.345535 -1.086771,0.414635 -0.176912,0.06911 -0.556021,0.391612 -0.758208,0.483754 -0.202196,0.09212 -0.454929,0.207317 -0.556023,0.253384 -0.101097,0.0461 -0.606569,0.368568 -0.606569,0.368568 l -0.783491,0.575896 -0.429656,0.368569 -0.126366,0.506779 -0.227441,0.506786 v 0 l -0.126367,0.806238 0.378234,0.831429 1.71949,1.310884 -4.384298,3.078305 4.384298,-3.078305 0.935131,0.644996 1.187863,0.668029 0.808765,0.898379 0.15164,0.345537 v 0 0.575886 l 0.328562,0.138218 c 0,0 0.505476,0.023 0.682389,-0.02301 0.176923,-0.04611 0.834039,-0.184284 0.834039,-0.184284 0,0 0.556022,-0.161251 0.682389,-0.184285 0.126366,-0.023 0.606568,-0.06911 0.859311,-0.06911 0.252733,0 0.404382,0.138209 0.404382,0.138209 l 0.353827,0.483744 c 0,0 -0.05051,0.391611 -0.15164,0.506787 -0.101098,0.115175 -0.15164,0.368569 -0.278006,0.483744 -0.126377,0.115176 -0.505476,0.414646 -0.657125,0.529821 -0.15164,0.115175 -0.859303,0.506777 -0.859303,0.506777 l 0.176914,0.138218 0.707661,-0.23036 0.732946,-0.09212 0.859302,-0.483744 0.556022,-0.460711 v 0 l 0.960405,-0.806247 1.491154,-1.036598 0.404382,-0.06911 0.429656,0.391602 0.404382,0.437678 c 0,0 0.15164,0.483744 0.15164,0.575887 0,0.09212 -0.05051,0.52982 -0.126366,0.691071 -0.07586,0.161242 -0.303289,0.506778 -0.37911,0.598919 -0.07586,0.09212 -0.429655,0.621964 -0.429655,0.621964 l -0.22746,0.529819 0.859302,0.02301 c 0,0 0.834038,-0.207327 0.935131,-0.230361 0.101098,-0.023 0.556023,-0.299459 0.682389,-0.322493 0.126377,-0.023 0.884585,-0.276426 1.010952,-0.345535 0.12638,-0.06911 0.78349,-0.460711 0.78349,-0.460711 l 1.23841,-0.414645 0.32857,-0.460711 0.0253,-1.036598 -0.32856,-1.474276 -0.35383,-1.958019 -0.53075,-2.02713 -0.85931,-1.474276 -0.707666,-0.621953 -0.657125,-0.184284 c 0,0 -0.884575,-0.09212 -1.010952,-0.02301 -0.126366,0.06911 -0.859302,0.414636 -0.859302,0.414636 v 0 c 0,0 -0.593913,0.287948 -0.657105,0.287948 -0.06314,0 -0.480194,0.195797 -0.783483,0.115176 -0.303289,-0.08066 -0.796128,-0.97901 -0.796128,-0.97901 0,0 -0.02526,-0.437678 -0.02526,-0.610442 0,-0.172763 0.126375,-0.702583 0.328562,-0.932943 0.202186,-0.230351 0.556022,-0.760172 0.644479,-0.806237 0.08849,-0.04611 0.644488,-0.575897 0.644488,-0.575897 l 0.530749,-0.564365 1.213139,-0.863835 0.543385,-0.299459 0.505476,-0.368569 c 0,0 -0.366473,-1.013565 -0.404383,-1.128741 -0.03788,-0.115185 -1.566973,-5.943178 -1.566973,-5.943178 l -1.794425,-6.795482 -1.339513,-5.459425 -0.353836,-1.589451 -0.252734,-0.29946 -0.353836,0.09212 -0.379109,0.207317 -0.808755,0.06911 -0.530749,-0.04611 v 0 l -0.379132,-0.184295 c 0,0 -0.290642,-0.322492 -0.328562,-0.437668 -0.03788,-0.115184 -0.08848,-0.52982 -0.08848,-0.598929 0,-0.06911 0.07586,-0.287938 0.139013,-0.345536 0.06323,-0.05756 0.480193,-0.357047 0.480193,-0.357047 0,0 0.164286,-0.334015 0.252743,-0.44919 0.08849,-0.115176 0.328562,-0.67955 0.328562,-0.67955 0,0 0.02526,-0.322493 0.02526,-0.414635 0,-0.09212 -0.02526,-0.460711 0,-0.575896 0.02526,-0.115176 0.11373,-1.393645 0.11373,-1.393645 0,0 0.176913,-0.345537 0.265369,-0.437678 0.08849,-0.09212 0.404383,-0.345536 0.404383,-0.345536 0,0 0.176923,-0.03456 0.252743,-0.03456 0.07586,0 0.492839,-0.01155 0.606569,0.03456 0.11373,0.0461 0.467566,0.253393 0.467566,0.253393 0,0 0.214823,0.287948 0.315916,0.506777 0.101097,0.218839 0.379109,0.955977 0.379109,0.955977 0,0 0.290653,0.714105 0.315926,0.817769 0.02526,0.103656 0.15164,0.483744 0.164277,0.541332 0.01263,0.05756 0.909858,1.278469 0.909858,1.278469 l 2.011203,4.303415 2.78791,5.114623 3.93168,7.557896 4.917041,9.998688 5.3075,10.780631 -0.10115,0.691072 -3.74051,7.970298 -5.5097,10.780627 -6.621718,13.45275 -5.863523,12.07063 -0.540442,0.43584 v 0 l -0.393123,0.29319 v 0 l -0.375292,0.24433 -0.268076,-0.0327 -0.357424,-0.2769 -0.357425,-0.53754 v 0 l -0.339557,-1.12391 0.16085,-4.10471 0.125094,-5.2775 0.01785,-4.0233 0.482528,-0.66781 0.94718,-0.47237 2.019453,-0.63525 1.161632,-0.5701 1.143756,-0.61898 0.822076,-0.43979 0.250197,-0.29319 0.05364,-3.58349 0.01785,-1.97092 0.303812,-1.12391 0.428905,-1.10762 0.303811,-0.7167 0.196585,-0.58639 -0.428906,-0.0326 c 0,0 -0.85782,0.66782 -0.982924,0.73298 -0.125095,0.0651 -1.286727,0.22804 -1.465444,0.24434 -0.178707,0.0163 -1.304604,0.32577 -1.376085,0.35834 -0.07149,0.0326 -0.696981,1.09133 -0.696981,1.09133 0,0 -0.643359,1.35196 -0.696972,1.41711 -0.05364,0.0651 -0.607632,0.96102 -0.679114,1.00989 -0.07149,0.049 -0.893565,0.84701 -0.893565,0.84701 l -0.929303,0.34205 c 0,0 -0.500397,0.0163 -0.62549,0.0163 -0.125105,0 -0.732727,-0.21175 -0.732727,-0.21175 l -0.16084,-0.48867 c 0,0 -0.03569,-0.53751 -0.03569,-0.63525 0,-0.0977 0.01785,-0.78185 0.01785,-0.87957 0,-0.0977 -0.107226,-1.17278 -0.107226,-1.17278 v 0 l -0.500397,0.0163 c 0,0 -0.500396,0.55382 -0.571887,0.63526 -0.07149,0.0814 -0.46465,0.73298 -0.46465,0.73298 l 0.07149,1.31937 0.428905,1.59628 0.39317,1.25423 0.303812,2.39441 0.107227,2.2804 -0.142972,0.89588 -0.339557,0.48865 -1.715632,1.98721 -1.662028,1.66144 -0.982925,1.0099 -0.32168,0.79813 0.08934,0.76557 0.661237,1.04247 1.036528,1.79174 0.411038,0.91216 v 0 l 1.9e-5,0.60267 -0.01785,0.71672 -0.125095,0.61896 -0.482528,0.66783 -0.714849,0.76556 -1.376085,1.87319 -0.965048,1.4334 -0.321689,0.58639 0.08934,0.79814 0.982925,1.72658 0.714849,1.46597 0.714849,1.51484 0.39317,0.91215 0.125094,0.53753 v 0 l 0.32166,0.40722 c 0,0 0.411039,0.17917 0.428916,0.2606 0.01785,0.0815 0.196585,0.84704 0.196585,0.84704 0,0 0.05364,0.78184 0.03569,0.86327 -0.01785,0.0815 -0.446772,0.73299 -0.518264,0.91216 -0.07149,0.17918 -0.178707,0.733 -0.214453,0.97732 -0.03569,0.24434 -0.01785,0.92846 -0.07149,1.02619 -0.05364,0.0977 -0.482528,0.47238 -0.482528,0.47238 l -0.78634,-0.0163 c 0,0 -0.589746,0.0814 -0.607624,0 -0.01785,-0.0815 -0.107225,-0.79816 -0.107225,-0.79816 l -0.321632,-0.81443 c 0,0 -0.107227,-0.40724 -0.125094,-0.53754 -0.01785,-0.13033 -0.214463,-0.99361 -0.214463,-0.99361 0,0 -0.107227,-0.79814 -0.107227,-0.87958 0,-0.0814 -0.07149,-0.30948 -0.07149,-0.48865 0,-0.17919 -0.250198,-0.78185 -0.250198,-0.78185 l -0.482519,-0.55381 -0.679114,-0.96105 -0.714849,-1.38453 -0.571878,-1.51482 v 0 l -1.197377,-2.36185 -0.05364,-0.87958 0.482519,-0.79814 1.644161,-2.24783 1.858614,-3.30658 -1.322481,-2.73649 -0.339548,-1.31937 c 0,0 -0.107226,-0.74928 -0.107226,-0.84702 v -0.86327 c 0,-0.0651 0.321678,-0.83073 0.321678,-0.83073 l 1.340341,-1.5474 2.055198,-2.78536 0.643369,-1.15649 0.196585,-0.91216 -0.55401,-2.11753 -1.894359,-3.58348 v 0 l -1.143755,-2.06864 v 0 l -1.250991,-2.10114 -0.500397,-0.57009 c 0,0 -0.482519,-0.0651 -0.571877,-0.049 -0.08934,0.0163 -0.303812,0.53753 -0.303812,0.60269 0,0.0651 -0.07149,1.4171 -0.07149,1.49853 0,0.0814 -0.08934,1.23794 -0.08934,1.23794 l -0.196585,0.48865 c 0,0 -0.339557,0.52123 -0.411039,0.55382 -0.07149,0.0327 -0.607622,0.24432 -0.768462,0.24432 -0.160849,0 -1.036537,-0.63525 -1.036537,-0.63525 0,0 -1.090143,-1.22165 -1.161633,-1.35195 -0.07149,-0.13031 -1.125887,-1.57999 -1.143755,-1.64515 -0.01785,-0.0651 -1.644161,-2.24781 -1.644161,-2.24781 v 0 l -1.250991,-1.254231 0.125104,1.824311 0.268066,2.62247 0.142972,1.66144 v 3.06224 0 l 0.893556,0.92846 1.697774,0.96101 1.483313,0.94475 1.536934,0.55382 0.750584,0.2932 0.142973,1.43339 v 2.1338 l -0.375293,10.9948 -0.250198,0.89587 c 0,0 -0.482529,0.32577 -0.625491,0.34206 -0.142972,0.0164 -0.589754,-0.0163 -0.768472,-0.1303 -0.178707,-0.11402 -0.750585,-0.89588 -0.78633,-0.97733 -0.03569,-0.0815 -0.768463,-1.77544 -0.768463,-1.77544 l -3.645736,-8.03028 -5.218407,-11.10881 -5.039699,-11.434593 -5.437341,-12.415863 -0.30329,-1.428209 0.101098,-0.875346 1.213147,-1.750702 3.38668,-5.528535 5.206398,-9.214214 5.206396,-8.845643 4.448188,-8.108517 2.679019,-4.330685 1.187874,-2.027119 0.530749,-0.322503 0.581647,-0.01267 v 0 0 z"
   id="path917-4"
   sodipodi:nodetypes="ccccccccccccccccccccccccccccsccccsssscccccscccscscsccsscsccccccccccccccsccccccccsccccccccccccccccccccscccsssscsccccccccccccccccscccccccsscccccccccscccccccccccccscccccccccsccssscccccccccccscccccccccccccccccssssssccccccccccccccccccscsscccssccccccccccccssccccsssccccccccccsccsscsssccccccccccccccccccsccccsscccsscscssccccccccccccccccccccccccccccccccccccccssscssccsccsscccscccccccccccccccccccccccccccccccccsccscsccsccscsscccccccccccccssccccccccccccsssccsscsscccccccccccccccccsssccccccccccccccccccc"
   inkscape:transform-center-x="1.8766178"
   inkscape:transform-center-y="-0.00019599946" /><path
   style="font-variation-settings:normal;opacity:1;vector-effect:none;fill:#ffcc33;fill-opacity:1;stroke:#000000;stroke-width:0;stroke-linecap:butt;stroke-linejoin:miter;stroke-miterlimit:4;stroke-dasharray:none;stroke-dashoffset:0;stroke-opacity:1;stop-color:#000000;stop-opacity:1"
   d="m 74.541375,40.000196 0.768472,0.504955 0.393161,0.504945 -0.0358,3.404318 0.679113,0.814427 0.08934,0.407209 -0.01785,0.521239 -0.375302,0.521229 -0.893557,0.293199 -1.543115,-0.163399 -2.097723,6.035311 -2.350456,7.786014 -2.198825,7.302269 0.657125,0.460711 0.884575,0.483744 0.631852,0.621963 0.556022,0.714094 0.429656,0.691073 0.22746,0.76017 v 0.529821 l 0.07586,0.714104 -0.278016,0.691062 -0.581296,0.184284 H 69.182967 L 68.525852,73.598654 68.12147,73.391337 67.81819,72.976692 67.5149,72.723308 c 0,0 -0.202186,-0.09212 -0.328552,-0.138218 -0.126377,-0.04611 -0.328564,-0.138209 -0.328564,-0.138209 l -0.606568,0.05756 -0.366472,0.06911 -0.353836,0.241872 c 0,0 -0.366463,0.368569 -0.391737,0.437669 -0.02526,0.06911 -0.404383,0.610451 -0.442292,0.737138 -0.03788,0.126697 -0.353836,0.760181 -0.391746,0.886877 -0.03788,0.126688 -0.341199,1.4282 -0.366473,1.497309 -0.02526,0.06911 -0.353826,1.531864 -0.353826,1.531864 l -0.338104,1.675169 -0.303812,0.830721 -0.125094,0.814428 0.08934,0.358345 c 0,0 0.375292,0.276904 0.464651,0.309482 0.08934,0.03255 0.893566,0.439789 0.893566,0.439789 l 1.393953,0.456081 1.125888,0.09773 c 0,0 0.643367,0.06519 0.822085,0.09773 0.178707,0.03255 0.607622,0.09773 0.607622,0.09773 0,0 0.268067,0.09773 0.285934,0 0.01785,-0.09773 0.01785,-0.276904 0.01785,-0.276904 0,0 -0.16084,-0.244326 -0.196576,-0.309482 -0.0357,-0.0652 -0.39317,-0.423503 -0.39317,-0.423503 l -0.661236,-0.553818 c 0,0 -0.142972,-0.228041 -0.196585,-0.342061 -0.05364,-0.114021 -0.16084,-0.439788 -0.16084,-0.504944 0,-0.0652 0.07149,-0.26062 0.07149,-0.26062 0,0 0.196584,-0.293188 0.285934,-0.37463 0.08934,-0.08143 0.500396,-0.211757 0.500396,-0.211757 l 0.679113,-0.04887 0.661237,0.06519 0.982924,0.504944 1.10801,0.586397 1.161632,0.830712 0.78634,0.504955 0.107227,-0.09773 -0.178717,-0.325778 v 0 l -0.16084,-0.456081 v -0.37464 l 0.196585,-0.276904 0.428915,-0.114019 c 0,0 0.393161,-0.09773 0.536132,-0.09773 0.142972,0 0.857821,0.04887 0.857821,0.04887 l 0.804209,0.293197 0.231991,-0.06725 0.03607,-0.128205 v 0 L 75.1847,79.744385 74.434106,78.750781 74.040945,77.985216 c 0,0 -0.285943,-0.961026 -0.285943,-1.026183 0,-0.0652 -0.125105,-0.63526 -0.125105,-0.63526 l 0.107236,-1.254214 0.446774,-1.254225 0.446784,-0.765564 0.750594,-1.12391 1.197377,-1.205361 1.322472,-0.977311 1.644152,-0.912164 1.036538,-0.293188 1.215246,-0.358356 0.929301,-0.423502 0.696982,-0.358346 0.732717,-0.521239 0.39317,-0.342061 0.303811,-0.472366 0.07149,-0.765565 -0.142963,-0.86329 -0.321688,-0.635259 -0.589746,-0.293198 -0.822085,-0.228032 c 0,0 -0.78633,-0.04887 -0.857821,-0.06519 -0.07149,-0.01633 -0.94717,-0.03255 -0.94717,-0.03255 l -1.000792,0.04888 -0.643369,0.162884 c 0,0 -0.446783,0.276903 -0.589745,0.37464 -0.142972,0.09773 -0.804208,0.521229 -0.875699,0.586386 -0.07149,0.06519 -0.589744,0.472367 -0.714849,0.553817 -0.125094,0.08143 -0.571877,0.439789 -0.661235,0.488651 -0.08934,0.04888 -0.500407,0.26062 -0.500407,0.26062 0,0 -0.107226,0.03255 -0.214453,0.309482 -0.107225,0.276904 -0.23233,0.586386 -0.23233,0.586386 l -0.214452,0.700418 0.03569,1.156488 -0.05364,0.456072 -0.16084,0.211756 -0.268066,0.472366 -0.446783,0.03255 -0.875699,-0.04887 -0.411038,-0.08143 -0.268066,-0.195462 -0.250198,-0.390925 -0.214452,-0.749279 -0.142972,-1.026184 -0.07149,-1.156488 -0.125094,-0.63525 -0.142972,-0.521239 c 0,0 -0.05364,-0.407209 -0.05364,-0.472366 0,-0.06519 0.08934,-0.602681 0.08934,-0.602681 l 0.268066,-0.732985 v 0 l 0.303811,-0.716701 0.357425,-0.472367 0.214452,-0.130305 0.125105,-0.407218 c 0,0 -0.285944,-0.553808 -0.285944,-0.684123 0,-0.130305 -0.0357,-0.847005 -0.01785,-0.912153 0.01785,-0.06519 0.750594,-1.172783 0.750594,-1.172783 l 0.911434,-0.86329 0.500396,-0.667838 0.268066,-0.570102 0.196585,-1.205351 0.07149,-1.205362 0.250198,-0.830712 0.39317,-0.765564 0.428906,-0.944742 c 0,0 0.375302,-0.553808 0.411047,-0.618965 0.0357,-0.06519 0.768462,-0.74927 0.768462,-0.74927 l 0.661237,-0.521239 0.661235,-0.0652 0.714849,0.01622 0.196585,0.390924 c 0,0 0.107227,0.651544 0.08934,0.749279 -0.01785,0.09773 -0.250198,0.684124 -0.285943,0.814428 -0.03569,0.130314 -0.268066,0.602681 -0.285944,0.667837 -0.01785,0.0652 -0.446783,1.742876 -0.446783,1.742876 l -0.107227,0.912163 0.0358,1.319372 0.07149,0.570103 0.16085,0.211746 c 0,0 0.62549,-0.04887 0.696971,-0.08143 0.07149,-0.03255 1.125897,-0.162883 1.125897,-0.162883 l 0.625453,-0.09773 0.589754,-0.162883 0.446774,-0.456083 0.464661,-0.358345 0.518264,-0.618966 c 0,0 0.16084,-0.749279 0.196585,-0.814427 0.03569,-0.06519 0.07149,-0.781858 0.07149,-0.781858 l 0.357425,-0.309483 c 0,0 0.804207,-0.01622 0.875689,-0.01622 0.07149,0 0.518273,0.04888 0.518273,0.04888 l 0.375283,0.423503 c 0,0 0.285945,0.602681 0.303812,0.667838 0.01785,0.0652 0.08934,1.009889 0.08934,1.12391 0,0.11402 0,0.74928 -0.01785,0.814427 -0.01785,0.0652 -0.214463,0.74928 -0.214463,0.74928 l -0.518264,0.618965 -0.893566,0.553808 -0.696972,0.407218 -0.571887,0.325768 -0.732717,0.342061 -0.643368,0.244335 -0.696982,0.423503 v 0 l -0.589745,0.228041 -0.107226,0.195462 c 0,0 0.232321,0.04888 0.321679,0.04888 0.08934,0 1.161632,-0.08143 1.161632,-0.08143 h 1.090142 l 0.965057,0.04888 0.732717,0.211746 0.696981,0.309484 0.641109,0.502538 0.909848,0.691062 0.505476,0.529821 0.556023,0.875355 0.480202,0.944456 0.151649,1.082664 -0.07586,0.852323 -0.202186,0.898379 -0.480203,0.944456 -0.556022,0.760181 -0.328562,0.598919 -1.112045,0.783204 c 0,0 -0.909858,0.621963 -1.036224,0.691072 -0.126367,0.06911 -0.884576,0.29946 -1.162592,0.345536 -0.278016,0.0461 -1.112044,0.253384 -1.339514,0.29946 -0.22746,0.04611 -0.909849,0.345535 -1.086772,0.414635 -0.176912,0.06911 -0.556021,0.391612 -0.758208,0.483754 -0.202196,0.09212 -0.454929,0.207317 -0.556023,0.253384 -0.101097,0.0461 -0.606569,0.368568 -0.606569,0.368568 l -0.783491,0.575896 -0.429656,0.368569 -0.126366,0.506779 -0.227441,0.506786 v 0 l -0.126367,0.806238 0.378234,0.831429 1.71949,1.310884 -4.384298,3.078305 4.384298,-3.078305 0.935131,0.644996 1.187864,0.668029 0.808765,0.898379 0.15164,0.345537 v 0 0.575886 l 0.328562,0.138218 c 0,0 0.505476,0.023 0.682389,-0.02301 0.176923,-0.04611 0.834039,-0.184284 0.834039,-0.184284 0,0 0.556022,-0.161251 0.682389,-0.184285 0.126366,-0.023 0.606568,-0.06911 0.859311,-0.06911 0.252733,0 0.404382,0.138209 0.404382,0.138209 l 0.353827,0.483744 c 0,0 -0.05051,0.391611 -0.15164,0.506787 -0.101098,0.115175 -0.15164,0.368569 -0.278006,0.483744 -0.126377,0.115176 -0.505476,0.414646 -0.657125,0.529821 -0.15164,0.115175 -0.859303,0.506777 -0.859303,0.506777 l 0.176914,0.138218 0.707661,-0.23036 0.732946,-0.09212 0.859302,-0.483744 0.556022,-0.460711 v 0 l 0.960405,-0.806247 1.491154,-1.036598 0.404382,-0.06911 0.429656,0.391602 0.404382,0.437678 c 0,0 0.15164,0.483744 0.15164,0.575887 0,0.09212 -0.05051,0.52982 -0.126366,0.691071 -0.07586,0.161242 -0.303289,0.506778 -0.37911,0.598919 -0.07586,0.09212 -0.429655,0.621964 -0.429655,0.621964 l -0.22746,0.529819 0.859302,0.02301 c 0,0 0.834038,-0.207327 0.935131,-0.230361 0.101098,-0.023 0.556023,-0.299459 0.682389,-0.322493 0.126377,-0.023 0.884585,-0.276426 1.010952,-0.345535 0.12638,-0.06911 0.78349,-0.460711 0.78349,-0.460711 l 1.23841,-0.414645 0.32857,-0.460711 0.0253,-1.036598 -0.32856,-1.474276 -0.35383,-1.958019 -0.53075,-2.02713 -0.85931,-1.474276 -0.707666,-0.621953 -0.657125,-0.184284 c 0,0 -0.884575,-0.09212 -1.010952,-0.02301 -0.126366,0.06911 -0.859302,0.414636 -0.859302,0.414636 v 0 c 0,0 -0.593913,0.287948 -0.657105,0.287948 -0.06314,0 -0.480194,0.195797 -0.783483,0.115176 -0.303289,-0.08066 -0.796128,-0.97901 -0.796128,-0.97901 0,0 -0.02526,-0.437678 -0.02526,-0.610442 0,-0.172763 0.126375,-0.702583 0.328562,-0.932943 0.202186,-0.230351 0.556022,-0.760172 0.644479,-0.806237 0.08849,-0.04611 0.644488,-0.575897 0.644488,-0.575897 l 0.530749,-0.564365 1.213139,-0.863835 0.543385,-0.299459 0.505476,-0.368569 c 0,0 -0.366473,-1.013565 -0.404383,-1.128741 -0.03788,-0.115185 -1.566973,-5.943178 -1.566973,-5.943178 l -1.794425,-6.795482 -1.339513,-5.459425 -0.353836,-1.589451 -0.252734,-0.29946 -0.353836,0.09212 -0.379109,0.207317 -0.808755,0.06911 -0.530749,-0.04611 v 0 l -0.379132,-0.184295 c 0,0 -0.290642,-0.322492 -0.328562,-0.437668 -0.03788,-0.115184 -0.08848,-0.52982 -0.08848,-0.598929 0,-0.06911 0.07586,-0.287938 0.139013,-0.345536 0.06323,-0.05756 0.480193,-0.357047 0.480193,-0.357047 0,0 0.164286,-0.334015 0.252743,-0.44919 0.08849,-0.115176 0.328562,-0.67955 0.328562,-0.67955 0,0 0.02526,-0.322493 0.02526,-0.414635 0,-0.09212 -0.02526,-0.460711 0,-0.575896 0.02526,-0.115176 0.11373,-1.393645 0.11373,-1.393645 0,0 0.176913,-0.345537 0.265369,-0.437678 0.08849,-0.09212 0.404383,-0.345536 0.404383,-0.345536 0,0 0.176923,-0.03456 0.252743,-0.03456 0.07586,0 0.492839,-0.01155 0.606569,0.03456 0.11373,0.0461 0.467566,0.253393 0.467566,0.253393 0,0 0.214823,0.287948 0.315916,0.506777 0.101097,0.218839 0.379109,0.955977 0.379109,0.955977 0,0 0.290653,0.714105 0.315926,0.817769 0.02526,0.103656 0.15164,0.483744 0.164277,0.541332 0.01263,0.05756 0.909858,1.278469 0.909858,1.278469 l 2.011203,4.303415 2.78791,5.114623 3.93168,7.557896 4.91704,9.998688 5.3075,10.780631 -0.10115,0.691072 -3.74051,7.970298 -5.5097,10.780627 -6.621717,13.45275 -5.863523,12.07063 -0.540442,0.43584 v 0 l -0.393123,0.29319 v 0 l -0.375292,0.24433 -0.268076,-0.0327 -0.357424,-0.2769 -0.357425,-0.53754 v 0 l -0.339557,-1.12391 0.16085,-4.10471 0.125094,-5.2775 0.01785,-4.0233 0.482528,-0.66781 0.94718,-0.47237 2.019453,-0.63525 1.161632,-0.5701 1.143756,-0.61898 0.822076,-0.43979 0.250197,-0.29319 0.05364,-3.58349 0.01785,-1.97092 0.303812,-1.12391 0.428905,-1.10762 0.303811,-0.7167 0.196585,-0.58639 -0.428906,-0.0326 c 0,0 -0.85782,0.66782 -0.982924,0.73298 -0.125095,0.0651 -1.286727,0.22804 -1.465444,0.24434 -0.178707,0.0163 -1.304604,0.32577 -1.376085,0.35834 -0.07149,0.0326 -0.696981,1.09133 -0.696981,1.09133 0,0 -0.643359,1.35196 -0.696972,1.41711 -0.05364,0.0651 -0.607632,0.96102 -0.679114,1.00989 -0.07149,0.049 -0.893565,0.84701 -0.893565,0.84701 l -0.929303,0.34205 c 0,0 -0.500397,0.0163 -0.62549,0.0163 -0.125105,0 -0.732727,-0.21175 -0.732727,-0.21175 l -0.16084,-0.48867 c 0,0 -0.03569,-0.53751 -0.03569,-0.63525 0,-0.0977 0.01785,-0.78185 0.01785,-0.87957 0,-0.0977 -0.107226,-1.17278 -0.107226,-1.17278 v 0 l -0.500397,0.0163 c 0,0 -0.500396,0.55382 -0.571887,0.63526 -0.07149,0.0814 -0.46465,0.73298 -0.46465,0.73298 l 0.07149,1.31937 0.428905,1.59628 0.39317,1.25423 0.303812,2.39441 0.107227,2.2804 -0.142972,0.89588 -0.339557,0.48865 -1.715633,1.98721 -1.662028,1.66144 -0.982925,1.0099 -0.32168,0.79813 0.08934,0.76557 0.661237,1.04247 1.036528,1.79174 0.411038,0.91216 v 0 l 1.9e-5,0.60267 -0.01785,0.71672 -0.125095,0.61896 -0.482528,0.66783 -0.714849,0.76556 -1.376085,1.87319 -0.965048,1.4334 -0.321689,0.58639 0.08934,0.79814 0.982925,1.72658 0.714849,1.46597 0.714849,1.51484 0.39317,0.91215 0.125094,0.53753 v 0 l 0.32166,0.40722 c 0,0 0.411039,0.17917 0.428916,0.2606 0.01785,0.0815 0.196585,0.84704 0.196585,0.84704 0,0 0.05364,0.78184 0.03569,0.86327 -0.01785,0.0815 -0.446772,0.73299 -0.518264,0.91216 -0.07149,0.17918 -0.178707,0.733 -0.214453,0.97732 -0.03569,0.24434 -0.01785,0.92846 -0.07149,1.02619 -0.05364,0.0977 -0.482528,0.47238 -0.482528,0.47238 l -0.78634,-0.0163 c 0,0 -0.589746,0.0814 -0.607624,0 -0.01785,-0.0815 -0.107225,-0.79816 -0.107225,-0.79816 l -0.321632,-0.81443 c 0,0 -0.107227,-0.40724 -0.125094,-0.53754 -0.01785,-0.13033 -0.214463,-0.99361 -0.214463,-0.99361 0,0 -0.107227,-0.79814 -0.107227,-0.87958 0,-0.0814 -0.07149,-0.30948 -0.07149,-0.48865 0,-0.17919 -0.250198,-0.78185 -0.250198,-0.78185 l -0.482519,-0.55381 -0.679114,-0.96105 -0.714849,-1.38453 -0.571878,-1.51482 v 0 l -1.197377,-2.36185 -0.05364,-0.87958 0.482519,-0.79814 1.644161,-2.24783 1.858614,-3.30658 -1.322481,-2.73649 -0.339548,-1.31937 c 0,0 -0.107226,-0.74928 -0.107226,-0.84702 v -0.86327 c 0,-0.0651 0.321678,-0.83073 0.321678,-0.83073 l 1.340341,-1.5474 2.055198,-2.78536 0.643369,-1.15649 0.196585,-0.91216 -0.55401,-2.11753 -1.894359,-3.58348 v 0 l -1.143755,-2.06864 v 0 l -1.250991,-2.10114 -0.500397,-0.57009 c 0,0 -0.482519,-0.0651 -0.571877,-0.049 -0.08934,0.0163 -0.303812,0.53753 -0.303812,0.60269 0,0.0651 -0.07149,1.4171 -0.07149,1.49853 0,0.0814 -0.08934,1.23794 -0.08934,1.23794 l -0.196585,0.48865 c 0,0 -0.339557,0.52123 -0.411039,0.55382 -0.07149,0.0327 -0.607622,0.24432 -0.768462,0.24432 -0.160849,0 -1.036537,-0.63525 -1.036537,-0.63525 0,0 -1.090143,-1.22165 -1.161633,-1.35195 -0.07149,-0.13031 -1.125887,-1.57999 -1.143755,-1.64515 -0.01785,-0.0651 -1.644161,-2.24781 -1.644161,-2.24781 v 0 l -1.250991,-1.254231 0.125104,1.824311 0.268066,2.62247 0.142972,1.66144 v 3.06224 0 l 0.893556,0.92846 1.697774,0.96101 1.483313,0.94475 1.536934,0.55382 0.750584,0.2932 0.142973,1.43339 v 2.1338 l -0.375293,10.9948 -0.250198,0.89587 c 0,0 -0.482529,0.32577 -0.625491,0.34206 -0.142972,0.0164 -0.589754,-0.0163 -0.768472,-0.1303 -0.178707,-0.11402 -0.750585,-0.89588 -0.78633,-0.97733 -0.03569,-0.0815 -0.768463,-1.77544 -0.768463,-1.77544 l -3.645736,-8.03028 -5.218407,-11.10881 -5.039699,-11.434593 -5.437341,-12.415863 -0.30329,-1.428209 0.101098,-0.875346 1.213147,-1.750702 3.38668,-5.528535 5.206398,-9.214214 5.206396,-8.845643 4.448188,-8.108517 2.679019,-4.330685 1.187874,-2.027119 0.530749,-0.322503 0.581647,-0.01267 v 0 0 z"
   id="path917"
   sodipodi:nodetypes="ccccccccccccccccccccccccccccsccccsssscccccscccscscsccsscsccccccccccccccsccccccccsccccccccccccccccccccscccsssscsccccccccccccccccscccccccsscccccccccscccccccccccccscccccccccsccssscccccccccccscccccccccccccccccssssssccccccccccccccccccscsscccssccccccccccccssccccsssccccccccccsccsscsssccccccccccccccccccsccccsscccsscscssccccccccccccccccccccccccccccccccccccccssscssccsccsscccscccccccccccccccccccccccccccccccccsccscsccsccscsscccccccccccccssccccccccccccsssccsscsscccccccccccccccccsssccccccccccccccccccc"
   inkscape:transform-center-x="1.8766178"
   inkscape:transform-center-y="-0.00019599946"
   clip-path="url(#clipPath2955)" /><path
   style="font-variation-settings:normal;opacity:1;vector-effect:none;fill:none;fill-opacity:1;stroke:#000000;stroke-width:0.999999px;stroke-linecap:butt;stroke-linejoin:miter;stroke-miterlimit:4;stroke-dasharray:none;stroke-dashoffset:0;stroke-opacity:1;stop-color:#000000;stop-opacity:1"
   d="m 96.978824,-12.047059 v 0"
   id="path963"
   sodipodi:nodetypes="ccc" /></svg>
