<?xml version="1.0" encoding="UTF-8" standalone="no"?>
<svg
   xmlns:dc="http://purl.org/dc/elements/1.1/"
   xmlns:cc="http://creativecommons.org/ns#"
   xmlns:rdf="http://www.w3.org/1999/02/22-rdf-syntax-ns#"
   xmlns:svg="http://www.w3.org/2000/svg"
   xmlns="http://www.w3.org/2000/svg"
   xmlns:sodipodi="http://sodipodi.sourceforge.net/DTD/sodipodi-0.dtd"
   xmlns:inkscape="http://www.inkscape.org/namespaces/inkscape"
   id="Capa_1"
   enable-background="new 0 0 512 512"
   height="170"
   viewBox="0 0 160 170"
   width="160"
   version="1.1"
   sodipodi:docname="country.svg"
   inkscape:version="1.0.2 (e86c870879, 2021-01-15, custom)">
  <metadata
     id="metadata39">
    <rdf:RDF>
      <cc:Work
         rdf:about="">
        <dc:format>image/svg+xml</dc:format>
        <dc:type
           rdf:resource="http://purl.org/dc/dcmitype/StillImage" />
        <dc:title></dc:title>
      </cc:Work>
    </rdf:RDF>
  </metadata>
  <defs
     id="defs37" />
  <sodipodi:namedview
     pagecolor="#ffffff"
     bordercolor="#666666"
     borderopacity="1"
     objecttolerance="10"
     gridtolerance="10"
     guidetolerance="10"
     inkscape:pageopacity="0"
     inkscape:pageshadow="2"
     inkscape:window-width="1920"
     inkscape:window-height="1017"
     id="namedview35"
     showgrid="false"
     inkscape:zoom="3.3203125"
     inkscape:cx="61.992385"
     inkscape:cy="100.14087"
     inkscape:window-x="-8"
     inkscape:window-y="-8"
     inkscape:window-maximized="1"
     inkscape:current-layer="Capa_1" />
  <g
     id="g32"
     transform="matrix(0.26128465,0,0,0.28251641,12.046028,22.653615)"
     style="stroke-width:3.68061">
    <g
       id="g4"
       style="stroke-width:3.68061">
      <path
         d="m 394.385,473.365 v -30.512 c 0,-14.055 -11.393,-25.448 -25.448,-25.448 H 143.063 c -14.055,0 -25.448,11.393 -25.448,25.448 v 30.512 z"
         fill="#868eaf"
         id="path2"
         style="stroke-width:5.17538" />
    </g>
    <g
       id="g8"
       style="stroke-width:3.68061">
      <path
         d="M 337.362,417.405 H 174.638 v -29.674 c 0,-14.055 11.393,-25.448 25.448,-25.448 h 111.828 c 14.055,0 25.448,11.393 25.448,25.448 z"
         fill="#b7bcce"
         id="path6"
         style="stroke-width:5.17538" />
    </g>
    <g
       id="g12"
       style="stroke-width:3.68061">
      <circle
         cx="346.30301"
         cy="62.478001"
         fill="#b7bcce"
         r="23.841"
         id="circle10"
         style="stroke-width:5.17538" />
    </g>
    <g
       id="g16"
       style="stroke-width:3.68061">
      <path
         d="m 332.559,96.328 c 67.292,-3.696 102.149,72.494 169.441,68.797 -15.017,36.985 -30.033,73.969 -45.05,110.954 -67.293,3.697 -102.149,-72.494 -169.441,-68.797 15.016,-36.984 30.033,-73.969 45.05,-110.954 z"
         fill="#ffea54"
         id="path14"
         style="stroke-width:5.17538" />
    </g>
    <g
       id="g20"
       style="stroke-width:3.68061">
      <circle
         cx="165.69701"
         cy="62.478001"
         fill="#b7bcce"
         r="23.841"
         id="circle18"
         style="stroke-width:5.17538" />
    </g>
    <g
       id="g24"
       style="stroke-width:3.68061">
      <path
         d="M 179.442,96.328 C 112.149,92.632 77.293,168.823 10,165.126 c 15.017,36.985 30.033,73.969 45.05,110.954 67.293,3.697 102.149,-72.494 169.441,-68.797 -15.016,-36.985 -30.033,-73.97 -45.049,-110.955 z"
         fill="#ff5c7f"
         id="path22"
         style="stroke-width:5.17538" />
    </g>
    <g
       id="g30"
       style="stroke-width:3.68061">
      <path
         d="m 510.139,159.316 c -1.989,-2.787 -5.265,-4.366 -8.688,-4.175 -30.146,1.65 -53.585,-14.968 -78.385,-32.569 -17.898,-12.702 -36.208,-25.687 -57.643,-32.161 5.452,-3.716 9.697,-8.949 12.235,-15.202 6.958,-17.11 -1.557,-37.157 -18.625,-44.087 -17.114,-6.947 -37.154,1.551 -44.086,18.625 -5.515,13.583 -1.448,29.662 9.922,38.937 L 256,258.302 187.126,88.672 c 11.172,-9.15 15.637,-24.861 9.926,-38.926 -7.02,-17.289 -26.796,-25.643 -44.086,-18.625 -17.289,7.02 -25.644,26.797 -18.625,44.087 2.599,6.401 6.954,11.566 12.277,15.19 -21.45,6.471 -39.777,19.464 -57.686,32.173 -24.801,17.6 -48.226,34.223 -78.385,32.569 -3.413,-0.195 -6.697,1.387 -8.687,4.175 -1.99,2.787 -2.415,6.399 -1.127,9.572 l 45.051,110.954 c 1.456,3.586 4.852,6.01 8.717,6.223 1.809,0.1 3.59,0.148 5.354,0.147 34.444,-0.001 60.484,-18.479 85.703,-36.376 23.069,-16.372 44.943,-31.887 72.164,-32.645 l 27.485,67.693 -27.365,67.398 h -17.756 c -19.546,0 -35.448,15.902 -35.448,35.448 v 19.674 h -21.575 c -19.546,0 -35.448,15.902 -35.448,35.448 v 30.512 c 0,5.523 4.477,10 10,10 h 94.355 c 5.523,0 10,-4.477 10,-10 0,-5.523 -4.477,-10 -10,-10 h -84.355 v -20.512 c 0,-8.518 6.93,-15.448 15.448,-15.448 h 225.874 c 8.519,0 15.448,6.93 15.448,15.448 v 20.512 h -84.438 c -5.522,0 -10,4.477 -10,10 0,5.523 4.478,10 10,10 h 94.438 c 5.522,0 10,-4.477 10,-10 v -30.512 c 0,-19.546 -15.902,-35.448 -35.448,-35.448 h -21.574 v -19.674 c 0,-19.546 -15.902,-35.448 -35.448,-35.448 H 294.16 L 266.795,284.883 294.28,217.19 c 27.212,0.756 49.095,16.274 72.163,32.645 25.221,17.898 51.256,36.377 85.704,36.376 1.761,0 3.547,-0.049 5.354,-0.148 3.865,-0.212 7.261,-2.636 8.717,-6.223 l 45.05,-110.954 c 1.286,-3.171 0.861,-6.783 -1.129,-9.57 z M 160.49,49.653 c 7.072,-2.873 15.16,0.546 18.032,7.618 2.871,7.071 -0.546,15.16 -7.618,18.032 -7.067,2.869 -15.16,-0.545 -18.032,-7.618 -2.87,-7.072 0.547,-15.161 7.618,-18.032 z m -26.506,183.874 c -23.069,16.372 -44.945,31.899 -72.16,32.654 L 24.698,174.744 c 29.646,-3.104 53.064,-19.719 75.811,-35.862 23.069,-16.372 44.945,-31.899 72.16,-32.654 l 37.125,91.437 c -29.646,3.103 -53.064,19.718 -75.81,35.862 z m 193.378,154.204 v 19.674 H 184.638 v -19.674 c 0,-8.518 6.93,-15.448 15.448,-15.448 h 111.828 c 8.519,-0.001 15.448,6.93 15.448,15.448 z m -54.79,-35.449 H 239.428 L 256,311.467 Z M 333.479,57.27 c 2.835,-6.983 11.034,-10.458 18.031,-7.617 6.983,2.835 10.46,11.035 7.617,18.032 -2.907,7.174 -10.942,10.195 -18.035,7.616 -6.981,-2.838 -10.455,-11.035 -7.613,-18.031 z m 116.698,208.911 c -27.213,-0.757 -49.093,-16.284 -72.16,-32.654 -22.748,-16.145 -46.161,-32.76 -75.81,-35.862 l 37.125,-91.437 c 27.212,0.758 49.092,16.284 72.159,32.654 22.748,16.145 46.161,32.76 75.811,35.862 z"
         id="path26"
         style="stroke-width:3.68061" />
      <path
         d="m 262.55,465.047 c -7.352,-4.899 -17.235,1.899 -15.298,10.509 0.911,4.051 4.328,7.171 8.44,7.723 4.35,0.584 8.664,-1.872 10.438,-5.868 1.955,-4.403 0.41,-9.678 -3.58,-12.364 z"
         id="path28"
         style="stroke-width:3.68061" />
    </g>
  </g>
</svg>
