<?xml version="1.0" encoding="UTF-8" standalone="no"?>
<svg
   xmlns:dc="http://purl.org/dc/elements/1.1/"
   xmlns:cc="http://creativecommons.org/ns#"
   xmlns:rdf="http://www.w3.org/1999/02/22-rdf-syntax-ns#"
   xmlns:svg="http://www.w3.org/2000/svg"
   xmlns="http://www.w3.org/2000/svg"
   xmlns:sodipodi="http://sodipodi.sourceforge.net/DTD/sodipodi-0.dtd"
   xmlns:inkscape="http://www.inkscape.org/namespaces/inkscape"
   version="1.1"
   id="Capa_1"
   x="0px"
   y="0px"
   width="160"
   height="170"
   viewBox="0 0 160 170"
   xml:space="preserve"
   sodipodi:docname="death.svg"
   inkscape:version="1.0.2 (e86c870879, 2021-01-15, custom)"><metadata
   id="metadata45"><rdf:RDF><cc:Work
       rdf:about=""><dc:format>image/svg+xml</dc:format><dc:type
         rdf:resource="http://purl.org/dc/dcmitype/StillImage" /><dc:title></dc:title></cc:Work></rdf:RDF></metadata><defs
   id="defs43" /><sodipodi:namedview
   pagecolor="#ffffff"
   bordercolor="#666666"
   borderopacity="1"
   objecttolerance="10"
   gridtolerance="10"
   guidetolerance="10"
   inkscape:pageopacity="0"
   inkscape:pageshadow="2"
   inkscape:window-width="1920"
   inkscape:window-height="1017"
   id="namedview41"
   showgrid="false"
   inkscape:zoom="3.2754979"
   inkscape:cx="-32.276776"
   inkscape:cy="62.520099"
   inkscape:window-x="-8"
   inkscape:window-y="-8"
   inkscape:window-maximized="1"
   inkscape:current-layer="Capa_1" />
<g
   id="g8"
   transform="matrix(3.1835282,0,0,3.3492419,6.8532293,11.295993)"
   style="stroke-width:0.306248">
	<g
   id="g6"
   style="stroke-width:0.306248">
		<path
   d="m 41.384,34.764 c -1.597,-0.697 -3.457,0.035 -4.152,1.635 -0.091,0.207 -0.157,0.423 -0.2,0.638 l -8.841,-3.847 8.84,-3.846 c 0.043,0.215 0.109,0.43 0.2,0.637 0.695,1.599 2.556,2.33 4.152,1.635 1.598,-0.693 2.33,-2.553 1.635,-4.15 -0.474,-1.09 -1.489,-1.775 -2.593,-1.883 0.674,-0.88 0.865,-2.091 0.391,-3.181 -0.694,-1.598 -2.554,-2.328 -4.151,-1.635 -1.599,0.695 -2.329,2.556 -1.635,4.153 0.092,0.209 0.203,0.403 0.33,0.582 L 22.939,30.904 10.516,25.502 c 0.128,-0.179 0.24,-0.373 0.331,-0.582 0.695,-1.598 -0.037,-3.458 -1.634,-4.153 -1.599,-0.693 -3.458,0.037 -4.152,1.635 -0.474,1.09 -0.284,2.301 0.391,3.181 -1.104,0.107 -2.12,0.793 -2.593,1.883 -0.695,1.598 0.037,3.457 1.634,4.15 1.597,0.695 3.457,-0.036 4.152,-1.635 0.091,-0.207 0.157,-0.422 0.2,-0.637 l 8.84,3.846 -8.842,3.846 C 8.8,36.821 8.734,36.606 8.643,36.397 7.948,34.798 6.088,34.067 4.491,34.762 c -1.597,0.694 -2.33,2.555 -1.634,4.151 0.473,1.09 1.489,1.774 2.593,1.883 -0.675,0.88 -0.865,2.091 -0.391,3.181 0.694,1.599 2.554,2.328 4.152,1.636 1.598,-0.697 2.33,-2.556 1.635,-4.153 -0.091,-0.21 -0.202,-0.402 -0.33,-0.581 l 12.422,-5.403 12.422,5.403 c -0.127,0.179 -0.238,0.371 -0.33,0.581 -0.694,1.598 0.037,3.456 1.635,4.153 1.598,0.692 3.458,-0.037 4.151,-1.636 0.475,-1.09 0.284,-2.301 -0.391,-3.181 1.104,-0.106 2.12,-0.793 2.593,-1.883 0.696,-1.597 -0.037,-3.456 -1.634,-4.149 z"
   id="path2"
   style="stroke-width:0.306248" />
		<path
   d="m 13.455,18.745 h 0.925 v 3.708 c 0,1.621 1.334,2.947 2.955,2.947 h 5.554 0.1 5.555 c 1.62,0 2.893,-1.326 2.893,-2.947 v -3.708 h 0.985 c 2.623,0 4.743,-2.126 4.743,-4.749 0,-4.084 -1.76,-7.971 -4.821,-10.672 C 31.042,2.176 27.475,0 22.941,0 18.209,0 14.832,2.174 13.53,3.324 10.468,6.025 8.71,9.912 8.71,13.996 c 10e-4,2.623 2.123,4.749 4.745,4.749 z M 26.168,8.107 h 5.396 c 0.328,0.476 0.52,1.094 0.52,1.739 0,1.776 -1.44,3.204 -3.218,3.204 -1.776,0 -3.218,-1.428 -3.218,-3.204 0,-0.645 0.192,-1.263 0.52,-1.739 z m -5.565,7.242 1.743,-2.98 c 0.123,-0.211 0.349,-0.339 0.592,-0.341 0.244,0.002 0.47,0.13 0.592,0.341 l 1.743,2.98 c 0.125,0.214 0.125,0.472 0.002,0.685 -0.123,0.215 -0.351,0.335 -0.598,0.335 h -1.689 -0.1 -1.689 c -0.248,0 -0.476,-0.12 -0.599,-0.335 -0.123,-0.214 -0.121,-0.472 0.003,-0.685 z M 14.312,8.107 h 5.397 c 0.328,0.476 0.519,1.094 0.519,1.739 0,1.776 -1.441,3.204 -3.217,3.204 -1.777,0 -3.217,-1.428 -3.217,-3.204 -0.001,-0.645 0.19,-1.263 0.518,-1.739 z"
   id="path4"
   style="stroke-width:0.306248" />
	</g>
</g>
<g
   id="g10">
</g>
<g
   id="g12">
</g>
<g
   id="g14">
</g>
<g
   id="g16">
</g>
<g
   id="g18">
</g>
<g
   id="g20">
</g>
<g
   id="g22">
</g>
<g
   id="g24">
</g>
<g
   id="g26">
</g>
<g
   id="g28">
</g>
<g
   id="g30">
</g>
<g
   id="g32">
</g>
<g
   id="g34">
</g>
<g
   id="g36">
</g>
<g
   id="g38">
</g>
</svg>
