<?xml version="1.0" encoding="UTF-8" standalone="no"?>
<svg
   xmlns:dc="http://purl.org/dc/elements/1.1/"
   xmlns:cc="http://creativecommons.org/ns#"
   xmlns:rdf="http://www.w3.org/1999/02/22-rdf-syntax-ns#"
   xmlns:svg="http://www.w3.org/2000/svg"
   xmlns="http://www.w3.org/2000/svg"
   xmlns:sodipodi="http://sodipodi.sourceforge.net/DTD/sodipodi-0.dtd"
   xmlns:inkscape="http://www.inkscape.org/namespaces/inkscape"
   id="flat"
   height="170"
   viewBox="0 0 160 170"
   width="160"
   version="1.1"
   sodipodi:docname="economic.svg"
   inkscape:version="1.0.2 (e86c870879, 2021-01-15, custom)">
  <metadata
     id="metadata59">
    <rdf:RDF>
      <cc:Work
         rdf:about="">
        <dc:format>image/svg+xml</dc:format>
        <dc:type
           rdf:resource="http://purl.org/dc/dcmitype/StillImage" />
        <dc:title></dc:title>
      </cc:Work>
    </rdf:RDF>
  </metadata>
  <defs
     id="defs57" />
  <sodipodi:namedview
     pagecolor="#ffffff"
     bordercolor="#666666"
     borderopacity="1"
     objecttolerance="10"
     gridtolerance="10"
     guidetolerance="10"
     inkscape:pageopacity="0"
     inkscape:pageshadow="2"
     inkscape:window-width="1920"
     inkscape:window-height="1017"
     id="namedview55"
     showgrid="false"
     inkscape:zoom="2.3478155"
     inkscape:cx="37.301967"
     inkscape:cy="132.16165"
     inkscape:window-x="-8"
     inkscape:window-y="-8"
     inkscape:window-maximized="1"
     inkscape:current-layer="flat" />
  <path
     d="m 132.78103,77.898121 a 60.513088,59.014147 0 1 1 -121.026173,0 q 0,-2.593161 0.226924,-5.131664 a 60.514177,59.015209 0 0 1 120.799249,5.131664 z"
     fill="#9ce6ed"
     id="path2"
     style="stroke-width:1" />
  <path
     d="M 132.78103,77.898121 A 60.470841,58.972946 0 0 1 104.03074,128.13717 L 90.684972,113.81978 V 93.293116 H 80.160957 L 69.636942,77.898121 80.160957,70.200624 H 93.315972 L 101.20899,59.937294 95.946982,47.108132 112.4072,33.733746 a 60.370616,58.875204 0 0 1 20.37383,44.164375 z"
     fill="#02c26a"
     id="path4"
     style="stroke-width:1" />
  <path
     d="M 93.315972,139.47811 H 114.364 v 25.65832 H 93.315972 Z"
     fill="#4367e0"
     id="path6"
     style="stroke-width:1" />
  <path
     d="m 114.364,118.95145 h 21.04804 v 46.18498 H 114.364 Z"
     fill="#4976f2"
     id="path8"
     style="stroke-width:1" />
  <path
     d="m 135.41204,93.293116 h 21.04803 v 71.843314 h -21.04803 z"
     fill="#548aff"
     id="path10"
     style="stroke-width:1" />
  <path
     d="M 96.262702,23.70774 77.529953,41.976467 V 57.371462 L 61.74393,67.634792 51.219915,57.371462 H 38.064895 V 47.108132 L 25.893214,39.984739 A 60.564574,59.064357 0 0 1 96.262702,23.70774 Z"
     fill="#02c26a"
     id="path12"
     style="stroke-width:1" />
  <path
     d="m 64.374934,95.858946 -10.524016,7.697504 v 30.57184 A 60.537918,59.038362 0 0 1 11.754857,77.898121 q 0,-2.593161 0.226924,-5.131664 H 27.54088 l 7.893012,10.263329 h 21.04803 z"
     fill="#02c26a"
     id="path14"
     style="stroke-width:1" />
  <path
     d="m 69.636942,162.5706 h 89.454128 v 5.13166 H 69.636942 Z"
     fill="#a6cfff"
     id="path16"
     style="stroke-width:1" />
  <path
     d="m 30.171884,98.424786 c 0,-2.83415 -5.889703,-5.13167 -13.155019,-5.13167 -7.2653165,0 -13.1550185,2.29752 -13.1550185,5.13167 V 162.5706 c 0,2.83414 5.889702,5.13166 13.1550185,5.13166 7.265316,0 13.155019,-2.29752 13.155019,-5.13166 z"
     fill="#ffc431"
     id="path18"
     style="stroke-width:1" />
  <ellipse
     cx="17.016867"
     cy="98.424774"
     fill="#ffd873"
     rx="13.155019"
     ry="5.1316648"
     id="ellipse20"
     style="stroke-width:1" />
  <path
     d="m 56.481922,124.08311 c 0,-2.83414 -5.889702,-5.13166 -13.155019,-5.13166 -7.265316,0 -13.155019,2.29752 -13.155019,5.13166 v 38.48749 c 0,2.83414 5.889703,5.13166 13.155019,5.13166 7.265317,0 13.155019,-2.29752 13.155019,-5.13166 z"
     fill="#ffc431"
     id="path22"
     style="stroke-width:1" />
  <ellipse
     cx="43.326904"
     cy="124.08311"
     fill="#ffd873"
     rx="13.155019"
     ry="5.1316648"
     id="ellipse24"
     style="stroke-width:1" />
  <path
     d="m 82.791962,136.91227 c 0,-2.83414 -5.889704,-5.13166 -13.15502,-5.13166 -7.265317,0 -13.15502,2.29752 -13.15502,5.13166 v 25.65833 c 0,2.83414 5.889703,5.13166 13.15502,5.13166 7.265316,0 13.15502,-2.29752 13.15502,-5.13166 z"
     fill="#ffc431"
     id="path26"
     style="stroke-width:1" />
  <ellipse
     cx="69.636948"
     cy="136.91228"
     fill="#ffd873"
     rx="13.155019"
     ry="5.1316648"
     id="ellipse28"
     style="stroke-width:1" />
  <path
     d="m 28.428492,111.25395 c 2.550607,0 3.617999,3.20921 1.531201,4.63947 a 13.038726,12.715749 0 0 1 -2.662181,1.37106 c -2.788864,1.08716 -6.439382,1.68697 -10.280647,1.68697 -3.841266,0 -7.4917835,-0.59981 -10.2806475,-1.68697 a 13.038726,12.715749 0 0 1 -2.662178,-1.37106 c -2.086784,-1.43026 -1.019408,-4.63947 1.531198,-4.63947 a 2.5753351,2.5115427 0 0 1 1.465529,0.4373 c 1.322194,0.88952 4.7096045,2.12853 9.9460985,2.12853 5.236493,0 8.623904,-1.23901 9.946092,-2.12853 a 2.5753351,2.5115427 0 0 1 1.465528,-0.4373 z"
     fill="#ffb401"
     id="path30"
     style="stroke-width:1" />
  <path
     d="m 69.636942,118.95145 h 5.262007 v 5.13166 h -5.262007 z"
     fill="#ffd873"
     id="path32"
     style="stroke-width:1" />
  <path
     d="m 151.19806,62.503127 h -10.52402 v 5.131665 h 4.17212 L 92.226082,118.95145 H 80.160957 v 5.13166 h 13.155015 a 2.6311189,2.5659447 0 0 0 1.86037,-0.75139 l 53.390708,-52.0682 v 4.068769 h 5.26201 v -10.26333 a 2.6310302,2.5658581 0 0 0 -2.631,-2.565832 z"
     fill="#ffd873"
     id="path34"
     style="stroke-width:1" />
  <g
     fill="#ffb401"
     id="g52"
     transform="matrix(0.32887548,0,0,0.32072906,-4.0311655,11.186477)"
     style="stroke-width:3.07904">
    <path
       d="m 98.69893,352 c 7.75554,0 11.00112,10.006 4.65587,14.46538 A 39.64639,39.64639 0 0 1 95.26,370.74023 C 86.78,374.12988 75.68,376 64,376 52.32,376 41.22,374.12988 32.74,370.74023 a 39.64639,39.64639 0 0 1 -8.09479,-4.27485 C 18.3,362.006 21.54553,352 29.30107,352 a 7.83073,7.83073 0 0 1 4.45618,1.36347 C 37.7776,356.13688 48.07758,360 64,360 c 15.92242,0 26.2224,-3.86312 30.24273,-6.63653 A 7.83073,7.83073 0 0 1 98.69891,352 Z"
       id="path36"
       style="stroke-width:3.07904" />
    <path
       d="m 98.69893,392 c 7.75554,0 11.00112,10.006 4.65587,14.46538 A 39.64639,39.64639 0 0 1 95.26,410.74023 C 86.78,414.12988 75.68,416 64,416 52.32,416 41.22,414.12988 32.74,410.74023 a 39.64639,39.64639 0 0 1 -8.09479,-4.27485 C 18.3,402.006 21.54553,392 29.30107,392 a 7.83073,7.83073 0 0 1 4.45618,1.36347 C 37.7776,396.13688 48.07758,400 64,400 c 15.92242,0 26.2224,-3.86312 30.24273,-6.63653 A 7.83073,7.83073 0 0 1 98.69891,392 Z"
       id="path38"
       style="stroke-width:3.07904" />
    <path
       d="m 98.69893,432 c 7.75554,0 11.00112,10.006 4.65587,14.46538 A 39.64639,39.64639 0 0 1 95.26,450.74023 C 86.78,454.12988 75.68,456 64,456 52.32,456 41.22,454.12988 32.74,450.74023 a 39.64639,39.64639 0 0 1 -8.09479,-4.27485 C 18.3,442.006 21.54553,432 29.30107,432 a 7.83073,7.83073 0 0 1 4.45618,1.36347 C 37.7776,436.13688 48.07758,440 64,440 c 15.92242,0 26.2224,-3.86312 30.24273,-6.63653 A 7.83073,7.83073 0 0 1 98.69891,432 Z"
       id="path40"
       style="stroke-width:3.07904" />
    <path
       d="m 178.69893,392 c 7.75554,0 11.00112,10.006 4.65587,14.46538 a 39.64639,39.64639 0 0 1 -8.09479,4.27485 C 166.78,414.12988 155.68,416 144,416 c -11.68,0 -22.78,-1.87012 -31.26,-5.25977 a 39.64639,39.64639 0 0 1 -8.09479,-4.27485 C 98.3,402.006 101.54553,392 109.30107,392 a 7.83073,7.83073 0 0 1 4.45618,1.36347 C 117.7776,396.13688 128.07758,400 144,400 c 15.92242,0 26.2224,-3.86312 30.24273,-6.63653 A 7.83073,7.83073 0 0 1 178.69891,392 Z"
       id="path42"
       style="stroke-width:3.07904" />
    <path
       d="m 178.69893,432 c 7.75554,0 11.00112,10.006 4.65587,14.46538 a 39.64639,39.64639 0 0 1 -8.09479,4.27485 C 166.78,454.12988 155.68,456 144,456 c -11.68,0 -22.78,-1.87012 -31.26,-5.25977 a 39.64639,39.64639 0 0 1 -8.09479,-4.27485 C 98.3,442.006 101.54553,432 109.30107,432 a 7.83073,7.83073 0 0 1 4.45618,1.36347 C 117.7776,436.13688 128.07758,440 144,440 c 15.92242,0 26.2224,-3.86312 30.24273,-6.63653 A 7.83073,7.83073 0 0 1 178.69891,432 Z"
       id="path44"
       style="stroke-width:3.07904" />
    <path
       d="m 258.69893,432 c 7.75554,0 11.00112,10.006 4.65587,14.46538 a 39.64639,39.64639 0 0 1 -8.09479,4.27485 C 246.78,454.12988 235.68,456 224,456 c -11.68,0 -22.78,-1.87012 -31.26,-5.25977 a 39.64639,39.64639 0 0 1 -8.09479,-4.27485 C 178.3,442.006 181.54553,432 189.30107,432 a 7.83073,7.83073 0 0 1 4.45618,1.36347 C 197.7776,436.13688 208.07758,440 224,440 c 15.92242,0 26.2224,-3.86312 30.24273,-6.63653 A 7.83073,7.83073 0 0 1 258.69891,432 Z"
       id="path46"
       style="stroke-width:3.07904" />
    <rect
       height="120"
       rx="8"
       width="16"
       x="96"
       y="352"
       id="rect48"
       style="stroke-width:3.07904" />
    <rect
       height="80"
       rx="8"
       width="16"
       x="176"
       y="392"
       id="rect50"
       style="stroke-width:3.07904" />
  </g>
</svg>
