<?xml version="1.0" encoding="UTF-8" standalone="no"?>
<svg
   xmlns:dc="http://purl.org/dc/elements/1.1/"
   xmlns:cc="http://creativecommons.org/ns#"
   xmlns:rdf="http://www.w3.org/1999/02/22-rdf-syntax-ns#"
   xmlns:svg="http://www.w3.org/2000/svg"
   xmlns="http://www.w3.org/2000/svg"
   xmlns:sodipodi="http://sodipodi.sourceforge.net/DTD/sodipodi-0.dtd"
   xmlns:inkscape="http://www.inkscape.org/namespaces/inkscape"
   id="Layer_1"
   enable-background="new 0 0 511.993 511.993"
   height="170"
   viewBox="0 0 159.99781 169.99768"
   width="160"
   version="1.1"
   sodipodi:docname="education_acces.svg"
   inkscape:version="1.0.2 (e86c870879, 2021-01-15, custom)">
  <metadata
     id="metadata57">
    <rdf:RDF>
      <cc:Work
         rdf:about="">
        <dc:format>image/svg+xml</dc:format>
        <dc:type
           rdf:resource="http://purl.org/dc/dcmitype/StillImage" />
        <dc:title></dc:title>
      </cc:Work>
    </rdf:RDF>
  </metadata>
  <defs
     id="defs55" />
  <sodipodi:namedview
     pagecolor="#ffffff"
     bordercolor="#666666"
     borderopacity="1"
     objecttolerance="10"
     gridtolerance="10"
     guidetolerance="10"
     inkscape:pageopacity="0"
     inkscape:pageshadow="2"
     inkscape:window-width="1920"
     inkscape:window-height="1017"
     id="namedview53"
     showgrid="false"
     inkscape:zoom="1.1739077"
     inkscape:cx="186.83758"
     inkscape:cy="158.30813"
     inkscape:window-x="-8"
     inkscape:window-y="-8"
     inkscape:window-maximized="1"
     inkscape:current-layer="Layer_1" />
  <g
     id="g50"
     transform="matrix(0.24038803,0,0,0.25611275,16.848448,29.814357)"
     style="stroke-width:4.03022">
    <g
       id="g44"
       style="stroke-width:4.03022">
      <g
         id="g40"
         style="stroke-width:4.03022">
        <g
           id="g28"
           style="stroke-width:4.03022">
          <g
             id="g8"
             style="stroke-width:4.03022">
            <path
               d="M 452.2,276.649 H 87.698 c -15.411,0 -27.904,-12.494 -27.904,-27.907 0,-15.413 12.493,-27.907 27.904,-27.907 H 452.2 c -8.964,17.356 -8.964,38.457 0,55.814 z"
               fill="#f7f7f7"
               id="path2"
               style="stroke-width:11.6498" />
            <path
               d="M 452.2,220.834 H 87.698 422.2 c -8.964,17.357 -8.964,38.458 0,55.814 h 30 c -8.964,-17.356 -8.964,-38.457 0,-55.814 z"
               fill="#efefef"
               id="path4"
               style="stroke-width:11.6498" />
            <path
               d="m 91.762,299.892 c -13.736,0 -26.637,-5.389 -36.327,-15.173 -9.687,-9.783 -14.949,-22.738 -14.816,-36.48 0.271,-27.927 23.467,-50.647 51.707,-50.647 h 363.939 c 8.333,0 15.112,6.78 15.112,15.113 0,8.333 -6.779,15.113 -15.112,15.113 H 91.762 c -11.536,0 -20.921,9.386 -20.921,20.924 0,11.538 9.385,20.924 20.921,20.924 h 364.502 c 8.333,0 15.112,6.78 15.112,15.113 0,8.333 -6.779,15.113 -15.112,15.113 z"
               fill="#ff815c"
               id="path6"
               style="stroke-width:11.6498" />
          </g>
          <g
             id="g26"
             style="stroke-width:4.03022">
            <g
               id="g16"
               style="stroke-width:4.03022">
              <path
                 d="M 486.265,481.25 H 61.762 c -15.411,0 -27.904,-12.494 -27.904,-27.907 0,-15.413 12.493,-27.907 27.904,-27.907 h 424.502 c -8.964,17.356 -8.964,38.457 10e-4,55.814 z"
                 fill="#f7f7f7"
                 id="path10"
                 style="stroke-width:11.6498" />
              <path
                 d="m 486.265,425.436 h -30 c -8.964,17.357 -8.964,38.457 0,55.814 h 30 c -8.965,-17.357 -8.965,-38.458 0,-55.814 z"
                 fill="#efefef"
                 id="path12"
                 style="stroke-width:11.6498" />
              <path
                 d="m 61.762,504.493 c -13.736,0 -26.637,-5.389 -36.327,-15.173 -9.687,-9.783 -14.949,-22.738 -14.816,-36.48 0.271,-27.927 23.467,-50.647 51.707,-50.647 h 423.939 c 8.333,0 15.112,6.78 15.112,15.113 0,8.333 -6.779,15.113 -15.112,15.113 H 61.762 c -11.536,0 -20.921,9.386 -20.921,20.924 0,11.538 9.385,20.924 20.921,20.924 h 424.502 c 8.333,0 15.112,6.78 15.112,15.114 0,8.333 -6.779,15.113 -15.112,15.113 H 61.762 Z"
                 fill="#ffe66b"
                 id="path14"
                 style="stroke-width:11.6498" />
            </g>
            <g
               id="g24"
               style="stroke-width:4.03022">
              <path
                 d="m 25.729,323.135 h 424.502 c 15.411,0 27.904,12.494 27.904,27.907 0,15.413 -12.493,27.907 -27.904,27.907 H 25.729 c 8.964,-17.357 8.964,-38.457 0,-55.814 z"
                 fill="#f7f7f7"
                 id="path18"
                 style="stroke-width:11.6498" />
              <path
                 d="m 25.729,402.192 c -8.333,0 -15.112,-6.78 -15.112,-15.113 0,-8.333 6.779,-15.113 15.112,-15.113 h 424.502 c 11.536,0 20.922,-9.386 20.922,-20.924 0,-11.538 -9.386,-20.924 -20.922,-20.924 H 25.729 c -8.333,0 -15.112,-6.78 -15.112,-15.113 0,-8.333 6.779,-15.113 15.112,-15.113 h 424.503 c 13.736,0 26.637,5.389 36.326,15.173 9.688,9.784 14.948,22.739 14.816,36.48 -0.271,27.927 -23.467,50.647 -51.707,50.647 z"
                 fill="#c9f0ff"
                 id="path20"
                 style="stroke-width:11.6498" />
              <path
                 d="m 486.558,315.065 c -9.689,-9.784 -22.59,-15.173 -36.326,-15.173 h -30 c 13.736,0 26.637,5.389 36.326,15.173 9.688,9.784 14.948,22.739 14.816,36.48 -0.271,27.927 -23.467,50.647 -51.707,50.647 h 30 c 28.24,0 51.436,-22.72 51.707,-50.647 0.132,-13.742 -5.129,-26.697 -14.816,-36.48 z"
                 fill="#b5eaff"
                 id="path22"
                 style="stroke-width:11.6498" />
            </g>
          </g>
        </g>
        <g
           id="g38"
           style="stroke-width:4.03022">
          <path
             d="m 395.997,197.591 h -280 l 30,-101.009 h 220 z"
             fill="#288a9a"
             id="path30"
             style="stroke-width:11.6498" />
          <path
             d="M 230.14,10.832 31.131,63.104 c -10.668,2.802 -10.668,17.947 0,20.749 l 199.009,52.272 c 16.95,4.452 34.763,4.452 51.713,0 L 480.862,83.853 c 10.668,-2.802 10.668,-17.947 0,-20.749 L 281.853,10.832 c -16.95,-4.452 -34.763,-4.452 -51.713,0 z"
             fill="#3498ac"
             id="path32"
             style="stroke-width:11.6498" />
          <path
             d="M 480.862,63.104 281.853,10.832 c -16.95,-4.452 -34.763,-4.452 -51.713,0 l -30.239,7.943 c 13.939,-2.232 28.228,-1.547 41.952,2.057 l 199.009,52.272 c 10.668,2.802 10.668,17.947 0,20.749 l 40,-10 c 10.669,-2.802 10.669,-17.947 0,-20.749 z"
             fill="#288a9a"
             id="path34"
             style="stroke-width:11.6498" />
          <path
             d="m 345.465,240.993 h -43.164 c 0,0 0,-65.138 21.582,-65.138 21.582,0 21.582,65.138 21.582,65.138 z"
             fill="#ffe66b"
             id="path36"
             style="stroke-width:11.6498" />
        </g>
      </g>
      <path
         d="M 128.67,432.419 92.997,451.135 V 330.118 h 35.673 z"
         fill="#3498ac"
         id="path42"
         style="stroke-width:11.6498" />
    </g>
    <path
       d="m 270.093,77.074 c -9.327,5.712 -20.348,5.719 -29.656,0 V 55.755 c 0,-8.189 6.639,-14.828 14.828,-14.828 8.189,0 14.828,6.639 14.828,14.828 z"
       fill="#ffe66b"
       id="path46"
       style="stroke-width:11.6498" />
    <path
       d="m 488.769,466.908 c -2.311,-8.885 -2.309,-18.258 0,-27.131 26.584,-3.64 26.684,-41.12 0.15,-44.924 12.086,-10.641 19.789,-26.081 19.955,-43.237 0.219,-22.843 -13.357,-44.277 -34.105,-53.864 10.775,-15.323 -1.613,-36.7 -20.101,-35.588 -2.259,-8.784 -2.262,-18.052 0,-26.848 29.885,1.565 31.85,-45.227 1.598,-45.227 H 401.594 L 380.197,118.047 482.769,91.105 c 17.684,-4.645 17.708,-30.605 0,-35.257 L 283.759,3.578 c -18.162,-4.771 -37.361,-4.771 -55.523,0 l -74,19.438 c -9.078,2.384 -5.681,16.997 3.811,14.508 l 74,-19.438 c 15.669,-4.115 32.233,-4.115 47.902,0 l 199.009,52.272 c 3.203,0.841 3.202,5.4 0,6.241 L 325.8,116.828 277.594,73.118 V 55.755 c -1.226,-29.62 -43.433,-29.613 -44.656,0 v 21.319 c 0,2.606 1.353,5.026 3.574,6.39 10.156,6.235 22.066,7.117 32.843,2.431 l 39.129,35.48 -28.536,7.495 c -15.669,4.115 -32.233,4.115 -47.902,0 L 33.037,76.599 c -3.203,-0.842 -3.204,-5.4 0,-6.241 l 87.056,-22.866 c 9.078,-2.384 5.68,-17 -3.811,-14.508 L 29.226,55.85 c -17.684,4.645 -17.709,30.605 0,35.257 L 131.797,118.048 110.4,190.09 H 92.326 c -32.335,0 -58.896,26.052 -59.207,58.075 -0.162,16.764 7.051,33.021 19.506,44.226 H 25.729 c -28.506,0.977 -30.562,41.054 -2.502,45.084 2.314,8.885 2.314,18.246 0,27.131 -26.585,3.638 -26.686,41.12 -0.152,44.924 -12.086,10.641 -19.789,26.08 -19.956,43.236 -0.152,15.76 5.881,30.615 16.987,41.831 11.109,11.218 25.903,17.396 41.656,17.396 h 424.502 c 28.415,-0.935 30.645,-41.015 2.505,-45.085 z M 262.593,72.465 c -4.792,1.871 -9.876,1.874 -14.656,0.005 V 55.755 c 0.345,-9.7 14.314,-9.694 14.656,0 z m 187.638,265.153 c 17.782,0.726 17.824,26.103 0,26.848 H 136.171 V 337.618 Z M 121.17,427.884 100.497,438.73 V 337.618 H 121.17 Z M 85.497,364.466 H 38.642 c 1.759,-8.856 1.759,-17.992 0,-26.848 h 46.855 z m 3.619,93.086 c 2.435,1.364 4.89,1.438 7.365,0.224 l 34.037,-17.857 h 342.836 c -1.754,8.849 -1.753,17.991 0.002,26.848 H 61.762 c -7.4,0 -13.421,-6.022 -13.421,-13.424 0,-7.402 6.021,-13.424 13.421,-13.424 h 23.734 v 11.216 c 0.001,2.625 1.374,5.059 3.62,6.417 z M 439.289,262.165 H 91.762 c -7.4,0 -13.421,-6.022 -13.421,-13.424 0,-7.402 6.021,-13.424 13.421,-13.424 h 203.16 c -0.189,5.342 -0.161,13.175 7.378,13.175 h 43.164 c 7.562,0 7.567,-7.83 7.378,-13.175 h 86.449 c -1.755,8.858 -1.756,17.999 -0.002,26.848 z m -115.406,-78.81 c 6.609,0 12.9,23.453 13.934,50.138 h -27.868 c 1.033,-26.685 7.325,-50.138 13.934,-50.138 z m 139.994,29.349 c 0,4.198 -3.415,7.613 -7.612,7.613 H 351.858 c -0.493,-5.099 -1.149,-10.185 -2.059,-15.227 h 106.466 c 4.197,0.001 7.612,3.417 7.612,7.614 z m -77.931,-22.613 h -39.894 c -3.569,-10.504 -8.474,-17.221 -14.669,-20.105 V 130.87 l 34.299,-9.009 z m -239.634,-68.23 81.923,21.518 c 18.093,4.752 37.431,4.752 55.523,0 l 32.624,-8.569 v 35.176 c -6.196,2.884 -11.1,9.601 -14.669,20.105 H 126.048 Z m -85.548,157.58 c -8.268,-8.349 -12.759,-19.405 -12.646,-31.13 0.232,-23.832 20.063,-43.22 44.208,-43.22 h 205.64 c -0.91,5.042 -1.566,10.128 -2.059,15.227 H 91.762 c -15.672,0 -28.421,12.751 -28.421,28.424 0,15.673 12.75,28.424 28.421,28.424 h 364.502 c 9.523,0 9.959,15.227 0,15.227 H 91.762 c -11.718,-10e-4 -22.727,-4.6 -30.998,-12.952 z m -42.647,35.564 c 0,-4.198 3.415,-7.613 7.612,-7.613 h 424.503 c 23.929,0 43.872,20.14 43.643,44.08 -0.232,23.832 -20.063,43.22 -44.208,43.22 H 410.33 c -9.385,0 -9.813,15 0,15 h 75.935 c 4.197,0 7.612,3.415 7.612,7.613 0,4.198 -3.415,7.613 -7.612,7.613 H 136.17 v -15.227 h 234.632 c 9.385,0 9.813,-15 0,-15 H 136.17 v -15.227 h 314.061 c 15.672,0 28.422,-12.751 28.422,-28.424 0,-15.673 -12.75,-28.424 -28.422,-28.424 H 25.729 c -4.198,0.002 -7.612,-3.414 -7.612,-7.611 z m 7.612,79.687 c -10.077,-0.359 -10.069,-14.871 0,-15.227 h 59.768 v 15.227 z M 486.265,496.993 H 61.762 c -11.719,0 -22.728,-4.599 -30.998,-12.951 -8.268,-8.35 -12.759,-19.405 -12.646,-31.13 0.232,-23.832 20.063,-43.22 44.208,-43.22 h 23.171 v 15.227 H 61.762 c -37.714,1.566 -37.685,55.296 0,56.848 h 424.502 c 10.078,0.358 10.071,14.871 10e-4,15.226 z"
       id="path48"
       style="stroke-width:4.03022" />
  </g>
</svg>
