<?xml version="1.0" encoding="UTF-8" standalone="no"?>
<svg
   xmlns:dc="http://purl.org/dc/elements/1.1/"
   xmlns:cc="http://creativecommons.org/ns#"
   xmlns:rdf="http://www.w3.org/1999/02/22-rdf-syntax-ns#"
   xmlns:svg="http://www.w3.org/2000/svg"
   xmlns="http://www.w3.org/2000/svg"
   xmlns:sodipodi="http://sodipodi.sourceforge.net/DTD/sodipodi-0.dtd"
   xmlns:inkscape="http://www.inkscape.org/namespaces/inkscape"
   version="1.1"
   id="Capa_1"
   x="0px"
   y="0px"
   viewBox="0 0 160 170"
   xml:space="preserve"
   sodipodi:docname="education_quality.svg"
   width="160"
   height="170"
   inkscape:version="1.0.2 (e86c870879, 2021-01-15, custom)"><metadata
   id="metadata67"><rdf:RDF><cc:Work
       rdf:about=""><dc:format>image/svg+xml</dc:format><dc:type
         rdf:resource="http://purl.org/dc/dcmitype/StillImage" /><dc:title></dc:title></cc:Work></rdf:RDF></metadata><defs
   id="defs65" /><sodipodi:namedview
   pagecolor="#ffffff"
   bordercolor="#666666"
   borderopacity="1"
   objecttolerance="10"
   gridtolerance="10"
   guidetolerance="10"
   inkscape:pageopacity="0"
   inkscape:pageshadow="2"
   inkscape:window-width="1920"
   inkscape:window-height="1017"
   id="namedview63"
   showgrid="false"
   inkscape:zoom="1.6601562"
   inkscape:cx="155.36195"
   inkscape:cy="163.91864"
   inkscape:window-x="-8"
   inkscape:window-y="-8"
   inkscape:window-maximized="1"
   inkscape:current-layer="Capa_1" />
<g
   id="g30"
   transform="matrix(0.2729426,0,0,0.27058966,9.0352941,23.491765)"
   style="stroke-width:3.67967">
	<rect
   x="35.310001"
   y="17.655001"
   style="fill:#41767f;stroke-width:3.67967"
   width="441.379"
   height="264.828"
   id="rect2" />
	<path
   style="fill:#f0c419;stroke-width:3.67967"
   d="m 158.897,124.177 v 61.203 c 0,4.875 -3.952,8.828 -8.828,8.828 -4.876,0 -8.828,-3.952 -8.828,-8.828 v -61.203 z"
   id="path4" />
	<circle
   style="fill:#95a5a5;stroke-width:3.67967"
   cx="256"
   cy="370.759"
   r="35.310001"
   id="circle6" />
	<path
   style="fill:#f29c1f;stroke-width:3.67967"
   d="m 203.034,503.172 v -46.66 c 1.379,-28.248 24.683,-50.444 52.966,-50.444 28.283,0 51.587,22.195 52.966,50.444 v 46.66 z"
   id="path8" />
	<circle
   style="fill:#95a5a5;stroke-width:3.67967"
   cx="423.724"
   cy="370.759"
   r="35.310001"
   id="circle10" />
	<path
   style="fill:#4482c3;stroke-width:3.67967"
   d="m 370.759,503.172 v -46.66 c 1.379,-28.248 24.683,-50.444 52.966,-50.444 28.282,0 51.587,22.195 52.966,50.444 v 46.66 z"
   id="path12" />
	<circle
   style="fill:#95a5a5;stroke-width:3.67967"
   cx="88.276001"
   cy="370.759"
   r="35.310001"
   id="circle14" />
	<path
   style="fill:#cc66a1;stroke-width:3.67967"
   d="m 35.31,503.172 v -46.66 c 0.713,-28.548 24.417,-51.123 52.966,-50.443 28.549,-0.679 52.252,21.895 52.966,50.443 v 46.66 z"
   id="path16" />
	<g
   id="g22"
   style="stroke-width:3.67967">
		<path
   style="fill:#cb8252;stroke-width:3.67967"
   d="m 17.655,0 h 476.69 C 504.095,0 512,7.904 512,17.655 v 0 c 0,9.751 -7.905,17.655 -17.655,17.655 H 17.655 C 7.904,35.31 0,27.406 0,17.655 v 0 C 0,7.904 7.904,0 17.655,0 Z"
   id="path18" />
		<path
   style="fill:#cb8252;stroke-width:3.67967"
   d="m 17.655,264.828 h 476.69 c 9.751,0 17.655,7.904 17.655,17.655 v 0 c 0,9.751 -7.905,17.655 -17.655,17.655 H 17.655 C 7.904,300.138 0,292.233 0,282.483 v 0 c 0,-9.751 7.904,-17.655 17.655,-17.655 z"
   id="path20" />
	</g>
	<path
   style="fill:#35495e;stroke-width:3.67967"
   d="m 326.621,146.979 v 58.527 l -43.873,18.626 c -17.115,7.15 -36.381,7.15 -53.496,0 l -43.873,-18.626 v -58.527 l 68.59,29.131 c 1.283,0.618 2.778,0.618 4.061,0 z"
   id="path24" />
	<path
   style="fill:#2c3e50;stroke-width:3.67967"
   d="m 366.963,129.854 -40.342,17.126 -68.59,29.131 c -1.283,0.618 -2.778,0.618 -4.061,0 L 185.38,146.98 145.038,129.854 c -2.322,-1.229 -3.774,-3.641 -3.774,-6.268 0,-2.627 1.452,-5.039 3.774,-6.268 L 253.97,71.062 c 1.283,-0.618 2.778,-0.618 4.061,0 l 108.932,46.257 c 2.322,1.229 3.774,3.641 3.774,6.268 0,2.627 -1.452,5.038 -3.774,6.267 z"
   id="path26" />
	<path
   style="fill:#cb8252;stroke-width:3.67967"
   d="m 8.828,476.69 h 494.345 c 4.875,0 8.828,3.952 8.828,8.828 v 17.655 c 0,4.875 -3.952,8.828 -8.828,8.828 H 8.828 C 3.952,512 0,508.048 0,503.172 v -17.655 c 0,-4.875 3.952,-8.827 8.828,-8.827 z"
   id="path28" />
</g>
<g
   id="g32">
</g>
<g
   id="g34">
</g>
<g
   id="g36">
</g>
<g
   id="g38">
</g>
<g
   id="g40">
</g>
<g
   id="g42">
</g>
<g
   id="g44">
</g>
<g
   id="g46">
</g>
<g
   id="g48">
</g>
<g
   id="g50">
</g>
<g
   id="g52">
</g>
<g
   id="g54">
</g>
<g
   id="g56">
</g>
<g
   id="g58">
</g>
<g
   id="g60">
</g>
</svg>
