<?xml version="1.0" encoding="UTF-8" standalone="no"?>
<svg
   xmlns:dc="http://purl.org/dc/elements/1.1/"
   xmlns:cc="http://creativecommons.org/ns#"
   xmlns:rdf="http://www.w3.org/1999/02/22-rdf-syntax-ns#"
   xmlns:svg="http://www.w3.org/2000/svg"
   xmlns="http://www.w3.org/2000/svg"
   xmlns:sodipodi="http://sodipodi.sourceforge.net/DTD/sodipodi-0.dtd"
   xmlns:inkscape="http://www.inkscape.org/namespaces/inkscape"
   id="Layer_1"
   enable-background="new 0 0 512 512"
   height="170"
   viewBox="0 0 160 170"
   width="160"
   version="1.1"
   sodipodi:docname="government.svg"
   inkscape:version="1.0.2 (e86c870879, 2021-01-15, custom)">
  <metadata
     id="metadata73">
    <rdf:RDF>
      <cc:Work
         rdf:about="">
        <dc:format>image/svg+xml</dc:format>
        <dc:type
           rdf:resource="http://purl.org/dc/dcmitype/StillImage" />
        <dc:title></dc:title>
      </cc:Work>
    </rdf:RDF>
  </metadata>
  <defs
     id="defs71" />
  <sodipodi:namedview
     pagecolor="#ffffff"
     bordercolor="#666666"
     borderopacity="1"
     objecttolerance="10"
     gridtolerance="10"
     guidetolerance="10"
     inkscape:pageopacity="0"
     inkscape:pageshadow="2"
     inkscape:window-width="1920"
     inkscape:window-height="1017"
     id="namedview69"
     showgrid="false"
     inkscape:zoom="1.6601562"
     inkscape:cx="35.419221"
     inkscape:cy="81.77017"
     inkscape:window-x="-8"
     inkscape:window-y="-8"
     inkscape:window-maximized="1"
     inkscape:current-layer="g66" />
  <g
     id="g66"
     transform="matrix(0.97337951,0,0,0.99334486,-606.52126,-483.85404)"
     style="stroke-width:1.01697">
    <path
       d="m 642.62683,558.10369 h 123.83721 v 87.1689 H 642.62683 Z"
       fill="#ecf5ff"
       id="path2"
       style="stroke-width:1.03423" />
    <path
       d="m 758.50861,558.10369 h 7.95517 v 87.1689 h -7.95517 z"
       fill="#dceafc"
       id="path4"
       style="stroke-width:1.03423" />
    <g
       id="g14"
       style="stroke-width:3.62941"
       transform="matrix(0.25740695,0,0,0.30501677,638.64912,497.18146)">
      <g
         id="g8"
         style="stroke-width:3.62941">
        <path
           d="m 256,109.328 c -4.268,0 -7.726,-3.459 -7.726,-7.726 V 35.484 c 0,-4.268 3.459,-7.726 7.726,-7.726 4.267,0 7.726,3.459 7.726,7.726 v 66.118 c 0,4.267 -3.458,7.726 -7.726,7.726 z"
           fill="#ecf5ff"
           id="path6"
           style="stroke-width:3.69101" />
      </g>
      <path
         d="M 315.532,46.358 H 248.274 V 7.211 C 248.274,3.228 251.503,0 255.485,0 h 60.047 c 3.983,0 7.211,3.229 7.211,7.211 v 31.936 c 0,3.983 -3.229,7.211 -7.211,7.211 z"
         fill="#db8894"
         id="path10"
         style="stroke-width:3.69101" />
      <path
         d="m 315.532,0 h -30.905 c 3.983,0 7.211,3.229 7.211,7.211 v 31.936 c 0,3.983 -3.229,7.211 -7.211,7.211 h 30.905 c 3.983,0 7.211,-3.229 7.211,-7.211 V 7.211 C 322.743,3.229 319.514,0 315.532,0 Z"
         fill="#d4717f"
         id="path12"
         style="stroke-width:3.69101" />
    </g>
    <path
       d="M 768.58532,562.90526 H 640.50528 c -1.02525,0 -1.85616,-0.9849 -1.85616,-2.19948 V 548.7839 c 0,-1.21489 0.83117,-2.19948 1.85616,-2.19948 h 26.86685 c 0.90119,0 1.7877,-0.27208 2.57562,-0.79091 l 33.69585,-22.18234 c 0.56063,-0.36907 1.24225,-0.36907 1.80288,0 l 33.69586,22.18234 c 0.78793,0.51853 1.67444,0.79091 2.57562,0.79091 h 26.86685 c 1.02526,0 1.85616,0.9849 1.85616,2.19948 v 11.92188 c 0,1.21458 -0.83065,2.19948 -1.85565,2.19948 z"
       fill="#bdd8fc"
       id="path16"
       style="stroke-width:1.03423" />
    <g
       id="g20"
       style="stroke-width:3.62941"
       transform="matrix(0.25740695,0,0,0.30501677,638.64912,497.18146)">
      <path
         d="m 504.789,161.967 h -30.905 c 3.983,0 7.211,3.229 7.211,7.211 v 39.086 c 0,3.983 -3.229,7.211 -7.211,7.211 h 30.905 c 3.983,0 7.211,-3.229 7.211,-7.211 v -39.086 c 0,-3.982 -3.229,-7.211 -7.211,-7.211 z"
         fill="#9dc7fb"
         id="path18"
         style="stroke-width:3.69101" />
    </g>
    <circle
       cx="704.54529"
       cy="545.59766"
       fill="#4f6d8f"
       id="circle22"
       style="stroke-width:1.03423"
       rx="7.0694246"
       ry="8.3769808" />
    <path
       d="m 704.5453,537.22101 c -1.4752,0 -2.84434,0.53592 -3.97771,1.45188 1.8662,1.50801 3.09171,4.04666 3.09171,6.92511 0,2.87844 -1.22551,5.41709 -3.09171,6.92509 1.13337,0.91567 2.50251,1.45188 3.97771,1.45188 3.90435,0 7.06943,-3.75048 7.06943,-8.37697 0,-4.6268 -3.16508,-8.37699 -7.06943,-8.37699 z"
       fill="#455e7e"
       id="path24"
       style="stroke-width:1.03423" />
    <g
       id="g38"
       style="stroke-width:3.62941"
       transform="matrix(0.25740695,0,0,0.30501677,638.64912,497.18146)">
      <path
         d="m 77.264,215.476 h 52.932 V 481.03 H 77.264 Z"
         fill="#bdd8fc"
         id="path26"
         style="stroke-width:3.69101" />
      <path
         d="m 99.29,215.476 h 30.905 V 481.03 H 99.29 Z"
         fill="#9dc7fb"
         id="path28"
         style="stroke-width:3.69101" />
      <path
         d="M 145.648,215.476 H 61.811 v 20.604 c 0,5.69 4.612,10.302 10.302,10.302 h 63.234 c 5.69,0 10.302,-4.612 10.302,-10.302 v -20.604 z"
         fill="#4f6d8f"
         id="path30"
         style="stroke-width:3.69101" />
      <path
         d="m 114.742,215.476 v 20.604 c 0,5.689 -4.612,10.302 -10.302,10.302 h 30.905 c 5.69,0 10.302,-4.612 10.302,-10.302 v -20.604 z"
         fill="#455e7e"
         id="path32"
         style="stroke-width:3.69101" />
      <path
         d="M 135.346,450.124 H 72.113 c -5.69,0 -10.302,4.612 -10.302,10.302 v 20.604 h 83.837 v -20.604 c 0,-5.689 -4.612,-10.302 -10.302,-10.302 z"
         fill="#4f6d8f"
         id="path34"
         style="stroke-width:3.69101" />
      <path
         d="m 135.346,450.124 h -30.905 c 5.69,0 10.302,4.612 10.302,10.302 v 20.604 h 30.905 v -20.604 c 0,-5.689 -4.612,-10.302 -10.302,-10.302 z"
         fill="#455e7e"
         id="path36"
         style="stroke-width:3.69101" />
    </g>
    <g
       id="g52"
       style="stroke-width:3.62941"
       transform="matrix(0.25740695,0,0,0.30501677,638.64912,497.18146)">
      <path
         d="m 381.805,215.476 h 52.932 V 481.03 h -52.932 z"
         fill="#bdd8fc"
         id="path40"
         style="stroke-width:3.69101" />
      <path
         d="m 403.831,215.476 h 30.905 V 481.03 h -30.905 z"
         fill="#9dc7fb"
         id="path42"
         style="stroke-width:3.69101" />
      <path
         d="m 450.189,215.476 h -83.837 v 20.604 c 0,5.69 4.612,10.302 10.302,10.302 h 63.234 c 5.69,0 10.302,-4.612 10.302,-10.302 v -20.604 z"
         fill="#4f6d8f"
         id="path44"
         style="stroke-width:3.69101" />
      <path
         d="m 419.284,215.476 v 20.604 c 0,5.689 -4.612,10.302 -10.302,10.302 h 30.905 c 5.69,0 10.302,-4.612 10.302,-10.302 v -20.604 z"
         fill="#455e7e"
         id="path46"
         style="stroke-width:3.69101" />
      <path
         d="m 439.887,450.124 h -63.234 c -5.69,0 -10.302,4.612 -10.302,10.302 v 20.604 h 83.837 v -20.604 c 0.001,-5.689 -4.611,-10.302 -10.301,-10.302 z"
         fill="#4f6d8f"
         id="path48"
         style="stroke-width:3.69101" />
      <path
         d="m 439.887,450.124 h -30.905 c 5.69,0 10.302,4.612 10.302,10.302 v 20.604 h 30.905 v -20.604 c 0,-5.689 -4.612,-10.302 -10.302,-10.302 z"
         fill="#455e7e"
         id="path50"
         style="stroke-width:3.69101" />
    </g>
    <path
       d="m 718.07667,643.90368 h -27.06274 v -40.73956 c 0,-1.73555 1.18716,-3.14228 2.65181,-3.14228 h 21.75938 c 1.46465,0 2.65181,1.40673 2.65181,3.14228 v 40.73956 z"
       fill="#ce9775"
       id="path54"
       style="stroke-width:1.03423" />
    <path
       d="m 715.42487,600.02184 h -7.95517 c 1.46439,0 2.65181,1.40673 2.65181,3.14228 v 40.73956 h 7.95516 v -40.73956 c 0,-1.73555 -1.18716,-3.14228 -2.6518,-3.14228 z"
       fill="#c6855b"
       id="path56"
       style="stroke-width:1.03423" />
    <path
       d="m 721.68963,586.5163 h -34.28892 c -1.02525,0 -1.85616,-0.9849 -1.85616,-2.19947 v -5.70656 c 0,-1.21488 0.83117,-2.19948 1.85616,-2.19948 h 34.28892 c 1.02525,0 1.85617,0.9849 1.85617,2.19948 v 5.70656 c 2.5e-4,1.21488 -0.83092,2.19947 -1.85617,2.19947 z"
       fill="#db8894"
       id="path58"
       style="stroke-width:1.03423" />
    <path
       d="m 721.68989,576.41079 h -7.95516 c 1.02526,0 1.85616,0.9849 1.85616,2.19948 v 5.70656 c 0,1.21488 -0.83116,2.19947 -1.85616,2.19947 h 7.95516 c 1.02525,0 1.85616,-0.98459 1.85616,-2.19947 v -5.70656 c 0,-1.21488 -0.83117,-2.19948 -1.85616,-2.19948 z"
       fill="#d4717f"
       id="path60"
       style="stroke-width:1.03423" />
    <path
       d="m 641.30093,643.90368 h 126.48875 c 1.46464,0 2.65181,1.40979 2.65181,3.14869 v 3.14869 c 0,1.7389 -1.18717,3.14869 -2.65181,3.14869 H 641.30093 c -1.46465,3e-4 -2.65181,-1.40949 -2.65181,-3.14839 v -3.14869 c 0,-1.7392 1.18716,-3.14899 2.65181,-3.14899 z"
       fill="#bee49d"
       id="path62"
       style="stroke-width:1.03423" />
    <path
       d="m 767.78968,643.90368 h -7.95516 c 1.46465,0 2.65181,1.40979 2.65181,3.14869 v 3.14869 c 0,1.7389 -1.18716,3.14869 -2.65181,3.14869 h 7.95516 c 1.46464,0 2.65181,-1.40979 2.65181,-3.14869 v -3.14869 c 0,-1.7389 -1.18717,-3.14869 -2.65181,-3.14869 z"
       fill="#a3d8a4"
       id="path64"
       style="stroke-width:1.03423" />
  </g>
</svg>
