<?xml version="1.0" encoding="UTF-8" standalone="no"?>
<svg
   xmlns:dc="http://purl.org/dc/elements/1.1/"
   xmlns:cc="http://creativecommons.org/ns#"
   xmlns:rdf="http://www.w3.org/1999/02/22-rdf-syntax-ns#"
   xmlns:svg="http://www.w3.org/2000/svg"
   xmlns="http://www.w3.org/2000/svg"
   xmlns:sodipodi="http://sodipodi.sourceforge.net/DTD/sodipodi-0.dtd"
   xmlns:inkscape="http://www.inkscape.org/namespaces/inkscape"
   height="170pt"
   viewBox="0 0 160 170"
   width="160pt"
   version="1.1"
   id="svg54"
   sodipodi:docname="politics.svg"
   inkscape:version="1.0.2 (e86c870879, 2021-01-15, custom)">
  <metadata
     id="metadata60">
    <rdf:RDF>
      <cc:Work
         rdf:about="">
        <dc:format>image/svg+xml</dc:format>
        <dc:type
           rdf:resource="http://purl.org/dc/dcmitype/StillImage" />
        <dc:title></dc:title>
      </cc:Work>
    </rdf:RDF>
  </metadata>
  <defs
     id="defs58" />
  <sodipodi:namedview
     pagecolor="#ffffff"
     bordercolor="#666666"
     borderopacity="1"
     objecttolerance="10"
     gridtolerance="10"
     guidetolerance="10"
     inkscape:pageopacity="0"
     inkscape:pageshadow="2"
     inkscape:window-width="1920"
     inkscape:window-height="1017"
     id="namedview56"
     showgrid="false"
     inkscape:zoom="1.7608616"
     inkscape:cx="46.418842"
     inkscape:cy="146.55653"
     inkscape:window-x="-8"
     inkscape:window-y="-8"
     inkscape:window-maximized="1"
     inkscape:current-layer="svg54" />
  <path
     d="m 56.875717,55.61427 -3.984282,-1.396586 v 0.0265 l -9.228415,16.162467 -9.227365,-16.162467 -0.0042,-0.02544 -3.981131,1.395529 c -6.551227,2.295146 -10.94391,8.526803 -10.94391,15.526688 v 8.031958 h 48.313221 v -8.031958 c 0,-6.999885 -4.392683,-13.231542 -10.943913,-15.526689 z m 0,0"
     fill="#636363"
     id="path2"
     style="stroke-width:1" />
  <path
     d="m 56.875717,55.61427 -1.521272,-0.534051 c 4.012629,3.048542 6.493488,7.875135 6.493488,13.135113 v 10.957585 h 5.971697 v -8.031958 c 0,-6.999885 -4.392683,-13.231542 -10.943913,-15.526689 z m 0,0"
     fill="#494949"
     id="path4"
     style="stroke-width:1" />
  <path
     d="M 34.434605,54.244172 43.66302,70.40664 52.891435,54.244172 v -0.0265 l -4.614208,-1.616988 h -9.228415 l -4.617357,1.618047 z m 0,0"
     fill="#ddf5ff"
     id="path6"
     style="stroke-width:1" />
  <path
     d="M 13.535762,79.172917 H 73.790278 V 89.03485 H 13.535762 Z m 0,0"
     fill="#ddf5ff"
     id="path8"
     style="stroke-width:1" />
  <path
     d="m 69.447988,79.172917 v 2.739133 c 0,1.513144 -1.214707,2.739133 -2.713932,2.739133 H 13.535762 v 4.383667 h 60.254516 v -9.861933 z m 0,0"
     fill="#c1e9f4"
     id="path10"
     style="stroke-width:1" />
  <path
     d="M 67.004926,160.25862 H 20.321114 l -2.71393,-71.22377 h 52.111671 z m 0,0"
     fill="#ffd664"
     id="path12"
     style="stroke-width:1" />
  <path
     d="m 17.607184,89.03485 0.187927,4.930437 h 43.946782 c 1.540169,0 2.770626,1.291683 2.711832,2.845093 l -2.417867,63.44824 h 4.969068 l 2.713929,-71.22377 z m 0,0"
     fill="#f9c646"
     id="path14"
     style="stroke-width:1" />
  <path
     d="m 55.062579,36.986057 c 0,-6.354573 -5.10345,-11.505412 -11.399559,-11.505412 -6.296109,0 -11.39956,5.150839 -11.39956,11.505412 v 4.109227 c 0,6.354572 5.103451,11.505411 11.39956,11.505411 6.296109,0 11.399559,-5.150839 11.399559,-11.505411 z m 0,0"
     fill="#feccc1"
     id="path16"
     style="stroke-width:1" />
  <path
     d="m 43.66302,25.480645 c -0.790558,0 -1.562216,0.0816 -2.306578,0.236297 5.189539,1.076579 9.091929,5.71244 9.091929,11.269115 v 4.109227 c 0,5.556675 -3.90239,10.192536 -9.091929,11.269115 0.744362,0.154705 1.51602,0.236296 2.306578,0.236296 6.296109,0 11.399559,-5.150839 11.399559,-11.505411 v -4.109227 c 0,-6.354573 -5.10345,-11.505412 -11.399559,-11.505412 z m 0,0"
     fill="#f9b3a7"
     id="path18"
     style="stroke-width:1" />
  <path
     d="m 31.720674,109.0321 h 15.742898 v 15.88802 H 31.720674 Z m 0,0"
     fill="#669af7"
     id="path20"
     style="stroke-width:1" />
  <path
     d="m 39.863516,103.55384 h 15.741848 v 15.88801 H 39.863516 Z m 0,0"
     fill="#8db0ff"
     id="path22"
     style="stroke-width:1" />
  <path
     d="m 130.15919,55.61427 -3.98427,-1.396586 v 0.0265 l -9.22842,16.162467 -9.22841,-16.162467 -0.003,-0.02544 -3.98113,1.395529 C 97.182727,57.90942 92.790044,64.141077 92.790044,71.140962 v 8.031958 h 48.313226 v -8.031958 c 0,-6.999885 -4.39269,-13.231542 -10.94392,-15.526689 z m 0,0"
     fill="#636363"
     id="path24"
     style="stroke-width:1" />
  <path
     d="m 130.15919,55.61427 -1.52231,-0.534051 c 4.01368,3.048542 6.49453,7.875135 6.49453,13.135113 v 10.957585 h 5.9717 v -8.031958 c 0,-6.999885 -4.39269,-13.231542 -10.94392,-15.526689 z m 0,0"
     fill="#494949"
     id="path26"
     style="stroke-width:1" />
  <path
     d="m 107.71809,54.244172 9.22841,16.162468 9.22842,-16.162468 v -0.0265 l -4.61422,-1.616975 h -9.22841 l -4.61841,1.618047 z m 0,0"
     fill="#ddf5ff"
     id="path28"
     style="stroke-width:1" />
  <path
     d="M 86.819244,79.172917 H 147.07376 V 89.03485 H 86.819244 Z m 0,0"
     fill="#ddf5ff"
     id="path30"
     style="stroke-width:1" />
  <path
     d="m 142.73147,79.172917 v 2.739133 c 0,1.513144 -1.21576,2.739133 -2.71498,2.739133 H 86.819244 v 4.383667 h 60.254516 v -9.861933 z m 0,0"
     fill="#c1e9f4"
     id="path32"
     style="stroke-width:1" />
  <path
     d="M 140.28841,160.25862 H 93.604598 L 90.890666,89.03485 h 52.111664 z m 0,0"
     fill="#ffd664"
     id="path34"
     style="stroke-width:1" />
  <path
     d="m 90.890666,89.03485 0.187928,4.930437 h 43.946786 c 1.53911,0 2.77062,1.291683 2.71182,2.845093 l -2.41786,63.44824 h 4.96907 l 2.71392,-71.22377 z m 0,0"
     fill="#f9c646"
     id="path36"
     style="stroke-width:1" />
  <path
     d="m 128.34605,36.986057 c 0,-6.354573 -5.10344,-11.505412 -11.39955,-11.505412 -6.29611,0 -11.39955,5.150839 -11.39955,11.505412 v 4.109227 c 0,6.354572 5.10344,11.505411 11.39955,11.505411 6.29611,0 11.39955,-5.150839 11.39955,-11.505411 z m 0,0"
     fill="#feccc1"
     id="path38"
     style="stroke-width:1" />
  <path
     d="m 116.9465,25.480645 c -0.79055,0 -1.56222,0.0816 -2.30763,0.236297 5.18954,1.076579 9.09298,5.71244 9.09298,11.269115 v 4.109227 c 0,5.556675 -3.90344,10.192536 -9.09298,11.269115 0.74541,0.154705 1.51708,0.236296 2.30763,0.236296 6.29611,0 11.39955,-5.150839 11.39955,-11.505411 v -4.109227 c 0,-6.354573 -5.10344,-11.505412 -11.39955,-11.505412 z m 0,0"
     fill="#f9b3a7"
     id="path40"
     style="stroke-width:1" />
  <path
     d="m 113.14594,109.0321 h 15.7429 v 15.88802 h -15.7429 z m 0,0"
     fill="#ea4747"
     id="path42"
     style="stroke-width:1" />
  <path
     d="M 105.00416,103.55384 H 120.746 v 15.88801 h -15.74184 z m 0,0"
     fill="#ff6969"
     id="path44"
     style="stroke-width:1" />
  <path
     d="m 73.790278,77.118304 h -3.934939 v -5.977345 c 0,-7.867719 -4.948067,-14.887737 -12.311901,-17.467923 L 51.98854,51.726503 c 3.109734,-2.48588 5.10975,-6.325962 5.10975,-10.631219 v -4.109227 c 0,-7.476717 -6.027341,-13.560025 -13.43527,-13.560025 -7.407929,0 -13.43527,6.083308 -13.43527,13.560025 v 4.109227 c 0,4.305257 2.001065,8.145339 5.109749,10.631219 l -5.554897,1.946533 C 22.418768,56.253222 17.4707,63.27324 17.4707,71.140959 v 5.977345 h -3.934938 c -1.124417,0 -2.03571,0.919756 -2.03571,2.054613 v 9.861933 c 0,1.134861 0.911293,2.054614 2.03571,2.054614 h 2.110253 l 0.195276,5.326737 c 0.042,1.1338 0.977435,2.020706 2.110252,1.9762 1.123368,-0.04239 2.000015,-0.994986 1.95802,-2.128786 L 19.719535,91.089464 H 67.604403 L 65.046905,158.204 H 22.280184 l -1.994765,-52.33276 c -0.04304,-1.13381 -0.985834,-2.01435 -2.112352,-1.97409 -1.123368,0.0435 -1.998964,0.99817 -1.95592,2.13197 l 2.070357,54.30791 c 0.04095,1.10308 0.939639,1.9762 2.03361,1.9762 h 46.683812 c 1.093971,0 1.992665,-0.87312 2.03466,-1.9762 l 2.638338,-69.248627 h 2.112354 c 1.124416,0 2.03571,-0.919753 2.03571,-2.054613 v -9.860873 c 0,-1.134857 -0.911294,-2.054613 -2.03571,-2.054613 z M 34.29917,36.986057 c 0,-5.211237 4.200556,-9.450799 9.36385,-9.450799 5.163294,0 9.363848,4.239562 9.363848,9.450799 v 4.109227 c 0,5.211237 -4.200554,9.450797 -9.363848,9.450797 -5.163294,0 -9.36385,-4.23956 -9.36385,-9.450797 z m 13.634747,17.669252 1.977969,0.692995 -6.248866,10.94381 -6.247815,-10.94381 1.976916,-0.692995 z m -26.391796,16.48565 c 0,-6.119337 3.848848,-11.578526 9.575924,-13.586516 l 2.38112,-0.833925 8.400063,14.711838 c 0.363256,0.636833 1.036228,1.028897 1.763792,1.028897 0.727564,0 1.400536,-0.392064 1.763792,-1.028897 l 8.400064,-14.711838 2.381118,0.833925 c 5.727076,2.006931 9.575925,7.467179 9.575925,13.586516 v 5.977345 H 21.542121 Z M 71.754567,86.980237 H 15.571473 v -5.752705 h 56.183094 z m 0,0"
     id="path46"
     style="stroke-width:1" />
  <path
     d="m 55.605364,145.32956 c 1.12442,0 2.035712,-0.92082 2.035712,-2.05462 v -41.63902 c 0,-1.13487 -0.911292,-2.054618 -2.035712,-2.054618 -1.078223,0 -1.958017,0.846638 -2.028359,1.917918 H 39.863516 c -1.124416,0 -2.03571,0.91976 -2.03571,2.05462 v 3.42364 h -6.107132 c -1.124418,0 -2.035711,0.91976 -2.035711,2.05462 v 15.88802 c 0,1.13486 0.911293,2.05462 2.035711,2.05462 h 15.742898 c 1.123368,0 2.035711,-0.91976 2.035711,-2.05462 v -3.42365 h 4.070371 v 21.77847 c 0,1.1338 0.911294,2.05462 2.03571,2.05462 z M 45.427861,122.8655 H 33.756385 v -11.77879 h 4.071421 v 8.35514 c 0,1.13487 0.911294,2.05462 2.03571,2.05462 h 5.564345 z m -3.528633,-5.47826 v -11.77879 h 11.670426 v 11.77879 z m 0,0"
     id="path48"
     style="stroke-width:1" />
  <path
     d="m 147.07376,77.118304 h -3.93599 v -5.977345 c 0,-7.867719 -4.94701,-14.887737 -12.31086,-17.467923 l -5.55594,-1.946533 c 3.10974,-2.48588 5.1108,-6.325962 5.1108,-10.631219 v -4.109227 c 0,-7.476717 -6.02734,-13.560025 -13.43527,-13.560025 -7.40793,0 -13.43527,6.083308 -13.43527,13.560025 v 4.109227 c 0,4.305257 2.00002,8.145339 5.10975,10.631219 l -5.55489,1.946533 C 95.70225,56.253222 90.754183,63.27324 90.754183,71.140959 v 5.977345 h -3.935986 c -1.12337,0 -2.035712,0.919756 -2.035712,2.054613 v 9.861933 c 0,1.134861 0.912342,2.054614 2.035712,2.054614 h 2.113401 l 2.638337,69.248636 c 0.04199,1.10306 0.94069,1.97513 2.03466,1.97513 h 46.683815 c 1.09396,0 1.99161,-0.87207 2.03361,-1.97513 l 2.06931,-54.30898 c 0.044,-1.1338 -0.83151,-2.08852 -1.95487,-2.13197 -1.11498,-0.035 -2.06931,0.84028 -2.11236,1.97409 L 138.32933,158.204 H 95.562616 L 93.005119,91.089464 h 47.884871 l -0.19003,5.174151 c -0.0419,1.1338 0.83465,2.087461 1.95801,2.128786 1.12443,0.04451 2.06827,-0.8424 2.11026,-1.9762 l 0.19528,-5.326737 h 2.11025 c 1.12441,0 2.03571,-0.919756 2.03571,-2.054614 v -9.861933 c 0,-1.134857 -0.9113,-2.054613 -2.03571,-2.054613 z m -39.4911,-40.132247 c 0,-5.211237 4.20054,-9.450799 9.36384,-9.450799 5.16329,0 9.36385,4.239562 9.36385,9.450799 v 4.109227 c 0,5.211237 -4.20056,9.450797 -9.36385,9.450797 -5.1633,0 -9.36384,-4.23956 -9.36384,-9.450797 z m 13.63474,17.669252 1.97692,0.692995 -6.24782,10.94381 -6.24887,-10.94381 1.97797,-0.692995 z m -26.391797,16.48565 c 0,-6.119337 3.848848,-11.578526 9.575927,-13.586516 l 2.38112,-0.833925 8.40006,14.711838 c 0.36326,0.636833 1.03518,1.028897 1.76379,1.028897 0.72756,0 1.39949,-0.392064 1.76379,-1.028897 l 8.40006,-14.711838 2.38112,0.833925 c 5.72708,2.006931 9.57488,7.467179 9.57488,13.586516 v 5.977345 H 94.825603 Z M 145.03805,86.980237 H 88.854955 v -5.752705 h 56.183095 z m 0,0"
     id="path50"
     style="stroke-width:1" />
  <path
     d="m 113.14594,126.97474 h 15.7429 c 1.12443,0 2.03572,-0.91976 2.03572,-2.05462 V 109.0321 c 0,-1.13486 -0.91129,-2.05462 -2.03572,-2.05462 h -6.10713 v -3.42364 c 0,-1.13486 -0.91129,-2.05462 -2.03571,-2.05462 h -13.71348 c -0.0703,-1.07128 -0.95014,-1.917918 -2.02836,-1.917918 -1.12442,0 -2.03571,0.919748 -2.03571,2.054618 v 41.63902 c 0,1.1338 0.91129,2.05462 2.03571,2.05462 1.12336,0 2.03571,-0.92082 2.03571,-2.05462 v -21.77847 h 4.07037 v 3.42365 c 0,1.13486 0.91234,2.05462 2.0357,2.05462 z m 13.7072,-15.88803 v 11.77879 h -11.67148 v -1.36903 h 5.56434 c 1.12442,0 2.03571,-0.91975 2.03571,-2.05462 v -8.35514 z m -19.81327,-5.47826 h 11.67042 v 11.77879 h -11.67042 z m 0,0"
     id="path52"
     style="stroke-width:1" />
</svg>
