<?xml version="1.0" encoding="UTF-8" standalone="no"?>
<svg
   xmlns:dc="http://purl.org/dc/elements/1.1/"
   xmlns:cc="http://creativecommons.org/ns#"
   xmlns:rdf="http://www.w3.org/1999/02/22-rdf-syntax-ns#"
   xmlns:svg="http://www.w3.org/2000/svg"
   xmlns="http://www.w3.org/2000/svg"
   xmlns:sodipodi="http://sodipodi.sourceforge.net/DTD/sodipodi-0.dtd"
   xmlns:inkscape="http://www.inkscape.org/namespaces/inkscape"
   version="1.1"
   id="Capa_1"
   x="0px"
   y="0px"
   viewBox="0 0 160 170"
   xml:space="preserve"
   sodipodi:docname="inflation.svg"
   width="160"
   height="170"
   inkscape:version="1.0.2 (e86c870879, 2021-01-15, custom)"><metadata
   id="metadata75"><rdf:RDF><cc:Work
       rdf:about=""><dc:format>image/svg+xml</dc:format><dc:type
         rdf:resource="http://purl.org/dc/dcmitype/StillImage" /><dc:title></dc:title></cc:Work></rdf:RDF></metadata><defs
   id="defs73" /><sodipodi:namedview
   pagecolor="#ffffff"
   bordercolor="#666666"
   borderopacity="1"
   objecttolerance="10"
   gridtolerance="10"
   guidetolerance="10"
   inkscape:pageopacity="0"
   inkscape:pageshadow="2"
   inkscape:window-width="1920"
   inkscape:window-height="1017"
   id="namedview71"
   showgrid="false"
   inkscape:zoom="3.3203125"
   inkscape:cx="106.53374"
   inkscape:cy="102.58173"
   inkscape:window-x="-8"
   inkscape:window-y="-8"
   inkscape:window-maximized="1"
   inkscape:current-layer="Capa_1" />
<path
   style="fill:#303c42;stroke-width:1"
   d="M 141.22722,62.432857 H 65.036896 c -2.105121,-5.552172 -5.607177,-9.508967 -8.831412,-13.093573 -4.174861,-4.640077 -7.778708,-8.646286 -7.778708,-15.46692 0,-0.973681 -0.649603,-1.863625 -1.679688,-2.309814 -1.033274,-0.451302 -2.274771,-0.367565 -3.214085,0.197656 -8.008388,4.809984 -14.188897,11.450488 -16.95609,18.223167 -1.76118,4.310486 -2.498363,8.45861 -2.767194,11.795414 -0.274921,-0.149704 -0.531572,-0.329591 -0.770244,-0.535038 -2.102509,-1.800336 -2.483282,-5.327252 -2.452831,-6.534129 0.02117,-0.89749 -0.510403,-1.744349 -1.404767,-2.233867 C 18.281713,51.986479 17.157958,51.905177 16.185293,52.293188 15.756381,52.460417 5.6637526,56.578357 5.1591502,71.335221 5.1229,71.829607 5.12,72.32156 5.12,72.81838 v 62.31387 c 0,5.72791 5.549176,10.38552 12.373489,10.38552 H 141.22751 c 6.82402,0 12.37349,-4.65784 12.37349,-10.38552 V 72.81838 c -3e-4,-5.727677 -5.54947,-10.385523 -12.37378,-10.385523 z"
   id="path2" />
<path
   style="fill:#7cb342;stroke-width:1"
   d="m 147.41411,72.816433 v 10.123602 c -9.4465,-1.149673 -16.87779,-7.387316 -18.24747,-15.316485 h 12.06087 c 3.41041,0 6.1866,2.330261 6.1866,5.192883 z"
   id="path4" />
<path
   style="fill:#ffca28;stroke-width:1"
   d="m 11.33995,71.571338 c 0.199521,-5.877624 2.09961,-9.534039 3.930098,-11.717032 0.604073,1.703942 1.619078,3.527159 3.322836,4.997661 2.09961,1.812994 4.930024,2.771339 8.180359,2.771339 1.709848,0 3.093445,-1.161358 3.093445,-2.596563 0,-3.235542 0.443992,-8.18257 2.564772,-13.362796 1.845859,-4.518609 5.528296,-9.001436 10.39162,-12.746699 1.371416,5.684835 4.954093,9.668406 8.44629,13.547795 4.422521,4.916601 8.600281,9.561789 9.373715,18.01553 l 0.05742,0.68474 c 0.04843,0.535038 0.09976,1.07251 0.09976,1.650632 0,11.453408 -11.101544,20.771777 -24.746689,20.771777 -13.645145,0 -24.746977,-9.317882 -24.746977,-20.771289 0,-0.385334 -0.0029,-0.770912 0.03335,-1.245095 z"
   id="path6" />
<path
   style="fill:#ff8f00;stroke-width:1"
   d="m 20.795155,79.994895 c 0.122961,-3.628909 1.296306,-5.886388 2.426441,-7.234205 0.372942,1.052062 0.999636,2.177637 2.05176,3.085594 1.296306,1.119246 3.043855,1.711001 5.050664,1.711001 1.055605,0 1.909949,-0.717116 1.909949,-1.603166 0,-1.997506 0.274051,-5.051943 1.583408,-8.250241 1.139705,-2.789839 3.413026,-5.557527 6.41599,-7.869775 0.846805,3.509876 3.058645,5.969393 5.214805,8.364648 2.730654,3.03545 5.309925,5.903671 5.787558,11.123086 l 0.03538,0.422578 c 0.02987,0.330321 0.06149,0.662103 0.06149,1.0192 0,7.071358 -6.854183,12.824838 -15.279014,12.824838 -8.42483,0 -15.279013,-5.753237 -15.279013,-12.824838 0,-0.238065 -0.002,-0.47613 0.02059,-0.76872 z"
   id="path8" />
<path
   style="fill:#96c268;stroke-width:1"
   d="m 36.053577,98.781336 c 17.055852,0 30.933578,-11.648631 30.933578,-25.964903 0,-0.712492 -0.05742,-1.376785 -0.114841,-2.038644 l -0.05742,-0.661861 c -0.08004,-0.876069 -0.231132,-1.679842 -0.372943,-2.492622 h 56.538089 c 1.44595,10.788383 11.58121,19.295919 24.43407,20.50937 v 31.682594 c -12.85286,1.2137 -22.98841,9.72099 -24.43407,20.50937 H 35.740956 C 34.295009,129.53626 24.159751,121.02872 11.306889,119.81527 V 88.234669 c 5.643427,6.362517 14.59229,10.546667 24.746688,10.546667 z"
   id="path10" />
<g
   id="g16"
   transform="matrix(0.29000138,0,0,0.2434202,5.12,26.079752)"
   style="stroke-width:3.76376">
	<path
   style="fill:#7cb342;stroke-width:3.76376"
   d="m 21.333,448 v -41.589 c 32.574,4.723 58.199,30.348 62.922,62.922 H 42.667 C 30.906,469.333 21.333,459.76 21.333,448 Z"
   id="path12" />
	<path
   style="fill:#7cb342;stroke-width:3.76376"
   d="m 469.333,469.333 h -41.589 c 4.723,-32.574 30.348,-58.199 62.922,-62.922 V 448 c 10e-4,11.76 -9.572,21.333 -21.333,21.333 z"
   id="path14" />
</g>
<linearGradient
   id="SVGID_1_"
   gradientUnits="userSpaceOnUse"
   x1="-45.998699"
   y1="633.88141"
   x2="-24.3936"
   y2="623.80737"
   gradientTransform="matrix(6.1866865,0,0,-5.1929563,294.05807,3383.2502)">
	<stop
   offset="0"
   style="stop-color:#FFFFFF;stop-opacity:0.2"
   id="stop18" />
	<stop
   offset="1"
   style="stop-color:#FFFFFF;stop-opacity:0"
   id="stop20" />
</linearGradient>
<path
   style="fill:url(#SVGID_1_);stroke-width:1"
   d="m 11.3066,125.0084 v 10.1236 c 0,2.86263 2.776183,5.19288 6.186599,5.19288 H 29.554067 C 28.18468,132.39572 20.753394,126.15807 11.3066,125.0084 Z M 133.97341,124.30808 66.441662,67.62355 c 0.142101,0.81278 0.292902,1.616553 0.372942,2.492622 l 0.05742,0.66186 c 0.05742,0.661859 0.114841,1.326153 0.114841,2.038644 0,14.316273 -13.877726,25.964903 -30.933578,25.964903 -10.154108,0 -19.102971,-4.184149 -24.746688,-10.546667 v 31.580848 c 12.852862,1.21369 22.98841,9.72098 24.434067,20.50937 h 87.239084 c 0.88102,-6.57259 5.01325,-12.27105 10.99366,-16.01705 z m 4.39991,3.69317 c -4.87,2.79374 -8.32015,7.19039 -9.20668,12.32388 h 12.06087 c 3.24976,0 5.85019,-2.1365 6.09496,-4.81242 z"
   id="path23" />
<g
   id="g31"
   transform="matrix(0.29000138,0,0,0.2434202,5.12,26.079752)"
   style="stroke-width:3.76376">
	<path
   style="fill:#303c42;stroke-width:3.76376"
   d="M 261.333,362.667 H 224 c -5.896,0 -10.667,4.771 -10.667,10.667 0,5.896 4.771,10.666 10.667,10.666 h 21.333 v 10.667 c 0,5.896 4.771,10.667 10.667,10.667 5.896,0 10.667,-4.771 10.667,-10.667 v -11.206 c 18.046,-2.615 32,-18.036 32,-36.794 0,-20.583 -16.75,-37.333 -37.333,-37.333 h -10.667 c -8.823,0 -16,-7.177 -16,-16 0,-8.823 7.177,-16 16,-16 H 288 c 5.896,0 10.667,-4.771 10.667,-10.667 C 298.667,260.771 293.896,256 288,256 h -21.333 v -10.667 c 0,-5.896 -4.771,-10.667 -10.667,-10.667 -5.896,0 -10.667,4.771 -10.667,10.667 v 11.206 c -18.046,2.615 -32,18.036 -32,36.794 0,20.583 16.75,37.333 37.333,37.333 h 10.667 c 8.823,0 16,7.177 16,16 0,8.824 -7.177,16.001 -16,16.001 z"
   id="path25" />
	<circle
   style="fill:#303c42;stroke-width:3.76376"
   cx="128"
   cy="320"
   r="21.333"
   id="circle27" />
	<circle
   style="fill:#303c42;stroke-width:3.76376"
   cx="384"
   cy="320"
   r="21.333"
   id="circle29" />
</g>
<linearGradient
   id="SVGID_2_"
   gradientUnits="userSpaceOnUse"
   x1="-47.410301"
   y1="637.41162"
   x2="-22.379101"
   y2="625.73547"
   gradientTransform="matrix(6.1866865,0,0,-5.1929563,294.05807,3383.2502)">
	<stop
   offset="0"
   style="stop-color:#FFFFFF;stop-opacity:0.2"
   id="stop33" />
	<stop
   offset="1"
   style="stop-color:#FFFFFF;stop-opacity:0"
   id="stop35" />
</linearGradient>
<path
   style="fill:url(#SVGID_2_);stroke-width:1"
   d="M 141.22722,62.432857 H 65.036896 c -2.105121,-5.552172 -5.607177,-9.508967 -8.831412,-13.093573 -4.174861,-4.640077 -7.778708,-8.646286 -7.778708,-15.46692 0,-0.973681 -0.649603,-1.863625 -1.679688,-2.309814 -1.033274,-0.451302 -2.274771,-0.367565 -3.214085,0.197656 -8.008388,4.809984 -14.188897,11.450488 -16.95609,18.223167 -1.76118,4.310486 -2.498363,8.45861 -2.767194,11.795414 -0.274921,-0.149704 -0.531572,-0.329591 -0.770244,-0.535038 -2.102509,-1.800336 -2.483282,-5.327252 -2.452831,-6.534129 0.02117,-0.89749 -0.510403,-1.744349 -1.404767,-2.233867 C 18.281713,51.986479 17.157958,51.905177 16.185293,52.293188 15.756381,52.460417 5.6637526,56.578357 5.1591502,71.335221 5.1229,71.829607 5.12,72.32156 5.12,72.81838 v 62.31387 c 0,5.72791 5.549176,10.38552 12.373489,10.38552 H 141.22751 c 6.82402,0 12.37349,-4.65784 12.37349,-10.38552 V 72.81838 c -3e-4,-5.727677 -5.54947,-10.385523 -12.37378,-10.385523 z"
   id="path38" />
<g
   id="g40">
</g>
<g
   id="g42">
</g>
<g
   id="g44">
</g>
<g
   id="g46">
</g>
<g
   id="g48">
</g>
<g
   id="g50">
</g>
<g
   id="g52">
</g>
<g
   id="g54">
</g>
<g
   id="g56">
</g>
<g
   id="g58">
</g>
<g
   id="g60">
</g>
<g
   id="g62">
</g>
<g
   id="g64">
</g>
<g
   id="g66">
</g>
<g
   id="g68">
</g>
</svg>
