<?xml version="1.0" encoding="UTF-8" standalone="no"?>
<svg
   xmlns:dc="http://purl.org/dc/elements/1.1/"
   xmlns:cc="http://creativecommons.org/ns#"
   xmlns:rdf="http://www.w3.org/1999/02/22-rdf-syntax-ns#"
   xmlns:svg="http://www.w3.org/2000/svg"
   xmlns="http://www.w3.org/2000/svg"
   xmlns:sodipodi="http://sodipodi.sourceforge.net/DTD/sodipodi-0.dtd"
   xmlns:inkscape="http://www.inkscape.org/namespaces/inkscape"
   version="1.1"
   id="Capa_1"
   x="0px"
   y="0px"
   viewBox="0 0 160 170"
   xml:space="preserve"
   sodipodi:docname="infrastructure.svg"
   width="160"
   height="170"
   inkscape:version="1.0.2 (e86c870879, 2021-01-15, custom)"><metadata
   id="metadata73"><rdf:RDF><cc:Work
       rdf:about=""><dc:format>image/svg+xml</dc:format><dc:type
         rdf:resource="http://purl.org/dc/dcmitype/StillImage" /><dc:title></dc:title></cc:Work></rdf:RDF></metadata><defs
   id="defs71" /><sodipodi:namedview
   pagecolor="#ffffff"
   bordercolor="#666666"
   borderopacity="1"
   objecttolerance="10"
   gridtolerance="10"
   guidetolerance="10"
   inkscape:pageopacity="0"
   inkscape:pageshadow="2"
   inkscape:window-width="1920"
   inkscape:window-height="1017"
   id="namedview69"
   showgrid="false"
   inkscape:zoom="2.3478155"
   inkscape:cx="54.81401"
   inkscape:cy="109.27906"
   inkscape:window-x="-8"
   inkscape:window-y="-8"
   inkscape:window-maximized="1"
   inkscape:current-layer="Capa_1" />
<polygon
   style="fill:#bcaaa3;stroke-width:3.78373"
   points="38.657,318.018 38.657,426.663 52.691,442.25 38.657,457.838 38.657,504.5 291.31,504.5 385.897,372.291 291.31,246.789 225.691,227.308 79.691,231.095 38.657,246.789 38.657,286.843 54.691,302.431 "
   id="polygon2"
   transform="matrix(0.25749488,0,0,0.27126407,15.025331,25.555671)" />
<path
   style="fill:#ffcb80;stroke-width:1"
   d="M 40.31519,42.49991 C 33.850009,67.591836 17.44913,81.797936 17.292316,81.93194 l 3.576089,5.284224 h 71.583576 l 9.075669,-5.284224 12.00621,-39.43203 c -2.6e-4,0 -73.21867,0 -73.21867,0 z"
   id="path4" />
<polygon
   style="fill:#4d342e;stroke-width:3.78373"
   points="335.937,207.828 291.31,207.828 8.804,207.828 8.804,246.789 323.44,246.789 "
   id="polygon6"
   transform="matrix(0.25749488,0,0,0.27126407,15.025331,25.555671)" />
<polygon
   style="fill:#d4bfb8;stroke-width:3.78373"
   points="291.31,286.843 291.31,286.843 385.897,302.431 480.484,286.843 480.484,286.843 480.484,194.581 480.484,194.58 450.691,139.987 385.897,26.987 291.31,162.987 291.31,194.581 "
   id="polygon8"
   transform="matrix(0.25749488,0,0,0.27126407,15.025331,25.555671)" />
<rect
   x="105.69469"
   y="71.225685"
   style="fill:#6d4c41;stroke-width:1"
   width="17.396353"
   height="22.894688"
   id="rect10" />
<polygon
   style="fill:#d4bfb8;stroke-width:3.78373"
   points="480.484,426.663 480.484,318.018 480.483,318.018 385.897,302.431 291.31,318.018 291.31,426.663 385.897,442.25 "
   id="polygon12"
   transform="matrix(0.25749488,0,0,0.27126407,15.025331,25.555671)" />
<polygon
   style="fill:#4d342e;stroke-width:3.78373"
   points="335.398,318.018 310.691,302.431 291.31,318.018 291.31,318.018 291.31,318.018 291.31,318.018 291.31,318.018 363.853,372.34 291.31,426.663 308.025,436.987 335.398,426.663 385.897,388.848 436.397,426.663 467.358,436.987 480.484,426.663 407.941,372.34 480.484,318.018 466.025,307.587 436.397,318.018 385.897,355.833 "
   id="polygon14"
   transform="matrix(0.25749488,0,0,0.27126407,15.025331,25.555671)" />
<path
   style="opacity:0.1;stroke-width:1;enable-background:new"
   d="M 131.07596,63.529114 114.39183,32.876274 90.036164,69.768188 v 8.570317 10.432274 l 4.833437,-4.084152 C 96.25827,83.51341 105.98463,74.98324 114.39183,59.517661 c 8.40773,15.466393 18.1346,23.996291 19.52327,25.169508 l 4.83266,4.082796 v -10.43146 0 z"
   id="path16" />
<path
   style="fill:#6d4c41;stroke-width:1"
   d="M 138.7475,78.338505 C 138.03759,77.73874 122.50344,64.395803 114.39183,40.041172 106.28023,64.395803 90.746078,77.73874 90.036164,78.338505 l -5.848739,-7.681927 c 0.157072,-0.134005 16.557955,-14.340104 23.022875,-39.432031 0.55284,-2.145427 2.40088,-3.634396 4.5108,-3.634396 h 5.34173 c 2.10991,0 3.95795,1.488969 4.51079,3.634125 6.50458,25.246276 22.8586,39.293143 23.02288,39.432031 z"
   id="path18" />
<polygon
   style="fill:#4d342e;stroke-width:3.78373"
   points="38.657,286.843 38.657,318.018 291.31,318.018 310.691,302.431 291.31,286.843 "
   id="polygon20"
   transform="matrix(0.25749488,0,0,0.27126407,15.025331,25.555671)" />
<rect
   x="90.036423"
   y="103.36506"
   style="fill:#6d4c41;stroke-width:1"
   width="48.710304"
   height="8.4580135"
   id="rect22" />
<polygon
   style="fill:#d4bfb8;stroke-width:3.78373"
   points="291.31,504.5 480.484,504.5 480.484,457.838 480.483,457.838 480.484,457.838 385.897,442.25 291.31,457.838 291.311,457.838 291.31,457.838 "
   id="polygon24"
   transform="matrix(0.25749488,0,0,0.27126407,15.025331,25.555671)" />
<polygon
   style="fill:#4d342e;stroke-width:3.78373"
   points="38.657,426.663 38.657,457.838 291.31,457.838 310.691,442.25 291.31,426.663 "
   id="polygon26"
   transform="matrix(0.25749488,0,0,0.27126407,15.025331,25.555671)" />
<rect
   x="90.036423"
   y="141.2932"
   style="fill:#6d4c41;stroke-width:1"
   width="48.710304"
   height="8.4580135"
   id="rect28" />
<rect
   x="24.979311"
   y="149.74307"
   style="opacity:0.1;stroke-width:1;enable-background:new"
   width="113.76896"
   height="8.4444504"
   id="rect30" />
<rect
   x="24.979311"
   y="111.82307"
   style="opacity:0.1;stroke-width:1;enable-background:new"
   width="113.76896"
   height="8.4444504"
   id="rect32" />
<path
   d="m 123.09053,69.192566 h -17.39636 c -1.0668,0 -1.93121,0.910633 -1.93121,2.03448 v 22.894145 c 0,1.123847 0.86441,2.034481 1.93121,2.034481 h 17.39636 c 1.0668,0 1.93121,-0.910634 1.93121,-2.034481 V 71.227046 c 0,-1.123847 -0.86441,-2.03448 -1.93121,-2.03448 z m -1.93122,22.894145 H 107.62538 V 73.261527 h 13.53393 z"
   id="path34"
   style="stroke-width:1" />
<path
   d="m 23.048871,162.40839 c 0,1.12358 0.864668,2.03448 1.931212,2.03448 H 138.74827 c 1.06681,0 1.93122,-0.9109 1.93122,-2.03448 V 79.053557 l 5.42387,-7.124208 c 0.66485,-0.87347 0.53147,-2.151667 -0.29406,-2.856411 -0.16016,-0.136717 -16.07592,-13.946499 -22.37167,-38.381696 -0.77867,-3.023509 -3.40022,-5.135571 -6.37429,-5.135571 h -5.34173 c -2.97406,0 -5.59511,2.112062 -6.37454,5.135571 -0.8948,3.472994 -1.98864,6.733588 -3.20556,9.774187 H 40.315705 c -0.87162,0 -1.63535,0.615227 -1.863748,1.501447 -0.673091,2.612544 -1.493985,5.234854 -2.440021,7.794502 -0.386757,1.047079 0.105058,2.226264 1.099246,2.633974 0.99393,0.40771 2.11326,-0.110947 2.500275,-1.158026 0.814199,-2.203478 1.540592,-4.451715 2.166047,-6.702936 h 58.605576 c -6.694608,14.42067 -15.703582,22.98963 -17.197567,24.35002 -0.0044,0.0041 -0.0085,0.0079 -0.01262,0.01166 -0.861321,0.769576 -1.267133,2.014136 -0.491558,3.033546 l 5.42413,7.124208 v 0.843907 H 22.141717 c 3.570424,-3.867141 9.153685,-10.760232 13.877686,-20.320934 0.49233,-0.996624 0.124628,-2.225179 -0.821408,-2.743836 -0.946294,-0.5192 -2.112488,-0.131292 -2.604819,0.865061 -7.164537,14.499607 -16.426628,22.576223 -16.520871,22.657874 -0.442634,0.383567 -0.710686,0.971397 -0.710686,1.576044 v 10.568448 c 0,1.123576 0.864668,2.034481 1.931212,2.034481 h 5.75604 c 0,0 0,67.873521 0,67.873521 z M 136.81706,147.71619 H 91.968148 v -4.3877 h 44.848912 z m 0,-37.92814 H 91.968148 v -4.3877 h 44.848912 z m 0,27.4408 -13.52646,-10.67072 13.52646,-10.67044 z m -3.86963,-23.37184 -32.20102,25.40252 h -4.908371 l 32.201021,-25.40252 z m -4.90863,25.40252 -10.42416,-8.22337 2.45418,-1.93601 12.87861,10.15965 h -4.90863 z m -13.64619,-19.72062 -7.20265,-5.6819 H 121.595 Z m -3.22204,2.54147 -2.45418,1.93628 -12.878609,-10.15965 h 4.908629 z m -5.67596,4.47803 -13.526462,10.67044 v -21.34116 z m 8.898,7.01922 7.20264,5.6819 H 107.18996 Z M 88.105725,109.78805 H 26.911294 v -4.3877 h 61.194431 z m -61.194431,4.06896 h 61.194431 v 25.40252 H 26.911294 Z m 0,29.47148 h 61.194431 v 4.3877 H 26.911294 Z M 136.81706,101.33139 H 91.968148 V 79.285488 c 3.050542,-2.780457 14.805702,-14.331695 22.424462,-33.568115 7.61875,19.23642 19.37391,30.787658 22.42445,33.568115 z M 88.105725,94.53514 v 6.79652 H 26.911294 v -6.79652 z m -61.194431,57.25001 h 61.194431 v 8.58876 H 26.911294 Z m 65.056854,8.58876 v -8.58876 h 44.848912 v 8.58876 z M 109.07482,31.75731 c 0.32341,-1.255681 1.41185,-2.132678 2.64679,-2.132678 h 5.34173 c 1.23495,0 2.32338,0.876997 2.64679,2.132678 5.50911,21.381034 17.98139,34.986826 22.22979,39.137166 l -3.44502,4.524685 c -4.09314,-3.910271 -15.68221,-16.241936 -22.28,-36.051809 -0.27166,-0.815148 -1.00243,-1.360931 -1.82229,-1.360931 -0.81987,0 -1.55064,0.545783 -1.8223,1.360931 -6.5983,19.811229 -18.187632,32.142351 -22.280256,36.051538 L 87.272987,71.456536 86.84194,70.890407 c 3.419017,-3.354994 12.201138,-12.883415 18.34188,-27.570466 0.0118,-0.02821 0.0196,-0.05751 0.0301,-0.08599 1.47544,-3.533757 2.80051,-7.361564 3.86087,-11.47664 z M 19.224042,83.966421 h 68.881683 v 6.499487 H 19.224042 Z"
   id="path36"
   style="stroke-width:1" />
<g
   id="g38">
</g>
<g
   id="g40">
</g>
<g
   id="g42">
</g>
<g
   id="g44">
</g>
<g
   id="g46">
</g>
<g
   id="g48">
</g>
<g
   id="g50">
</g>
<g
   id="g52">
</g>
<g
   id="g54">
</g>
<g
   id="g56">
</g>
<g
   id="g58">
</g>
<g
   id="g60">
</g>
<g
   id="g62">
</g>
<g
   id="g64">
</g>
<g
   id="g66">
</g>
</svg>
