<?xml version="1.0" encoding="UTF-8" standalone="no"?>
<svg
   xmlns:dc="http://purl.org/dc/elements/1.1/"
   xmlns:cc="http://creativecommons.org/ns#"
   xmlns:rdf="http://www.w3.org/1999/02/22-rdf-syntax-ns#"
   xmlns:svg="http://www.w3.org/2000/svg"
   xmlns="http://www.w3.org/2000/svg"
   xmlns:sodipodi="http://sodipodi.sourceforge.net/DTD/sodipodi-0.dtd"
   xmlns:inkscape="http://www.inkscape.org/namespaces/inkscape"
   version="1.1"
   id="Capa_1"
   x="0px"
   y="0px"
   viewBox="0 0 160 170"
   xml:space="preserve"
   sodipodi:docname="auction.svg"
   width="160"
   height="170"
   inkscape:version="1.0.2 (e86c870879, 2021-01-15, custom)"><metadata
   id="metadata63"><rdf:RDF><cc:Work
       rdf:about=""><dc:format>image/svg+xml</dc:format><dc:type
         rdf:resource="http://purl.org/dc/dcmitype/StillImage" /><dc:title></dc:title></cc:Work></rdf:RDF></metadata><defs
   id="defs61" /><sodipodi:namedview
   pagecolor="#ffffff"
   bordercolor="#666666"
   borderopacity="1"
   objecttolerance="10"
   gridtolerance="10"
   guidetolerance="10"
   inkscape:pageopacity="0"
   inkscape:pageshadow="2"
   inkscape:window-width="1920"
   inkscape:window-height="1017"
   id="namedview59"
   showgrid="false"
   inkscape:zoom="2.3478201"
   inkscape:cx="27.213371"
   inkscape:cy="122.27893"
   inkscape:window-x="-8"
   inkscape:window-y="-8"
   inkscape:window-maximized="1"
   inkscape:current-layer="Capa_1" />
<path
   style="fill:#91552c;stroke-width:1"
   d="m 142.72038,135.88992 c 2.54026,3.87709 2.72019,9.0556 0.43661,13.08423 -4.54573,8.01311 -14.9949,9.0347 -21.04626,3.06217 -0.25667,-0.25344 -0.50011,-0.51471 -0.73032,-0.78383 l -11.24803,-12.76025 16.98741,-16.77347 12.90978,11.11943 c 1.0079,0.84654 1.91551,1.86552 2.69081,3.05172 z"
   id="path2" />
<polygon
   style="fill:#57555c;stroke-width:3.80318"
   points="371.136,435.506 344.807,405.247 344.987,405.087 405.085,344.989 405.115,344.959 435.334,371.308 "
   id="polygon4"
   transform="matrix(0.26460963,0,0,0.26127707,11.925956,24.704505)" />
<path
   style="fill:#91552c;stroke-width:1"
   d="m 95.478564,51.782739 c 3.101224,3.062167 3.101224,8.023557 0,11.085463 -3.098579,3.059555 -8.125898,3.059555 -11.224212,0 L 61.800373,40.697014 c -3.098579,-3.059555 -3.098579,-8.023558 0,-11.082851 1.550612,-1.531084 3.58255,-2.296626 5.612106,-2.296626 2.032201,0 4.064139,0.765542 5.614751,2.296626 z"
   id="path6" />
<path
   style="fill:#feb756;stroke-width:1"
   d="m 86.125142,64.715431 -9.306056,9.188853 c -0.01852,0.01568 -0.0344,0.03135 -0.05028,0.04703 L 61.800373,88.731236 c -0.01588,0.01568 -0.03175,0.03135 -0.04763,0.04964 l -9.306056,9.188855 -1.87079,-1.84723 -22.453979,-22.171189 -1.87079,-1.847229 33.678455,-33.254039 1.87079,1.847229 22.453979,22.171189 z"
   id="path8" />
<g
   id="g18"
   transform="matrix(0.26460963,0,0,0.26127707,11.925956,24.704505)"
   style="stroke-width:3.80318">
	<path
   style="fill:#91552c;stroke-width:3.80318"
   d="m 266.27,223.843 7.07,-7.07 c 3.91,-3.9 5.86,-9.02 5.86,-14.139 0,-5.12 -1.95,-10.24 -5.86,-14.149 -7.76,-7.75 -20.279,-7.81 -28.099,-0.18 l -56.938,56.938 c -3.79,3.87 -5.68,8.91 -5.68,13.949 0,5.12 1.95,10.24 5.86,14.149 7.81,7.81 20.479,7.81 28.289,0 l 7.07,-7.07 120.966,138.975 0.18,-0.16 60.098,-60.098 0.03,-0.03 z"
   id="path10" />
	<path
   style="fill:#91552c;stroke-width:3.80318"
   d="m 269.99,491.983 v 10 H 10 v -10 c 0,-22.089 17.909,-39.999 39.999,-39.999 h 5 169.994 5 c 22.088,0.001 39.997,17.91 39.997,39.999 z"
   id="path12" />
	<path
   style="fill:#91552c;stroke-width:3.80318"
   d="m 224.992,401.987 c 13.809,0 24.999,11.19 24.999,24.999 0,6.9 -2.8,13.16 -7.32,17.679 -4.52,4.52 -10.78,7.32 -17.679,7.32 H 54.998 c -13.809,0 -24.999,-11.19 -24.999,-24.999 0,-6.9 2.8,-13.16 7.32,-17.679 4.52,-4.52 10.78,-7.32 17.679,-7.32 z"
   id="path14" />
	<path
   style="fill:#91552c;stroke-width:3.80318"
   d="m 146.065,273.342 c 11.71,11.71 11.71,30.709 0,42.418 -11.72,11.72 -30.709,11.72 -42.428,0 L 18.79,230.913 c -11.72,-11.72 -11.72,-30.709 0,-42.428 5.85,-5.85 13.529,-8.78 21.209,-8.78 7.68,0 15.359,2.93 21.209,8.78 z"
   id="path16" />
</g>
<path
   d="m 39.34904,70.256856 c -1.034624,1.021594 -1.034624,2.675478 0,3.694197 1.031977,1.021593 2.709602,1.021593 3.741315,0 1.034624,-1.018981 1.034624,-2.672864 0,-3.694197 -1.031713,-1.01898 -2.709338,-1.01898 -3.741315,0 z"
   id="path20"
   style="stroke-width:1" />
<path
   d="m 78.92485,141.68296 c 1.166664,-1.56035 1.797228,-3.4405 1.797228,-5.4168 0,-5.04213 -4.154371,-9.14444 -9.261072,-9.14444 h -44.98205 c -2.474893,0 -4.800547,0.95105 -6.548823,2.67783 -1.74907,1.72652 -2.712249,4.02289 -2.712249,6.46661 0,2.02464 0.67105,3.89695 1.803315,5.41366 -4.213379,2.18741 -7.095243,6.55074 -7.095243,11.56857 v 2.61277 c 0,1.44303 1.184922,2.61277 2.646097,2.61277 H 83.36791 c 1.461174,0 2.646096,-1.16974 2.646096,-2.61277 v -2.61277 c 0,-5.01548 -2.878952,-9.37698 -7.089156,-11.56543 z m -55.252873,-8.18895 c 0.74911,-0.73994 1.746159,-1.14727 2.806979,-1.14727 h 44.98205 c 2.188586,0 3.96888,1.75814 3.96888,3.9189 0,1.04772 -0.412791,2.03195 -1.162166,2.77189 -0.74911,0.73993 -1.746159,1.14726 -2.806979,1.14726 H 26.478956 c -2.188586,0 -3.968879,-1.75813 -3.968879,-3.91889 0,-1.04746 0.412526,-2.03195 1.1619,-2.77189 z m -6.454093,19.75438 c 0,-4.32179 3.561117,-7.83806 7.938024,-7.83806 h 1.323048 44.98205 1.323048 c 4.376908,0 7.938024,3.51627 7.938024,7.83806 z"
   id="path22"
   style="stroke-width:1" />
<path
   d="m 144.94337,134.47328 c -0.89862,-1.3751 -1.97081,-2.59109 -3.18722,-3.61425 l -12.36389,-10.64757 c -0.0963,-0.14318 -0.20798,-0.27904 -0.33579,-0.40524 -0.21486,-0.21189 -0.4583,-0.37728 -0.71709,-0.50113 L 120.8623,112.86592 86.254007,83.056559 c 1.41672,-1.462368 2.196789,-3.374655 2.196789,-5.408174 0,-2.09492 -0.825846,-4.063642 -2.326977,-5.545606 -0.654644,-0.645616 -1.398726,-1.153277 -2.193878,-1.525074 l 3.201776,-3.161453 c 0.89491,0.234888 1.814429,0.355076 2.734741,0.355076 2.709867,-2.62e-4 5.419999,-1.01872 7.482896,-3.055636 1.999919,-1.97447 3.101226,-4.598999 3.101226,-7.390222 0,-2.791222 -1.101307,-5.415751 -3.100962,-7.390221 L 74.89802,27.766673 c -1.999655,-1.974471 -4.657923,-3.061906 -7.485541,-3.061906 -2.826296,0 -5.48377,1.087435 -7.483161,3.061906 -2.763583,2.728777 -3.673046,6.603255 -2.735005,10.089214 L 25.249315,69.3983 c -0.882737,-0.231753 -1.801197,-0.35403 -2.739503,-0.35403 -2.828147,0 -5.485093,1.086651 -7.48316,3.059293 -4.126852,4.074877 -4.126852,10.705305 0,14.780444 l 22.451333,22.168833 c 2.06369,2.03744 4.774087,3.05616 7.484483,3.05616 2.710661,0 5.421058,-1.01872 7.484748,-3.05616 2.763583,-2.72904 3.673047,-6.60325 2.735005,-10.089209 l 3.195162,-3.155183 c 0.383948,0.791669 0.904965,1.522203 1.5522,2.161023 1.499278,1.48039 3.492847,2.295839 5.613693,2.295839 2.05734,0 3.993224,-0.768939 5.476361,-2.166249 l 36.861713,41.818449 c 0.10161,0.15676 0.22015,0.30595 0.35881,0.44286 0.0474,0.0468 0.0976,0.0894 0.14765,0.13169 l 10.98421,12.46134 c 0.27308,0.31824 0.56494,0.63125 0.86792,0.93041 3.01682,2.97778 7.00157,4.59377 11.18505,4.59377 0.73747,0 1.48182,-0.0502 2.22722,-0.15206 4.98234,-0.68089 9.28833,-3.62391 11.81323,-8.07555 2.76597,-4.87883 2.5601,-11.07292 -0.52207,-15.77669 z m -38.15883,-3.76056 12.46285,-12.30616 3.99746,3.44311 -12.97778,12.8146 z M 74.773389,94.398858 82.50687,86.762774 115.2502,114.96371 103.30201,126.76168 Z M 63.671692,31.461653 c 0.99996,-0.987366 2.32883,-1.531345 3.741051,-1.531345 1.414074,0 2.743737,0.543979 3.743433,1.531345 l 22.451597,22.168576 c 0.99996,0.987366 1.550613,2.299761 1.550613,3.695241 0,1.395481 -0.550653,2.707876 -1.550877,3.695242 -2.062632,2.037177 -5.41947,2.037177 -7.482102,0 L 63.673015,38.851091 c -5.29e-4,-5.22e-4 -7.94e-4,-7.83e-4 -0.0013,-0.0013 -2.063161,-2.036916 -2.063161,-5.351477 0,-7.388132 z M 48.705107,105.35786 c -2.063426,2.03744 -5.421587,2.0377 -7.485013,0 L 18.768761,83.189288 c -2.06369,-2.0377 -2.06369,-5.352784 0,-7.390745 0.998108,-0.985798 2.326977,-1.528732 3.741051,-1.528732 1.413809,0 2.741885,0.542672 3.739728,1.527687 l 22.455302,22.172493 c 2.063426,2.036659 2.063426,5.351219 2.65e-4,7.387869 z m -18.71187,-33.253775 29.936081,-29.559581 22.45345,22.170927 -7.412245,7.319155 c -0.02408,0.02247 -0.04763,0.04442 -0.07303,0.06924 L 59.936992,86.876168 c -0.03096,0.03005 -0.06086,0.0614 -0.09129,0.09302 l -7.39875,7.305829 z m 35.549774,22.935947 c -0.707301,0 -1.372,-0.271728 -1.871583,-0.765281 -0.500377,-0.493814 -0.775836,-1.150664 -0.775836,-1.84958 0,-0.684024 0.264345,-1.327549 0.744082,-1.813002 L 78.669766,75.77137 c 1.030125,-0.989195 2.695578,-0.976915 3.713796,0.02717 0.500112,0.493814 0.775571,1.150664 0.775571,1.849581 0,0.698393 -0.274665,1.353415 -0.775835,1.846967 l -1.852532,1.829201 c -0.0127,0.01228 -0.0254,0.02482 -0.03784,0.03736 L 69.293853,92.419684 c -0.0053,0.0052 -0.01032,0.01019 -0.01561,0.01541 l -1.863381,1.839913 c -0.499848,0.493292 -1.164282,0.76502 -1.871849,0.76502 z m 75.305259,52.657258 c -1.70779,3.0107 -4.59495,4.99771 -7.92135,5.45233 -3.31874,0.45358 -6.57952,-0.62576 -8.94566,-2.96105 -0.20349,-0.20066 -0.39824,-0.40994 -0.57976,-0.6221 -0.008,-0.01 -0.0169,-0.0199 -0.0257,-0.0295 l -9.6265,-10.9219 13.49271,-13.32304 11.04745,9.51493 c 0.008,0.007 0.0167,0.0144 0.0254,0.0217 0.8269,0.69422 1.56067,1.52795 2.18329,2.48057 2.00098,3.05302 2.14122,7.22823 0.35008,10.38811 z"
   id="path24"
   style="stroke-width:1" />
<path
   d="m 61.800638,51.782216 c -1.033566,-1.020287 -2.708545,-1.020287 -3.74211,0 L 46.831671,62.86768 c -1.033301,1.020287 -1.033301,2.674693 0,3.694719 0.516782,0.510274 1.193918,0.76528 1.871054,0.76528 0.677136,0 1.354273,-0.255267 1.871055,-0.76528 L 61.800638,55.476935 c 1.0333,-1.020287 1.0333,-2.674171 0,-3.694719 z"
   id="path26"
   style="stroke-width:1" />
<g
   id="g28">
</g>
<g
   id="g30">
</g>
<g
   id="g32">
</g>
<g
   id="g34">
</g>
<g
   id="g36">
</g>
<g
   id="g38">
</g>
<g
   id="g40">
</g>
<g
   id="g42">
</g>
<g
   id="g44">
</g>
<g
   id="g46">
</g>
<g
   id="g48">
</g>
<g
   id="g50">
</g>
<g
   id="g52">
</g>
<g
   id="g54">
</g>
<g
   id="g56">
</g>
</svg>
