<?xml version="1.0" encoding="UTF-8" standalone="no"?>
<svg
   xmlns:dc="http://purl.org/dc/elements/1.1/"
   xmlns:cc="http://creativecommons.org/ns#"
   xmlns:rdf="http://www.w3.org/1999/02/22-rdf-syntax-ns#"
   xmlns:svg="http://www.w3.org/2000/svg"
   xmlns="http://www.w3.org/2000/svg"
   xmlns:sodipodi="http://sodipodi.sourceforge.net/DTD/sodipodi-0.dtd"
   xmlns:inkscape="http://www.inkscape.org/namespaces/inkscape"
   id="Capa_1"
   enable-background="new 0 0 512 512"
   height="170"
   viewBox="0 0 160 170"
   width="160"
   version="1.1"
   sodipodi:docname="magic.svg"
   inkscape:version="1.0.2 (e86c870879, 2021-01-15, custom)">
  <metadata
     id="metadata51">
    <rdf:RDF>
      <cc:Work
         rdf:about="">
        <dc:format>image/svg+xml</dc:format>
        <dc:type
           rdf:resource="http://purl.org/dc/dcmitype/StillImage" />
        <dc:title></dc:title>
      </cc:Work>
    </rdf:RDF>
  </metadata>
  <defs
     id="defs49" />
  <sodipodi:namedview
     pagecolor="#ffffff"
     bordercolor="#666666"
     borderopacity="1"
     objecttolerance="10"
     gridtolerance="10"
     guidetolerance="10"
     inkscape:pageopacity="0"
     inkscape:pageshadow="2"
     inkscape:window-width="1920"
     inkscape:window-height="1017"
     id="namedview47"
     showgrid="false"
     inkscape:zoom="2.3478155"
     inkscape:cx="97.684677"
     inkscape:cy="105.50399"
     inkscape:window-x="-8"
     inkscape:window-y="-8"
     inkscape:window-maximized="1"
     inkscape:current-layer="Capa_1" />
  <path
     d="m 78.824196,99.400868 c -15.564487,0 -34.634323,-10.156143 -32.826059,-38.992259 l 7.068998,4.352551 c 0,0 -3.287894,-16.685113 8.384052,-27.022529 l 3.452211,5.984865 c 0,0 0.716083,-10.700248 13.92054,-24.846111 0,0 19.287292,14.871525 20.438029,36.090463 l 5.753953,-6.528969 c 0,0 8.21973,13.057939 4.60294,28.292011 -3.61653,15.234358 -16.545232,22.669978 -30.794664,22.669978 z"
     fill="#ffdc00"
     id="path2"
     style="stroke-width:1" />
  <path
     d="M 109.61912,71.608852 C 106.00233,86.842925 93.073628,94.27883 78.824196,94.27883 c -14.379957,0 -31.750129,-8.670385 -32.88513,-32.730504 -1.240248,27.963329 17.527781,37.852827 32.88513,37.852827 14.249432,0 27.178134,-7.435621 30.794924,-22.669978 0.87705,-3.694333 1.05684,-7.260039 0.82752,-10.543448 -0.1264,1.762364 -0.38951,3.575382 -0.82752,5.421125 z"
     fill="#ffbf00"
     id="path4"
     style="stroke-width:1" />
  <g
     fill="#ffdc00"
     id="g12"
     transform="matrix(0.25795496,0,0,0.28457349,13.629691,16.611611)"
     style="stroke-width:3.69089">
    <path
       d="m 409.491,209.509 1.874,0.84 c 8.562,3.838 15.414,10.69 19.252,19.252 l 0.84,1.874 c 2.27,5.066 9.462,5.066 11.733,0 l 0.84,-1.874 c 3.837,-8.563 10.69,-15.415 19.252,-19.252 l 1.874,-0.84 c 5.066,-2.27 5.066,-9.463 0,-11.733 l -1.874,-0.84 c -8.562,-3.837 -15.415,-10.69 -19.252,-19.252 l -0.84,-1.874 c -2.27,-5.066 -9.462,-5.066 -11.733,0 l -0.84,1.874 c -3.838,8.562 -10.69,15.415 -19.252,19.252 l -1.874,0.84 c -5.066,2.271 -5.066,9.463 0,11.733 z"
       id="path6"
       style="stroke-width:3.69089" />
    <path
       d="m 62.304,301.175 1.874,0.84 c 8.562,3.838 15.414,10.69 19.252,19.252 l 0.84,1.874 c 2.27,5.066 9.462,5.066 11.733,0 l 0.84,-1.874 c 3.838,-8.563 10.69,-15.415 19.252,-19.252 l 1.874,-0.84 c 5.066,-2.27 5.066,-9.462 0,-11.733 l -1.874,-0.84 c -8.562,-3.837 -15.415,-10.69 -19.252,-19.252 l -0.84,-1.874 c -2.27,-5.066 -9.462,-5.066 -11.733,0 l -0.84,1.874 c -3.838,8.562 -10.69,15.414 -19.252,19.252 l -1.874,0.84 c -5.066,2.271 -5.066,9.463 0,11.733 z"
       id="path8"
       style="stroke-width:3.69089" />
    <path
       d="m 76.689,54.847 1.874,0.84 c 8.562,3.838 15.414,10.69 19.252,19.252 l 0.84,1.874 c 2.27,5.066 9.462,5.066 11.733,0 l 0.84,-1.874 c 3.837,-8.563 10.69,-15.415 19.252,-19.252 l 1.874,-0.84 c 5.066,-2.27 5.066,-9.462 0,-11.733 l -1.874,-0.84 c -8.562,-3.837 -15.415,-10.69 -19.252,-19.252 l -0.84,-1.874 c -2.27,-5.066 -9.462,-5.066 -11.733,0 l -0.84,1.874 c -3.838,8.562 -10.69,15.415 -19.252,19.252 l -1.874,0.84 c -5.066,2.27 -5.066,9.462 0,11.733 z"
       id="path10"
       style="stroke-width:3.69089" />
  </g>
  <path
     d="m 98.824992,118.541 c 2.914378,0 5.276988,2.60641 5.276988,5.82152 l 12.43601,-7.21821 c 2.40053,-1.39327 3.24043,-4.73018 1.83458,-7.28935 -1.30164,-2.36936 -4.0597,-3.19519 -6.26831,-1.87648 L 94.413188,118.541 Z"
     fill="#f7b081"
     id="path14"
     style="stroke-width:1" />
  <path
     d="m 72.921412,118.541 25.683802,-14.8351 c 2.150056,-1.24188 4.800026,-0.56687 6.238906,1.58934 1.76957,2.65166 1.00602,6.41713 -1.61893,7.98456 l -8.812002,5.2612 z"
     fill="#f7b081"
     id="path16"
     style="stroke-width:1" />
  <path
     d="m 94.413188,118.541 8.812002,-5.2612 c 2.28393,-1.36367 3.15763,-4.39068 2.18127,-6.9009 L 85.263267,118.541 Z"
     fill="#db9975"
     id="path18"
     style="stroke-width:1" />
  <path
     d="m 104.10198,124.36252 12.43601,-7.21792 c 2.07732,-1.20574 2.98248,-3.86593 2.27878,-6.21907 l -16.15237,9.45182 c 0.88917,1.04211 1.43758,2.44164 1.43758,3.98517 z"
     fill="#db9975"
     id="path20"
     style="stroke-width:1" />
  <path
     d="m 104.10198,124.36252 c 0,2.93281 -1.97774,5.40775 -4.615076,5.77542 l -32.831476,4.57936 13.943498,1.85086 c 13.014859,1.72765 26.191724,-1.12008 37.653694,-8.13709 l 12.77316,-7.8198 c 2.489,-1.52389 3.21902,-5.09984 1.56243,-7.65389 -1.38496,-2.13515 -3.98618,-2.81528 -6.09238,-1.59276 z"
     fill="#f7b081"
     id="path22"
     style="stroke-width:1" />
  <path
     d="m 131.02603,120.61156 c 2.21635,-1.35685 3.03304,-4.33947 2.0167,-6.78025 l -30.50576,18.00496 -11.297402,-0.54752 -24.58414,3.42883 13.943498,1.85087 c 13.014859,1.72764 26.191724,-1.12008 37.653694,-8.1371 z"
     fill="#db9975"
     id="path24"
     style="stroke-width:1" />
  <path
     d="m 29.516105,127.43392 c 0,0 9.608049,-8.95012 21.513702,-11.39176 11.905653,-2.44164 21.891863,2.49884 21.891863,2.49884 h 25.90358 c 2.91438,0 5.27699,2.60641 5.27699,5.82152 0,2.93281 -1.97774,5.40775 -4.615078,5.77542 l -32.831476,4.57936 13.943498,1.85086 c 13.014859,1.72765 26.191716,-1.12008 37.653696,-8.13709 l 17.44523,-10.68005 c 2.37009,-1.37648 5.29505,-0.65622 6.90984,1.70119 2.01541,2.9422 1.18685,7.17324 -1.7497,8.9356 l -25.50943,15.30892 c -12.78631,7.67324 -27.342975,17.73263 -41.841334,16.30748 L 29.516105,155.67955 H 15.467621 v -28.24591 h 14.048484 z"
     fill="#ffc89f"
     id="path26"
     style="stroke-width:1" />
  <path
     d="m 142.60795,119.45249 c -0.10988,-0.1605 -0.227,-0.31161 -0.34824,-0.45674 -0.38925,1.48377 -1.2908,2.81102 -2.63707,3.61892 l -25.50942,15.30892 C 101.3269,145.59683 86.769982,155.6565 72.271882,154.23107 L 28.280243,149.90612 H 15.467621 v 5.77343 h 14.048484 l 43.991381,4.32495 c 14.498359,1.42543 29.055024,-8.63396 41.841334,-16.30749 l 25.50943,-15.30891 c 2.93655,-1.76237 3.76485,-5.99312 1.7497,-8.93561 z"
     fill="#f7b081"
     id="path28"
     style="stroke-width:1" />
  <path
     d="m 78.824196,70.100328 c 0,0 11.190602,6.540637 11.190602,17.49444 0,12.301543 -11.190602,11.8061 -11.190602,11.8061 0,0 -11.190602,0.495443 -11.190602,-11.8061 0,-10.954087 11.190602,-17.49444 11.190602,-17.49444 z"
     fill="#ff656b"
     id="path30"
     style="stroke-width:1" />
  <path
     d="m 78.824196,94.278546 c -3.368634,0 -6.901585,-0.476946 -10.351475,-1.514785 2.599412,6.97888 10.351475,6.637107 10.351475,6.637107 0,0 7.667453,0.339212 10.308912,-6.520717 -3.270869,0.934255 -6.748618,1.398395 -10.308912,1.398395 z"
     fill="#ff4351"
     id="path32"
     style="stroke-width:1" />
  <path
     d="m 118.45666,78.129285 0.48315,0.239041 c 1.7768,0.880186 3.19426,2.446194 3.99082,4.409751 l 0.21669,0.53386 c 0.58684,1.446772 1.84257,2.345739 3.27757,2.345739 1.43526,0 2.69099,-0.898683 3.27784,-2.345739 l 0.21694,-0.534145 c 0.79604,-1.963557 2.21325,-3.52928 3.99056,-4.409466 L 134.39338,78.129 c 1.30938,-0.648258 2.12271,-2.036123 2.12271,-3.621767 0,-1.585643 -0.81307,-2.973508 -2.12271,-3.622051 l -0.48315,-0.239327 c -1.77705,-0.879901 -3.19452,-2.445909 -3.99082,-4.409466 l -0.21668,-0.53386 c -0.58685,-1.446771 -1.84258,-2.345739 -3.27784,-2.345739 -1.435,0 -2.69073,0.898683 -3.27757,2.345739 l -0.21669,0.53386 c -0.79656,1.963557 -2.21377,3.52985 -3.99082,4.409466 l -0.48315,0.239327 c -1.30963,0.648543 -2.12271,2.036408 -2.12271,3.622051 0,1.585928 0.81333,2.973509 2.12271,3.622052 z m 7.96797,-10.05825 c 1.17937,2.852564 3.24301,5.132567 5.82463,6.436198 -2.58187,1.303631 -4.645,3.583634 -5.82463,6.436199 -1.17962,-2.852565 -3.24301,-5.132852 -5.82436,-6.436199 2.58161,-1.303346 4.64474,-3.583065 5.82436,-6.436198 z"
     id="path34"
     style="stroke-width:1" />
  <path
     d="m 28.926678,104.24915 0.48315,0.23904 c 1.777051,0.88019 3.194514,2.44619 3.990821,4.40975 l 0.216682,0.53386 c 0.586848,1.44677 1.842572,2.34574 3.277576,2.34574 1.435261,0 2.690986,-0.89868 3.277833,-2.34574 l 0.216683,-0.53386 c 0.796565,-1.96356 2.213769,-3.52956 3.990821,-4.40975 l 0.482892,-0.23933 c 1.309379,-0.64825 2.123227,-2.03612 2.123227,-3.62176 0,-1.585648 -0.813332,-2.973513 -2.12297,-3.622056 L 44.380244,96.765718 C 42.60345,95.885817 41.185988,94.319809 40.389423,92.356252 l -0.216683,-0.53386 c -0.586847,-1.446772 -1.842572,-2.34574 -3.277833,-2.34574 -1.435004,0 -2.690728,0.898684 -3.277576,2.34574 l -0.21694,0.534144 c -0.796049,1.963557 -2.213254,3.529565 -3.990563,4.409466 l -0.48315,0.239327 c -1.309379,0.648543 -2.122711,2.036408 -2.122711,3.622051 0,1.58565 0.81359,2.97351 2.122711,3.62177 z m 7.968487,-10.057969 c 1.179628,2.852565 3.24301,5.132852 5.824365,6.436199 -2.581355,1.30335 -4.644737,3.58335 -5.824365,6.4362 -1.17937,-2.85256 -3.242752,-5.13257 -5.824623,-6.4362 2.581613,-1.303631 4.644995,-3.583634 5.824623,-6.436199 z"
     id="path36"
     style="stroke-width:1" />
  <path
     d="m 32.636328,34.058526 0.48315,0.239042 c 1.776794,0.880186 3.194256,2.446194 3.990563,4.409466 l 0.21694,0.534429 c 0.586848,1.446772 1.842573,2.34574 3.277576,2.34574 1.435004,0 2.690728,-0.898968 3.277576,-2.34574 l 0.216682,-0.534144 c 0.796565,-1.963557 2.213769,-3.529565 3.991079,-4.409751 l 0.48315,-0.239326 c 1.309379,-0.648543 2.122711,-2.036123 2.122711,-3.621767 0,-1.585643 -0.813332,-2.973224 -2.122711,-3.622051 l -0.48315,-0.239326 C 46.312842,25.694912 44.89538,24.128904 44.098815,22.165347 l -0.216682,-0.53386 c -0.586848,-1.446772 -1.842572,-2.345739 -3.277576,-2.345739 -1.435003,0 -2.690728,0.898683 -3.277834,2.346024 l -0.216424,0.533859 c -0.796565,1.963557 -2.213769,3.529565 -3.990821,4.409751 l -0.48315,0.239326 c -1.309379,0.648543 -2.122969,2.036124 -2.122969,3.622052 0,1.585643 0.81359,2.973223 2.122969,3.621766 z m 7.968229,-10.05768 c 1.179886,2.85228 3.243268,5.132567 5.824623,6.435914 -2.581355,1.303346 -4.644737,3.583349 -5.824623,6.435914 -1.179628,-2.852565 -3.24301,-5.132568 -5.824365,-6.436199 2.581355,-1.303062 4.644479,-3.583065 5.824365,-6.435629 z"
     id="path38"
     style="stroke-width:1" />
  <path
     d="m 114.48854,141.83419 c -1.3117,0.78856 -2.64224,1.60215 -3.98928,2.42599 -11.40032,6.97205 -24.322058,14.87352 -36.742589,13.65156 L 29.779735,153.5811 c -0.05727,-0.006 -0.114274,-0.009 -0.171798,-0.009 H 17.497726 v -24.00815 h 12.110211 c 0.455807,0 0.897941,-0.17899 1.246696,-0.50312 0.02683,-0.0253 2.752122,-2.54551 6.992901,-5.19887 0.929412,-0.58139 1.256241,-1.88559 0.730013,-2.91261 -0.526228,-1.02703 -1.706372,-1.38844 -2.635784,-0.80677 -3.461239,2.1656 -5.955148,4.22392 -7.016891,5.14708 H 15.563838 c -1.068192,0 -1.934147,0.95674 -1.934147,2.13715 v 28.2829 c 0,1.18013 0.865697,2.13715 1.934147,2.13715 H 29.52178 l 43.891295,4.3221 c 0.991063,0.0976 1.979804,0.14428 2.969061,0.14428 12.585107,0 24.970304,-7.57392 35.990134,-14.31348 1.3388,-0.81871 2.66081,-1.62719 3.96452,-2.4109 0.93818,-0.56403 1.28513,-1.86168 0.77464,-2.89867 -0.50998,-1.0367 -1.68445,-1.41974 -2.62289,-0.856 z"
     id="path40"
     style="stroke-width:1" />
  <path
     d="m 144.20624,118.14687 c -2.06132,-3.01449 -5.65308,-4.05319 -8.75164,-2.61865 -0.0787,-1.36908 -0.49836,-2.70345 -1.23457,-3.84004 -1.93672,-2.99086 -5.61851,-3.95471 -8.56384,-2.24243 l -4.61791,2.68466 c -0.0586,-1.19634 -0.37817,-2.37363 -0.94799,-3.41289 -1.83793,-3.35142 -5.72118,-4.51589 -8.84064,-2.6508 l -3.45401,2.06543 c -0.0614,-1.47978 -0.51514,-2.92257 -1.32589,-4.13969 -2.01927,-3.0307 -5.67527,-3.96325 -8.69154,-2.21768 l -24.880787,14.39458 c -2.793653,-1.18354 -11.713735,-4.39125 -22.135889,-2.25012 -2.463728,0.50597 -5.011549,1.31701 -7.5733,2.41062 -0.996222,0.42544 -1.492012,1.66277 -1.107143,2.76378 0.384869,1.10102 1.505167,1.64911 2.500874,1.22338 2.339651,-0.99856 4.656603,-1.73732 6.886365,-2.19548 11.124824,-2.28484 20.647747,2.30561 20.739837,2.35115 0.249184,0.1235 0.518747,0.18724 0.791406,0.18724 h 25.895324 c 1.842313,0 3.341293,1.65622 3.341293,3.69206 0,1.85542 -1.25624,3.43025 -2.922116,3.66275 l -32.820899,4.58533 c -0.969137,0.13546 -1.694506,1.0478 -1.691411,2.12662 0.0031,1.0791 0.733366,1.98632 1.703019,2.11552 l 13.938854,1.85342 c 13.501363,1.79538 26.921473,-1.11012 38.811143,-8.40089 l 17.41944,-10.68175 c 1.53483,-0.88161 3.40216,-0.41633 4.44662,1.11069 1.28333,1.87705 0.73672,4.65904 -1.13036,5.78168 l -18.69734,11.23894 c -0.86622,0.52077 -1.24154,1.71826 -0.85306,2.71939 0.44239,1.14057 1.71359,1.62861 2.70156,1.03528 l 18.69709,-11.23895 c 1.89417,-1.13858 3.24172,-3.12775 3.69701,-5.45698 0.45504,-2.32895 -0.0294,-4.75522 -1.3295,-6.65617 z M 99.571771,105.5616 c 1.313509,-0.75952 2.904059,-0.35372 3.782399,0.96528 1.06019,1.59076 0.58762,3.91004 -0.98126,4.84827 l -8.378641,5.01049 H 80.862814 Z m 1.762609,11.29444 11.75604,-7.03039 c 1.30113,-0.77859 2.92367,-0.29311 3.6916,1.10728 0.82855,1.5108 0.3,3.46809 -1.08264,4.30133 l -10.19954,5.92965 c -0.79167,-1.99429 -2.3007,-3.56456 -4.16546,-4.30787 z m 16.04274,9.70111 c -10.66721,6.54121 -22.645874,9.32519 -34.747573,8.09669 l 17.169225,-2.39867 c 3.181618,-0.44451 5.669078,-3.15763 6.198918,-6.55117 l 11.50402,-6.68776 c 2.6e-4,0 5.2e-4,-2.9e-4 7.8e-4,-2.9e-4 5.1e-4,-2.8e-4 0.001,-5.7e-4 0.002,-8.5e-4 l 9.95345,-5.78652 c 1.24411,-0.72338 2.79906,-0.31588 3.61704,0.94735 0.97172,1.50027 0.52958,3.65705 -0.92683,4.5509 z"
     id="path42"
     style="stroke-width:1" />
  <path
     d="m 46.952055,58.468387 c -1.218064,-0.750705 -2.775854,0.185257 -2.872071,1.718539 -0.769737,12.295282 1.990897,22.260477 8.205805,29.619547 6.158417,7.292196 15.572483,11.533767 25.906159,11.700807 0.459418,0.0196 0.922705,0.0185 1.382123,-0.005 16.21608,-0.27719 28.408589,-9.523557 31.906969,-24.282108 3.79762,-16.022341 -4.52763,-29.523076 -4.88386,-30.089947 -0.68307,-1.086786 -2.13974,-1.220251 -2.97525,-0.270629 l -2.94585,3.348291 c -0.87834,-5.156471 -2.771214,-10.31152 -5.652055,-15.379205 -0.568275,-0.999706 -1.76209,-1.300216 -2.66648,-0.673016 -0.904648,0.628054 -1.177307,1.947052 -0.609032,2.946474 3.37921,5.94474 5.255574,11.971153 5.577502,17.912194 0.09776,1.813871 2.168628,2.668161 3.317305,1.362253 l 3.98566,-4.530125 c 2.01721,4.208841 5.61078,13.740346 3.11042,24.290624 -1.57868,6.659873 -5.23029,12.12283 -10.559903,15.798666 -2.149797,1.482628 -4.541039,2.663892 -7.116977,3.533834 1.249791,-2.159913 1.883587,-4.809008 1.883587,-7.913135 0,-5.0748 -2.136383,-10.055405 -6.17828,-14.403403 -2.961581,-3.185231 -5.912843,-4.929951 -6.037435,-5.002802 -0.565954,-0.331244 -1.244375,-0.331528 -1.810586,0 -0.124335,0.07285 -3.075855,1.817286 -6.037178,5.002802 -4.042154,4.347714 -6.178537,9.328319 -6.178537,14.403403 0,3.037822 0.607999,5.638823 1.805168,7.773409 -4.885151,-1.737421 -9.163334,-4.612467 -12.394993,-8.439411 -4.88025,-5.77855 -7.326437,-13.500736 -7.290323,-22.989554 l 4.309911,2.658201 c 1.423653,0.878193 3.172072,-0.559187 2.833377,-2.315859 -0.0075,-0.03927 -0.75297,-3.998258 -0.140585,-9.066227 0.696736,-5.76802 2.784882,-10.560807 6.216456,-14.28189 l 2.234406,3.879875 c 0.446004,0.774894 1.334143,1.161344 2.137673,0.922018 0.776187,-0.231358 1.362776,-1.010805 1.421848,-1.897536 0.0077,-0.09732 0.878852,-9.565653 12.159739,-22.226612 1.740422,1.522183 5.016966,4.609521 8.32498,8.901458 0.692351,0.898114 1.912736,1.006821 2.726584,0.241319 0.813074,-0.765218 0.910839,-2.114097 0.21823,-3.01278 C 85.136354,21.046688 80.143635,17.159415 79.93366,16.997208 79.173467,16.410417 78.143711,16.501765 77.478445,17.21576 69.270834,26.022456 65.699705,33.607477 64.151976,38.331397 l -1.062001,-1.843751 c -0.608774,-1.057191 -1.956846,-1.305054 -2.842406,-0.519347 -5.168901,4.585333 -8.375539,11.087837 -9.273738,18.804616 -0.265694,2.282564 -0.293553,4.35369 -0.227775,6.03495 z m 24.911226,36.070828 c -1.520644,-1.614386 -2.291672,-3.96354 -2.291672,-6.982864 0,-3.920854 1.661488,-7.710804 4.938548,-11.265127 1.647816,-1.787121 3.320396,-3.071686 4.314555,-3.767183 0.9939,0.695497 2.66648,1.980062 4.314296,3.767183 3.27706,3.554323 4.938548,7.344273 4.938548,11.265127 0,3.007088 -0.764836,5.349697 -2.273099,6.962944 -2.109298,2.256667 -5.195213,2.647671 -6.396509,2.711985 -0.360621,0.0051 -0.719952,0.0085 -1.080573,0.0034 -1.132165,-0.05265 -4.310428,-0.409786 -6.464094,-2.69548 z"
     id="path44"
     style="stroke-width:1" />
</svg>
