<?xml version="1.0" encoding="UTF-8" standalone="no"?>
<svg
   xmlns:dc="http://purl.org/dc/elements/1.1/"
   xmlns:cc="http://creativecommons.org/ns#"
   xmlns:rdf="http://www.w3.org/1999/02/22-rdf-syntax-ns#"
   xmlns:svg="http://www.w3.org/2000/svg"
   xmlns="http://www.w3.org/2000/svg"
   xmlns:sodipodi="http://sodipodi.sourceforge.net/DTD/sodipodi-0.dtd"
   xmlns:inkscape="http://www.inkscape.org/namespaces/inkscape"
   id="Layer_1"
   enable-background="new 0 0 510.919 510.919"
   height="170"
   viewBox="0 0 159.66219 169.64107"
   width="160"
   version="1.1"
   sodipodi:docname="dagger.svg"
   inkscape:version="1.0.2 (e86c870879, 2021-01-15, custom)">
  <metadata
     id="metadata43">
    <rdf:RDF>
      <cc:Work
         rdf:about="">
        <dc:format>image/svg+xml</dc:format>
        <dc:type
           rdf:resource="http://purl.org/dc/dcmitype/StillImage" />
        <dc:title></dc:title>
      </cc:Work>
    </rdf:RDF>
  </metadata>
  <defs
     id="defs41" />
  <sodipodi:namedview
     pagecolor="#ffffff"
     bordercolor="#666666"
     borderopacity="1"
     objecttolerance="10"
     gridtolerance="10"
     guidetolerance="10"
     inkscape:pageopacity="0"
     inkscape:pageshadow="2"
     inkscape:window-width="1920"
     inkscape:window-height="1017"
     id="namedview39"
     showgrid="false"
     showguides="false"
     inkscape:zoom="1.6601562"
     inkscape:cx="148.17222"
     inkscape:cy="134.29696"
     inkscape:window-x="-8"
     inkscape:window-y="-8"
     inkscape:window-maximized="1"
     inkscape:current-layer="Layer_1" />
  <g
     id="g36"
     transform="matrix(0.30941417,0,0,0.2764689,96.922618,6.1415228)"
     style="stroke-width:3.41906">
    <g
       id="XMLID_42_"
       style="stroke-width:3.41906"
       transform="translate(-283.13802,69.100101)">
      <path
         d="m 346.355,153.306 c -2.207,-10.796 -12.749,-17.76 -23.543,-15.551 l -6.654,1.36 v 40.729 l 14.647,-2.995 c 10.795,-2.207 17.758,-12.748 15.55,-23.543 z"
         fill="#ffb69e"
         id="path2"
         style="stroke-width:11.664" />
    </g>
    <g
       id="XMLID_1174_"
       style="stroke-width:3.41906"
       transform="translate(-283.13902,69.099101)">
      <path
         d="m 136.216,294.232 v 192.817 c 0.04,13.199 11.236,23.869 24.426,23.869 h 0.074 c 13.223,-0.04 23.263,-10.792 23.223,-24.014 V 289.383 Z"
         fill="#46738c"
         id="path5"
         style="stroke-width:11.664" />
    </g>
    <path
       d="m 91.45998,98.258101 -5.096,-24.992 c -0.828,-4.059 -5.837,-5.568 -8.77,-2.642 l -18.054,18.018 c -0.656,0.655 -1.126,1.474 -1.359,2.371 l -24.318,93.408999 c -0.704,2.705 0.856,5.483 3.533,6.29 l 16.139,4.862 c 2.677,0.807 5.512,-0.647 6.419,-3.291 l 31.329,-91.297 c 0.301,-0.878 0.362,-1.818999 0.177,-2.727999 z"
       fill="#a5c8cd"
       id="path8"
       style="stroke-width:11.664" />
    <path
       d="m 91.45998,98.258101 -5.096,-24.992 c -0.828,-4.059 -5.837,-5.568 -8.77,-2.642 l -8.282,8.266 -35.448,105.531999 c -0.704,2.705 0.856,5.483 3.533,6.29 l 16.139,4.862 c 2.677,0.807 5.512,-0.647 6.419,-3.291 l 31.329,-91.297 c 0.3,-0.878 0.361,-1.818999 0.176,-2.727999 z"
       fill="#a5c8cd"
       id="path10"
       style="stroke-width:11.664" />
    <path
       d="m 44.35198,192.8071 29.767,-86.747 c 0.301,-0.877 0.362,-1.819 0.177,-2.727 l -4.984,-24.442999 -9.771,9.752 c -0.656,0.655 -1.125,1.474 -1.359,2.371 l -24.318,93.408999 c -0.704,2.705 0.856,5.483 3.533,6.29 z"
       fill="#cfe6e8"
       id="path12"
       style="stroke-width:11.664" />
    <g
       id="XMLID_1181_"
       style="stroke-width:3.41906"
       transform="translate(-283.13802,69.100101)">
      <path
         d="m 322.657,137.786 -63.95,13.075 -82.07,-26.693 c -10.476,-3.407 -21.736,2.324 -25.144,12.802 -3.409,10.479 2.323,21.736 12.802,25.145 l 87.079,28.322 c 3.282,1.068 6.786,1.265 10.167,0.574 l 61.117,-12.495 v -40.73 z"
         fill="#6c9baa"
         id="path14"
         style="stroke-width:11.664" />
    </g>
    <g
       id="XMLID_1180_"
       style="stroke-width:3.41906"
       transform="translate(-283.13802,69.100101)">
      <path
         d="m 195.323,289.383 0.015,197.595 c 0.001,13.223 10.721,23.941 23.944,23.94 13.223,-0.001 23.941,-10.721 23.94,-23.944 V 294.231 Z"
         fill="#3c5a73"
         id="path17"
         style="stroke-width:11.664" />
    </g>
    <path
       d="m -67.88902,179.0441 h -51.223 c -15.449,0 -27.811,12.524 -27.811,27.972 v 156.315 h 107.006 v -156.314 c 10e-4,-15.449 -12.523,-27.973 -27.972,-27.973 z"
       fill="#55879b"
       id="path20"
       style="stroke-width:11.664" />
    <circle
       cx="-149.97083"
       cy="-34.850037"
       fill="#ffb69e"
       transform="rotate(-67.485887)"
       id="ellipse22"
       r="44.508347"
       style="stroke-width:11.6667" />
    <path
       d="m -94.34302,347.4131 20.868,-0.783 15.774,-15.016 -23.229,-54.107 c -1.252,-2.917 -1.79,-6.091 -1.57,-9.257 l 3.745,-53.769 c 0.766,-10.992 -7.525,-20.524 -18.517,-21.29 -10.992,-0.766 -20.524,7.525 -21.29,18.517 l -4.417,63.407 c -0.22,3.166 0.318,6.34 1.57,9.257 z"
       fill="#6c9baa"
       id="path24"
       style="stroke-width:11.664" />
    <path
       d="m -54.23002,339.6981 -3.47,-8.084 -36.643,15.799 3.446,8.027 c 4.347,10.126 16.079,14.809 26.204,10.462 10.126,-4.346 14.81,-16.078 10.463,-26.204 z"
       fill="#ffb69e"
       id="path26"
       style="stroke-width:11.664" />
    <g
       id="g30"
       style="stroke-width:3.41906"
       transform="translate(-283.13802,69.100101)">
      <path
         d="m 313.539,184.313 c -0.979,0 -1.974,-0.142 -2.96,-0.439 -5.421,-1.633 -8.491,-7.351 -6.858,-12.771 l 15.068,-50.017 c 1.632,-5.42 7.349,-8.491 12.771,-6.858 5.421,1.633 8.491,7.351 6.858,12.771 l -15.068,50.017 c -1.336,4.435 -5.407,7.297 -9.811,7.297 z"
         fill="#823214"
         id="path28"
         style="stroke-width:11.664" />
    </g>
    <g
       id="g34"
       style="stroke-width:3.41906"
       transform="translate(-283.13802,69.100101)">
      <path
         d="m 347.561,140.005 c -0.979,0 -1.974,-0.142 -2.96,-0.439 l -37.907,-11.42 c -5.421,-1.633 -8.491,-7.351 -6.858,-12.771 1.632,-5.421 7.35,-8.491 12.771,-6.858 l 37.907,11.42 c 5.421,1.633 8.491,7.351 6.858,12.771 -1.335,4.436 -5.406,7.297 -9.811,7.297 z"
         fill="#965028"
         id="path32"
         style="stroke-width:11.664" />
    </g>
  </g>
</svg>
