<?xml version="1.0" encoding="UTF-8" standalone="no"?>
<svg
   xmlns:dc="http://purl.org/dc/elements/1.1/"
   xmlns:cc="http://creativecommons.org/ns#"
   xmlns:rdf="http://www.w3.org/1999/02/22-rdf-syntax-ns#"
   xmlns:svg="http://www.w3.org/2000/svg"
   xmlns="http://www.w3.org/2000/svg"
   xmlns:sodipodi="http://sodipodi.sourceforge.net/DTD/sodipodi-0.dtd"
   xmlns:inkscape="http://www.inkscape.org/namespaces/inkscape"
   id="Capa_1"
   enable-background="new 0 0 511.868 511.868"
   height="170"
   viewBox="0 0 159.95875 169.95617"
   width="160"
   version="1.1"
   sodipodi:docname="people-delivery.svg"
   inkscape:version="1.0.2 (e86c870879, 2021-01-15, custom)">
  <metadata
     id="metadata55">
    <rdf:RDF>
      <cc:Work
         rdf:about="">
        <dc:format>image/svg+xml</dc:format>
        <dc:type
           rdf:resource="http://purl.org/dc/dcmitype/StillImage" />
        <dc:title></dc:title>
      </cc:Work>
    </rdf:RDF>
  </metadata>
  <defs
     id="defs53" />
  <sodipodi:namedview
     pagecolor="#ffffff"
     bordercolor="#666666"
     borderopacity="1"
     objecttolerance="10"
     gridtolerance="10"
     guidetolerance="10"
     inkscape:pageopacity="0"
     inkscape:pageshadow="2"
     inkscape:window-width="1920"
     inkscape:window-height="1017"
     id="namedview51"
     showgrid="false"
     inkscape:zoom="2.3478155"
     inkscape:cx="116.82431"
     inkscape:cy="153.75591"
     inkscape:window-x="-8"
     inkscape:window-y="-8"
     inkscape:window-maximized="1"
     inkscape:current-layer="g48" />
  <g
     id="g48"
     transform="matrix(0.271263,0,0,0.3150304,9.7932608,21.373462)"
     style="stroke-width:3.42081">
    <g
       id="g44"
       style="stroke-width:3.46717"
       transform="matrix(1,0,0,0.97343791,0,2.0672744)">
      <path
         d="m 362.326,296.626 c 0,0 -0.697,55.447 -41.105,80.04 l 3.124,44.73 c 0.194,2.78 -2.008,5.141 -4.795,5.141 h -18.902 c -2.524,0 -4.619,-1.953 -4.795,-4.471 L 287.874,307.9 Z"
         fill="#ea9b58"
         id="path2"
         style="stroke-width:12.8138" />
      <path
         d="m 362.326,296.626 -16.771,2.54 c -0.711,11.129 -5.743,56.049 -40.989,77.5 l 3.124,44.73 c 0.194,2.78 -2.008,5.141 -4.795,5.141 h 16.655 c 2.786,0 4.989,-2.362 4.795,-5.141 l -3.124,-44.73 c 40.409,-24.593 41.105,-80.04 41.105,-80.04 z"
         fill="#d88a55"
         id="path4"
         style="stroke-width:12.8138" />
      <path
         d="m 125.262,132.297 h 26.597 v 108.926 h -26.597 z"
         fill="#a6e7f0"
         id="path6"
         style="stroke-width:12.8138" />
      <path
         d="m 462.662,178.143 c 0,0 -10.382,49.469 -6.107,71.455 4.275,21.986 11.917,81.004 -46.102,87.722 -58.019,6.718 -153.879,-13.115 -153.879,-13.115 0,0 -18.697,-22.111 -8.315,-56.298 10.382,-34.187 39.828,-34.798 60.222,-32.355 14.679,1.758 49.187,3.924 67.374,5 6.811,0.403 13.067,-3.714 15.39,-10.129 9.334,-25.782 35.491,-89.423 68.974,-98.125 h 15.879 l 25.391,32.432 c 2.691,3.437 3.564,7.959 2.345,12.15 -2.142,7.368 -9.963,11.496 -17.255,9.105 z"
         fill="#f6a96c"
         id="path8"
         style="stroke-width:12.8138" />
      <g
         fill="#ea9b58"
         id="g14"
         style="stroke-width:12.8138">
        <path
           d="m 446.007,178.143 c 0,0 -10.382,49.469 -6.107,71.455 4.275,21.986 11.917,81.004 -46.102,87.722 -6.027,0.698 -12.466,1.106 -19.159,1.282 12.683,0.304 24.916,-0.021 35.814,-1.282 58.019,-6.718 50.377,-65.736 46.102,-87.722 -4.275,-21.986 6.107,-71.455 6.107,-71.455 z"
           id="path10"
           style="stroke-width:3.46717" />
        <path
           d="m 501.489,164.729 -25.391,-32.432 h -15.879 c -0.212,0.055 -0.423,0.122 -0.634,0.182 l 25.249,32.251 c 2.691,3.437 3.564,7.959 2.345,12.151 -0.931,3.202 -2.935,5.789 -5.501,7.498 l 4.902,1.607 c 7.292,2.391 15.113,-1.737 17.255,-9.105 1.218,-4.193 0.345,-8.715 -2.346,-12.152 z"
           id="path12"
           style="stroke-width:3.46717" />
      </g>
      <path
         d="m 305.316,296.626 c 0,0 -0.697,55.447 -41.105,80.04 l 3.124,44.73 c 0.194,2.78 -2.008,5.141 -4.795,5.141 h -18.927 c -2.514,0 -4.604,-1.938 -4.793,-4.445 l -4.081,-54.105 c -0.402,-5.333 0.922,-10.653 3.776,-15.175 l 18.058,-28.608 z"
         fill="#f6a96c"
         id="path16"
         style="stroke-width:12.8138" />
      <path
         d="m 419.36,316.93 -4.144,82.284 3.524,23.237 c 0.356,2.349 2.376,4.086 4.752,4.086 h 18.812 c 2.9,0 5.14,-2.549 4.766,-5.425 l -3.381,-26.041 14.357,-101.242 z"
         fill="#f6a96c"
         id="path18"
         style="stroke-width:12.8138" />
      <path
         d="m 443.69,395.07 14.357,-101.242 -18.196,10.866 -12.816,90.376 3.381,26.041 c 0.373,2.876 -1.866,5.425 -4.766,5.425 h 16.655 c 2.9,0 5.14,-2.549 4.766,-5.425 z"
         fill="#ea9b58"
         id="path20"
         style="stroke-width:12.8138" />
      <path
         d="m 264.216,376.663 3.119,44.736 c 0.191,2.778 -2.006,5.134 -4.793,5.134 h -16.657 c 2.788,0 4.994,-2.357 4.793,-5.134 l -3.119,-44.736 c 19.595,-11.924 29.844,-31.107 35.209,-47.694 4.803,0.792 10.128,1.635 15.825,2.477 -5.566,15.995 -15.755,33.885 -34.377,45.217 z"
         fill="#ea9b58"
         id="path22"
         style="stroke-width:12.8138" />
      <path
         d="m 17.177,171.399 h 12.497 c 8.103,0 15.218,5.387 17.417,13.186 l 18.781,66.621 -48.695,33.111 z"
         fill="#b9acac"
         id="path24"
         style="stroke-width:12.8138" />
      <path
         d="M 47.091,184.584 C 44.892,176.785 37.777,171.398 29.674,171.398 H 17.177 v 0.492 c 6.292,1.485 11.447,6.266 13.259,12.694 l 18.781,66.621 -32.04,21.786 v 11.325 l 48.695,-33.111 z"
         fill="#9e9797"
         id="path26"
         style="stroke-width:12.8138" />
      <path
         d="M 112.943,350.435 H 36.839 L 10.715,304.389 C 5.406,295.032 6.479,283.305 13.533,275.182 33.468,252.225 83.275,213.236 181.834,233.38 l 7.214,117.056 h -76.105 z"
         fill="#6c7fd8"
         id="path28"
         style="stroke-width:12.8138" />
      <path
         d="m 181.834,233.379 c -24.528,-5.013 -46.034,-6.362 -64.814,-5.209 12.039,0.696 24.998,2.361 38.933,5.209 l 7.214,117.056 h 25.881 z"
         fill="#4f66d0"
         id="path30"
         style="stroke-width:12.8138" />
      <path
         d="m 291.131,324.204 v 26.226 l -102.083,0.005 -1.617,-26.231 z"
         fill="#9e9797"
         id="path32"
         style="stroke-width:12.8138" />
      <path
         d="m 268.768,324.204 v 26.226 l -79.72,0.004 v 10e-4 l 102.083,-0.005 v -26.226 z"
         fill="#878383"
         id="path34"
         style="stroke-width:12.8138" />
      <path
         d="M 246.023,132.297 H 17.177 C 32.868,103.355 63.148,85.328 96.07,85.328 h 164.21 v 32.712 c 0,7.874 -6.383,14.257 -14.257,14.257 z"
         fill="#fe646f"
         id="path36"
         style="stroke-width:12.8138" />
      <path
         d="m 234.399,85.328 v 32.712 c 0,7.874 -6.383,14.257 -14.257,14.257 h 25.881 c 7.874,0 14.257,-6.383 14.257,-14.257 V 85.328 Z"
         fill="#fd4755"
         id="path38"
         style="stroke-width:12.8138" />
      <circle
         cx="112.943"
         cy="350.435"
         fill="#f9f3f1"
         r="26.231001"
         id="circle40"
         style="stroke-width:12.8138" />
      <path
         d="m 112.943,324.204 c -2.912,0 -5.71,0.482 -8.328,1.358 10.403,3.482 17.903,13.298 17.903,24.873 0,11.575 -7.5,21.391 -17.903,24.873 2.617,0.876 5.415,1.358 8.328,1.358 14.487,0 26.231,-11.744 26.231,-26.231 0,-14.487 -11.744,-26.231 -26.231,-26.231 z"
         fill="#f3eae6"
         id="path42"
         style="stroke-width:12.8138" />
    </g>
    <path
       d="m 507.398,157.91858 -25.391,-31.56957 c -1.421,-1.76679 -3.599,-2.7996 -5.905,-2.7996 h -1.308 l 4.615,-6.28939 c 2.408,-3.28146 1.627,-7.84104 -1.744,-10.1841 -3.371,-2.34307 -8.055,-1.58281 -10.462,1.69767 l -11.599,15.80863 c -15.512,5.07453 -30.77,19.88637 -45.394,44.09382 -12.412,20.54441 -21.629,43.40852 -26.021,55.21632 -1.195,3.22305 -4.365,5.24196 -7.887,5.05019 -11.25,-0.64636 -32.625,-1.92448 -49.383,-3.22889 -4.129,-0.31442 -7.744,2.67598 -8.074,6.69531 -0.33,4.01932 2.749,7.5383 6.878,7.85953 16.895,1.31512 38.388,2.60103 49.696,3.24934 10.048,0.57725 19.463,-5.45515 22.876,-14.66192 4.214,-11.32693 13.044,-33.24485 24.845,-52.77883 12.895,-21.34457 26.046,-34.42953 38.1,-37.92514 h 11.209 l 23.134,28.76314 c 1.201,1.49617 1.592,3.4742 1.043,5.30329 -0.748,2.50855 -3.138,4.25976 -5.813,4.25976 -0.634,0 -1.27,-0.10123 -1.895,-0.30079 L 465,168.54268 c -3.159,-1.22459 -8.283,0.54512 -9.556,4.9509 -7.512,25.86328 -34.885,94.76516 -70.858,102.89142 -16.908,3.81977 -50.363,-3.07996 -85.955,-13.45194 v -54.66535 c 0,-4.03198 -3.358,-7.30079 -7.5,-7.30079 -4.142,0 -7.5,3.26881 -7.5,7.30079 v 15.78721 c -15.953,2.39174 -28.146,9.99818 -36.021,22.38323 -37.971,-12.15142 -55.987,-25.27142 -88.251,-28.15182 v -80.1373 h 86.664 c 11.997,0 21.757,-9.50076 21.757,-21.17909 V 92.429569 h 28.57 c 6.275,0 12.481,2.036432 17.474,5.735496 l 16.275,12.054085 c 1.357,1.00556 2.953,1.4913 4.536,1.4913 2.262,0 4.499,-0.9929 5.974,-2.8804 2.508,-3.20845 1.869,-7.78945 -1.427,-10.230832 L 322.907,86.545137 C 315.318,80.924506 305.886,77.828 296.35,77.828 H 96.069 c -35.695,0 -68.438,18.968411 -85.464,49.50418 -0.324,0.71256 -0.943,1.79113 -0.929,3.51801 v 132.31844 c -9.721,9.18828 -13.139,26.38309 -5.487,38.80513 l 25.202,43.24498 c 1.034,43.39878 37.99,79.40041 83.552,79.35855 42.791,0.0409 79.398,-32.1692 83.251,-74.08349 l 32.029,-0.002 c -0.895,3.33889 -1.231,6.81601 -0.959,10.33791 l 4.082,52.66883 c 0.484,6.20859 5.875,11.07286 12.272,11.07286 h 18.923 c 3.398,0 6.676,-1.3852 8.994,-3.80127 2.318,-2.41705 3.514,-5.69559 3.281,-9.0043 l -2.812,-39.2646 c 4.566,-3.07995 8.784,-6.64371 12.66,-10.64357 l 3.709,51.58053 c 0.458,6.24363 5.85,11.13418 12.274,11.13418 h 18.903 c 3.398,0 6.676,-1.3852 8.994,-3.80127 2.318,-2.41705 3.514,-5.69559 3.281,-9.0043 l -2.812,-39.26167 c 12.194,-8.21192 21.908,-19.69655 28.976,-34.21732 16.42,0.98707 36.114,1.2499 52.453,-0.513 l -2.718,52.53644 c -0.025,0.48867 0,0.97831 0.076,1.46211 l 3.524,22.6188 c 0.918,5.90098 6.036,10.18411 12.167,10.18411 h 18.812 c 3.54,0 6.909,-1.48449 9.245,-4.07287 2.336,-2.58837 3.415,-6.03239 2.958,-9.44916 l -3.25,-24.36612 14.177,-97.32238 c 2.433,-13.05477 1.924,-28.43704 -1.517,-45.72432 -2.737,-13.70504 1.425,-42.14694 4.491,-58.64282 l 15.83,5.05214 c 2.134,0.68335 4.346,1.02892 6.573,1.02892 9.31,0 17.625,-6.08398 20.216,-14.78262 1.896,-6.31664 0.541,-13.18425 -3.628,-18.37851 z m -223.766,80.95791 v 19.52814 c -7.189,-2.2428 -14.381,-4.58295 -21.464,-6.96495 5.09,-6.67097 12.16,-10.78277 21.464,-12.56319 z m -87.437,97.01574 c -0.105,-0.0818 -0.755,-10.21039 -0.787,-10.93171 h 88.224 v 10.92782 z m -29.759,49.04667 -24.947,-24.28436 c 1.995,-3.07995 3.477,-6.50159 4.333,-10.1549 h 35.307 c -1.454,12.94672 -6.727,24.78665 -14.693,34.43926 z M 44.757,350.49964 h 35.307 c 0.856,3.65331 2.338,7.07592 4.333,10.1549 L 59.45,384.9389 C 51.484,375.28629 46.211,363.44636 44.757,350.49964 Z m 111.075,-59.37387 -24.951,24.28143 c -3.165,-1.94298 -6.683,-3.38659 -10.438,-4.21985 v -34.36917 c 13.304,1.41538 25.47,6.55026 35.389,14.30759 z m 25.178,43.85435 0.058,0.91795 h -35.244 c -0.856,-3.6572 -2.339,-7.08273 -4.336,-10.16561 l 24.95,-24.28046 c 7.778,9.4258 12.978,20.93767 14.572,33.52812 z m 36.52,-43.42409 c 0.872,0.32026 1.767,0.47211 2.646,0.47211 3.031,0 5.885,-1.80183 7.019,-4.72506 2.91,-7.50716 7.21,-12.85425 11.472,-16.61561 -2.958,17.03613 0.777,30.68276 4.872,39.67246 H 194.48 l -4.422,-69.87532 c 9.644,3.84021 24.802,9.73827 42.588,16.16588 -7.045,5.13489 -14.707,13.17062 -19.486,25.49823 -1.462,3.77208 0.494,7.98414 4.37,9.40731 z m -104.563,69.86948 c -0.008,0 -0.016,-9.8e-4 -0.024,-9.8e-4 -0.008,0 -0.016,9.8e-4 -0.024,9.8e-4 -10.301,-0.0127 -18.679,-8.16228 -18.704,-18.18674 0,-0.0136 0.002,-0.0263 0.002,-0.0399 0,-0.0156 -0.002,-0.0292 -0.002,-0.0448 0.023,-10.03517 8.415,-18.19258 18.729,-18.19258 10.328,0 18.73,8.17882 18.73,18.23249 0,10.04588 -8.389,18.21886 -18.707,18.23152 z m -7.524,-50.23816 c -3.755,0.83326 -7.272,2.27687 -10.438,4.21985 L 70.054,291.12577 c 9.919,-7.75733 22.085,-12.89221 35.389,-14.30759 z m -45.995,-9.73535 24.95,24.28046 c -1.997,3.08288 -3.48,6.50841 -4.336,10.16561 H 44.756 c 1.452,-12.94964 6.725,-24.79152 14.692,-34.44607 z m 35.556,69.5278 c 3.166,1.94396 6.683,3.38659 10.439,4.22083 V 409.5698 C 92.14,408.15539 79.976,403.02148 70.057,395.26513 Z m 25.439,4.21985 c 3.756,-0.83326 7.274,-2.27687 10.439,-4.22082 l 24.947,24.28435 c -9.919,7.75636 -22.084,12.89027 -35.386,14.30467 z m 163.189,-64.8407 H 260.44 c -3.966,-6.10442 -12.154,-22.44845 -5.002,-45.37972 0.032,-0.10319 0.07,-0.19664 0.103,-0.29885 2.648,0.89946 5.323,1.79697 8.017,2.68864 6.944,2.29828 13.629,4.43109 20.074,6.40911 z M 252.78,116.97189 c 0,3.62702 -3.031,6.57752 -6.757,6.57752 l -112.452,-9.8e-4 c 3.33,-15.38226 16.158,-27.182278 20.931,-31.118861 H 252.78 Z M 96.069,92.429569 h 37.434 C 127,100.10999 120.283,110.79737 118.335,123.54941 H 30.976 C 46.394,104.09622 70.323,92.429569 96.069,92.429569 Z m 21.696,45.721401 v 51.27487 c 0,4.03198 3.358,7.30079 7.5,7.30079 4.142,0 7.5,-3.26881 7.5,-7.30079 v -51.27487 h 11.595 v 78.80078 c -28.036,-1.69671 -53.679,1.40759 -76.589,9.3012 L 54.312,179.76155 C 51.208,169.07418 41.077,161.61083 29.676,161.61083 h -5 v -23.45888 h 93.089 z m -63.966,93.67004 c -11.676,5.32665 -21.315,11.50409 -29.118,17.61825 v -73.22784 h 4.995 c 4.72,0 8.916,3.09359 10.2,7.51592 z m -34.605,42.90233 c 34.19,-39.3376 96.003,-50.98576 155.512,-39.38725 l 3.621,57.22647 c -14.678,-18.15461 -39.294,-30.93877 -65.364,-30.75187 -37.316,0.0418 -70.185,24.28922 -80.438,59.19183 L 17.239,294.77129 c -3.764,-6.45973 -2.977,-14.51688 1.955,-20.04795 z m 241.12,87.76711 c -2.394,1.41927 -3.775,4.0203 -3.58,6.743 l 2.917,40.73741 h -13.537 l -3.893,-50.23524 c -0.25,-3.23863 0.442,-6.41204 1.992,-9.24279 l 30.795,-9.8e-4 c -4.36,4.74941 -9.262,8.77847 -14.694,11.9986 z m 57.012,-9.8e-4 c -2.395,1.41928 -3.777,4.0203 -3.582,6.74398 l 2.917,40.73741 h -13.5 l -4.694,-65.2661 c 0.234,-0.0701 0.153,-11.70364 0.164,-12.60894 13.14,1.85051 27.58,3.66305 43.139,5.00931 -6.266,10.95313 -14.459,19.46779 -24.444,25.38434 z m 118.926,25.09426 2.986,22.39005 h -13.429 l -3.064,-19.66345 4.106,-79.36342 c 0.208,-4.02711 -2.977,-7.45653 -7.113,-7.65901 -4.142,-0.20442 -7.66,2.89695 -7.868,6.92407 l -0.659,12.74424 c -31.814,3.92101 -75.476,-0.33681 -112.579,-5.62355 V 278.2248 c 32.173,9.16297 57.205,13.76927 74.837,13.76927 5.579,0 10.419,-0.4614 14.508,-1.3852 21.798,-4.92462 42.001,-24.97744 60.076,-59.60165 -0.051,5.73939 0.269,11.04949 1.141,15.41439 2.978,14.49741 3.56,29.71711 1.427,40.64395 l -14.356,98.55183 c -0.096,0.6522 -0.1,1.31414 -0.013,1.96634 z"
       id="path46"
       style="stroke-width:3.42081" />
  </g>
</svg>
