<?xml version="1.0" encoding="UTF-8" standalone="no"?>
<svg
   xmlns:dc="http://purl.org/dc/elements/1.1/"
   xmlns:cc="http://creativecommons.org/ns#"
   xmlns:rdf="http://www.w3.org/1999/02/22-rdf-syntax-ns#"
   xmlns:svg="http://www.w3.org/2000/svg"
   xmlns="http://www.w3.org/2000/svg"
   xmlns:sodipodi="http://sodipodi.sourceforge.net/DTD/sodipodi-0.dtd"
   xmlns:inkscape="http://www.inkscape.org/namespaces/inkscape"
   height="170mm"
   viewBox="-12 0 453.54331 481.89039"
   width="160mm"
   version="1.1"
   id="svg36"
   sodipodi:docname="people.svg"
   inkscape:version="1.0.2 (e86c870879, 2021-01-15, custom)">
  <metadata
     id="metadata42">
    <rdf:RDF>
      <cc:Work
         rdf:about="">
        <dc:format>image/svg+xml</dc:format>
        <dc:type
           rdf:resource="http://purl.org/dc/dcmitype/StillImage" />
        <dc:title></dc:title>
      </cc:Work>
    </rdf:RDF>
  </metadata>
  <defs
     id="defs40" />
  <sodipodi:namedview
     pagecolor="#ffffff"
     bordercolor="#666666"
     borderopacity="1"
     objecttolerance="10"
     gridtolerance="10"
     guidetolerance="10"
     inkscape:pageopacity="0"
     inkscape:pageshadow="2"
     inkscape:window-width="1920"
     inkscape:window-height="1017"
     id="namedview38"
     showgrid="false"
     units="mm"
     width="160mm"
     inkscape:zoom="0.62255859"
     inkscape:cx="12.570428"
     inkscape:cy="431.95943"
     inkscape:window-x="-8"
     inkscape:window-y="-8"
     inkscape:window-maximized="1"
     inkscape:current-layer="svg36" />
  <path
     d="m 143.5302,193.99894 c -0.0997,-6.65569 0.14021,-10.7357 0.14021,-10.7357 0,0 31.61576,-24.25249 47.31303,-65.22006 0,0 29.19479,45.02546 97.61716,64.73337 0,0 0.28044,4.34548 0.20252,11.39305 5.84209,-2.97389 13.36357,-4.43397 19.96277,1.7287 C 342.04235,87.078111 245.83351,59.56098 220.97898,58.00925 c -25.99801,-1.624418 -41.82301,19.47089 -41.82301,19.47089 -23.42129,-18.254157 -49.36009,3.6502 -58.55786,37.72189 -5.63019,20.85512 -1.67315,56.91151 2.24648,81.74867 6.7176,-7.2435 14.5756,-5.96673 20.68561,-2.95176 z m 0,0"
     fill="#945b44"
     id="path2"
     style="stroke-width:0.999995" />
  <path
     d="m 311.88167,199.50426 c -7.23796,-10.21108 -16.29239,-8.78893 -23.08166,-5.33466 -0.15578,13.83283 -1.71679,38.08217 -9.56854,60.35312 34.1738,11.62691 44.59607,-38.17698 32.6502,-55.01846 z m 0,0"
     fill="#ffbd86"
     id="path4"
     style="stroke-width:0.999995" />
  <path
     d="m 143.5302,193.99894 c -6.74564,-3.32785 -15.6256,-4.53825 -22.74825,5.50532 -11.93342,16.82884 -1.53607,66.57901 32.58164,55.04375 -8.0013,-22.46373 -9.62774,-46.91534 -9.83339,-60.54907 z m 0,0"
     fill="#ffbd86"
     id="path6"
     style="stroke-width:0.999995" />
  <path
     d="m 283.24147,240.94588 c -1.1092,4.53826 -2.43029,9.09548 -4.01,13.57684 28.17594,9.58534 40.20283,-22.58382 36.86272,-43.61277 -2.45834,17.17332 -13.30747,34.17282 -32.85272,30.03593 z m 0,0"
     fill="#ffa664"
     id="path8"
     style="stroke-width:0.999995" />
  <path
     d="m 116.56942,210.90995 c -3.33388,21.01314 8.66809,53.14754 36.79417,43.63806 -1.59528,-4.48137 -2.93506,-9.03859 -4.06296,-13.57684 -19.46736,4.04207 -30.27287,-12.92266 -32.73121,-30.06122 z m 0,0"
     fill="#ffa664"
     id="path10"
     style="stroke-width:0.999995" />
  <path
     d="m 216.53278,304.69638 c -16.70678,0.0537 -29.60919,-5.20825 -39.57343,-13.57053 v 34.98504 c 0,22.05605 17.62903,39.93728 39.37401,39.93728 21.74498,0 39.37403,-17.88123 39.37403,-39.93728 v -34.99136 c -9.87077,8.27695 -22.64233,13.51996 -39.17461,13.57685 z m 0,0"
     fill="#ffbd86"
     id="path12"
     style="stroke-width:0.999995" />
  <path
     d="m 288.59749,182.77655 c 0,0 7.92964,121.65121 -72.06471,121.91983 -79.99748,0.26863 -72.86237,-121.43314 -72.86237,-121.43314 0,0 31.61576,-24.25249 47.31303,-65.22006 0,0 29.19479,45.02546 97.61405,64.73337 z m 0,0"
     fill="#fed2a4"
     id="path14"
     style="stroke-width:0.999995" />
  <path
     d="m 216.53278,290.01657 c -62.31546,0.20858 -71.75937,-73.5855 -72.89039,-106.21923 -0.38948,8.55822 -4.06921,121.15818 72.89039,120.89904 74.28626,-0.24967 72.75018,-105.15419 72.15196,-120.13107 -1.11234,33.24052 -10.6248,105.24583 -72.15196,105.45126 z m 0,0"
     fill="#ffbd86"
     id="path16"
     style="stroke-width:0.999995" />
  <path
     d="m 176.95935,291.12585 v 14.66084 c 9.96735,8.36861 22.86354,13.64322 39.57343,13.5895 16.53228,-0.0569 29.30384,-5.30623 39.17461,-13.5895 v -14.66716 c -9.86764,8.27695 -22.64233,13.51996 -39.17461,13.57685 -16.70678,0.0569 -29.60919,-5.20825 -39.57343,-13.57053 z m 0,0"
     fill="#ffa664"
     id="path18"
     style="stroke-width:0.999995" />
  <path
     d="m 380.53461,398.70402 c -21.65152,-17.75798 -124.82722,-72.59313 -124.82722,-72.59313 0,22.05605 -17.62905,39.93728 -39.37403,39.93728 -21.74498,0 -39.37401,-17.88123 -39.37401,-39.93728 0,0 -103.175718,54.83515 -124.827225,72.59313 -21.654623,17.75799 -24.418313,61.21592 -24.418313,61.21592 H 404.9498 c 0,0 -2.76367,-43.45793 -24.41519,-61.21592 z m 0,0"
     fill="#8bcaff"
     id="path20"
     style="stroke-width:0.999995" />
  <path
     d="m 29.729717,445.24012 c -1.626434,8.57087 -2.015905,14.67982 -2.015905,14.67982 H 404.9498 c 0,0 -0.38634,-6.10895 -2.01279,-14.67982 z m 0,0"
     fill="#60b8ff"
     id="path22"
     style="stroke-width:0.999995" />
  <path
     d="M 101.5514,453.8015 H 34.443881 c 0.567071,-4.15902 1.54854,-9.94877 3.190552,-16.27261 2.869627,-11.05491 8.372081,-25.93697 18.286472,-34.06854 17.516876,-14.36378 91.613065,-54.62026 116.009585,-67.73886 4.37143,20.79508 22.61427,36.44196 44.40287,36.44196 21.78549,0 40.03145,-15.65003 44.40289,-36.44511 9.1261,4.90802 25.19102,13.60213 42.54899,23.26646 2.88521,1.60229 6.60857,0.49934 8.18826,-2.42082 1.60151,-2.96124 0.53592,-6.67781 -2.38357,-8.30539 -20.92553,-11.64905 -39.98161,-21.89488 -47.35353,-25.84215 v -28.52213 c 1.43015,-1.31155 2.82601,-2.68313 4.17514,-4.14637 6.89209,-7.49317 12.58461,-16.84148 17.0651,-27.95326 2.0159,0.36344 4.00065,0.54674 5.94178,0.54674 9.62462,0 18.15871,-4.44344 24.34353,-12.94477 10.97687,-15.10014 12.65315,-40.582 3.51771,-53.46358 -0.40505,-0.57202 -0.82257,-1.1156 -1.24631,-1.64022 10.78056,-37.66817 7.51836,-69.58134 -9.7181,-94.90203 -24.61772,-36.167 -69.31972,-46.542416 -84.46549,-47.487358 -21.40847,-1.333668 -36.50129,10.795741 -43.17215,17.558881 -8.61824,-5.047073 -17.89077,-6.071024 -27.09476,-2.932801 -16.03065,5.464237 -29.93948,23.497173 -36.30189,47.060708 -1.30239,4.82269 -2.1935,10.60929 -2.64528,17.19228 -0.23368,3.36894 2.27139,6.29226 5.59281,6.52928 3.31207,0.24019 6.20351,-2.30705 6.43719,-5.67598 0.39882,-5.78027 1.15595,-10.76731 2.24647,-14.8157 5.23449,-19.388724 16.42636,-34.577349 28.51244,-38.698439 6.99492,-2.382901 13.91504,-0.970227 20.55788,4.206421 2.63594,2.057386 6.42783,1.542249 8.45932,-1.128244 0.14332,-0.1833 14.3232,-18.478542 36.6633,-17.08799 12.61266,0.790085 53.50717,10.23636 75.28643,42.228542 14.43849,21.21224 17.51999,48.19843 9.21334,80.29175 -3.23729,-1.13141 -6.71449,-1.42216 -10.34125,-0.84697 -0.0623,-2.0321 -0.1371,-3.23304 -0.14956,-3.41317 -0.16825,-2.57884 -1.9162,-4.77529 -4.36831,-5.48004 -65.23183,-18.78826 -93.9499,-61.78793 -94.2241,-62.21142 -1.24008,-1.91201 -3.43358,-2.96124 -5.67382,-2.72105 -2.24647,0.24018 -4.16891,1.73503 -4.98524,3.86826 -14.84977,38.75849 -45.03228,62.32518 -45.33138,62.55589 -1.40521,1.07767 -2.27763,2.73054 -2.38356,4.51613 -0.01,0.16118 -0.0623,1.15353 -0.10907,2.83168 -3.54574,-0.50566 -6.94816,-0.18015 -10.11691,0.95758 -1.64513,-11.78178 -2.745,-22.66916 -3.2591,-32.43463 -0.17759,-3.3721 -3.01919,-5.96673 -6.3437,-5.78027 -3.32454,0.18013 -5.87636,3.06238 -5.70187,6.43446 0.6325,11.96192 2.10002,25.49451 4.34962,40.23436 -0.1963,0.25915 -0.38947,0.51829 -0.57955,0.78693 -9.12608,12.86893 -7.46227,38.33816 3.49591,53.43512 6.18481,8.52346 14.72514,12.97955 24.36534,12.97955 1.9162,0 3.87914,-0.1833 5.87323,-0.53726 4.57708,11.27612 10.40045,20.72555 17.43276,28.27244 1.25253,1.34317 2.55181,2.60098 3.87291,3.81455 v 28.52212 c -17.96243,9.6043 -102.646033,55.17965 -122.586981,71.53128 -23.439961,19.22439 -26.524577,63.69362 -26.642976,65.57716 -0.22122,3.4764 2.586092,6.51034 6.016559,6.51034 H 101.5514 c 3.33077,0 6.03214,-2.73686 6.03214,-6.11527 0,-3.37842 -2.70137,-6.11844 -6.03214,-6.11844 z M 292.86299,222.1197 c 1.18709,-8.99119 1.70121,-17.20808 1.89127,-23.81321 6.37176,-1.92781 9.86142,1.42532 12.23252,4.76897 5.55232,7.82501 5.05691,27.3844 -3.43358,39.05871 -4.2873,5.90036 -9.82402,8.52978 -16.50112,7.89139 2.52377,-8.48553 4.47113,-17.78012 5.81091,-27.90586 z m -43.18774,103.99119 c 0,18.64919 -14.9557,33.81885 -33.34189,33.81885 -18.38617,0 -33.34188,-15.16966 -33.34188,-33.81885 v -23.44978 c 9.73367,5.41684 20.8601,8.15054 33.27645,8.15054 h 0.28355 c 12.36649,-0.0412 23.43995,-2.78426 33.12377,-8.1695 z M 129.09484,242.11521 c -8.47179,-11.67432 -8.96097,-31.22738 -3.418,-39.04292 3.31205,-4.66782 7.0728,-6.23536 11.91783,-4.86693 0.21809,6.70941 0.78206,15.16018 2.06888,24.42948 1.37716,9.9298 3.34009,19.06004 5.85141,27.40336 -6.63972,0.60046 -12.1484,-2.03843 -16.42012,-7.92299 z m 20.50178,-55.83384 c 7.06969,-5.95409 28.62461,-25.73154 42.89174,-56.32685 11.92717,14.10147 40.58294,42.07685 90.24213,57.44561 0.30846,15.08117 -0.592,66.79708 -25.6584,94.02346 -10.42848,11.32668 -24.07557,17.10063 -40.56111,17.15436 -16.48246,0.0695 -30.16694,-5.62542 -40.67333,-16.88258 -26.20676,-28.08915 -26.53702,-82.75681 -26.24103,-95.414 z m 0,0"
     id="path32"
     style="stroke-width:0.999995" />
  <path
     d="m 410.96948,459.52488 c -0.12151,-1.88355 -3.20613,-46.35594 -26.64297,-65.57717 -7.72712,-6.3365 -25.93259,-17.70425 -54.11163,-33.78726 -2.90079,-1.65602 -6.57741,-0.61311 -8.21319,2.32918 -1.63267,2.94543 -0.60446,6.67463 2.29946,8.33067 34.37009,19.61625 47.48748,28.57584 52.44157,32.64005 14.60986,11.98087 19.80073,38.1359 21.47078,50.34115 H 125.67372 c -3.33076,0 -6.02902,2.73687 -6.02902,6.11527 0,3.3784 2.69826,6.11844 6.02902,6.11844 H 404.9498 c 3.43358,0 6.2409,-3.03394 6.01968,-6.51033 z m 0,0"
     id="path34"
     style="stroke-width:0.999995" />
</svg>
