<?xml version="1.0" encoding="UTF-8" standalone="no"?>
<svg
   xmlns:dc="http://purl.org/dc/elements/1.1/"
   xmlns:cc="http://creativecommons.org/ns#"
   xmlns:rdf="http://www.w3.org/1999/02/22-rdf-syntax-ns#"
   xmlns:svg="http://www.w3.org/2000/svg"
   xmlns="http://www.w3.org/2000/svg"
   xmlns:sodipodi="http://sodipodi.sourceforge.net/DTD/sodipodi-0.dtd"
   xmlns:inkscape="http://www.inkscape.org/namespaces/inkscape"
   version="1.1"
   id="Capa_1"
   x="0px"
   y="0px"
   viewBox="0 0 160 170"
   xml:space="preserve"
   sodipodi:docname="population.svg"
   width="160"
   height="170"
   inkscape:version="1.0.2 (e86c870879, 2021-01-15, custom)"><metadata
   id="metadata81"><rdf:RDF><cc:Work
       rdf:about=""><dc:format>image/svg+xml</dc:format><dc:type
         rdf:resource="http://purl.org/dc/dcmitype/StillImage" /><dc:title></dc:title></cc:Work></rdf:RDF></metadata><defs
   id="defs79" /><sodipodi:namedview
   pagecolor="#ffffff"
   bordercolor="#666666"
   borderopacity="1"
   objecttolerance="10"
   gridtolerance="10"
   guidetolerance="10"
   inkscape:pageopacity="0"
   inkscape:pageshadow="2"
   inkscape:window-width="1920"
   inkscape:window-height="1017"
   id="namedview77"
   showgrid="false"
   inkscape:zoom="2.3478155"
   inkscape:cx="61.935593"
   inkscape:cy="70.05267"
   inkscape:window-x="-8"
   inkscape:window-y="-8"
   inkscape:window-maximized="1"
   inkscape:current-layer="Capa_1"
   inkscape:document-rotation="0" />
<g
   id="g44">
	<g
   id="g10">
		
		
		
		
	</g>
	<path
   style="fill:#556080;stroke-width:1"
   d="m 17.895363,119.52046 c 11.47857,0 20.783845,11.47372 20.783845,25.62718 v 21.96617 H 0.08063716 c -1.63989336,0 -2.96912136,-1.63898 -2.96912136,-3.66104 v -18.30513 c 0,-14.15346 9.3052764,-25.62718 20.7838472,-25.62718 z"
   id="path12" />
	<path
   style="fill:#8697cb;stroke-width:1"
   d="m 59.462714,119.52046 c 11.478571,0 20.783847,11.47372 20.783847,25.62718 v 21.96617 H 38.678866 v -21.96617 c 0,-14.15346 9.305276,-25.62718 20.783848,-25.62718 z"
   id="path14" />
	<path
   style="fill:#556080;stroke-width:1"
   d="m 101.03041,119.52046 c 11.47857,0 20.78385,11.47372 20.78385,25.62718 v 21.96617 H 80.246561 v -21.96617 c 0,-14.15346 9.305276,-25.62718 20.783849,-25.62718 z"
   id="path16" />
	<path
   style="fill:#8697cb;stroke-width:1"
   d="m 142.59777,119.52046 c 11.47857,0 20.78385,11.47372 20.78385,25.62718 v 18.30513 c 0,2.02206 -1.32924,3.66104 -2.96913,3.66104 h -38.59823 v -21.96617 c 0,-14.15346 9.30494,-25.62718 20.78351,-25.62718 z"
   id="path18" />
	<path
   style="fill:#cbb292;stroke-width:1"
   d="m 142.59777,79.249572 c -1.07159,0.0054 -2.14011,0.129937 -3.19358,0.371671 l 0.0168,-0.0054 c -0.712,-5.872072 -3.32632,-11.136645 -7.2442,-14.588423 -3.91788,-3.451776 -8.80438,-4.795023 -13.54033,-3.722199 -0.71303,-5.870804 -3.32769,-11.133688 -7.24523,-14.5842 -3.91755,-3.450512 -8.80335,-4.793339 -13.538283,-3.720934 C 96.5333,32.267177 89.050965,24.33467 80.247272,24.33467 c -8.803695,0 -16.28603,7.932928 -17.605677,18.665417 -4.735266,-1.072405 -9.620733,0.270422 -13.538617,3.720934 -3.917885,3.450512 -6.532203,8.713396 -7.245231,14.5842 -4.73595,-1.072403 -9.622443,0.270844 -13.540669,3.722199 -3.918226,3.451778 -6.532203,8.715929 -7.244545,14.588423 l 0.01677,0.0054 c -7.151482,-1.614936 -14.3813158,2.292466 -18.2646435,9.87102 -3.8833287,7.578982 -3.64074871,17.307407 0.613121,24.577567 4.2538698,7.27016 11.6646975,10.62238 18.7220905,8.46829 7.057734,-2.15367 12.344877,-9.38122 13.35728,-18.25873 -0.0096,0.0747 -0.0041,0.1561 -0.01438,0.23035 2.099393,0.48811 4.254555,0.48811 6.353947,0 -0.01029,-0.0743 -0.0051,-0.15567 -0.01436,-0.23035 1.228636,10.83753 8.746555,18.90167 17.621415,18.90167 8.874859,0 16.392435,-8.06414 17.621415,-18.90167 -0.0096,0.0747 -0.0041,0.1561 -0.01437,0.23035 2.099391,0.48811 4.254554,0.48811 6.353945,0 -0.01029,-0.0743 -0.0051,-0.15567 -0.01436,-0.23035 1.228638,10.83753 8.746556,18.90167 17.621427,18.90167 8.87485,0 16.39242,-8.06414 17.62141,-18.90167 -0.01,0.0747 -0.004,0.1561 -0.0143,0.23035 2.0994,0.48811 4.25456,0.48811 6.35394,0 -0.0108,-0.0743 -0.005,-0.15567 -0.0143,-0.23035 1.33231,11.61167 9.82978,19.88211 19.29894,18.78312 9.46882,-1.09899 16.5659,-11.17968 16.11736,-22.89387 -0.45076,-11.713344 -8.28619,-20.924975 -17.79709,-20.919068 z M 24.189092,80.686898 c -0.07185,-0.03333 -0.144385,-0.06539 -0.216578,-0.09787 z m 2.767939,1.641093 c -0.05269,-0.03882 -0.104012,-0.07974 -0.157043,-0.117704 0.05337,0.03797 0.104359,0.07889 0.157043,0.117704 z m 6.229064,7.65871 c 0.04208,0.08733 0.08656,0.171703 0.12762,0.259453 -0.04106,-0.08775 -0.08553,-0.172547 -0.12762,-0.259453 z m 1.331623,3.378793 c 0.04414,0.141328 0.0845,0.282655 0.12625,0.42525 -0.0414,-0.142595 -0.08246,-0.284766 -0.12625,-0.42525 z m 0.872808,3.765651 c 0.02122,0.13838 0.0325,0.2797 0.05166,0.41934 -0.01882,-0.13921 -0.0308,-0.28139 -0.05166,-0.41934 z M 115.73814,62.291059 c 0.58438,-0.244266 1.17903,-0.450562 1.78085,-0.618047 -0.60217,0.167907 -1.19647,0.374203 -1.78085,0.618047 z m 2.83945,35.259426 c -0.0191,-0.13921 -0.0309,-0.28096 -0.0517,-0.41934 0.0208,0.13838 0.0325,0.2797 0.0517,0.41934 z m -0.79823,-3.759741 c -0.0414,-0.142173 -0.0824,-0.284344 -0.12625,-0.42525 0.0438,0.140906 0.0846,0.282655 0.12625,0.42525 z m -1.33025,-3.54459 c -0.041,-0.08775 -0.0859,-0.172547 -0.12762,-0.259453 0.0417,0.08733 0.0862,0.171703 0.12762,0.259453 z m -3.41768,-26.393737 c 0.50946,-0.358171 1.04423,-0.655593 1.58379,-0.951328 -0.53819,0.296156 -1.07536,0.593157 -1.58379,0.951328 z m -1.02779,0.81253 c -0.4838,0.396984 -0.95766,0.808733 -1.40689,1.26014 0.44992,-0.45225 0.92173,-0.862734 1.40689,-1.26014 z m -2.3194,2.253232 c -0.42357,0.48853 -0.8266,1.001952 -1.20913,1.539421 0.38389,-0.538313 0.78454,-1.050047 1.20913,-1.539421 z m -4.76365,9.091818 c -0.32128,1.174499 -0.56009,2.380638 -0.71337,3.60534 l 0.0167,0.0054 c -0.0999,-0.02236 -0.20222,-0.0367 -0.30281,-0.05695 0.0938,0.0211 0.19332,0.02785 0.28604,0.05105 0.15362,-1.22428 0.39244,-2.430419 0.71337,-3.604919 z m 2.78094,-6.40954 c -0.35993,0.57839 -0.68326,1.189265 -0.99563,1.810686 0.30689,-0.623531 0.63945,-1.228077 0.99563,-1.810686 z m -1.60261,3.052262 c -0.29424,0.706641 -0.55701,1.432265 -0.78692,2.174342 0.22991,-0.742077 0.49234,-1.467701 0.78692,-2.174342 z m 3.9935,9.675272 c -0.0526,-0.03882 -0.10406,-0.07974 -0.15704,-0.117704 0.053,0.03797 0.10406,0.07889 0.15704,0.117704 z m -2.76794,-1.641093 c -0.0719,-0.03375 -0.14438,-0.06539 -0.21657,-0.09787 z M 92.247585,45.547282 c 0.509452,-0.358171 1.044222,-0.655593 1.583782,-0.951327 -0.538192,0.296156 -1.075014,0.593578 -1.583782,0.951327 z M 93.585708,68.4576 c -0.383201,-0.537047 -0.786245,-1.050047 -1.209134,-1.539421 0.424599,0.489374 0.824907,1.001108 1.209134,1.539421 z M 83.424731,61.305138 c 0.153623,-1.222591 0.392097,-2.427042 0.712343,-3.599854 -0.320588,1.17239 -0.559062,2.376841 -0.712343,3.599854 z m 2.314602,28.681563 c -0.04208,0.0869 -0.08656,0.171703 -0.12762,0.259453 0.0414,-0.08775 0.08553,-0.172126 0.12762,-0.259453 z m -1.331623,3.378793 c -0.04379,0.140906 -0.08485,0.283077 -0.126252,0.42525 0.04174,-0.142595 0.08246,-0.284344 0.126252,-0.42525 z m -0.872808,3.765651 c -0.02087,0.13795 -0.0325,0.28013 -0.05166,0.41934 0.01916,-0.13964 0.03045,-0.28096 0.05166,-0.41934 z M 84.54183,61.673012 c 0.60183,0.167485 1.196475,0.373781 1.780856,0.618047 -0.584723,-0.243844 -1.179026,-0.45014 -1.780856,-0.618047 z m 2.903771,1.228077 c 0.539561,0.295735 1.074331,0.593157 1.583783,0.951328 -0.508768,-0.358171 -1.045933,-0.655172 -1.583783,-0.951328 z m 9.694636,13.108908 c 0.320931,1.174499 0.559405,2.380638 0.713368,3.60534 0.09307,-0.02363 0.192286,-0.03038 0.286032,-0.05105 -0.100591,0.02025 -0.20289,0.0346 -0.302796,0.05695 l 0.01677,-0.0059 c -0.153627,-1.224702 -0.392443,-2.430841 -0.713374,-3.60534 z m -2.186982,4.579027 c -0.07253,0.03248 -0.144726,0.06455 -0.216577,0.09787 z m -2.827815,1.621263 c -0.05303,0.03754 -0.104359,0.07889 -0.157044,0.117704 0.05269,-0.03882 0.104013,-0.07974 0.157044,-0.117704 z m -2.068257,-17.54534 c 0.484817,0.397406 0.956975,0.80789 1.406894,1.26014 -0.449234,-0.451407 -0.923446,-0.863156 -1.406894,-1.26014 z m 4.302112,4.93551 c 0.356171,0.582609 0.688734,1.187155 0.995637,1.810686 -0.312377,-0.621421 -0.635702,-1.232296 -0.995637,-1.810686 z m 1.6026,3.052262 c 0.294243,0.706641 0.557009,1.432265 0.786929,2.174342 -0.22992,-0.742077 -0.492686,-1.467701 -0.786929,-2.174342 z M 94.954282,43.985925 c 0.584381,-0.244266 1.179027,-0.450563 1.780857,-0.618047 -0.60183,0.167906 -1.196476,0.374202 -1.780857,0.618047 z m -3.734496,2.373887 c -0.48379,0.396984 -0.957659,0.808734 -1.406894,1.26014 0.449919,-0.45225 0.922077,-0.862734 1.406894,-1.26014 z m -2.31939,2.253232 c -0.423574,0.488531 -0.826618,1.001952 -1.209136,1.539421 0.383886,-0.538313 0.784536,-1.049625 1.209136,-1.539421 z m -4.372251,7.908882 c 0.229919,-0.742077 0.492686,-1.467701 0.786587,-2.174341 -0.293901,0.70664 -0.556668,1.432264 -0.786587,2.174341 z m 1.393549,-3.415918 c 0.307245,-0.62353 0.639466,-1.228076 0.995981,-1.810685 -0.359935,0.57839 -0.683262,1.189264 -0.995981,1.810685 z M 68.116548,66.918179 c -0.423573,0.48853 -0.826618,1.001952 -1.209134,1.539421 0.384226,-0.538313 0.784534,-1.050047 1.209134,-1.539421 z M 66.661755,44.596376 c 0.53956,0.295735 1.074329,0.593157 1.583781,0.951328 -0.508767,-0.358171 -1.045589,-0.655593 -1.583781,-0.951328 z m 10.348129,52.954109 c -0.01916,-0.13921 -0.0308,-0.28096 -0.05166,-0.41934 0.02122,0.13838 0.0325,0.2797 0.05166,0.41934 z m -0.798563,-3.759741 c -0.0414,-0.142173 -0.08246,-0.284344 -0.126251,-0.42525 0.04414,0.140906 0.08485,0.282655 0.126251,0.42525 z m -1.329912,-3.54459 c -0.04106,-0.08775 -0.08588,-0.172547 -0.12762,-0.259453 0.04208,0.08733 0.08623,0.171703 0.12762,0.259453 z M 71.463738,63.852417 c 0.509452,-0.358171 1.044221,-0.655593 1.583782,-0.951328 -0.537849,0.296156 -1.075014,0.593157 -1.583782,0.951328 z m 2.706697,-1.560937 c 0.584381,-0.244265 1.179026,-0.450561 1.780856,-0.618046 -0.60183,0.167485 -1.196475,0.373781 -1.780856,0.618046 z m 2.897956,-0.986342 c -0.153281,-1.223013 -0.391755,-2.427042 -0.712343,-3.599854 0.320246,1.17239 0.55872,2.376841 0.712343,3.599854 z M 71.592726,48.613044 c 0.4246,0.489796 0.82525,1.001108 1.209135,1.539421 -0.383201,-0.536625 -0.786246,-1.050047 -1.209135,-1.539421 z m 1.982721,2.682279 c 0.356172,0.582609 0.688736,1.187155 0.99598,1.810685 -0.312719,-0.621421 -0.636045,-1.232295 -0.99598,-1.810685 z m 1.602601,3.052262 c 0.294243,0.70664 0.556667,1.432264 0.786587,2.174341 -0.229578,-0.742077 -0.492344,-1.467701 -0.786587,-2.174341 z m -4.742109,10.317362 c -0.483791,0.396984 -0.95766,0.808733 -1.406894,1.26014 0.450261,-0.45225 0.922077,-0.862734 1.406894,-1.26014 z M 69.273335,46.359812 c 0.484817,0.397406 0.956976,0.80789 1.406894,1.26014 -0.449234,-0.451406 -0.923103,-0.863156 -1.406894,-1.26014 z M 65.53884,43.985925 c -0.584381,-0.244266 -1.179027,-0.450563 -1.780857,-0.618047 0.602172,0.167906 1.196476,0.374202 1.780857,0.618047 z m -2.185956,32.024072 c -0.321272,1.174499 -0.559746,2.380638 -0.713368,3.60534 l 0.01677,0.0054 c -0.09991,-0.02236 -0.202208,-0.0367 -0.302797,-0.05695 0.09375,0.0211 0.193311,0.02785 0.286032,0.05105 0.153964,-1.22428 0.392438,-2.430419 0.713368,-3.604919 z m 2.780943,-6.40954 c -0.359935,0.57839 -0.68326,1.189265 -0.995979,1.810686 0.307587,-0.623531 0.639808,-1.228077 0.995979,-1.810686 z m -1.602601,3.052262 c -0.294243,0.706641 -0.556666,1.432265 -0.786587,2.174342 0.229579,-0.742077 0.492344,-1.467701 0.786587,-2.174342 z m 3.993499,9.675272 c -0.05269,-0.03882 -0.104012,-0.07974 -0.157044,-0.117704 0.05304,0.03797 0.10436,0.07889 0.157044,0.117704 z m -2.76794,-1.641093 c -0.07185,-0.03333 -0.144385,-0.06539 -0.216577,-0.09787 z M 52.018014,68.4576 c -0.3832,-0.537047 -0.786246,-1.050047 -1.209136,-1.539421 0.424601,0.489374 0.825251,1.001108 1.209136,1.539421 z m 4.267897,11.158159 c 0.09307,-0.02363 0.192285,-0.03038 0.286032,-0.05105 -0.100591,0.02025 -0.202891,0.0346 -0.302796,0.05695 l 0.01677,-0.0059 c -0.153279,-1.224703 -0.392097,-2.431263 -0.713369,-3.605341 0.32093,1.174078 0.559746,2.380638 0.713369,3.605341 z m -1.10478,-4.788698 c -0.229921,-0.742077 -0.492688,-1.467701 -0.786589,-2.174342 0.293901,0.706641 0.556668,1.432265 0.786589,2.174342 z M 53.78758,71.411143 c -0.312377,-0.621421 -0.636044,-1.232296 -0.995979,-1.810686 0.356513,0.58303 0.688734,1.187155 0.995979,1.810686 z m -0.402019,9.177881 c -0.07253,0.03248 -0.144726,0.06455 -0.216577,0.09787 z m -2.827816,1.621685 c -0.05304,0.03754 -0.104347,0.07889 -0.157044,0.117703 0.05303,-0.03923 0.104013,-0.08015 0.157044,-0.117703 z M 45.877907,62.901511 c 0.53956,0.295734 1.074331,0.593156 1.583783,0.951328 -0.508426,-0.358593 -1.045591,-0.655594 -1.583783,-0.951328 z m 2.611582,1.763436 c 0.484817,0.397406 0.956974,0.80789 1.406893,1.26014 -0.449234,-0.451407 -0.923102,-0.863156 -1.406893,-1.26014 z M 44.755335,62.29148 c -0.584382,-0.244265 -1.179027,-0.450561 -1.780858,-0.618046 0.601831,0.167485 1.196134,0.373781 1.780858,0.618046 z M 44.17198,89.987122 c -0.04208,0.0869 -0.08656,0.171704 -0.12762,0.259454 0.04106,-0.08817 0.08553,-0.172548 0.12762,-0.259454 z m -1.331622,3.378372 c -0.04379,0.140906 -0.08485,0.283077 -0.126251,0.42525 0.04174,-0.142595 0.08211,-0.284344 0.126251,-0.42525 z m -0.872809,3.765651 c -0.02087,0.13795 -0.0325,0.28013 -0.05166,0.41934 0.01881,-0.13964 0.03045,-0.28096 0.05166,-0.41934 z M 57.719835,79.357993 c 0.57001,-0.06961 1.150971,-0.108421 1.742879,-0.108421 0.591908,0 1.172867,0.03923 1.742879,0.108421 -0.573775,-0.06877 -1.154393,-0.108421 -1.742879,-0.108421 -0.588488,0 -1.169105,0.03966 -1.742879,0.108421 z M 77.157348,61.294592 c 2.042254,-0.467016 4.136514,-0.467016 6.178426,0 -2.042255,-0.467016 -4.136514,-0.467016 -6.178426,0 z m 22.130178,18.063401 c 0.57001,-0.06961 1.150984,-0.108421 1.742884,-0.108421 0.59191,0 1.17287,0.03923 1.74288,0.108421 -0.57377,-0.06877 -1.15439,-0.108421 -1.74288,-0.108421 -0.58848,0 -1.169104,0.03966 -1.742884,0.108421 z m 37.233084,1.231031 c -0.0725,0.03248 -0.14473,0.06455 -0.21691,0.09787 z m -2.82781,1.621263 c -0.053,0.03754 -0.10442,0.07889 -0.15705,0.117704 0.053,-0.03882 0.10406,-0.07974 0.15705,-0.117704 z m -6.38577,7.776414 c -0.0421,0.0869 -0.0866,0.171703 -0.12761,0.259453 0.041,-0.08775 0.0855,-0.172126 0.12761,-0.259453 z m -1.33162,3.378793 c -0.0438,0.140906 -0.0848,0.283077 -0.12626,0.42525 0.0417,-0.142595 0.0822,-0.284344 0.12626,-0.42525 z m -0.87315,3.765651 c -0.0209,0.13795 -0.0325,0.28013 -0.0517,0.41934 0.0191,-0.13964 0.0307,-0.28096 0.0517,-0.41934 z"
   id="path20" />
	<g
   id="g26">
		
		
	</g>
	<g
   id="g34"
   transform="matrix(0.34214346,0,0,0.42187454,-7.3421662,-48.88596)"
   style="stroke-width:2.63211">
		<path
   style="fill:#7f6e5d;stroke-width:2.63211"
   d="m 143.186,355.797 c -0.02,2.616 0.183,5.229 0.607,7.81 -6.136,1.158 -12.435,1.158 -18.571,0 0.424,-2.581 0.628,-5.194 0.607,-7.81 -0.026,-25.159 -18.029,-46.704 -42.782,-51.2 3.851,-25.447 25.724,-44.258 51.46,-44.258 25.736,0 47.609,18.811 51.46,44.258 -24.752,4.496 -42.755,26.041 -42.781,51.2 z"
   id="path28" />
		<path
   style="fill:#7f6e5d;stroke-width:2.63211"
   d="m 368.814,355.797 c 0.02,2.616 -0.183,5.229 -0.607,7.81 6.136,1.158 12.435,1.158 18.571,0 -0.424,-2.581 -0.628,-5.194 -0.607,-7.81 0.026,-25.159 18.029,-46.704 42.782,-51.2 -3.851,-25.447 -25.724,-44.258 -51.46,-44.258 -25.737,0 -47.609,18.811 -51.46,44.258 24.752,4.496 42.755,26.041 42.781,51.2 z"
   id="path30" />
		<path
   style="fill:#7f6e5d;stroke-width:2.63211"
   d="m 247.322,355.797 c 0.02,2.616 -0.183,5.229 -0.607,7.81 6.136,1.158 12.435,1.158 18.571,0 -0.424,-2.581 -0.628,-5.194 -0.607,-7.81 0.026,-25.159 18.029,-46.704 42.782,-51.2 -3.851,-25.447 -25.724,-44.258 -51.46,-44.258 -25.736,0 -47.609,18.811 -51.46,44.258 24.752,4.496 42.755,26.041 42.781,51.2 z"
   id="path32" />
	</g>
	<g
   id="g40"
   transform="matrix(0.34214346,0,0,0.42187454,-7.3421662,-48.88596)"
   style="stroke-width:2.63211">
		<path
   style="fill:#7f5b53;stroke-width:2.63211"
   d="m 246.715,261.207 c -21.88,3.977 -38.821,21.406 -42.175,43.39 -6.136,-1.157 -12.435,-1.157 -18.571,0 -3.354,-21.984 -20.295,-39.413 -42.175,-43.39 3.851,-25.447 25.724,-44.258 51.46,-44.258 25.736,0 47.609,18.811 51.461,44.258 z"
   id="path36" />
		<path
   style="fill:#7f5b53;stroke-width:2.63211"
   d="m 265.285,261.207 c 21.88,3.977 38.821,21.406 42.175,43.39 6.136,-1.157 12.435,-1.157 18.571,0 3.354,-21.984 20.295,-39.413 42.175,-43.39 -3.851,-25.447 -25.724,-44.258 -51.46,-44.258 -25.736,0 -47.609,18.811 -51.461,44.258 z"
   id="path38" />
	</g>
	<path
   style="fill:#59474e;stroke-width:1"
   d="m 62.639858,43.005488 c 7.4861,1.677794 13.282351,9.030646 14.429901,18.305135 2.099392,-0.488109 4.254554,-0.488109 6.353946,0 1.147549,-9.274489 6.943802,-16.627341 14.4299,-18.305135 -1.317593,-10.735441 -8.801298,-18.671324 -17.606701,-18.671324 -8.805405,0 -16.289452,7.935883 -17.607046,18.671324 z"
   id="path42" />
</g>
<g
   id="g46">
</g>
<g
   id="g48">
</g>
<g
   id="g50">
</g>
<g
   id="g52">
</g>
<g
   id="g54">
</g>
<g
   id="g56">
</g>
<g
   id="g58">
</g>
<g
   id="g60">
</g>
<g
   id="g62">
</g>
<g
   id="g64">
</g>
<g
   id="g66">
</g>
<g
   id="g68">
</g>
<g
   id="g70">
</g>
<g
   id="g72">
</g>
<g
   id="g74">
</g>
</svg>
