<?xml version="1.0" encoding="UTF-8" standalone="no"?>
<svg
   xmlns:dc="http://purl.org/dc/elements/1.1/"
   xmlns:cc="http://creativecommons.org/ns#"
   xmlns:rdf="http://www.w3.org/1999/02/22-rdf-syntax-ns#"
   xmlns:svg="http://www.w3.org/2000/svg"
   xmlns="http://www.w3.org/2000/svg"
   xmlns:sodipodi="http://sodipodi.sourceforge.net/DTD/sodipodi-0.dtd"
   xmlns:inkscape="http://www.inkscape.org/namespaces/inkscape"
   version="1.1"
   id="Capa_1"
   x="0px"
   y="0px"
   viewBox="0 0 160 170"
   xml:space="preserve"
   sodipodi:docname="anchor.svg"
   width="160"
   height="170"
   inkscape:version="1.0.2 (e86c870879, 2021-01-15, custom)"><metadata
   id="metadata55"><rdf:RDF><cc:Work
       rdf:about=""><dc:format>image/svg+xml</dc:format><dc:type
         rdf:resource="http://purl.org/dc/dcmitype/StillImage" /><dc:title></dc:title></cc:Work></rdf:RDF></metadata><defs
   id="defs53" /><sodipodi:namedview
   pagecolor="#ffffff"
   bordercolor="#666666"
   borderopacity="1"
   objecttolerance="10"
   gridtolerance="10"
   guidetolerance="10"
   inkscape:pageopacity="0"
   inkscape:pageshadow="2"
   inkscape:window-width="1920"
   inkscape:window-height="1017"
   id="namedview51"
   showgrid="false"
   inkscape:zoom="2.3478155"
   inkscape:cx="36.929603"
   inkscape:cy="68.267645"
   inkscape:window-x="-8"
   inkscape:window-y="-8"
   inkscape:window-maximized="1"
   inkscape:current-layer="Capa_1" />
<path
   style="fill:#97a6ab;stroke-width:1"
   d="m 80.913693,15.333403 c -9.090286,0 -16.459984,7.622624 -16.459984,17.026165 0,9.402966 7.36915,17.026166 16.459984,17.026166 9.09084,0 16.45998,-7.622624 16.45998,-17.026166 -2.8e-4,-9.403541 -7.3697,-17.026165 -16.45998,-17.026165 z m 0,24.065426 c -3.758653,0 -6.805738,-3.151895 -6.805738,-7.039837 0,-3.887941 3.047085,-7.039836 6.805738,-7.039836 3.75865,0 6.80574,3.151895 6.80574,7.039836 0,3.887942 -3.04737,7.039837 -6.80574,7.039837 z"
   id="path2" />
<path
   style="fill:#738184;stroke-width:1"
   d="m 68.275582,32.359568 c 0,-8.734329 6.359299,-15.928001 14.548901,-16.908052 -0.62746,-0.07519 -1.26439,-0.118113 -1.91079,-0.118113 -9.090286,0 -16.459984,7.622624 -16.459984,17.026165 0,9.402966 7.36915,17.026166 16.459984,17.026166 0.64668,0 1.28361,-0.04292 1.91079,-0.118113 C 74.634881,48.287569 68.275582,41.093609 68.275582,32.359568 Z"
   id="path4" />
<path
   style="fill:#97a6ab;stroke-width:1"
   d="m 131.22495,129.93722 -4.67186,-4.83256 c 0,0 -8.26453,18.24101 -31.464507,26.63771 -5.8037,2.09233 -11.58678,6.17963 -14.16515,11.08823 -2.575578,-4.9086 -8.382051,-8.9959 -14.188798,-11.08823 -23.173537,-8.3967 -31.461457,-26.63771 -31.461457,-26.63771 l -4.67186,4.83256 c -9.637537,-18.6881 3.924919,-36.755678 3.924919,-36.755678 0,21.182018 16.864089,24.919578 16.864089,24.919578 l -8.432183,2.16839 c 1.59052,4.21203 4.504202,7.7491 7.926425,10.66533 9.058255,7.7491 22.788375,0.87289 22.788375,-11.28902 V 68.115899 h 14.50323 v 51.529921 c 0,12.16163 13.730117,19.03783 22.788367,11.28902 2.96353,-2.5181 5.5419,-5.53201 7.20315,-8.9959 0.26458,-0.54735 0.50576,-1.09788 0.72327,-1.64523 l -8.43218,-2.19259 c 0,0 16.86409,-3.73756 16.86409,-24.919578 0,0 0,0 0.003,0.0031 0.24453,0.328412 13.44828,18.237838 3.89902,36.752508 z"
   id="path6" />
<path
   style="fill:#738184;stroke-width:1"
   d="m 78.487669,70.10193 v 70.25144 c 0,1.79878 -1.572696,3.15621 -3.284086,2.83731 -5.940992,-1.10566 -18.403926,-4.29529 -24.320128,-12.25612 9.058254,7.74909 22.788369,0.87289 22.788369,-11.28903 V 68.115899 h 2.44329 z"
   id="path8" />
<path
   style="fill:#cc7d0a;stroke-width:1"
   d="m 106.39488,51.404894 c -16.681097,-4.720207 -34.281267,-4.720207 -50.962385,0 0,5.063601 0,10.127201 0,15.190802 16.681118,4.720208 34.281288,4.720208 50.962385,0 0,-5.063601 0,-10.127201 0,-15.190802 z"
   id="path10" />
<path
   style="fill:#ad6405;stroke-width:1"
   d="m 55.432495,60.209515 c 0,2.128919 0,4.257262 0,6.386181 16.681118,4.720208 34.281288,4.720208 50.962385,0 0,-2.128919 0,-4.257262 0,-6.386181 -16.681097,4.720496 -34.281547,4.720496 -50.962385,0 z"
   id="path12" />
<g
   id="g18"
   transform="matrix(0.2785013,0,0,0.28808104,9.6181942,15.333403)"
   style="stroke-width:3.53044">
	<path
   style="fill:#738184;stroke-width:3.53044"
   d="m 96.506,379.086 -4.393,1.957 -16.775,16.775 C 40.733,332.947 89.431,270.229 89.431,270.229 c 0,0 -16.248,51.963 11.435,94.329 3.348,5.124 1.23,12.037 -4.36,14.528 z"
   id="path14" />
	<path
   style="fill:#738184;stroke-width:3.53044"
   d="m 394.503,365.034 -2.142,-0.691 -30.277,-7.611 c 0,0 60.553,-12.974 60.553,-86.502 0,0 0,0 0.011,0.011 0.372,1.001 20.388,54.184 -6.429,88.265 -5.127,6.515 -13.825,9.074 -21.716,6.528 z"
   id="path16" />
</g>
<g
   id="g20">
</g>
<g
   id="g22">
</g>
<g
   id="g24">
</g>
<g
   id="g26">
</g>
<g
   id="g28">
</g>
<g
   id="g30">
</g>
<g
   id="g32">
</g>
<g
   id="g34">
</g>
<g
   id="g36">
</g>
<g
   id="g38">
</g>
<g
   id="g40">
</g>
<g
   id="g42">
</g>
<g
   id="g44">
</g>
<g
   id="g46">
</g>
<g
   id="g48">
</g>
</svg>
