<?xml version="1.0" encoding="UTF-8" standalone="no"?>
<svg
   xmlns:dc="http://purl.org/dc/elements/1.1/"
   xmlns:cc="http://creativecommons.org/ns#"
   xmlns:rdf="http://www.w3.org/1999/02/22-rdf-syntax-ns#"
   xmlns:svg="http://www.w3.org/2000/svg"
   xmlns="http://www.w3.org/2000/svg"
   xmlns:sodipodi="http://sodipodi.sourceforge.net/DTD/sodipodi-0.dtd"
   xmlns:inkscape="http://www.inkscape.org/namespaces/inkscape"
   id="Capa_1"
   enable-background="new 0 0 512 512"
   height="170"
   viewBox="0 0 160 170"
   width="160"
   version="1.1"
   sodipodi:docname="poverty.svg"
   inkscape:version="1.0.2 (e86c870879, 2021-01-15, custom)">
  <metadata
     id="metadata33">
    <rdf:RDF>
      <cc:Work
         rdf:about="">
        <dc:format>image/svg+xml</dc:format>
        <dc:type
           rdf:resource="http://purl.org/dc/dcmitype/StillImage" />
        <dc:title></dc:title>
      </cc:Work>
    </rdf:RDF>
  </metadata>
  <defs
     id="defs31" />
  <sodipodi:namedview
     pagecolor="#ffffff"
     bordercolor="#666666"
     borderopacity="1"
     objecttolerance="10"
     gridtolerance="10"
     guidetolerance="10"
     inkscape:pageopacity="0"
     inkscape:pageshadow="2"
     inkscape:window-width="1920"
     inkscape:window-height="1017"
     id="namedview29"
     showgrid="false"
     inkscape:zoom="2.3478155"
     inkscape:cx="75.047549"
     inkscape:cy="57.487352"
     inkscape:window-x="-8"
     inkscape:window-y="-8"
     inkscape:window-maximized="1"
     inkscape:current-layer="Capa_1" />
  <g
     id="g26"
     transform="matrix(0.27377323,0,0,0.28935718,12.892598,19.177001)"
     style="stroke-width:3.55294">
    <path
       d="m 119.33194,408.92491 -87.376291,58.70395 c -6.792147,4.56426 -3.465024,14.90288 4.797427,14.90288 h 48.868688 l 68.653706,-59.3646 z"
       fill="#f4aa73"
       id="path2"
       style="stroke-width:12.6655" />
    <path
       d="m 308.81088,380.07008 -72.02064,-52.1728 -157.531379,16.20063 c -14.082487,37.35568 14.413646,76.91951 55.401539,76.91951 l 2.53079,1.38163 -51.569426,60.13269 H 293.84854 c 29.28567,0 53.02614,-23.03995 53.02614,-51.45937 0,-22.8279 -15.49647,-44.56162 -38.0638,-51.00229 z"
       fill="#d48c64"
       id="path4"
       style="stroke-width:12.6655" />
    <path
       d="M 262.6002,408.92491 H 129.44636 c -13.04629,0 -25.89057,-5.10051 -34.121946,-14.92267 -9.16561,-10.93707 -11.823618,-24.8353 -7.642864,-37.95225 l -18.273924,4.81118 c -4.437134,33.17312 22.050684,64.42082 58.476164,64.42082 H 262.6002 c 4.65467,0 8.42755,-3.6614 8.42755,-8.17854 0,-4.51714 -3.77385,-8.17854 -8.42755,-8.17854 z"
       fill="#c6805d"
       id="path6"
       style="stroke-width:12.6655" />
    <path
       d="m 273.1895,314.52022 c -6.40952,-2.26187 -10.78255,-8.04942 -11.07875,-14.66162 l -7.01163,-156.52123 c -0.56423,-12.57598 -8.66741,-23.66479 -20.71051,-28.34026 -19.48882,-7.565 -40.40521,-5.6754 -57.43219,3.36547 l -20.7814,25.70424 -81.312506,204.38707 12.039211,10.27736 125.133205,-15.23462 114.41766,24.4046 28.41359,-7.37086 -13.54448,-21.96744 z"
       fill="#a46a5a"
       id="path8"
       style="stroke-width:12.6655" />
    <path
       d="m 69.407626,360.86117 17.493128,-2.12992 c 0.3836,-1.64834 0.838093,-3.23824 1.412036,-4.75935 l 88.64169,-235.60932 c -13.80474,7.33694 -25.07384,19.38986 -30.92204,34.90345 L 72.482253,348.36247 c -1.567419,4.15901 -2.528846,8.34158 -3.082396,12.49776 z"
       fill="#845252"
       id="path10"
       style="stroke-width:12.6655" />
    <path
       d="M 234.46145,343.01786 C 224.84232,340.4252 217.69473,332.585 216.21375,323.00505 L 196.24033,193.76571 c -0.69048,-4.46625 -4.98097,-7.54427 -9.58417,-6.87325 -4.60126,0.67008 -7.77203,4.8338 -7.08155,9.30004 l 19.97827,129.24971 c 2.4667,15.95748 14.37286,29.01599 30.39374,33.33427 l 88.97576,23.98522 40.89078,-5.95436 z"
       fill="#845252"
       id="path12"
       style="stroke-width:12.6655" />
    <path
       d="m 462.11489,310.78342 h -82.40212 c -5.59861,0 -9.64146,5.20041 -8.10318,10.42533 l 8.54699,29.02918 60.13488,11.82863 20.91056,-10.39705 c 0.17092,-0.47028 0.32825,-0.94716 0.47003,-1.43158 l 8.547,-29.02918 c 1.53731,-5.22492 -2.50554,-10.42533 -8.10416,-10.42533 z"
       fill="#ffeac6"
       id="path14"
       style="stroke-width:12.6655" />
    <path
       d="m 410.82321,351.6761 c -11.28755,0 -21.2087,-7.26248 -24.30955,-17.79524 l -6.80089,-23.09744 h -21.66514 c -5.59861,0 -9.64147,5.20041 -8.10318,10.42533 l 8.54699,29.02918 c 3.10085,10.53277 13.02104,17.79525 24.30956,17.79525 h 54.5615 c 10.75245,0 20.28127,-6.63387 23.83952,-16.36367 z"
       fill="#fcdbb2"
       id="path16"
       style="stroke-width:12.6655" />
    <path
       d="m 295.48685,15.558821 h -39.66908 l -35.35529,41.690931 c 0,27.100942 22.63919,49.071218 50.56527,49.071218 h 8.42754 c 18.61771,0 33.71018,-14.646537 33.71018,-32.714146 v -40.89268 c -9.7e-4,-9.474398 -7.91478,-17.155323 -17.67862,-17.155323 z"
       fill="#ffd18d"
       id="path18"
       style="stroke-width:12.6655" />
    <path
       d="m 418.74091,365.8844 -77.42018,-27.32147 -14.86911,29.3383 16.0743,16.57855 50.64587,1.40613 24.19593,-4.26928 c 8.4625,-1.49283 9.45501,-12.88039 1.37319,-15.73223 z"
       fill="#ffd18d"
       id="path20"
       style="stroke-width:12.6655" />
    <path
       d="m 326.45259,367.90123 -7.53118,14.85859 12.17614,3.28253 c 15.93057,4.29473 32.65455,5.03454 48.92113,2.16386 l 13.15408,-2.32124 z"
       fill="#fbbd80"
       id="path22"
       style="stroke-width:12.6655" />
    <path
       d="M 281.49954,32.714144 H 313.1645 V 17.155323 C 313.1645,7.6809251 305.25069,0 295.48685,0 H 255.8168 c -19.5267,0 -35.35529,15.36185 -35.35529,34.310645 v 22.939107 h 14.80987 c 6.70571,0 13.13562,-2.585126 17.8777,-7.186142 l 10.47276,-10.163325 c 4.74207,-4.601015 11.17198,-7.186141 17.8777,-7.186141 z"
       fill="#a46a5a"
       id="path24"
       style="stroke-width:12.6655" />
  </g>
</svg>
