<?xml version="1.0" encoding="UTF-8" standalone="no"?>
<svg
   xmlns:dc="http://purl.org/dc/elements/1.1/"
   xmlns:cc="http://creativecommons.org/ns#"
   xmlns:rdf="http://www.w3.org/1999/02/22-rdf-syntax-ns#"
   xmlns:svg="http://www.w3.org/2000/svg"
   xmlns="http://www.w3.org/2000/svg"
   xmlns:sodipodi="http://sodipodi.sourceforge.net/DTD/sodipodi-0.dtd"
   xmlns:inkscape="http://www.inkscape.org/namespaces/inkscape"
   width="160"
   height="170"
   viewBox="0 0 160 170"
   version="1.1"
   id="1svg8"
   sodipodi:docname="region.svg"
   inkscape:version="1.0.2 (e86c870879, 2021-01-15, custom)">
  <metadata
     id="metadata9">
    <rdf:RDF>
      <cc:Work
         rdf:about="">
        <dc:format>image/svg+xml</dc:format>
        <dc:type
           rdf:resource="http://purl.org/dc/dcmitype/StillImage" />
        <dc:title></dc:title>
      </cc:Work>
    </rdf:RDF>
  </metadata>
  <defs
     id="defs7" />
  <sodipodi:namedview
     pagecolor="#ffffff"
     bordercolor="#666666"
     borderopacity="1"
     objecttolerance="10"
     gridtolerance="10"
     guidetolerance="10"
     inkscape:pageopacity="0"
     inkscape:pageshadow="2"
     inkscape:window-width="1920"
     inkscape:window-height="1017"
     id="namedview5"
     showgrid="false"
     inkscape:zoom="2.2368421"
     inkscape:cx="77.124647"
     inkscape:cy="135.19243"
     inkscape:window-x="-8"
     inkscape:window-y="-8"
     inkscape:window-maximized="1"
     inkscape:current-layer="1svg8" />
  <g
     id="Море"
     style="stroke-width:0.017883;stroke-miterlimit:4;stroke-dasharray:none;fill:#5c8b26;fill-opacity:1"
     transform="matrix(10.998886,-0.73808719,0.80386675,10.098859,-1857.0038,-44.986233)">
    <path
       fill="#c2c2c2"
       d="m 176.92952,18.499582 c 0.0117,-0.08185 0.0234,-0.292326 0.0351,-0.339098 0.0117,-0.04677 0.0351,-0.339099 0.0351,-0.339099 l 0.0468,-0.11693 h 0.37417 c 0.11693,0 0.23386,-0.07016 0.26894,0.03508 0.0351,0.105237 0.0117,0.105237 0.0351,0.245554 0.0234,0.140316 0.11693,0.280633 0.11693,0.280633 0,0 0,0.04677 0.15201,0.04677 0.15201,0 0.32741,-0.02339 0.5028,0 0.1754,0.02339 0.28064,-0.01169 0.38587,0.02339 0.10524,0.03508 0.26894,0.09354 0.31572,0.11693 0.0468,0.02339 -0.0585,-0.01169 0.11693,0.03508 0.17539,0.04677 0.26894,0.07016 0.3274,0.116931 0.0585,0.04677 0.0702,0.08185 0.19878,0.128623 0.12863,0.04677 0.25725,0.07016 0.32741,0.105238 0.0702,0.03508 0.0585,0.01169 0.1637,0.03508 0.10524,0.02339 0.25725,0.128623 0.25725,0.128623 0,0 0.0234,0.08185 0.0234,0.163703 0,0.08185 -0.0702,0.105237 0.0819,0.292326 0.15201,0.187088 0.25725,0.245554 0.31571,0.374177 0.0585,0.128624 0.1637,0.38587 0.1637,0.38587 0,0 0.16371,0.04677 -0.0117,0.245554 -0.1754,0.198782 -0.21047,0.222168 -0.23386,0.26894 -0.0234,0.04677 -0.0468,0.105238 -0.0468,0.175396 0,0.07016 0.0117,0.140316 0.0351,0.304019 0.0234,0.163703 0.0234,0.175396 0.0234,0.304019 0,0.128624 0.0234,0.245554 0.0117,0.350791 -0.0117,0.105238 -0.0819,0.233861 -0.12862,0.339099 -0.0468,0.105237 -0.10524,0.210474 -0.12863,0.257247 -0.0234,0.04677 -0.0468,0 0,0.140316 0.0468,0.140316 -0.11693,0.128623 0.0702,0.210475 0.18709,0.08185 0.24556,0.152009 0.24556,0.152009 0,0 0.11693,0.15201 0.12862,0.210475 0.0117,0.05847 0.0351,0.198782 0.0702,0.292326 0.0351,0.09354 -0.0468,0.315712 -0.0468,0.315712 l -0.0403,0.316478 -0.33073,0.04961 -0.0827,0.165365 -0.62838,0.165365 -0.28595,0.03984 -0.11108,0.01169 -0.54373,-0.0058 -0.33255,0.119673 -0.32226,0.336356 -0.50456,0.209347 -0.42995,0.03307 -0.0992,0.03307 -0.16481,-0.123484 -0.0935,-0.076 c 0,0 -0.0468,-0.13447 -0.0468,-0.163702 0,-0.02923 -0.006,-0.111084 -0.0175,-0.175396 -0.0117,-0.06431 -0.0526,-0.11693 -0.0585,-0.192935 -0.006,-0.07601 -0.0117,-0.111084 -0.006,-0.245554 0.006,-0.13447 0.0117,-0.233861 0.0117,-0.233861 0,0 0.0234,-0.076 0.0935,-0.11693 0.0702,-0.04093 0.076,-0.03508 0.20463,-0.11693 0.12862,-0.08185 0.23386,-0.257247 0.23386,-0.257247 0,0 0.0877,-0.0877 0.12277,-0.04677 0.0351,0.04093 0.0702,-0.01169 0.11694,0.09354 0.0468,0.105237 0.0234,0.11693 0.0994,0.210475 0.076,0.09354 0.14031,0.140316 0.18124,0.146163 0.0409,0.0058 0.0643,0.02923 0.13447,0.0058 0.0702,-0.02339 0.14032,-0.0877 0.15201,-0.122777 0.0117,-0.03508 -0.0117,-0.08185 0.0819,-0.08185 h 0.18709 c 0.0234,0 0.0468,-0.0877 0.0643,-0.140317 0.0175,-0.05262 -0.0234,-0.175396 -0.0585,-0.175396 -0.0351,0 -0.0936,-0.04093 -0.0936,-0.04093 0,0 -0.0292,-0.076 -0.0292,-0.105238 V 23.165107 22.9254 l 0.0877,-0.105237 -0.0877,-0.08185 -0.0526,-0.02923 c 0,0 -0.0643,-0.02923 -0.16371,-0.02923 -0.0994,0 -0.152,0.01169 -0.21047,0.01169 -0.0585,0 -0.10524,0.02923 -0.12862,0 -0.0234,-0.02923 -0.0877,-0.216321 -0.16371,-0.257247 -0.076,-0.04093 -0.2514,-0.415103 -0.2514,-0.415103 0,0 0,-0.04093 -0.0468,-0.175395 -0.0468,-0.13447 -0.0526,-0.175396 -0.11693,-0.257247 -0.0643,-0.08185 -0.0994,-0.122777 -0.13447,-0.198782 -0.0351,-0.07601 -0.0643,-0.07601 -0.0526,-0.163703 0.0117,-0.0877 0.0351,-0.321558 0.0175,-0.36833 -0.0175,-0.04677 -0.0819,-0.122777 -0.19878,-0.13447 -0.11693,-0.01169 -0.31571,-0.02923 -0.45603,-0.02923 -0.14031,0 -0.34494,-0.08185 -0.38002,-0.09939 -0.0351,-0.01754 -0.0526,-0.01754 -0.0935,-0.07016 -0.0409,-0.05262 -0.10524,-0.11693 -0.076,-0.192935 0.0292,-0.076 0.0643,-0.15201 0.10524,-0.198782 0.0409,-0.04677 0.14616,-0.128623 0.15201,-0.181242 0.006,-0.05262 -0.0292,-0.163703 0.0117,-0.233861 0.0409,-0.07016 0.0585,-0.13447 0.0877,-0.192935 0.0292,-0.05847 0.0351,-0.09939 0.076,-0.157856 0.0409,-0.05847 0.14617,-0.198782 0.14617,-0.198782 l 0.13447,-0.157856 0.066,-0.176791 0.045,-0.191541 c 0,0 0.0351,-0.05846 0.0468,-0.140316 z m -0.64537,0.598881 c -0.0149,0.03753 -0.0462,0.110319 -0.0817,0.157678 -0.0496,0.06615 -0.13229,0.115756 -0.14056,0.214974 -0.008,0.09922 0.0653,0.101053 0.0653,0.233345 0,0.132292 -0.0322,0.229676 -0.0818,0.295822 -0.0496,0.06615 -0.0496,0.08268 -0.2067,0.264583 -0.1571,0.181901 -0.26459,0.314193 -0.30593,0.347266 -0.0413,0.03307 -0.11575,0.115755 -0.14883,0.173633 -0.0331,0.05788 -0.0413,0.07441 -0.0661,0.214974 -0.0248,0.14056 -0.0121,0.264583 -0.0121,0.347265 0,0.08268 0.13613,0.322461 0.13613,0.322461 0,0 0.0744,0.107487 0.0744,0.19017 0,0.08268 -0.008,0.190169 -0.0248,0.264583 -0.0165,0.07441 0.0181,0.132292 -0.048,0.223242 -0.0661,0.09095 -0.12261,0.28112 -0.12261,0.322461 2e-5,0.04134 -0.0609,0.173633 -0.0609,0.173633 0,0 0,0.04134 0.0165,0.09095 0.0165,0.04961 0.13229,0.148829 0.13229,0.181901 0,0.03307 0.10748,0.181901 0.0413,0.248047 -0.0661,0.06615 -0.0992,0.148828 -0.24805,0.181901 -0.14883,0.03307 -0.16536,0.04134 -0.26458,0.107487 -0.0992,0.06615 -0.20671,0.107487 -0.26458,0.173633 -0.0579,0.06615 -0.0579,0.107487 -0.12403,0.132292 -0.0661,0.0248 -0.23151,0.148828 -0.28112,0.198437 -0.0496,0.04961 -0.11575,0.107487 -0.14056,0.14056 -0.0248,0.03307 -0.0909,0.231511 -0.10748,0.289388 -0.0165,0.05788 -0.0165,0.07441 -0.008,0.157097 0.008,0.08268 0.0413,0.190169 0.0744,0.248046 0.0331,0.05788 0.11576,0.107487 0.17364,0.14056 0.0579,0.03307 0.17363,0.04961 0.17363,0.04961 l 0.12402,-0.0083 c 0,0 0.0496,-0.107486 0.0165,-0.165364 -0.0331,-0.05788 -0.0579,-0.05788 -0.14056,-0.157096 -0.0827,-0.09922 -0.0827,-0.04961 -0.0827,-0.124024 0,-0.07441 -0.11192,-0.116758 -0.0375,-0.19944 0.0744,-0.08268 0.14499,-0.156094 0.1946,-0.189167 0.0496,-0.03307 0.0496,-0.05788 0.0992,-0.07441 0.0496,-0.01654 0.0579,-0.03307 0.091,-0.07441 0.0331,-0.04134 0.11575,-0.115755 0.11575,-0.115755 0,0 0.0331,-0.09922 0.11576,-0.124023 0.0827,-0.02481 0.40514,-0.248047 0.40514,-0.248047 0,0 0.0661,-0.0083 0.13229,-0.09095 0.0661,-0.08268 0.28112,-0.248047 0.28112,-0.248047 0,0 0.008,-0.223242 -0.0165,-0.272851 -0.0248,-0.04961 -0.008,-0.03307 -0.0579,-0.115755 -0.0496,-0.08268 -0.091,-0.165365 -0.091,-0.206706 0,-0.04134 -0.0165,-0.04961 0,-0.09095 0.0165,-0.04134 0.0165,-0.06615 0.0579,-0.148828 0.0413,-0.08268 0.0496,-0.08268 0.0661,-0.173633 0.0165,-0.09095 0.008,-0.173632 0.0413,-0.248047 0.0331,-0.07441 0.0331,-0.09922 0.0413,-0.198437 0.008,-0.09922 0.005,-0.121602 -0.0444,-0.22082 -0.0496,-0.09922 0.003,-0.109909 -0.0135,-0.20086 -0.0165,-0.09095 -0.0915,-0.07441 -0.10807,-0.173632 -0.0165,-0.09922 -0.0321,-0.209128 -0.0321,-0.209128 l 0.0161,-0.171211 0.0496,-0.148828 0.16536,-0.157097 c 0,0 0.0331,0.0083 0.10749,0.04961 0.0744,0.04134 0.20671,0.107487 0.27285,0.132292 0.0661,0.0248 0.10749,0.04961 0.19844,0.07441 0.0909,0.0248 0.19017,0.01654 0.28112,0.0248 0.091,0.0083 0.22324,0.0248 0.22324,0.0248 0,0 0.0744,0.05788 0.0827,0.132292 0.008,0.07441 0.0248,0.132291 0.0331,0.272851 0.008,0.14056 0.0292,0.145404 0.0623,0.261159 0.0331,0.115755 0.1115,0.161352 0.15284,0.227498 0.0413,0.06615 5.3e-4,0.074 0.0831,0.231095 0.0827,0.157096 0.0661,0.138138 0.0992,0.196015 0.0331,0.05788 0.0355,0.106069 0.0272,0.221824 -0.008,0.115755 0.17021,0.02823 -0.02,0.201862 -0.19016,0.173633 -0.3055,0.223242 -0.3055,0.223242 l -0.29766,0.173633 -0.0909,0.14056 c 0,0 0.0522,0.280117 0.0522,0.362799 0,0.08268 0.006,0.29866 0.006,0.29866 0,0 0.0661,0.0248 0.0248,0.165364 -0.0413,0.14056 -0.0579,0.289388 -0.0744,0.355534 -0.0165,0.06615 -0.0661,0.0248 -0.0248,0.190169 0.0413,0.165365 0.12402,0.314193 0.12402,0.380339 0,0.06615 -0.0248,0.09922 0.0248,0.14056 0.0496,0.04134 0.1819,0.173632 0.1819,0.173632 l 0.091,0.181901 0.0744,0.173633 c 0,0 0.008,0.272852 0,0.314193 -0.008,0.04134 -0.0331,0.107487 -0.0413,0.190169 -0.008,0.08268 0.0579,0.14056 -0.0248,0.305925 -0.0827,0.165364 -0.0744,0.198437 -0.11576,0.28112 -0.0413,0.08268 -0.0413,0.107486 -0.0662,0.206705 -0.0248,0.09922 -0.0165,0.190169 -0.0413,0.305924 -0.0248,0.115755 -0.0661,0.28112 -0.091,0.347266 -0.0248,0.06615 -0.0579,0.124023 -0.0744,0.181901 -0.0165,0.05788 -0.0331,0.157096 -0.0331,0.206706 0,0.04961 0.0661,0.157096 0.0909,0.190169 0.0248,0.03307 0.0661,-0.02482 0.0827,0.107487 0.0165,0.132292 0.0248,0.23151 0.0248,0.305924 0,0.07441 0.008,0.115756 0,0.19017 -0.008,0.07441 -0.008,0.214974 -0.0165,0.264583 -0.008,0.04961 -0.0165,0.165365 -0.0165,0.165365 0,0 -0.0165,0.07441 -0.008,0.124023 0.008,0.04961 0.0827,0.23151 0.0827,0.23151 l 0.0579,0.148828 0.0827,0.157097 -0.15296,0.214974 -0.0827,0.177768 -0.14056,0.128156 c 0,0 -0.10199,-0.02299 -0.12538,-0.02299 -0.0234,0 -0.21632,0.01169 -0.21632,0.03508 0,0.02339 -0.0117,0.0877 0,0.146161 0.0117,0.05847 0.0351,0.16955 0.0409,0.198784 0.006,0.02923 -0.0117,0.076 0.0175,0.140317 0.0292,0.06431 0.0351,0.134469 0.0234,0.187087 -0.0117,0.05262 -0.006,0.239707 -0.0175,0.268941 -0.0117,0.02923 -0.006,0.09939 -0.0351,0.169547 -0.0292,0.07016 -0.0351,0.122778 -0.0409,0.181243 -0.006,0.05846 0.0117,0.152011 -0.0351,0.187089 -0.0468,0.03508 -0.0351,0.02923 -0.0702,0.07016 -0.0351,0.04092 -0.1637,0.11693 -0.18709,0.152008 -0.0234,0.03508 0,0.07016 -0.0351,0.111083 -0.0351,0.04093 -0.0234,0.05262 -0.10523,0.116932 -0.0819,0.06431 -0.19294,0.09939 -0.21633,0.09939 -0.0234,0 -0.0526,0.0058 -0.14031,0.0058 -0.0877,0 -0.14032,0.0058 -0.22217,0.01169 -0.0819,0.0058 -0.19878,0.02339 -0.22217,0.02339 -0.0234,0 -0.19878,0.01754 -0.19878,0.01754 l -10e-6,-1.6e-5 -0.1754,0.03508 c 0,0 -0.10524,0.07016 -0.15201,0.140316 -0.0468,0.07016 -0.10524,0.128625 -0.10524,0.128625 l -0.1637,0.292324 c 0,0 -0.10524,0.140317 -0.12862,0.18709 -0.0234,0.04677 -0.11693,0.23386 -0.11693,0.23386 l -0.28064,0.175395 -0.26893,0.02339 -0.0468,-0.105238 -0.0117,-0.210473 0.0351,-0.245555 c 0,0 0.0351,-0.07016 -0.0468,-0.07016 -0.0819,0 -0.19879,-0.04677 -0.25725,0 -0.0585,0.04677 -0.12863,0.08185 -0.15201,0.1637 -0.0234,0.08185 -0.1637,0.292328 -0.1637,0.292328 l -0.0936,0.18709 -0.0819,0.08185 -0.18709,0.04677 c 0,0 -0.15786,-0.04677 -0.19293,-0.09354 -0.0351,-0.04677 -0.0877,-0.257246 -0.0877,-0.257246 0,0 -0.0468,-0.233863 -0.0351,-0.280633 0.0117,-0.04677 0.0234,-0.152011 0.0234,-0.152011 v -0.128622 c 0,0 0.0819,0.01169 -0.0351,-0.08185 -0.11693,-0.09355 -0.28063,-0.222168 -0.28063,-0.222168 0,0 -0.10524,0.04677 -0.0935,-0.08185 0.0117,-0.128625 0,-0.30402 0.0234,-0.42095 0.0234,-0.11693 -0.0234,-0.163703 0.0935,-0.222168 0.11693,-0.05847 0.15201,-0.11693 0.15201,-0.11693 0,0 0.0468,-0.105238 0.0468,-0.152011 0,-0.04677 -0.0585,-0.0877 -0.0702,-0.192934 -0.0117,-0.105238 -0.0351,-0.187089 -0.0351,-0.187089 0,0 -0.0351,-0.0877 0,-0.146162 0.0351,-0.05847 0.0585,-0.116932 0.0819,-0.163703 0.0234,-0.04677 0.10524,-0.08185 0.12863,-0.128624 0.0234,-0.04677 0.0468,-0.152008 0.0468,-0.152008 0,0 0.0117,-0.08185 0.0117,-0.163703 0,-0.08185 -0.0585,-0.257247 -0.11693,-0.327406 -0.0585,-0.07016 -0.1637,-0.198782 -0.18709,-0.245555 -0.0234,-0.04677 -0.11693,-0.35079 -0.11693,-0.35079 l -0.14031,-0.280633 c 0,0 -0.0351,-0.09355 -0.12863,-0.11693 -0.0935,-0.02339 0.0117,-0.05847 -0.14031,-0.02339 -0.15201,0.03508 -0.14032,0 -0.19879,0.05847 -0.0585,0.05846 0.0351,0.04677 -0.10523,0.128622 -0.14032,0.08185 -0.29233,0.233863 -0.31571,0.280636 -0.0234,0.04677 0,0.07016 0.0234,0.210473 0.0234,0.140316 -0.0365,0.270481 -0.0175,0.385871 l 0.0585,0.356637 c 0.0132,0.08078 -0.076,0.309867 -0.0877,0.356637 -0.0117,0.04677 0.0643,0.11693 -0.076,0.11693 -0.14031,0 -0.2514,0.03508 -0.29817,0.01169 -0.0468,-0.02339 -0.21047,-0.116933 -0.24555,-0.163703 -0.0351,-0.04677 -0.0468,-0.05262 -0.0935,-0.111086 -0.0468,-0.05846 -0.0351,-0.09939 -0.0468,-0.181239 -0.0117,-0.08185 -0.0351,-0.18709 -0.0351,-0.268941 0,-0.08185 -0.0117,-0.152009 0,-0.292325 0.0117,-0.140317 0.0234,-0.140317 0.0117,-0.268941 -0.0117,-0.128625 -0.0117,-0.18709 -0.0351,-0.280633 -0.0234,-0.09354 -0.0117,-0.105238 -0.0585,-0.198781 -0.0468,-0.09355 -0.0585,-0.152012 -0.0935,-0.210476 -0.0351,-0.05847 0.0935,0.02339 -0.0702,-0.09354 -0.1637,-0.11693 -0.18709,-0.175395 -0.23386,-0.245554 -0.0468,-0.07016 -0.0468,-0.08185 -0.11693,-0.105238 -0.0702,-0.02339 -0.14032,-0.03508 -0.14032,-0.03508 l -0.0702,-0.03508 c 0,0 0.0702,0.03508 -0.0585,-0.01169 -0.12862,-0.04677 -0.22217,-0.08185 -0.22217,-0.08185 0,0 -0.0234,-0.02339 -0.0585,-0.08185 -0.0351,-0.05846 -0.16371,-0.327406 -0.16371,-0.327406 v -0.187089 l -0.0117,-0.210474 c 0,0 -0.0468,-0.152011 0.0468,-0.175395 0.0935,-0.02339 0.10524,-0.02339 0.21048,-0.07016 0.10523,-0.04677 0.18708,-0.08185 0.18708,-0.08185 0,0 0.0117,-0.08185 0.0468,-0.198781 0.0351,-0.11693 0.0351,-0.339098 0.0351,-0.339098 0,0 0.0468,0.02339 -0.0585,-0.04677 -0.10524,-0.07016 -0.19878,-0.23386 -0.19878,-0.23386 l -0.24556,-0.163703 c 0,0 -0.0935,-0.15201 -0.14031,-0.187089 -0.0468,-0.03508 -0.0468,-0.08185 -0.0702,-0.152009 -0.0234,-0.07016 -0.0234,-0.163703 -0.0468,-0.26894 -0.0234,-0.105238 -0.0702,-0.163703 -0.0702,-0.257247 0,-0.09354 -0.0117,-0.292326 -0.0117,-0.292326 0,0 -0.0585,-0.105237 0,-0.105237 h 0.29232 c 0.14032,0 0.16371,0.01169 0.23386,0.01169 h 0.38587 0.35079 l 0.11694,0.02339 0.0935,0.128624 0.11693,0.152009 c 0,0 0.0263,0.04677 0.038,0.09354 0.0117,0.04677 0.0848,0.038 0.0848,0.108161 0,0.07016 -0.0175,0.219245 0.0175,0.301096 0.0351,0.08185 0.0234,0.11693 0.0935,0.163702 0.0702,0.04677 0.1637,0.128624 0.1637,0.128624 l 0.10524,0.04677 0.0702,0.01169 c 0,0 0.0234,0 0.0351,-0.07016 0.0117,-0.07016 0.0234,-0.04677 0.0117,-0.116931 -0.0117,-0.07016 -0.12862,-0.152009 -0.12862,-0.152009 v -0.140317 c 0,0 0.0585,-0.08185 0.15201,-0.04677 0.0935,0.03508 0.12862,0.03508 0.17539,0.07016 0.0468,0.03508 0.14032,0.116931 0.21048,0.15201 0.0702,0.03508 0.10523,0.07016 0.10523,0.11693 v 0.09354 c 0,0.07016 0.0234,0.163701 0.0702,0.163701 0.0468,0 0.0702,-0.04677 0.0702,-0.04677 0,0 0.0935,-0.09354 0.0935,-0.198781 0,-0.105238 -0.0848,-0.08185 -0.10816,-0.210475 -0.0234,-0.128624 -0.0317,-0.171025 -0.1257,-0.178319 -0.0939,-0.0073 0.0899,0.01657 -0.24263,-0.122777 -0.31571,-0.132313 -0.34202,-0.102314 -0.38879,-0.114008 -0.0468,-0.01169 -0.13155,-0.02631 -0.24848,-0.166625 -0.11693,-0.140317 -0.15201,-0.178319 -0.15201,-0.178319 0,0 -0.0848,-0.207552 0.0555,-0.27771 0.14032,-0.07016 0.15786,-0.07308 0.15786,-0.07308 0,0 -0.0819,-0.01169 0.0702,-0.05847 0.152,-0.04677 0.54372,-0.154933 0.54372,-0.154933 0,0 0.006,-0.01169 0.0526,-0.07016 0.0468,-0.05847 0.12863,-0.07893 0.1637,-0.195858 0.0351,-0.116931 0.10524,-0.374178 0.10524,-0.374178 0,0 0.0468,-0.08185 0.10524,-0.152009 0.0585,-0.07016 0.0702,-0.105238 0.19878,-0.233861 0.12862,-0.128623 0.29233,-0.26894 0.29233,-0.26894 0,0 0.12862,-0.140316 0.1637,-0.187088 0.0351,-0.04677 0.23386,-0.128624 0.0351,-0.140317 -0.19878,-0.01169 -0.25725,0.01169 -0.25725,0.01169 0,0 -0.11693,0.128623 -0.21048,0.198782 -0.0935,0.07016 -0.14031,0.03508 -0.18708,0.140316 -0.0468,0.105237 -0.0819,0.257247 -0.11693,0.304019 -0.0351,0.04677 -0.0585,0.08185 -0.0702,0.128624 -0.0117,0.04677 0,0.105237 -0.0585,0.222168 -0.0585,0.11693 -0.0468,0.163702 -0.1637,0.245553 -0.11693,0.08185 -0.10524,0.128624 -0.25725,0.163703 -0.152,0.03508 -0.21047,0.08185 -0.30402,0.11693 -0.0935,0.03508 -0.22216,0.09354 -0.30401,0.116931 -0.0819,0.02339 -0.0994,0.038 -0.18124,0.08477 -0.0819,0.04677 0.0117,0.0877 -0.16371,0.111084 -0.17539,0.02339 -0.31864,0.06724 -0.43557,0.07893 -0.11693,0.01169 -0.19902,-0.0096 -0.3274,-0.01754 l -0.3771,-0.02339 c -0.11671,-0.0072 -0.1754,-0.01169 -0.3274,-0.03508 -0.15202,-0.02339 -0.24556,0.05846 -0.32741,-0.08185 -0.0819,-0.140317 -0.0935,-0.187089 -0.1754,-0.292326 -0.0819,-0.105237 -0.0702,-0.140316 -0.11693,-0.198782 -0.0468,-0.05847 -0.0819,0.02339 -0.0819,-0.187088 0,-0.210475 -0.0819,-0.350792 0,-0.397564 0.0819,-0.04677 0.1754,-0.140316 0.23386,-0.163702 0.0585,-0.02339 0.12862,-0.05847 0.12862,-0.05847 l 0.0468,-0.175395 c 0,0 -0.0468,-0.198782 -0.0585,-0.26894 -0.0117,-0.07016 -0.0935,0.04677 -0.0351,-0.222168 l 0.0585,-0.26894 0.12862,-0.163703 0.23386,-0.140316 c 0,0 0.31572,-0.09354 0.36249,-0.09354 0.0468,0 0.23386,-0.04677 0.23386,-0.04677 l 0.25724,-0.175395 0.0351,-0.210475 0.0117,-0.222168 0.26894,0.03508 c 0,0 -0.10524,0.01169 0.0468,-0.05846 0.15201,-0.07016 0.24556,-0.02339 0.21048,-0.175396 -0.0351,-0.152009 -0.14032,-0.23386 -0.14032,-0.374177 0,-0.140317 0.0585,-0.339098 0.0585,-0.409256 0,-0.07016 0.31571,0.04677 -0.0351,-0.198782 -0.35079,-0.245554 -0.42095,-0.257247 -0.53788,-0.385871 -0.11693,-0.128623 -0.15201,-0.140316 -0.19879,-0.198781 -0.0468,-0.05847 -0.11693,-0.222168 -0.10523,-0.42095 0.0117,-0.198781 0.0117,-0.362484 0.0468,-0.491108 0.0351,-0.128623 0.0819,-0.327405 0.0819,-0.327405 0,0 0,-0.05846 0.0585,-0.09354 0.0585,-0.03508 0.0351,-0.08185 0.18709,-0.198782 0.152,-0.11693 0.1637,-0.175396 0.35079,-0.257247 0.18708,-0.08185 0.51449,-0.23386 0.51449,-0.23386 0,0 -0.0468,-0.08185 0.18709,-0.105238 0.23386,-0.02339 -0.0234,-0.105237 0.31571,-0.02339 0.3391,0.08185 0.37418,0.02339 0.47942,0.140316 0.10523,0.11693 -0.10524,0.128623 0.25724,0.175396 0.36249,0.04677 0.47942,-0.01169 0.47942,-0.01169 0,0 0.0819,-0.105237 0.17539,-0.140316 0.0935,-0.03508 0.26894,-0.116931 0.32741,-0.105238 0.0585,0.01169 -0.19878,0.01169 0.1637,0.04677 0.36249,0.03508 0.32741,0.07016 0.53788,0.03508 0.21048,-0.03508 0.39756,-0.08185 0.39756,-0.08185 0,0 -0.0819,-0.257247 0.19878,-0.01169 0.28064,0.245554 0.14032,0.204628 0.32741,0.228014 0.18709,0.02339 0.32741,0.204629 0.59635,0.216322 0.26894,0.01169 0.33909,0.05846 0.43264,0.01169 0.0935,-0.04677 0.1637,-0.105237 0.19878,-0.15201 0.0351,-0.04677 -0.18709,-0.175395 0.0585,-0.175395 0.24555,0 0.54957,-0.01169 0.54957,-0.01169 0,0 0.0351,-0.07016 0.24555,-0.07016 0.21048,0 0.40926,-0.04677 0.45603,0 0.0468,0.04677 0.10524,0.385871 0.10524,0.385871 l 0.0468,0.233861 c 0,0 0.0117,0.09354 -0.0117,0.187088 -0.0234,0.09354 -0.0117,0.128624 -0.0351,0.187089 -0.0234,0.05846 -0.14031,0.222168 -0.14031,0.222168 0,0 -0.11326,0.279976 -0.11918,0.294862 z"
       id="region"
       style="stroke-width:0.00169228;fill:#5c8b26;fill-opacity:1" />
  </g>
</svg>
