<?xml version="1.0" encoding="UTF-8" standalone="no"?>
<svg
   xmlns:dc="http://purl.org/dc/elements/1.1/"
   xmlns:cc="http://creativecommons.org/ns#"
   xmlns:rdf="http://www.w3.org/1999/02/22-rdf-syntax-ns#"
   xmlns:svg="http://www.w3.org/2000/svg"
   xmlns="http://www.w3.org/2000/svg"
   xmlns:sodipodi="http://sodipodi.sourceforge.net/DTD/sodipodi-0.dtd"
   xmlns:inkscape="http://www.inkscape.org/namespaces/inkscape"
   id="Capa_1"
   enable-background="new 0 0 512 512"
   height="170"
   viewBox="0 0 160 170"
   width="160"
   version="1.1"
   sodipodi:docname="road.svg"
   inkscape:version="1.0.2 (e86c870879, 2021-01-15, custom)">
  <metadata
     id="metadata49">
    <rdf:RDF>
      <cc:Work
         rdf:about="">
        <dc:format>image/svg+xml</dc:format>
        <dc:type
           rdf:resource="http://purl.org/dc/dcmitype/StillImage" />
        <dc:title></dc:title>
      </cc:Work>
    </rdf:RDF>
  </metadata>
  <defs
     id="defs47" />
  <sodipodi:namedview
     pagecolor="#ffffff"
     bordercolor="#666666"
     borderopacity="1"
     objecttolerance="10"
     gridtolerance="10"
     guidetolerance="10"
     inkscape:pageopacity="0"
     inkscape:pageshadow="2"
     inkscape:window-width="1920"
     inkscape:window-height="1017"
     id="namedview45"
     showgrid="false"
     inkscape:zoom="2.3478155"
     inkscape:cx="11.451799"
     inkscape:cy="74.418147"
     inkscape:window-x="-8"
     inkscape:window-y="-8"
     inkscape:window-maximized="1"
     inkscape:current-layer="g42" />
  <g
     id="g42"
     transform="matrix(0.21877698,0,0,0.26294517,16.205545,28.111238)"
     style="stroke-width:4.16933">
    <g
       id="g14"
       style="stroke-width:3.97597"
       transform="matrix(1.0758061,0,0,1.0221462,20.504217,-8.0991761)">
      <path
         d="M 344.474,205.677 C 129.764,132.303 274.539,44.403 347.406,9.738 348.401,9.265 348.062,7.774 346.96,7.774 h -51.981 c -8.221,0 -16.344,1.903 -23.862,5.577 C 188.57,53.699 22.13,151.866 156.593,234.195 310.79,328.607 145.478,451.892 58.964,504.774 H 398.203 C 443.571,440.02 537.57,271.666 344.474,205.677 Z"
         fill="#665e68"
         id="path2"
         style="stroke-width:18.699;fill:#946b4e;fill-opacity:1" />
      <path
         d="m 58.965,504.774 h 74.527 C 222.377,443.505 358.417,322.216 213.933,227.941 93.334,149.251 214.781,56.987 300.664,7.774 h -5.686 c -8.221,0 -16.344,1.903 -23.862,5.577 C 188.57,53.699 22.13,151.866 156.593,234.195 310.791,328.607 145.479,451.892 58.965,504.774 Z"
         fill="#554e56"
         id="path4"
         style="stroke-width:18.699;fill:#886043;fill-opacity:1" />
      <path
         d="M 361.652,187.681 C 157.038,124.444 275.096,52.433 350.853,15.34 c 3.539,-1.733 2.412,-7.567 -1.46,-7.567 h -2.815 c -71.264,33.2 -225.994,123.1 -7.104,197.903 193.096,65.988 99.097,234.342 53.73,299.096 h 38.449 c 9.625,0 18.468,-5.837 23.016,-15.2 43.587,-89.746 84.266,-247.1 -93.017,-301.891 z"
         fill="#ffd301"
         id="path6"
         style="stroke-width:18.699;fill:#4b7c3a;fill-opacity:1" />
      <g
         id="g12"
         style="stroke-width:3.97597">
        <g
           id="g10"
           style="stroke-width:3.97597">
          <path
             d="M 158.593,234.195 C 59.18,173.327 122.247,103.801 196.283,55.384 113.457,101.831 18.467,178.17 129.814,246.345 c 130.415,79.851 -6.388,180.353 -106.056,241.449 -7.405,4.539 -4.473,16.98 3.997,16.98 h 33.209 c 86.515,-52.882 251.827,-176.167 97.629,-270.579 z"
             fill="#ffc20c"
             id="path8"
             style="stroke-width:18.699;fill:#4b7c3a;fill-opacity:1" />
        </g>
      </g>
    </g>
    <g
       fill="#050402"
       id="g40"
       style="stroke-width:18.699"
       transform="matrix(1.0758061,0,0,1.0221462,20.504217,-8.0991761)">
      <path
         d="m 285.556,512 h 146.103 c 12.538,0 23.942,-7.443 29.762,-19.424 C 529.396,352.618 513.784,226.573 363.873,180.242 315.613,165.327 257.572,140.957 255.125,109.556 253.169,84.459 286.488,54.934 354.157,21.803 364.824,16.58 361.174,0 349.399,0 333.491,0 311.622,0 294.985,0 285.571,0 276.434,2.133 267.83,6.338 246.88,16.578 219.231,31.19 192.502,48.635 113.088,93.189 72.427,136.347 71.65,176.91 c -0.532,27.768 17.722,53.189 54.254,75.557 33.095,20.263 49.879,42.991 49.885,67.552 C 175.807,385.522 58.42,457.479 19.845,481.125 5.942,489.648 11.793,512 27.761,512 h 222.795 c 4.143,0 7.5,-3.358 7.5,-7.5 0,-4.142 -3.357,-7.5 -7.5,-7.5 H 84.807 C 212.537,413.031 290.88,307.35 160.515,227.524 79.245,177.763 113.052,121.083 191.962,67.029 220.618,47.434 251.573,30.98 274.417,19.814 280.953,16.62 287.873,15 294.985,15 h 19.907 c -39.736,21.44 -98.014,59.608 -95.607,104.691 0.923,17.292 10.719,33.66 29.115,48.65 19.44,15.842 49.269,30.699 88.654,44.159 68.432,23.385 105.827,62.141 111.148,115.191 0.414,4.121 4.085,7.128 8.211,6.714 4.122,-0.413 7.128,-4.089 6.715,-8.211 C 457.169,266.785 416.383,223.757 341.905,198.305 273.002,174.758 235.779,147.297 234.262,118.89 c -0.563,-10.537 3.6,-20.445 9.448,-29.217 -22.402,54.518 59.268,87.448 115.732,104.898 57.001,17.617 95.012,47.537 112.977,88.931 30.329,69.884 -2.326,156.881 -24.491,202.519 -3.289,6.771 -9.523,10.978 -16.27,10.978 h -24.286 c 25.94,-39.387 49.401,-87.489 55.149,-134.139 0.507,-4.111 -2.415,-7.854 -6.526,-8.361 -4.106,-0.498 -7.854,2.415 -8.36,6.526 -2.897,23.501 -14.37,72.127 -58.364,135.974 H 285.556 c -4.143,0 -7.5,3.358 -7.5,7.5 0,4.142 3.358,7.501 7.5,7.501 z M 56.852,497 h -29.09 c -0.086,0 -0.126,-0.009 -0.126,-0.009 h -0.003 c -0.162,-0.09 -0.577,-0.694 -0.6,-1.594 -0.026,-1.067 0.483,-1.38 0.651,-1.483 70.026,-42.926 163.122,-107.655 163.104,-173.898 -0.008,-30.135 -19.203,-57.166 -57.053,-80.341 -48.178,-29.498 -63,-63.713 -27.255,-107.149 -21.254,43.936 1.534,79.343 42.84,105.691 2.987,1.905 3.91,2.404 7.019,4.386 C 278.432,320.424 179.845,421.377 56.852,497 Z"
         id="path38"
         style="stroke-width:3.97597" />
    </g>
  </g>
</svg>
