<?xml version="1.0" encoding="UTF-8" standalone="no"?>
<svg
   xmlns:dc="http://purl.org/dc/elements/1.1/"
   xmlns:cc="http://creativecommons.org/ns#"
   xmlns:rdf="http://www.w3.org/1999/02/22-rdf-syntax-ns#"
   xmlns:svg="http://www.w3.org/2000/svg"
   xmlns="http://www.w3.org/2000/svg"
   xmlns:sodipodi="http://sodipodi.sourceforge.net/DTD/sodipodi-0.dtd"
   xmlns:inkscape="http://www.inkscape.org/namespaces/inkscape"
   version="1.1"
   id="Capa_1"
   x="0px"
   y="0px"
   viewBox="0 0 160 170"
   xml:space="preserve"
   sodipodi:docname="salary.svg"
   width="160"
   height="170"
   inkscape:version="1.0.2 (e86c870879, 2021-01-15, custom)"><metadata
   id="metadata53"><rdf:RDF><cc:Work
       rdf:about=""><dc:format>image/svg+xml</dc:format><dc:type
         rdf:resource="http://purl.org/dc/dcmitype/StillImage" /><dc:title></dc:title></cc:Work></rdf:RDF></metadata><defs
   id="defs51" /><sodipodi:namedview
   pagecolor="#ffffff"
   bordercolor="#666666"
   borderopacity="1"
   objecttolerance="10"
   gridtolerance="10"
   guidetolerance="10"
   inkscape:pageopacity="0"
   inkscape:pageshadow="2"
   inkscape:window-width="1920"
   inkscape:window-height="1017"
   id="namedview49"
   showgrid="false"
   inkscape:zoom="3.4645656"
   inkscape:cx="45.12093"
   inkscape:cy="96.993622"
   inkscape:window-x="-8"
   inkscape:window-y="-8"
   inkscape:window-maximized="1"
   inkscape:current-layer="Capa_1" />
<path
   style="fill:#ffa000;stroke-width:1"
   d="M 135.0972,66.404581 95.363887,35.782732 c -9.615457,-7.41133 -22.645896,-7.41133 -32.261102,0 L 23.364218,66.410141 c -2.786737,2.184476 -4.673478,5.420677 -5.269226,9.037905 -0.176249,1.099916 0.274999,2.206452 1.151995,2.82446 l 45.013042,31.802514 c 9.065709,6.40012 20.875404,6.40012 29.941112,0 L 139.20894,78.272506 c 0.87699,-0.618008 1.32824,-1.724544 1.15199,-2.82446 -0.59475,-3.617757 -2.47925,-6.855282 -5.26373,-9.043465 z"
   id="path2" />
<path
   style="fill:#4caf50;stroke-width:1"
   d="m 36.564157,40.979666 h 85.332853 c 1.47274,0 2.66674,1.264613 2.66674,2.824461 v 56.487363 c 0,1.55984 -1.194,2.82446 -2.66674,2.82446 H 36.564157 c -1.472743,0 -2.666738,-1.26462 -2.666738,-2.82446 V 43.803863 c 2.5e-4,-1.559848 1.193995,-2.824197 2.666738,-2.824197 z"
   id="path4" />
<g
   id="g14"
   transform="matrix(0.24999885,0,0,0.26478494,17.895742,27.112615)"
   style="stroke-width:3.88673">
	<path
   style="fill:#fafafa;stroke-width:3.88673"
   d="m 245.341,223.037 c -28.672,0 -51.051,-12.331 -53.205,-29.312 -0.788,-5.838 3.306,-11.209 9.144,-11.997 5.838,-0.788 11.209,3.306 11.997,9.144 0.007,0.055 0.014,0.11 0.021,0.165 0.405,3.093 12.096,10.667 32,10.667 21.739,0 32,-8.533 32,-10.667 0,0 -0.363,-6.699 -31.147,-10.496 l -2.261,-0.299 c -15.573,-1.899 -51.925,-6.4 -51.925,-32 0,-18.24 22.933,-32 53.333,-32 28.672,0 51.051,12.331 53.205,29.291 0.742,5.844 -3.393,11.183 -9.237,11.925 -5.828,0.671 -11.129,-3.428 -11.947,-9.237 -0.405,-3.093 -12.096,-10.667 -32,-10.667 -20.693,0 -32,8 -32,10.667 0,0 0.363,6.699 31.253,10.475 l 2.133,0.277 c 15.616,1.941 51.861,6.4 51.861,32 0.108,18.304 -22.825,32.064 -53.225,32.064 z"
   id="path6" />
	<path
   style="fill:#fafafa;stroke-width:3.88673"
   d="m 245.341,244.371 c -5.891,0 -10.667,-4.776 -10.667,-10.667 v -128 c 0,-5.891 4.776,-10.667 10.667,-10.667 5.891,0 10.667,4.776 10.667,10.667 v 128 c 0,5.891 -4.776,10.667 -10.667,10.667 z"
   id="path8" />
	<path
   style="fill:#fafafa;stroke-width:3.88673"
   d="m 373.341,116.371 h -42.667 c -5.891,0 -10.667,-4.776 -10.667,-10.667 0,-5.891 4.776,-10.667 10.667,-10.667 h 42.667 c 5.891,0 10.667,4.776 10.667,10.667 0,5.891 -4.776,10.667 -10.667,10.667 z"
   id="path10" />
	<path
   style="fill:#fafafa;stroke-width:3.88673"
   d="m 160.008,244.371 h -42.667 c -5.891,0 -10.667,-4.776 -10.667,-10.667 0,-5.891 4.776,-10.667 10.667,-10.667 h 42.667 c 5.891,0 10.667,4.776 10.667,10.667 -0.001,5.891 -4.776,10.667 -10.667,10.667 z"
   id="path12" />
</g>
<path
   style="fill:#ffc107;stroke-width:1"
   d="m 140.35568,75.397471 c -0.27075,-1.533369 -1.66375,-2.543789 -3.11149,-2.257027 -0.35374,0.07017 -0.69049,0.215271 -0.98999,0.426834 L 91.251905,105.36397 c -7.255716,5.21547 -16.781423,5.21547 -24.03714,0 L 22.206973,73.567278 c -1.224994,-0.865847 -2.880736,-0.515801 -3.698233,0.781645 -0.199749,0.317212 -0.336749,0.673613 -0.402998,1.048548 -0.142,0.842546 -0.211749,1.697272 -0.207999,2.553322 v 61.853757 c -0.122,7.6544 5.626724,13.97032 12.853191,14.12177 h 96.959556 c 7.22671,-0.15145 12.97518,-6.46737 12.85319,-14.12177 V 77.950793 c 0.004,-0.85605 -0.066,-1.710776 -0.208,-2.553322 z"
   id="path16" />
<g
   id="g18">
</g>
<g
   id="g20">
</g>
<g
   id="g22">
</g>
<g
   id="g24">
</g>
<g
   id="g26">
</g>
<g
   id="g28">
</g>
<g
   id="g30">
</g>
<g
   id="g32">
</g>
<g
   id="g34">
</g>
<g
   id="g36">
</g>
<g
   id="g38">
</g>
<g
   id="g40">
</g>
<g
   id="g42">
</g>
<g
   id="g44">
</g>
<g
   id="g46">
</g>
</svg>
