<?xml version="1.0" encoding="UTF-8" standalone="no"?>
<svg
   xmlns:dc="http://purl.org/dc/elements/1.1/"
   xmlns:cc="http://creativecommons.org/ns#"
   xmlns:rdf="http://www.w3.org/1999/02/22-rdf-syntax-ns#"
   xmlns:svg="http://www.w3.org/2000/svg"
   xmlns="http://www.w3.org/2000/svg"
   xmlns:sodipodi="http://sodipodi.sourceforge.net/DTD/sodipodi-0.dtd"
   xmlns:inkscape="http://www.inkscape.org/namespaces/inkscape"
   height="170pt"
   version="1.1"
   viewBox="0 -20 160.00156 170"
   width="160pt"
   id="svg91"
   sodipodi:docname="school.svg"
   inkscape:version="1.0.2 (e86c870879, 2021-01-15, custom)">
  <metadata
     id="metadata97">
    <rdf:RDF>
      <cc:Work
         rdf:about="">
        <dc:format>image/svg+xml</dc:format>
        <dc:type
           rdf:resource="http://purl.org/dc/dcmitype/StillImage" />
        <dc:title></dc:title>
      </cc:Work>
    </rdf:RDF>
  </metadata>
  <defs
     id="defs95" />
  <sodipodi:namedview
     pagecolor="#ffffff"
     bordercolor="#666666"
     borderopacity="1"
     objecttolerance="10"
     gridtolerance="10"
     guidetolerance="10"
     inkscape:pageopacity="0"
     inkscape:pageshadow="2"
     inkscape:window-width="1920"
     inkscape:window-height="1017"
     id="namedview93"
     showgrid="false"
     inkscape:zoom="1.7608616"
     inkscape:cx="93.994757"
     inkscape:cy="132.62775"
     inkscape:window-x="-8"
     inkscape:window-y="-8"
     inkscape:window-maximized="1"
     inkscape:current-layer="svg91" />
  <g
     id="surface1"
     transform="matrix(0.25129824,0,0,0.24953996,14.055844,20.8736)"
     style="stroke-width:3.99333">
    <path
       d="m 504.63672,455.17969 c -2.99609,-1.51172 -7.58594,-1.71485 -11.67578,-1.71485 -1.00391,0 -1.99219,0.0117 -2.9336,0.0234 h -0.10156 c -0.97265,0.0156 -1.92187,0.0274 -2.83594,0.0274 -1.10546,0 -1.98046,-0.0195 -2.75,-0.0625 -16.75781,-0.98047 -33.58203,-1.8711 -50.0039,-2.64063 -32.92969,-1.56641 -66.24219,-2.79297 -99.01172,-3.65234 -40.42969,-1.0586 -81.60547,-1.59375 -122.39063,-1.59375 -25.2539,0 -50.7539,0.20703 -75.78906,0.61328 -37.406249,0.61328 -75.031249,1.68359 -111.828124,3.17187 -6.359375,0.2461 -11.988281,0.69141 -16.4375,3.66797 -2.617187,1.76172 -4.488281,4.83203 -4.773437,7.84766 -0.113281,1.30859 0.070312,2.51562 0.542969,3.59375 l 0.789062,1.77734 488.01563,1.91016 c 4.72656,0 8.89062,-0.19141 11.96093,-2.51563 1.76172,-1.34375 2.69532,-3.44531 2.4961,-5.64062 -0.21094,-2.10938 -1.40235,-3.85938 -3.27344,-4.8125 z m 0,0"
       style="fill:#915151;fill-opacity:1;fill-rule:nonzero;stroke:none;stroke-width:3.99333"
       id="path2" />
    <path
       d="m 423.91797,309.17578 c 1.05078,1.17969 2.59766,1.33985 3.97266,1.33985 l 31.8125,-0.59766 c 1.15625,-0.0352 2.1914,-0.12109 3.10937,-0.84766 1.12891,-0.91797 1.35156,-2.30859 1.48047,-3.66797 0.11328,-1.27343 0.15625,-2.60937 -0.64844,-3.61328 -0.96875,-1.29297 -2.57031,-1.46875 -4.14062,-1.46875 -2.39063,-0.0156 -4.78125,-0.0234 -7.16797,-0.0234 -2.38281,0 -4.76563,0.008 -7.14844,0.0117 h -0.23437 c -2.21875,0.008 -4.4375,0.0156 -6.66407,0.0156 l -10.21484,-0.0156 c -1.57813,0 -3.18359,0.16407 -4.25781,1.39063 -0.91797,1.07422 -0.96875,2.49609 -0.94141,3.67969 0,1.36718 0.12891,2.77734 1.04297,3.79687 z m 0,0"
       style="fill:#915151;fill-opacity:1;fill-rule:nonzero;stroke:none;stroke-width:3.99333"
       id="path4" />
    <path
       d="m 423.91797,396.78906 c 1.05469,1.17969 2.60547,1.33985 4.12891,1.33985 l 31.6914,-0.60157 c 0.88281,-0.0234 2.08985,-0.0547 3.0586,-0.83203 1.14062,-0.90625 1.36328,-2.3125 1.49609,-3.67968 0.11719,-1.27344 0.16016,-2.60547 -0.64844,-3.61719 -1,-1.33594 -2.66015,-1.45703 -4.14062,-1.46875 -2.37891,-0.0156 -4.75782,-0.0195 -7.14063,-0.0195 -2.375,0 -4.75,0.004 -7.1289,0.008 l -0.45704,0.004 c -3.125,0.008 -6.25,0.0195 -9.36328,0.0195 l -7.33984,-0.0234 c -1.55859,0 -3.14453,0.16406 -4.25781,1.39062 -0.92188,1.07422 -0.96875,2.4961 -0.94141,3.67969 0,1.3711 0.12891,2.77735 1.04297,3.80078 z m 0,0"
       style="fill:#915151;fill-opacity:1;fill-rule:nonzero;stroke:none;stroke-width:3.99333"
       id="path6" />
    <path
       d="m 371.76172,309.17969 c 1.04687,1.17578 2.58984,1.33594 3.96875,1.33594 l 31.79687,-0.59766 c 1.13672,-0.0312 2.15235,-0.11328 3.03907,-0.77734 l 0.0859,-0.0703 c 1.14844,-0.92968 1.35938,-2.39062 1.46875,-3.66797 0.1211,-1.33203 0.16016,-2.62109 -0.63671,-3.61328 -1.01563,-1.35547 -2.6875,-1.46875 -4.15235,-1.46875 -2.38672,-0.0156 -4.76953,-0.0195 -7.15625,-0.0195 -2.38281,0 -4.76562,0.004 -7.15234,0.008 h -0.21875 c -2.22266,0.008 -4.45313,0.0156 -6.67969,0.0156 l -10.21094,-0.0156 c -1.48828,0 -3.17187,0.10938 -4.2539,1.38672 -0.92188,1.07032 -0.97266,2.4961 -0.94532,3.6836 0,1.28125 0.082,2.73047 1.04688,3.80078 z m 0,0"
       style="fill:#915151;fill-opacity:1;fill-rule:nonzero;stroke:none;stroke-width:3.99333"
       id="path8" />
    <path
       d="m 371.75391,396.79297 c 1.1875,1.33594 3.09765,1.33594 4.125,1.33594 l 31.6875,-0.60157 c 1.10547,-0.0273 2.17187,-0.11328 3.09375,-0.85156 1.14062,-0.92969 1.35547,-2.38672 1.46093,-3.66015 0.125,-1.33204 0.16407,-2.61719 -0.63671,-3.61329 -1,-1.33593 -2.66797,-1.46093 -4.14844,-1.47265 -2.37891,-0.0156 -4.75391,-0.0195 -7.13281,-0.0195 -2.3711,0 -4.7461,0.004 -7.125,0.0117 h -0.46094 c -3.1211,0.008 -6.2461,0.0195 -9.36328,0.0195 l -7.33594,-0.0195 c -1.58203,0 -3.19141,0.16406 -4.26172,1.38671 -0.91797,1.07032 -0.96484,2.4961 -0.94141,3.6836 0,1.28125 0.082,2.73828 1.03907,3.80078 z m 0,0"
       style="fill:#915151;fill-opacity:1;fill-rule:nonzero;stroke:none;stroke-width:3.99333"
       id="path10" />
    <path
       d="m 218.30859,444.51953 2.96875,0.0156 1.11719,-73.6875 c 0.0391,-3.08594 0.36328,-5.26953 1.83985,-6.60157 1.54687,-1.39843 4.07812,-1.41015 5.93359,-1.41796 l 27.63672,-0.21094 0.0273,-0.008 30.61719,-0.23047 c 2.76953,0 4.87109,0.28515 6.15234,1.67578 0.85547,0.92578 1.27344,2.33594 1.30469,4.39062 v 0.70703 l -0.004,0.0781 c 0,0.3125 -0.0156,0.60547 -0.0312,0.87891 l -3.92578,75.05859 3.21875,0.0664 c 1.45703,0.0273 2.92578,0.0547 4.37891,0.0742 l 2.95703,0.043 2.08984,-73.02734 h 0.008 l 0.0391,-1.64063 0.0273,-0.90234 0.008,-0.39453 v -0.0586 c 0.11718,-4.64844 0,-9.46875 -2.82813,-12.88282 -3.48047,-4.19531 -9.78516,-4.67968 -15.42578,-4.80468 l -54.80469,-1.19141 c -0.7539,-0.0156 -1.51562,-0.0273 -2.28125,-0.0273 -5.54687,0 -11.72656,0.5664 -15.47656,4.75781 -3.40625,3.8125 -3.70703,9.32031 -3.73047,15.10547 L 209.72656,444.5 h 3.01953 c 1.85547,0 3.70704,0.008 5.5625,0.0195 z m 0,0"
       style="fill:#915151;fill-opacity:1;fill-rule:nonzero;stroke:none;stroke-width:3.99333"
       id="path12" />
    <path
       d="m 102.97266,309.17969 c 1.04296,1.17578 2.58984,1.33594 3.96484,1.33594 l 31.79688,-0.59766 c 1.14062,-0.0312 2.15625,-0.11328 3.03906,-0.77734 l 0.0977,-0.0742 c 1.14063,-0.92969 1.35157,-2.38672 1.46094,-3.66407 0.1211,-1.33203 0.16016,-2.62109 -0.63672,-3.61328 -1.01562,-1.35547 -2.6875,-1.46875 -4.15234,-1.46875 -2.38672,-0.0156 -4.76953,-0.0195 -7.15625,-0.0195 -2.38281,0 -4.76563,0.004 -7.15235,0.008 h -0.21875 c -2.22265,0.008 -4.45312,0.0156 -6.67968,0.0156 l -10.21094,-0.0156 c -1.49219,0 -3.17188,0.10938 -4.25391,1.38672 -0.92187,1.07032 -0.97265,2.4961 -0.94531,3.6836 0,1.28125 0.082,2.73047 1.04688,3.80078 z m 0,0"
       style="fill:#915151;fill-opacity:1;fill-rule:nonzero;stroke:none;stroke-width:3.99333"
       id="path14" />
    <path
       d="m 102.97266,396.79297 c 1.19531,1.33594 3.09375,1.33594 4.12109,1.33594 l 31.67969,-0.60157 c 1.10547,-0.0312 2.17187,-0.11328 3.09765,-0.85546 1.14063,-0.92969 1.35157,-2.38672 1.46094,-3.65625 0.1211,-1.33204 0.16016,-2.61719 -0.63672,-3.61719 -1.0039,-1.33594 -2.66797,-1.45703 -4.15234,-1.46875 -2.375,-0.0156 -4.75391,-0.0195 -7.13281,-0.0195 -2.375,0 -4.75,0.004 -7.125,0.008 l -0.45704,0.004 c -3.125,0.008 -6.25,0.0195 -9.36328,0.0195 l -7.33984,-0.0234 c -1.57813,0 -3.1875,0.16797 -4.25781,1.39062 -0.91797,1.07032 -0.96875,2.49219 -0.94141,3.67969 0,1.28125 0.082,2.73438 1.04688,3.80469 z m 0,0"
       style="fill:#915151;fill-opacity:1;fill-rule:nonzero;stroke:none;stroke-width:3.99333"
       id="path16" />
    <path
       d="m 50.8125,309.18359 c 1.042969,1.17188 2.589844,1.33204 3.964844,1.33204 l 31.800781,-0.59766 c 1.136719,-0.0312 2.152344,-0.11328 3.035156,-0.77734 l 0.09375,-0.0703 c 1.144531,-0.92968 1.355469,-2.39062 1.464844,-3.66797 0.117187,-1.28906 0.160156,-2.53125 -0.621094,-3.58984 l -0.07422,-0.10156 -0.08203,-0.0899 c -0.9375,-1.07812 -2.289062,-1.30078 -4.011719,-1.30078 -2.386718,-0.0156 -4.773437,-0.0195 -7.160156,-0.0195 -2.378906,0 -4.761718,0.004 -7.144531,0.0117 h -0.25 c -2.222656,0.008 -4.4375,0.0117 -6.652344,0.0117 l -10.21875,-0.0156 c -1.597656,0 -3.21875,0.16797 -4.25,1.39063 -0.878906,1.02734 -0.953125,2.30078 -0.953125,3.67969 l 0.0039,0.10937 c 0.02344,1.30469 0.125,2.66406 1.054688,3.69531 z m 0,0"
       style="fill:#915151;fill-opacity:1;fill-rule:nonzero;stroke:none;stroke-width:3.99333"
       id="path18" />
    <path
       d="m 50.816406,396.79688 c 1.191406,1.33203 3.09375,1.33203 4.117188,1.33203 l 31.679687,-0.60157 c 1.105469,-0.0312 2.171875,-0.11328 3.097657,-0.85156 1.113281,-0.90625 1.328124,-2.24219 1.460937,-3.66406 0.113281,-1.23438 0.160156,-2.52734 -0.617187,-3.58594 l -0.07422,-0.10156 -0.08594,-0.0977 c -1.023437,-1.17578 -2.605469,-1.28515 -4.011719,-1.29687 -2.375,-0.0156 -4.753906,-0.0195 -7.132812,-0.0195 -2.375,0 -4.75,0.004 -7.125,0.008 l -0.453125,0.004 c -3.125,0.008 -6.25,0.0195 -9.367187,0.0195 l -7.347657,-0.0234 c -1.578125,0 -3.179687,0.16797 -4.25,1.39062 -0.878906,1.02735 -0.953125,2.30469 -0.953125,3.67969 l 0.0039,0.10938 c 0.02344,1.30859 0.128907,2.66797 1.058594,3.69922 z m 0,0"
       style="fill:#915151;fill-opacity:1;fill-rule:nonzero;stroke:none;stroke-width:3.99333"
       id="path20" />
    <path
       d="m 329.62891,46.285156 -1.69141,-2.742187 -29.125,20.960937 6.01953,1.675782 c 0.65625,0.183593 1.32422,0.355468 1.98828,0.503906 3.15625,0.71875 6.57813,1.082031 10.16797,1.082031 7.64844,0 15.17188,-1.597656 21.52344,-3.164063 l 5.06641,-1.25 -3.625,-3.75 c -3.85938,-3.988281 -7.33204,-8.472656 -10.32422,-13.316406 z m 0,0"
       style="fill:#59cffa;fill-opacity:1;fill-rule:nonzero;stroke:none;stroke-width:3.99333"
       id="path22" />
    <path
       d="m 319.45313,21.765625 c -3.53125,-0.976563 -7.32422,-2.304687 -11.28125,-3.953125 l -1.36329,-1.363281 -48.80468,33.664062 0.0508,7.054688 3.89844,-1.265625 c 2.28515,-0.742188 4.8125,-1.121094 7.50781,-1.121094 2.76562,0 5.73437,0.394531 8.83203,1.175781 l 1.34766,0.339844 45.86718,-32.855469 z m 0,0"
       style="fill:#59cffa;fill-opacity:1;fill-rule:nonzero;stroke:none;stroke-width:3.99333"
       id="path24" />
    <path
       d="M 286.44922,8.929688 C 285.27734,8.589844 284.23047,8.316406 283.24219,8.09375 280.37891,7.449219 277.55078,7.125 274.83203,7.125 c -6.30859,0 -11.82812,1.734375 -15.96094,5.015625 l -1.14843,0.910156 0.15625,19.898438 34.96093,-22.167969 z m 0,0"
       style="fill:#59cffa;fill-opacity:1;fill-rule:nonzero;stroke:none;stroke-width:3.99333"
       id="path26" />
    <path
       d="m 425.35547,360.16016 c 0,1.63281 0.0312,3.26953 0.0703,4.8789 l 0.5,24.84375 9.48828,0.0156 7.96875,-0.008 v 0.008 l 3.19141,-0.008 c 2.34375,-0.008 4.68359,-0.0117 7.02344,-0.0117 1.74218,0 3.48437,0.004 5.22265,0.0117 l 2.81641,0.0156 0.19141,-2.8125 c 0.66796,-9.80859 1.17187,-18.65234 0.62109,-27.55859 l -0.0547,-0.90235 h 0.0508 l -0.1289,-1.22656 -0.043,-0.72656 h -0.0274 l -0.13671,-1.30469 c -0.41797,-4.08203 -1.05469,-7.82422 -1.95313,-11.4375 -0.94141,-3.80078 -2.49219,-8.55078 -6.15234,-11.57422 -2.09766,-1.72656 -4.80078,-2.72656 -7.82032,-2.89844 l -1.23046,-0.0703 -0.004,-0.37109 -1.20703,0.30469 -0.7461,-0.043 v 0.22656 l -1.75,0.4375 c -1.78906,0.44922 -3.44531,1.16406 -4.91406,2.125 -4.6875,3.04297 -8.15234,8.41406 -9.75781,15.12891 -0.60938,2.59765 -0.98047,5.46875 -1.13672,8.77734 l -0.0547,1.22266 h -0.0273 v 0.57031 l -0.0664,1.39062 h 0.0664 z m 0,0"
       style="fill:#ffffff;fill-opacity:1;fill-rule:nonzero;stroke:none;stroke-width:3.99333"
       id="path28" />
    <path
       d="m 425.35547,272.55078 c 0,1.63281 0.0312,3.26953 0.0703,4.86719 l 0.5,24.84766 c 0,0 11.01953,0.0195 11.79297,0.0195 l 7.625,-0.004 v -0.008 l 1.02734,-0.004 c 2.39063,-0.004 4.78125,-0.0117 7.16797,-0.0117 1.76172,0 3.51953,0.004 5.28125,0.0117 l 2.81641,0.0156 0.19141,-2.8125 c 0.66796,-9.80078 1.17187,-18.64063 0.62109,-27.54688 l -0.0586,-0.90234 h 0.0508 l -0.125,-1.22656 -0.0469,-0.72657 h -0.0273 l -0.13281,-1.30468 c -0.41797,-4.08204 -1.0586,-7.82422 -1.95313,-11.4375 -0.94141,-3.80079 -2.49219,-8.55079 -6.15625,-11.57422 -2.09375,-1.72266 -4.79687,-2.72657 -7.81641,-2.89844 l -1.23046,-0.0703 -0.004,-0.3711 -1.21094,0.30078 -0.74609,-0.0391 v 0.22656 l -1.7461,0.4375 c -1.78906,0.44922 -3.44531,1.16407 -4.91796,2.125 -4.6875,3.04688 -8.15235,8.41016 -9.75782,15.1211 -0.60937,2.60547 -0.98047,5.48047 -1.13672,8.78515 l -0.0547,1.22266 h -0.0274 v 0.57031 l -0.0664,1.39453 h 0.0664 v 0.99219 z m 0,0"
       style="fill:#ffffff;fill-opacity:1;fill-rule:nonzero;stroke:none;stroke-width:3.99333"
       id="path30" />
    <path
       d="m 401.84375,244.75391 c -2.09766,-1.72266 -4.80078,-2.72657 -7.81641,-2.89844 l -1.23437,-0.0703 -0.004,-0.41016 -1.30078,0.33594 -0.65234,-0.0352 v 0.20313 l -1.76953,0.45703 c -1.79297,0.46094 -3.44141,1.17969 -4.89453,2.1289 -4.70313,3.05079 -8.16797,8.41797 -9.75391,15.10938 -0.61719,2.58594 -0.98047,5.38281 -1.14063,8.79687 l -0.0547,1.22266 h -0.0274 v 0.57031 l -0.0664,1.39063 h 0.0664 v 0.99609 c 0,1.625 0.0274,3.2461 0.0586,4.8711 l 0.51172,24.84375 c 0,0 11.01171,0.0195 11.78515,0.0195 l 7.63281,-0.004 v -0.008 h 1.02735 c 2.39062,-0.008 4.77734,-0.0156 7.16406,-0.0156 1.76172,0 3.52344,0.004 5.28516,0.0156 l 2.8164,0.0117 0.19141,-2.8086 c 0.66797,-9.80468 1.17187,-18.64843 0.62109,-27.55078 l -0.0547,-0.90234 h 0.0469 l -0.125,-1.22266 -0.043,-0.73047 h -0.0312 l -0.13281,-1.30468 c -0.41797,-4.08204 -1.05859,-7.82422 -1.95313,-11.44532 -0.95703,-3.80859 -2.51562,-8.5664 -6.15234,-11.5664 z m 0,0"
       style="fill:#ffffff;fill-opacity:1;fill-rule:nonzero;stroke:none;stroke-width:3.99333"
       id="path32" />
    <path
       d="m 384.17188,332.07422 c -4.69922,3.05078 -8.16407,8.42187 -9.75391,15.11719 -0.61719,2.58984 -0.98047,5.38281 -1.14063,8.78906 l -0.0547,1.21875 h -0.0274 v 0.57031 l -0.0664,1.39453 0.0664,-0.004 v 1 c 0,1.61328 0.0274,3.22265 0.0586,4.8789 l 0.51172,24.84375 9.48046,0.0156 7.98047,-0.008 v 0.008 l 3.19922,-0.008 c 2.33594,-0.008 4.67188,-0.0117 7.00781,-0.0117 1.74219,0 3.48438,0.004 5.22657,0.0117 l 2.8164,0.0156 0.19141,-2.8125 c 0.66797,-9.80859 1.17187,-18.65625 0.62109,-27.55859 l -0.0547,-0.90235 h 0.0469 l -0.125,-1.22656 -0.043,-0.72656 h -0.0312 l -0.13281,-1.30469 c -0.41797,-4.08203 -1.05859,-7.82422 -1.95313,-11.44531 -0.95703,-3.8086 -2.51953,-8.5625 -6.15625,-11.56641 -2.09375,-1.72265 -4.79687,-2.72656 -7.8164,-2.89844 l -1.23047,-0.0703 -0.004,-0.37109 -1.20703,0.30469 -0.74609,-0.043 v 0.22656 l -1.75,0.4375 c -1.78906,0.44922 -3.44531,1.16406 -4.91406,2.125 z m 0,0"
       style="fill:#ffffff;fill-opacity:1;fill-rule:nonzero;stroke:none;stroke-width:3.99333"
       id="path34" />
    <path
       d="m 330.51172,35.914062 13.55859,-11.878906 -8.13281,0.105469 h -0.57031 c -3.38281,0 -7.05078,-0.394531 -10.90235,-1.179687 l -1.28125,-0.261719 -45.60546,32.660156 5.23437,1.984375 c 0.12109,0.04688 0.24219,0.08984 0.35938,0.128906 0.0664,0.02344 0.13281,0.04688 0.27734,0.101563 2.91406,1.074219 5.78906,2.367187 8.57031,3.613281 2.63281,1.179688 5.21485,2.324219 7.82422,3.324219 l 1.51172,0.578125 27.41406,-19.738282 -0.85156,-2.167968 c -0.45313,-1.152344 -0.58203,-2.171875 -0.40625,-3.097656 0.36328,-1.863282 1.94922,-3.25 3,-4.171876 z m 0,0"
       style="fill:#ffffff;fill-opacity:1;fill-rule:nonzero;stroke:none;stroke-width:3.99333"
       id="path36" />
    <path
       d="m 291.59766,10.664062 -1.40235,-0.53125 -30.51562,19.351563 -0.40625,0.117187 -1.40625,1.476563 0.16015,21.40625 50.16407,-34.597656 -6.63282,-2.984375 C 297.88672,13.25 294.82031,11.886719 291.59766,10.664062 Z m 0,0"
       style="fill:#ffffff;fill-opacity:1;fill-rule:nonzero;stroke:none;stroke-width:3.99333"
       id="path38" />
    <path
       d="m 221.67188,220.4375 c -7.56641,14.86719 -4.78907,34.44922 6.60546,46.55859 7.53125,8.01172 18.45704,12.60547 29.97266,12.60547 5.62109,0 11.18359,-1.16406 16.08594,-3.36718 15.32422,-6.88672 25.18359,-23.98047 23.4414,-40.63672 -1.38671,-13.35157 -9.125,-23.83594 -24.35546,-32.98828 -5.125,-3.08594 -10.58204,-4.64844 -16.21485,-4.64844 -6.07422,0 -12.40625,1.82031 -18.82422,5.40625 -7.22656,4.03125 -13.16406,10.09375 -16.71093,17.07031 z m 0,0"
       style="fill:#ffffff;fill-opacity:1;fill-rule:nonzero;stroke:none;stroke-width:3.99333"
       id="path40" />
    <path
       d="m 141.5,271.92188 -0.0586,-0.89844 0.0508,-0.004 -0.125,-1.22265 -0.043,-0.72657 h -0.0312 l -0.13281,-1.30859 c -0.41797,-4.08203 -1.0586,-7.82031 -1.95313,-11.44141 -0.95703,-3.8125 -2.51953,-8.5664 -6.15234,-11.57031 -2.09766,-1.72266 -4.80078,-2.72656 -7.81641,-2.89844 l -1.23437,-0.0664 -0.004,-0.41016 -1.29688,0.33594 -0.65625,-0.0391 v 0.20703 l -1.76953,0.45312 c -1.79297,0.46094 -3.4414,1.17969 -4.89453,2.12891 -4.70312,3.05469 -8.16797,8.42187 -9.7539,15.11328 -0.6211,2.59766 -0.98047,5.39062 -1.14063,8.79297 l -0.0547,1.22265 h -0.0273 v 0.57032 l -0.0664,1.39453 h 0.0664 v 0.99219 c 0,1.625 0.0273,3.25 0.0586,4.87109 l 0.5,24.84766 c 0,0 11.02344,0.0156 11.79688,0.0156 l 7.63281,-0.004 v -0.004 l 1.02734,-0.004 c 2.39063,-0.008 4.77735,-0.0117 7.16407,-0.0117 1.76172,0 3.52344,0.004 5.28515,0.0117 l 2.81641,0.0156 0.19141,-2.8125 c 0.66797,-9.80078 1.17187,-18.63672 0.62109,-27.55078 z m 0,0"
       style="fill:#ffffff;fill-opacity:1;fill-rule:nonzero;stroke:none;stroke-width:3.99333"
       id="path42" />
    <path
       d="m 125.63281,389.88672 c 2.33985,-0.004 4.67188,-0.008 7.00782,-0.008 1.74218,0 3.48437,0 5.23046,0.0117 l 2.81641,0.0117 0.19141,-2.80859 c 0.66797,-9.80859 1.17187,-18.64844 0.62109,-27.55859 l -0.0586,-0.90235 h 0.0508 l -0.125,-1.22656 -0.043,-0.72656 h -0.0312 l -0.13281,-1.30469 c -0.41797,-4.08203 -1.0586,-7.82422 -1.95313,-11.44531 -0.95703,-3.8086 -2.51953,-8.5625 -6.15625,-11.56641 -2.09375,-1.72265 -4.79687,-2.72656 -7.81641,-2.89844 l -1.23046,-0.0703 -0.004,-0.37109 -1.20703,0.30469 -0.7461,-0.043 v 0.22656 l -1.75,0.4375 c -1.78906,0.44922 -3.44531,1.16406 -4.91406,2.125 -4.70312,3.05078 -8.16406,8.42187 -9.7539,15.12109 -0.6211,2.58594 -0.98047,5.37891 -1.14063,8.78516 l -0.0586,1.21875 h -0.0273 v 0.57031 l -0.0625,1.39453 h 0.0625 v 0.9961 c 0,1.61328 0.0312,3.22656 0.0625,4.8789 l 0.5,24.84375 9.49219,0.0156 7.97656,-0.008 v 0.008 z m 0,0"
       style="fill:#ffffff;fill-opacity:1;fill-rule:nonzero;stroke:none;stroke-width:3.99333"
       id="path44" />
    <path
       d="m 52.246094,360.16016 c 0,1.6289 0.02734,3.25781 0.05859,4.8789 l 0.5,24.84375 9.492187,0.0156 7.976563,-0.008 v 0.008 l 3.183593,-0.008 c 2.335938,-0.008 4.679688,-0.0117 7.023438,-0.0117 1.742187,0 3.484375,0.004 5.230469,0.0117 l 2.816406,0.0156 0.191406,-2.8125 c 0.664062,-9.80859 1.171875,-18.65625 0.609375,-27.5625 l -0.05469,-0.89844 h 0.05859 l -0.15625,-1.52734 -0.02734,-0.42578 h -0.01563 L 89,355.375 c -0.421875,-4.10156 -1.066406,-7.84766 -1.964844,-11.4375 -0.941406,-3.79687 -2.488281,-8.54687 -6.144531,-11.57422 -2.097656,-1.72656 -4.800781,-2.72656 -7.828125,-2.89844 l -1.222656,-0.0664 v -0.36719 l -1.199219,0.29688 -0.765625,-0.043 v 0.23047 l -1.734375,0.43359 c -1.777344,0.44141 -3.433594,1.15625 -4.933594,2.125 -4.691406,3.05469 -8.152343,8.42578 -9.742187,15.12109 -0.617188,2.58594 -0.976563,5.37891 -1.136719,8.78516 l -0.05859,1.21875 h -0.02344 v 0.55469 l -0.06641,1.41015 0.06641,-0.004 z m 0,0"
       style="fill:#ffffff;fill-opacity:1;fill-rule:nonzero;stroke:none;stroke-width:3.99333"
       id="path46" />
    <path
       d="m 52.246094,272.55078 c 0,1.62891 0.02734,3.25781 0.05859,4.86719 l 0.5,24.84766 c 0,0 11.019531,0.0195 11.792968,0.0195 l 7.636719,-0.004 v -0.008 l 1.027344,-0.004 c 2.382812,-0.004 4.773437,-0.0117 7.160156,-0.0117 1.761719,0 3.523437,0.004 5.289063,0.0117 l 2.816406,0.0156 0.191406,-2.8125 c 0.664062,-9.80469 1.171875,-18.64453 0.609375,-27.55078 l -0.05469,-0.89844 h 0.05859 l -0.15625,-1.53906 -0.02734,-0.41407 h -0.01563 L 89,267.76563 c -0.421875,-4.10547 -1.0625,-7.84766 -1.960938,-11.4375 -0.941406,-3.79688 -2.492187,-8.54688 -6.148437,-11.57422 -2.09375,-1.72266 -4.800781,-2.72657 -7.828125,-2.89844 l -1.21875,-0.0664 -0.0039,-0.40625 -1.289063,0.33203 -0.675781,-0.0391 v 0.21094 l -1.753906,0.44922 c -1.777344,0.45312 -3.429688,1.16797 -4.914063,2.13281 -4.695312,3.05469 -8.152343,8.42188 -9.742187,15.10547 -0.617188,2.58594 -0.976563,5.38281 -1.136719,8.79687 l -0.05859,1.22266 h -0.02344 v 0.55469 l -0.06641,1.41015 0.06641,-0.004 z m 0,0"
       style="fill:#ffffff;fill-opacity:1;fill-rule:nonzero;stroke:none;stroke-width:3.99333"
       id="path48" />
    <path
       d="m 291.01563,445.16016 2.89453,0.0469 3.90234,-74.74609 c 0.14063,-2.78906 0.12109,-5.6875 -1.76953,-7.73438 -1.87109,-2.03125 -4.69922,-2.30859 -7.47656,-2.30859 l -30.19141,0.23047 v -0.004 l -28.21484,0.22266 c -2.60547,0.0156 -5.3086,0.17187 -7.24219,1.92187 -2.40625,2.16797 -2.45313,5.84375 -2.48047,8.03516 l -1.11719,73.69922 3.03907,0.004 c 11.99609,0.0234 22.78906,0.0781 32.99609,0.17188 l 3.03125,0.0234 v -0.008 l 1.00781,0.0117 c 11.10547,0.11719 21.44531,0.25782 31.6211,0.4336 z m 0,0"
       style="fill:#ae7878;fill-opacity:1;fill-rule:nonzero;stroke:none;stroke-width:3.99333"
       id="path50" />
    <path
       d="m 434.39453,449.73438 c 14.13281,0.67187 28.63672,1.43359 43.10156,2.26171 l 3.16797,0.17969 V 449 c 0,-0.10937 -0.004,-0.21875 -0.0156,-0.32812 l 4.28125,-233.55469 -117.23438,0.45703 -0.88281,0.95703 c -0.33984,0.36719 -0.60156,0.61719 -0.88672,0.83984 -1.49609,1.20313 -3.42969,1.83594 -5.59375,1.83594 -0.55078,0 -1.11328,-0.043 -1.67187,-0.125 l -3.39844,-0.51172 -3.14844,227.9961 2.94922,0.0898 c 26.51953,0.8125 53.21094,1.84766 79.33203,3.07813 z m -24.21484,-56.89844 c -0.0703,0.73437 -0.17188,1.84375 -0.78125,2.33203 -0.46094,0.37109 -1.32422,0.39062 -1.96094,0.40234 0,0 -31.71094,0.60157 -31.76172,0.60157 -1.27734,0 -2.03515,-0.21094 -2.45703,-0.6836 -0.52734,-0.58984 -0.53906,-1.67969 -0.54687,-2.5 -0.0156,-0.95703 0.008,-1.85937 0.49609,-2.42187 0.0977,-0.11328 0.25781,-0.26563 0.625,-0.41407 L 375.70313,389.375 375.21094,365 c -0.11328,-5.74609 -0.23438,-11.6875 1.10937,-17.35547 1.47266,-6.19531 4.63672,-11.14062 8.91016,-13.91797 2.31641,-1.51172 5.11719,-2.33984 7.88281,-2.33984 2.875,0 5.53125,0.88672 7.48047,2.5 3.21875,2.65625 4.62891,7.02344 5.49609,10.52734 3.54297,14.27344 2.51172,29.46875 1.60157,42.875 l -0.14063,2.07032 1.88672,0.86328 c 0.26953,0.12109 0.38672,0.23828 0.45703,0.32422 0.4375,0.54687 0.34375,1.58593 0.28516,2.28906 z m 15.14844,-89.87891 c 0.0976,-0.11328 0.25781,-0.26172 0.63671,-0.41797 l 1.91016,-0.77734 -0.49219,-24.4375 c -0.11718,-5.73438 -0.23437,-11.66406 1.10157,-17.28906 1.48046,-6.20703 4.64843,-11.15625 8.91406,-13.92969 2.32031,-1.50781 5.11719,-2.33594 7.875,-2.33594 2.8789,0 5.53906,0.88672 7.48828,2.5 3.21484,2.65625 4.625,7.01953 5.49219,10.52344 3.54297,14.23828 2.50781,29.45312 1.59765,42.88281 l -0.14062,2.07031 1.89062,0.86329 c 0.26953,0.12109 0.38282,0.23828 0.46094,0.33203 0.42969,0.53515 0.33594,1.57812 0.27734,2.28125 -0.0703,0.73828 -0.17187,1.85156 -0.76171,2.32422 -0.47266,0.3789 -1.34375,0.39843 -1.98047,0.41015 l -31.77344,0.60156 c -1.26953,0 -2.02344,-0.21093 -2.44141,-0.67968 -0.53125,-0.59375 -0.53906,-1.67969 -0.54687,-2.48438 -0.008,-0.78125 -0.0195,-1.85156 0.49219,-2.4375 z m -0.0156,87.62891 c 0.15234,-0.17969 0.36719,-0.32031 0.65234,-0.4375 l 1.91016,-0.77735 -0.49219,-24.4375 c -0.11718,-5.73046 -0.23437,-11.65625 1.10157,-17.28515 1.48046,-6.20313 4.64843,-11.14844 8.91796,-13.92578 2.32032,-1.50782 5.11719,-2.33985 7.87891,-2.33985 2.875,0 5.53516,0.88672 7.48047,2.4961 3.21484,2.66015 4.625,7.02734 5.49219,10.53515 3.54297,14.23828 2.50781,29.45313 1.59765,42.8711 l -0.14062,2.07422 1.88672,0.85937 c 0.27343,0.125 0.38672,0.24219 0.46093,0.33203 0.42969,0.53906 0.33985,1.58203 0.27735,2.28516 -0.0664,0.73828 -0.16797,1.84765 -0.75781,2.32422 -0.47266,0.3789 -1.34375,0.39843 -1.98047,0.41015 l -31.40625,0.59375 c -0.0703,0.004 -0.3125,0.008 -0.35547,0.008 -1.27735,0 -2.03516,-0.21094 -2.45703,-0.6836 -0.52735,-0.58984 -0.53907,-1.67969 -0.54297,-2.48437 -0.008,-0.82422 -0.0195,-1.84766 0.47656,-2.41797 z M 373.168,302.95703 c 0.0977,-0.11719 0.25781,-0.26953 0.62891,-0.41797 l 1.91015,-0.77734 -0.49219,-24.375 c -0.11718,-5.74609 -0.23828,-11.69141 1.10547,-17.35156 1.48438,-6.21485 4.64844,-11.16016 8.90625,-13.92969 2.32422,-1.50781 5.1211,-2.33594 7.88282,-2.33594 2.8789,0 5.53515,0.88672 7.48437,2.50391 3.21875,2.65234 4.62891,7.01562 5.5,10.51562 3.53906,14.27344 2.50781,29.47266 1.59766,42.88672 l -0.14063,2.07031 1.89063,0.86329 c 0.26953,0.12109 0.38672,0.23828 0.45703,0.33203 0.42969,0.53515 0.33984,1.57812 0.27734,2.28125 -0.0664,0.73437 -0.16797,1.84765 -0.78125,2.33203 -0.45703,0.37109 -1.32422,0.39062 -1.95703,0.40234 l -31.77344,0.60156 c -1.26953,0 -2.02343,-0.21093 -2.44531,-0.67968 -0.52734,-0.59375 -0.53906,-1.6836 -0.54297,-2.50391 -0.0156,-0.72266 -0.0351,-1.81641 0.49219,-2.41797 z m 0,0"
       style="fill:#f5b36e;fill-opacity:1;fill-rule:nonzero;stroke:none;stroke-width:3.99333"
       id="path52" />
    <path
       d="m 41.675781,447.66797 c 32.40625,-1.19531 64.523439,-2.05078 95.464849,-2.55078 3.28515,-0.0586 6.57421,-0.10156 9.86328,-0.14063 L 155,444.86719 l 1.06641,-228.76953 -4.96875,4.19922 c -1.87891,1.58984 -3.57813,2.59375 -5.33594,3.16406 -0.9375,0.30078 -1.96484,0.45703 -2.97656,0.45703 -2.54297,0 -5.74219,-1.02344 -7.10547,-3.89453 -0.32031,-0.6836 -0.51172,-1.3711 -0.58985,-2.10547 l -0.28125,-2.69531 -97.761715,0.1914 1.539063,232.36719 z m 99.710939,-54.83203 c -0.0664,0.73437 -0.16797,1.84765 -0.77734,2.33203 -0.46094,0.37109 -1.32422,0.38672 -1.96094,0.40234 0,0 -31.71094,0.59766 -31.76172,0.59766 -1.27735,0 -2.03516,-0.20703 -2.45703,-0.67969 -0.52735,-0.58984 -0.53907,-1.67969 -0.54688,-2.5 -0.0156,-0.95703 0.008,-1.85937 0.47656,-2.40234 0.16016,-0.1836 0.36719,-0.32422 0.64454,-0.4375 l 1.91406,-0.77735 L 106.42578,365 c -0.11719,-5.74219 -0.23828,-11.67969 1.10547,-17.35547 1.47266,-6.19531 4.63672,-11.14062 8.90625,-13.91797 2.32422,-1.51172 5.125,-2.34375 7.89062,-2.34375 2.875,0 5.53126,0.89063 7.47657,2.50391 3.20312,2.64062 4.62109,7.01562 5.5,10.52734 3.53906,14.27344 2.50781,29.46875 1.59765,42.875 l -0.14062,2.07032 1.88672,0.85937 c 0.26953,0.125 0.39062,0.24219 0.46094,0.33594 0.42968,0.53515 0.33984,1.57422 0.27734,2.28125 z m -37.00781,-89.87891 c 0.0977,-0.11719 0.25781,-0.26953 0.625,-0.41797 l 1.91406,-0.77734 -0.49219,-24.375 c -0.11719,-5.74609 -0.23828,-11.6875 1.10547,-17.35547 1.47656,-6.20312 4.63672,-11.14844 8.90625,-13.92578 2.32031,-1.50391 5.12109,-2.33203 7.88281,-2.33203 2.87891,0 5.53516,0.88672 7.48438,2.5 3.19922,2.64062 4.62109,7.01172 5.49609,10.51953 3.54297,14.26953 2.51172,29.47266 1.60156,42.88281 l -0.14062,2.07422 1.88672,0.85938 c 0.26953,0.12109 0.38672,0.23828 0.46094,0.33203 0.42968,0.53906 0.33984,1.57812 0.27734,2.28515 -0.0664,0.73438 -0.16797,1.84375 -0.78125,2.33203 -0.45703,0.3711 -1.32422,0.39063 -1.95703,0.40235 l -31.77344,0.59765 c -1.26953,0 -2.02344,-0.20703 -2.44531,-0.67968 -0.52735,-0.58985 -0.53907,-1.67969 -0.54297,-2.50391 -0.0156,-0.72266 -0.0352,-1.81641 0.49219,-2.41797 z m -52.19141,0.0195 c 0.164062,-0.1875 0.359375,-0.3164 0.65625,-0.4375 l 1.914062,-0.77734 -0.492187,-24.375 c -0.117187,-5.75 -0.238281,-11.69141 1.109375,-17.35547 1.472656,-6.20312 4.636719,-11.14844 8.902344,-13.92578 2.320312,-1.50391 5.117187,-2.33203 7.875,-2.33203 2.878906,0 5.539062,0.88672 7.492187,2.5 3.199219,2.64062 4.621094,7.01172 5.5,10.51953 3.523438,14.20703 2.5,29.44141 1.597657,42.88281 l -0.136719,2.0586 1.867187,0.86718 c 0.28125,0.12891 0.394532,0.2461 0.46875,0.33985 0.445313,0.55468 0.339844,1.6289 0.273438,2.29687 -0.06641,0.73047 -0.167969,1.83985 -0.757813,2.3125 -0.472656,0.375 -1.335937,0.39453 -1.96875,0.41016 l -31.773437,0.59765 c -1.269532,0 -2.023438,-0.21093 -2.445313,-0.67968 -0.519531,-0.58594 -0.539062,-1.67188 -0.554687,-2.48828 -0.0078,-0.77735 -0.01563,-1.84766 0.472656,-2.41407 z m -0.01563,87.62891 c 0.175781,-0.19531 0.386719,-0.33984 0.671875,-0.45703 L 54.757812,389.37109 54.265625,365 c -0.117187,-5.75 -0.238281,-11.69531 1.109375,-17.35937 1.46875,-6.19532 4.632812,-11.13672 8.90625,-13.91797 2.320312,-1.50782 5.117188,-2.33985 7.882812,-2.33985 2.875,0 5.53125,0.88672 7.480469,2.5 3.203125,2.64453 4.621094,7.01953 5.5,10.53125 3.527344,14.21094 2.5,29.4375 1.597657,42.875 l -0.136719,2.05469 1.867187,0.86719 c 0.285156,0.13281 0.394532,0.24609 0.46875,0.34375 0.445313,0.55469 0.339844,1.625 0.277344,2.29687 -0.07031,0.73438 -0.171875,1.84375 -0.761719,2.3125 -0.46875,0.375 -1.332031,0.39453 -1.96875,0.40625 0,0 -31.71875,0.60157 -31.773437,0.60157 -1.269532,0 -2.023438,-0.21094 -2.445313,-0.67969 -0.519531,-0.58594 -0.539062,-1.67188 -0.554687,-2.48828 -0.0078,-0.82422 -0.01563,-1.84766 0.457031,-2.39844 z m 0,0"
       style="fill:#f5b36e;fill-opacity:1;fill-rule:nonzero;stroke:none;stroke-width:3.99333"
       id="path54" />
    <path
       d="m 452.07422,125 c -2.96484,-4.58984 -6.32422,-9.78906 -11.5625,-12.33594 -4.21875,-2.0625 -9.23047,-2.10937 -13.6875,-2.15625 -19.86719,-0.20312 -38.82422,-0.22656 -54.74609,-0.22656 -6.51563,0 -12.97657,0.004 -19.375,0.008 -6.14844,0.008 -12.35547,0.0117 -18.60938,0.0117 -19.51953,0 -34.57812,-0.0508 -48.82422,-0.16016 l -7.64844,-0.0625 5.56641,5.2461 c 0.67969,0.64062 1.35938,1.28515 2.03516,1.92969 l 1.00781,0.96093 c 25.98437,24.64063 52.85156,50.11719 76.27344,78.07813 2.83593,3.39453 5.08984,6.28125 6.17578,9.92578 0.45312,1.53516 0.60156,3.28906 0.42187,4.94531 l -0.35937,3.33985 115.21484,-0.45313 c 0.40625,0 0.80469,0 1.1875,-0.0117 l 0.17188,-0.004 0.15234,-0.0234 0.0977,0.0156 0.26953,-0.008 c 4.43359,-0.13281 9.87109,-0.78906 12.57031,-4.71094 3.70313,-5.38671 -0.19922,-12.74609 -3.46094,-17.8125 z m 0,0"
       style="fill:#eb6b66;fill-opacity:1;fill-rule:nonzero;stroke:none;stroke-width:3.99333"
       id="path56" />
    <path
       d="M 361.68359,196.98438 C 338.34375,169.11719 311.51563,143.66406 285.5,118.98047 l -0.23828,-0.22266 c -4.11719,-3.90234 -8.22656,-7.79687 -12.32422,-11.70703 -4.30859,-4.11328 -8.28125,-7.574218 -13.27734,-8.289061 -0.58203,-0.08594 -1.17188,-0.128907 -1.75782,-0.128907 -6.96875,0 -12.53906,5.847658 -17.51953,11.070308 -0.92578,0.96485 -1.82422,1.90235 -2.71093,2.77735 -6.46485,6.41797 -13.64844,13.58594 -22.59766,22.55859 l -3.625,3.625 c -6.30859,6.3086 -12.82813,12.83594 -19.24219,19.1836 l -50.78125,50.28125 c -4.67187,4.625 -6.23437,8.36718 -4.78125,11.43359 0.96094,2.03125 3.30078,3.29297 6.10938,3.29297 0.92578,0 1.85156,-0.14453 2.65234,-0.41016 3.39844,-1.09375 6.07422,-3.82031 8.45313,-6.24609 l 90.71875,-92.5586 c 2.86328,-2.92187 6.11328,-6.23437 10.46484,-7.36718 1.07031,-0.28125 2.16016,-0.42188 3.24219,-0.42188 7.67187,0 14.60156,7.05078 19.14453,12.35157 l 69.57422,81.22656 c 1.66797,1.95312 3.74609,4.38281 6.17187,6.14062 l 0.72656,0.52735 0.89844,0.0391 c 0.21875,0.0117 0.34375,0.15625 0.39063,0.21875 l 0.54297,0.76953 0.89062,0.32031 c 1.24609,0.44532 2.55469,0.6836 3.77734,0.6836 1.89063,0 3.57422,-0.55469 4.86719,-1.59375 2.97266,-2.37891 3.32031,-6.85547 2.38281,-10.00391 -1.02343,-3.47266 -3.30859,-6.37891 -5.96875,-9.54687 z m 0,0"
       style="fill:#eb6b66;fill-opacity:1;fill-rule:nonzero;stroke:none;stroke-width:3.99333"
       id="path58" />
    <path
       d="m 276.53516,194.85938 c -6.13282,-3.69532 -12.67969,-5.57032 -19.46094,-5.57032 -7.32031,0 -14.98438,2.20313 -22.78125,6.55078 -8.75781,4.88672 -15.95703,12.24219 -20.27344,20.70704 -9.17187,18.03125 -5.80469,41.78125 8.00781,56.46484 9.12891,9.71484 22.3711,15.28906 36.33204,15.28906 6.82031,0 13.5625,-1.41406 19.5039,-4.08594 18.57031,-8.33984 30.52735,-29.05468 28.42578,-49.24609 -1.67578,-16.16797 -11.13281,-28.91406 -29.7539,-40.10937 z m -3.01172,79.58593 c -4.625,2.08203 -9.89453,3.1836 -15.23828,3.1836 -10.83985,0 -21.52735,-4.47657 -28.58594,-11.97266 -10.83984,-11.52734 -13.48047,-30.16797 -6.28125,-44.32812 3.37109,-6.62891 9.02344,-12.40235 15.91797,-16.25 6.16797,-3.44532 12.1875,-5.19141 17.88281,-5.19141 5.22656,0 10.33984,1.48047 15.1875,4.39453 14.46875,8.70313 22.12891,19.01563 23.42578,31.51953 1.64844,15.84375 -7.73047,32.09766 -22.30859,38.64453 z m 0,0"
       style="fill:#eb6b66;fill-opacity:1;fill-rule:nonzero;stroke:none;stroke-width:3.99333"
       id="path60" />
    <path
       d="m 140.66406,207.37109 50.79297,-50.28125 c 7.86328,-7.78906 15.91797,-15.85937 22.84766,-22.80859 5.30078,-5.29687 10.73047,-10.72656 16.15625,-16.13672 l 5.08594,-5.0625 -7.17579,-0.0625 c -21.28906,-0.17969 -42.30859,-0.29297 -62.01171,-0.39062 l -3.05469,-0.0156 c -21.4375,-0.11328 -43.60547,-0.23437 -66.296878,-0.43359 -0.835937,-0.008 -1.6875,-0.0156 -2.546874,-0.0156 -5.339844,0 -10.949219,0.30078 -15.804688,2.48828 -7.09375,3.1875 -11.890625,9.85157 -16.578125,16.97657 -14.820313,22.51953 -28.925781,45.9414 -41.921875,69.61718 -1.734375,3.15235 -3.152344,6.45313 -1.820312,9.22266 1.660156,3.48828 6.65625,3.89063 10.269531,3.89063 h 0.07422 l 106.933591,-0.21094 0.85938,-1.51563 c 0.95703,-1.68359 2.36718,-3.45312 4.1914,-5.26172 z m 0,0"
       style="fill:#eb6b66;fill-opacity:1;fill-rule:nonzero;stroke:none;stroke-width:3.99333"
       id="path62" />
    <path
       d="m 159.12109,444.82031 c 15.38282,-0.17968 31.04688,-0.28125 46.5586,-0.30078 l 2.98047,-0.004 0.39453,-74.24219 c 0.0195,-4.53125 0.0469,-11.3711 4.00781,-15.80469 4.03125,-4.50781 10.49609,-5.11719 16.28906,-5.11719 0.76953,0 1.52735,0.0117 2.27735,0.0274 l 54.82422,1.19922 c 6.14062,0.13281 12.44921,0.64062 16.21484,5.1875 3.36328,4.05859 3.19141,9.875 3.07031,14.1289 l -2.16797,75.48438 3.02735,0.0625 c 11.21484,0.21875 20.35156,0.42968 28.75,0.65625 2.82812,0.0742 5.66797,0.16015 8.5039,0.24218 l 7.19141,0.20704 3.16406,-228.95313 -1.3125,-0.91016 c -2.67187,-1.85156 -4.80469,-4.34765 -6.6914,-6.55468 l -69.58985,-81.23047 c -4.39453,-5.13672 -11.08203,-11.96485 -18.38281,-11.96485 -0.98828,0 -1.96875,0.125 -2.90234,0.3711 -3.76954,0.97265 -6.63282,3.66406 -9.98438,7.08593 l -88.9375,90.73829 0.69141,1.79687 c 0.0352,0.0938 0.0391,0.14844 0.0391,0.16797 l -1.0625,227.76172 z m 53.94922,-228.76172 c 4.39063,-8.63281 11.7461,-16.14453 20.70703,-21.14843 8.02344,-4.48047 15.86719,-6.75 23.31641,-6.75 6.87891,0 13.60156,1.94531 19.98438,5.78125 18.67187,11.22656 28.57421,24.61328 30.27343,40.91797 2.14844,20.63281 -10.0664,41.80078 -29.05078,50.33593 -6.02344,2.71094 -12.88672,4.14453 -19.84765,4.14453 -14.11329,0 -28.02344,-5.83203 -37.20313,-15.59765 -14.11719,-15 -17.55469,-39.26172 -8.17969,-57.6836 z m 0,0"
       style="fill:#f8d787;fill-opacity:1;fill-rule:nonzero;stroke:none;stroke-width:3.99333"
       id="path64" />
    <path
       d="m 511.96094,459.64844 c -0.32031,-3.5 -2.375,-6.52735 -5.4961,-8.10156 -4.53515,-2.28907 -10.91015,-2.20313 -16.53515,-2.125 -1.9375,0.0273 -3.76953,0.0508 -5.26563,-0.0312 0.0195,-0.14454 0.0508,-0.28907 0.0508,-0.44141 l 4.23829,-231.03125 c 4.40234,-0.42969 9.71484,-1.80469 12.80859,-6.30859 5.67187,-8.25 -1.15625,-18.83985 -3.40234,-22.32032 l -42.84766,-66.45703 c -3.09375,-4.80078 -6.94531,-10.77344 -13.21875,-13.82812 -5.05859,-2.46485 -10.8125,-2.52344 -15.43359,-2.57032 -25.4375,-0.25 -50.21094,-0.23047 -74.16407,-0.21093 -23.94922,0.0195 -48.71093,0.0352 -74.125,-0.21485 -0.0117,0 -0.0234,0 -0.0351,0 -0.2461,0 -0.48438,0.0273 -0.71485,0.0742 -0.6914,-0.66016 -1.39062,-1.32031 -2.08203,-1.98047 -3.51172,-3.35156 -8.2539,-7.867185 -14.39844,-9.171872 L 261.0821,60.640655 c 6.67188,-3.300781 15.03125,-1.449219 20.94531,0.742187 2.78516,1.03125 5.60157,2.296876 8.32813,3.519532 4.9375,2.210937 10.03906,4.496094 15.55859,5.753906 3.70313,0.84375 7.42188,1.195312 11.10938,1.195312 9.97656,0 19.78125,-2.5625 28.71875,-4.898437 1.26562,-0.328125 2.24219,-1.332031 2.54687,-2.605469 0.30078,-1.269531 -0.125,-2.605468 -1.10547,-3.46875 -5.80078,-5.097656 -10.74609,-11.050781 -14.69921,-17.683594 -0.89454,-1.496093 -1.02735,-2.101562 -0.98047,-2.34375 0.0938,-0.480468 1.21093,-1.457031 1.6875,-1.878906 L 349.69531,24.5 c 1.25391,-1.101562 1.56641,-2.929688 0.75,-4.386719 -0.8164,-1.457031 -2.54297,-2.144531 -4.13672,-1.644531 -10.125,3.160156 -22.23828,1.65625 -37.02343,-4.601562 -2.01953,-0.851563 -4.07422,-1.777344 -6.0625,-2.675782 -6.0625,-2.730468 -12.33594,-5.558594 -19.08985,-7.074218 -8.71093,-1.953126 -16.96484,-1.171876 -23.46093,2.085937 l -0.0195,-2.691406 c -0.0156,-1.945313 -1.59375,-3.50781275 -3.53515,-3.50781275 -0.008,0 -0.0195,0 -0.0274,0 C 255.13672,0.015625 253.56641,1.613281 253.58203,3.5625 l 0.6875,91.40625 c -6.86719,1.519531 -12.25781,7.13281 -16.77344,11.85937 -0.71875,0.75391 -1.41796,1.47657 -2.10937,2.17579 -23.63281,-0.20704 -46.69922,-0.32813 -69.00781,-0.44532 -22.40625,-0.11328 -45.57422,-0.23437 -69.312504,-0.44531 -6.339844,-0.0586 -13.519531,-0.12109 -20.085937,2.82813 -8.074219,3.625 -13.265625,10.79296 -18.300781,18.44922 -14.898438,22.6289 -29.058594,46.14453 -42.09375,69.89843 -1.40625,2.5625 -4.335938,7.89844 -1.925782,12.9375 2.882813,6.02735 10.492188,6.20313 13.722656,6.20313 0.105469,0 0.207032,0 0.304688,0 l 4.308594,-0.008 1.492187,226.51171 c -3.109375,0.1211 -6.234375,0.22266 -9.339843,0.34766 C 19.75,445.5 12.351562,445.79688 6.613281,449.64063 c -3.648437,2.44531 -6.164062,6.59765 -6.5585935,10.83203 -0.3203125,3.42578 0.7773435,6.55859 3.0859375,8.82422 0.660156,0.64453 1.542969,1.00781 2.464844,1.01171 l 487.816411,1.90625 c 0.27734,0 0.5664,0 0.86328,0 3.94922,0 9.4414,-0.19921 13.58203,-3.33984 2.89453,-2.19531 4.42187,-5.64453 4.09375,-9.22656 z m -256.58203,-95.98047 0.008,78.03516 c -11.00391,-0.10157 -22.01172,-0.15625 -33.01563,-0.17969 l 1.0625,-70.65235 c 0.0312,-2.3125 0.17579,-4.66406 1.4961,-5.85546 1.14844,-1.03516 3.13281,-1.13282 5.24219,-1.14844 z m 4.04687,78.06641 -0.008,-78.09766 28.68359,-0.22266 c 2.26172,-0.008 4.56641,0.0742 5.73438,1.33985 1.10937,1.20703 1.09375,3.40234 0.98047,5.55078 l -3.75391,71.85156 c -10.53906,-0.17187 -21.08203,-0.32031 -31.63672,-0.42187 z m 37.38281,-79.71485 c -2.28906,-2.48437 -5.70703,-2.66015 -8.73828,-2.64453 l -30.60547,0.23828 c -0.0234,0 -0.043,-0.008 -0.0703,-0.008 -0.0273,0 -0.0508,0.008 -0.082,0.008 l -27.17187,0.21485 c -2.20313,0.0156 -5.53516,0.043 -7.91797,2.1875 -2.52344,2.28125 -2.78516,5.73437 -2.82813,8.79296 l -1.0664,70.70704 C 216.46875,441.51172 214.60938,441.5 212.75,441.5 l 0.375,-71.20703 c 0.0234,-5.1875 0.27344,-10.09375 2.96875,-13.11328 3.29297,-3.6836 9.70313,-3.85938 15.45313,-3.73438 l 54.8125,1.19532 c 4.97656,0.10937 10.50781,0.49609 13.17578,3.71875 2.19531,2.64843 2.26172,6.91015 2.13281,11.41796 l -2.08203,72.53516 c -1.49219,-0.0273 -2.98828,-0.0547 -4.48438,-0.082 l 3.75,-71.71484 c 0.11719,-2.22266 0.3086,-5.94141 -2.04297,-8.4961 z m 8.16797,-8.17187 c -4.5664,-5.51563 -11.92578,-6.12891 -18.46484,-6.26953 l -54.8125,-1.19922 c -7.32422,-0.16407 -15.58203,0.16797 -20.87891,6.09375 -4.69922,5.26562 -4.73828,12.80078 -4.76562,17.78515 l -0.375,71.25782 c -15.55469,0.0234 -31.09375,0.12109 -46.59375,0.30078 l 1.04687,-224.71094 c 0.004,-0.44141 -0.0859,-0.86328 -0.23437,-1.25781 l 87.58594,-89.35938 c 3.01953,-3.07812 5.5664,-5.49609 8.58984,-6.28516 6.70312,-1.74218 13.63281,5.23829 18.26172,10.64063 l 69.58594,81.23828 c 2.05078,2.39453 4.33593,5.03906 7.26562,7.0625 l -3.10156,224.31641 c -4.22266,-0.125 -8.44922,-0.25781 -12.65625,-0.36719 -9.57422,-0.25 -19.16797,-0.46094 -28.77344,-0.65234 l 2.07813,-72.46094 c 0.125,-4.46484 0.32031,-11.21484 -3.75782,-16.13281 z m 53.23828,-131.80078 c 3.53516,0.52734 7.00391,-0.26172 9.59375,-2.33204 0.44532,-0.35546 0.83594,-0.74218 1.20704,-1.14062 l 112.86328,-0.44531 -4.23047,230.6914 c 0,0.0586 0.0156,0.11328 0.0156,0.17578 -14.33984,-0.8164 -28.80859,-1.57421 -43.13281,-2.2539 -26.31641,-1.2461 -52.92969,-2.27344 -79.38281,-3.07813 z m -5.51171,-108.75391 c 23.9375,-0.0195 48.6875,-0.0391 74.08984,0.21094 4.11328,0.043 8.77734,0.0898 12.40234,1.85546 4.5,2.19141 7.6211,7.03125 10.375,11.30469 l 42.85157,66.45703 c 4.38671,6.80469 5.53906,11.54297 3.51562,14.48438 -1.8125,2.63672 -5.83594,3.28516 -10.1875,3.41797 -0.0703,-0.008 -0.13672,-0.0234 -0.20312,-0.0234 -0.0234,-0.004 -0.0469,-0.004 -0.0664,-0.004 -0.14063,0 -0.27344,0.0273 -0.41016,0.043 -0.36718,0.008 -0.73828,0.0117 -1.10937,0.0117 l -111.875,0.44141 c 0.23437,-2.1211 0.0195,-4.25781 -0.53516,-6.125 -1.24609,-4.20703 -3.79297,-7.46875 -6.75,-10.9961 -23.50781,-28.07031 -50.44922,-53.625 -76.5039,-78.33593 -1.01954,-0.96875 -2.03516,-1.9336 -3.05079,-2.90235 23.08594,0.19141 45.61329,0.17578 67.45704,0.16016 z m -91.67579,-60.246095 -0.008,-1.367187 45.4336,-31.335938 c 0.0273,0.01172 0.0547,0.02344 0.082,0.03516 4.21875,1.785156 8.25,3.207032 12.12109,4.285156 l -39.63281,28.390626 c -6.70313,-1.699219 -12.79688,-1.699219 -17.9961,-0.0078 z m 76.77344,8.644531 c -9.82812,2.417969 -20.39844,4.332032 -30.3125,2.074219 -0.62109,-0.144531 -1.23828,-0.300781 -1.85547,-0.472656 l 21.44141,-15.4375 c 3.07812,4.992187 6.65625,9.632812 10.72656,13.835937 z m -9.26562,-28.03125 c -1.27735,1.117188 -3.41407,2.992188 -3.96485,5.847656 -0.34375,1.777344 0.0274,3.421876 0.5586,4.769532 l -24.21485,17.433594 c -2.53125,-0.96875 -5.05859,-2.09375 -7.66406,-3.261719 -2.83203,-1.269531 -5.75781,-2.578125 -8.76172,-3.695313 -0.20703,-0.07422 -0.40625,-0.136718 -0.60937,-0.210937 l 39.98437,-28.640625 c 4.22656,0.855468 8.26172,1.285156 12.10547,1.234375 z m -26.4336,-15.226562 -41.12109,28.363281 -0.10938,-14.527344 c 0.0156,-0.01172 0.0352,-0.01172 0.0508,-0.02344 L 290.53906,13.46875 c 3.23828,1.226562 6.46094,2.671875 9.78516,4.167969 0.58203,0.265625 1.18359,0.53125 1.77734,0.796875 z m -19.51172,-7.417969 c 1.01954,0.230469 2.02344,0.5 3.02344,0.792969 l -24.77734,15.707031 -0.0977,-13.023437 C 265.9609,10.339844 273.8984,9.066406 282.5898,11.015625 Z M 242.60938,111.71094 c 5.10937,-5.34766 10.39843,-10.8711 16.625,-9.98047 4.11328,0.58984 7.69921,3.73828 11.6289,7.48828 4.17969,3.98828 8.3711,7.96484 12.56641,11.94531 25.91406,24.57422 52.70312,49.98828 75.95312,77.7461 2.4375,2.91406 4.52735,5.5625 5.39063,8.46875 0.68359,2.29297 0.42578,5.37109 -1.37891,6.8164 -1.53125,1.22266 -3.86328,1.10157 -5.76562,0.42578 -0.60547,-0.85546 -1.58203,-1.42578 -2.69922,-1.48046 -2.07031,-1.50391 -3.88281,-3.60157 -5.64063,-5.65625 L 279.70313,126.25 c -5.86719,-6.84766 -14.88282,-15.62891 -25.41407,-12.88281 -5.15625,1.34375 -8.87109,5.13281 -11.85547,8.17578 l -90.72265,92.55859 c -2.1211,2.16407 -4.52735,4.61719 -7.22266,5.49219 -1.84375,0.60156 -4.42969,0.16797 -5.13281,-1.3125 -1.08594,-2.30469 2.14844,-6.01172 4.17187,-8.01953 l 50.78516,-50.27734 c 7.65234,-7.57813 15.39453,-15.32813 22.87891,-22.82422 7.39453,-7.40625 15.03906,-15.0625 22.59375,-22.54297 0.92187,-0.91407 1.85937,-1.89844 2.82422,-2.90625 z M 28.679688,211.35938 c -0.02734,0 -0.05078,0 -0.07422,0 -4.324219,0 -6.867188,-0.73438 -7.5625,-2.1836 -0.746094,-1.55859 0.464843,-4.15234 1.746093,-6.48828 12.941407,-23.58594 27.003907,-46.94141 41.796876,-69.41406 4.441406,-6.7461 8.957031,-13.03907 15.296874,-15.88672 5.15625,-2.3125 11.515626,-2.25781 17.125,-2.20703 23.749999,0.21093 46.925779,0.33203 69.339849,0.44922 20.09765,0.10156 40.8125,0.21093 62,0.38281 -5.4336,5.41015 -10.85938,10.84375 -16.15625,16.14844 -7.48047,7.48828 -15.21094,15.23437 -22.84766,22.79687 l -50.78516,50.28125 c -2.05468,2.03125 -3.61328,4.00391 -4.69531,5.91406 z m 11.390624,7.04687 92.039068,-0.17969 c 0.10937,1.05078 0.38671,2.07813 0.85937,3.07032 1.8125,3.83984 5.87109,5.62109 9.82031,5.62109 1.33985,0 2.66407,-0.20313 3.88672,-0.60156 2.46485,-0.80078 4.54688,-2.19922 6.35938,-3.73047 l -1.02344,219.32422 c -4.97656,0.0664 -9.96094,0.12109 -14.92969,0.20312 C 105.375,442.62891 73.332031,443.5 41.5625,444.66797 Z M 503.59766,463.24609 c -2.34766,1.78125 -6.13672,1.90625 -10.14453,1.89844 L 7.394531,463.24609 c -0.269531,-0.60546 -0.371093,-1.3125 -0.296875,-2.11328 0.199219,-2.10937 1.585938,-4.36718 3.457032,-5.61718 3.773437,-2.52735 8.972656,-2.92969 14.882812,-3.17188 37.046875,-1.49219 74.64844,-2.55469 111.75781,-3.16016 65.71875,-1.07031 132.35157,-0.74218 198.04688,0.97657 32.84375,0.86328 66.13672,2.08593 98.95312,3.64453 16.60157,0.78906 33.41407,1.67578 49.97266,2.64062 1.76562,0.10157 3.75391,0.0781 5.85937,0.0469 4.57422,-0.0625 10.26563,-0.14063 13.25782,1.36719 1.33984,0.67578 1.58984,1.92578 1.63672,2.43359 0.0508,0.54687 0.0195,1.92969 -1.32422,2.95312 z m 0,0"
       style="fill:#000000;fill-opacity:1;fill-rule:nonzero;stroke:none;stroke-width:3.99333"
       id="path66" />
    <path
       d="m 310.33984,234.54688 c -1.80078,-17.30079 -12.17187,-31.42579 -31.71093,-43.17579 -14.26953,-8.58593 -29.85157,-8.27734 -46.31641,0.91797 -9.46875,5.28907 -17.25391,13.2461 -21.91406,22.41016 -9.92969,19.50781 -6.28516,45.20703 8.66406,61.10547 10.07031,10.70703 24.77344,16.53125 39.39063,16.53125 7.23828,0 14.46093,-1.42969 21.08203,-4.40625 20.125,-9.04688 33.08203,-31.5 30.80468,-53.38281 z m -33.70312,46.93359 c -17.32031,7.78906 -39.36719,3.36328 -52.42188,-10.51953 -12.97656,-13.80078 -16.13671,-36.11328 -7.51562,-53.05469 4.03125,-7.92969 10.80078,-14.83203 19.0625,-19.44531 7.36719,-4.11328 14.49219,-6.17188 21.32031,-6.17188 6.22656,0 12.21094,1.71094 17.90625,5.13672 17.7461,10.67578 26.7461,22.70313 28.32031,37.85547 1.96875,18.9375 -9.24609,38.36719 -26.67187,46.19922 z m 0,0"
       style="fill:#000000;fill-opacity:1;fill-rule:nonzero;stroke:none;stroke-width:3.99333"
       id="path68" />
    <path
       d="m 273.95313,201.71484 c -11.09766,-6.67968 -23.23829,-6.42578 -36.07813,0.74219 -7.40234,4.13672 -13.48437,10.35156 -17.125,17.50781 -7.75781,15.24219 -4.91016,35.32422 6.76953,47.7461 7.86328,8.36328 19.35547,12.91406 30.76953,12.91406 5.65625,0 11.29688,-1.11719 16.46875,-3.44141 15.71875,-7.0664 25.83985,-24.60156 24.0586,-41.6914 -1.40625,-13.51172 -9.53907,-24.5586 -24.86328,-33.77735 z m -0.85157,71.78125 c -14.08984,6.33594 -32.02343,2.73829 -42.64062,-8.55468 -10.55078,-11.22266 -13.1211,-29.36719 -6.11328,-43.14453 3.28125,-6.44922 8.78515,-12.0625 15.49609,-15.8125 5.99609,-3.34766 11.79688,-5.02344 17.36328,-5.02344 5.09766,0 9.9961,1.40625 14.66406,4.21484 14.35938,8.63672 21.64454,18.40235 22.92969,30.73047 1.60156,15.41016 -7.52344,31.21875 -21.69922,37.58984 z m 0,0"
       style="fill:#000000;fill-opacity:1;fill-rule:nonzero;stroke:none;stroke-width:3.99333"
       id="path70" />
    <path
       d="m 257.19531,210.96094 c -1.11328,0.0391 -1.98828,0.96875 -1.95312,2.08594 l 0.9375,28.86328 -20.02735,1.46093 c -1.10937,0.082 -1.94921,1.04688 -1.86718,2.16016 0.0781,1.0625 0.96484,1.875 2.01172,1.875 0.0508,0 0.10156,-0.004 0.14843,-0.008 l 21.96485,-1.60156 c 1.08203,-0.0781 1.90625,-0.9961 1.87109,-2.07813 l -1.00391,-30.80469 c -0.0351,-1.11328 -0.97265,-1.97265 -2.08203,-1.95312 z m 0,0"
       style="fill:#000000;fill-opacity:1;fill-rule:nonzero;stroke:none;stroke-width:3.99333"
       id="path72" />
    <path
       d="m 50.03125,309.87891 c 1.363281,1.51953 3.347656,1.67968 4.683594,1.67968 0.195312,0 0.378906,-0.004 0.542968,-0.008 l 31.285157,-0.59765 c 0.945312,-0.0156 2.527343,-0.0469 3.792969,-1.0625 1.585937,-1.26954 1.769531,-3.30079 1.871093,-4.39454 0.09375,-1.02734 0.269531,-2.9375 -0.917969,-4.42578 -0.449218,-0.5625 -0.992187,-0.93359 -1.558593,-1.19531 0.976562,-14.43359 1.914062,-29.33203 -1.683594,-43.80078 -0.980469,-3.95313 -2.605469,-8.90625 -6.492187,-12.11719 -4.96875,-4.10937 -12.917969,-4.26172 -18.910157,-0.36328 -4.921875,3.19922 -8.539062,8.78906 -10.191406,15.74609 -1.433594,6.01954 -1.308594,12.16407 -1.1875,18.10547 l 0.449219,22.31641 c -0.640625,0.25391 -1.265625,0.64062 -1.789063,1.24219 -1.242187,1.4414 -1.222656,3.30859 -1.210937,4.42187 0.01563,1.13281 0.03906,3.02344 1.316406,4.45313 z M 85.722656,299.27344 C 81.5625,299.25391 77.40625,299.25781 73.25,299.26953 l -0.175781,-26.97656 13.265625,-0.1875 c 0.558594,9.03516 -0.0078,18.19141 -0.617188,27.16797 z m -16.511718,0.004 c -2.304688,0.004 -4.613282,0.008 -6.914063,0.008 l -6.550781,-0.0117 -0.441406,-21.91016 c -0.03125,-1.59375 -0.05859,-3.20312 -0.0625,-4.8125 l 13.792968,-0.19922 z M 88.1875,305.125 c -0.08594,0.94141 -0.214844,1.48438 -0.375,1.61328 -0.195312,0.15625 -1,0.17188 -1.34375,0.17969 l -31.289062,0.59375 c -0.496094,0.008 -1.8125,0.0352 -2.136719,-0.32813 -0.265625,-0.29687 -0.277344,-1.3125 -0.285157,-1.80078 -0.0039,-0.47265 -0.01562,-1.45312 0.226563,-1.73047 0.28125,-0.32812 1.496094,-0.33984 1.972656,-0.33984 0.01953,0 0.03906,0 0.05859,0 l 7.277344,0.0117 c 3.261719,0.004 6.527343,-0.004 9.792969,-0.0117 4.757812,-0.0117 9.519531,-0.0234 14.28125,0.004 1.402343,0.008 1.699218,0.19531 1.765624,0.27343 0.117188,0.14454 0.132813,0.66407 0.05469,1.53516 z m -4.058594,-48.07812 c 0.902344,3.63281 1.503906,7.3125 1.882813,11.02343 l -12.960938,0.1836 -0.152343,-23.40235 c 2.289062,0.12891 4.445312,0.86328 6.082031,2.21875 2.980469,2.46094 4.316406,6.625 5.148437,9.97657 z M 64.851562,246.97656 c 1.242188,-0.80468 2.609376,-1.3789 4.007813,-1.73047 l 0.152344,23.06641 -13.6875,0.19531 c 0.128906,-2.78906 0.425781,-5.55468 1.0625,-8.23437 1.410156,-5.94141 4.417969,-10.66016 8.464843,-13.29688 z m 0,0"
       style="fill:#000000;fill-opacity:1;fill-rule:nonzero;stroke:none;stroke-width:3.99333"
       id="path74" />
    <path
       d="m 102.19531,309.87891 c 1.35938,1.51953 3.34766,1.67968 4.67969,1.67968 0.19922,0 0.38281,-0.004 0.54687,-0.008 l 31.28516,-0.59765 c 0.94531,-0.0156 2.52344,-0.0469 3.79297,-1.0625 1.58594,-1.26954 1.77344,-3.30469 1.87109,-4.39454 0.0938,-1.02734 0.26954,-2.9375 -0.91796,-4.42578 -0.44922,-0.5625 -0.99219,-0.93359 -1.5586,-1.19531 0.97656,-14.43359 1.91406,-29.33203 -1.67969,-43.80469 -0.98437,-3.95312 -2.60937,-8.90234 -6.49609,-12.11718 -4.96484,-4.10547 -12.91797,-4.25782 -18.91016,-0.36329 -4.91797,3.20313 -8.53906,8.79297 -10.1914,15.7461 -1.42969,6.02344 -1.3086,12.16797 -1.1875,18.10937 l 0.44922,22.31641 c -0.64063,0.25391 -1.26563,0.64062 -1.78516,1.24219 -1.24609,1.4375 -1.22266,3.30468 -1.21094,4.42187 0.0117,1.13281 0.0352,3.02344 1.3125,4.45313 z m 35.69141,-10.60547 c -4.16016,-0.0195 -8.31641,-0.0156 -12.47266,-0.004 l -0.17578,-26.97656 13.26563,-0.1875 c 0.55859,9.03516 -0.008,18.19141 -0.61719,27.16797 z m -16.51172,0.004 c -2.30469,0.004 -4.61328,0.008 -6.91406,0.008 l -6.55078,-0.0117 -0.44141,-21.91016 c -0.0312,-1.59375 -0.0625,-3.20312 -0.0625,-4.8125 l 13.79297,-0.19922 z m 18.97266,5.85157 c -0.0859,0.9375 -0.21094,1.48047 -0.375,1.60937 -0.19141,0.15625 -1,0.17188 -1.34375,0.17969 l -31.28516,0.59375 c -0.5,0.0117 -1.8125,0.0352 -2.14063,-0.32813 -0.26562,-0.29687 -0.27734,-1.3125 -0.28125,-1.80078 -0.008,-0.47265 -0.0156,-1.45312 0.22657,-1.73437 0.28125,-0.32422 1.49218,-0.33594 1.97265,-0.33594 0.0195,0 0.0391,0 0.0547,0 l 7.27734,0.0117 c 3.26563,0.004 6.53125,-0.004 9.79297,-0.0117 4.76172,-0.0117 9.51954,-0.0234 14.28516,0.004 1.39844,0.008 1.69922,0.19531 1.76563,0.27343 0.11328,0.14844 0.13281,0.66407 0.0508,1.53907 z m -4.05469,-48.08203 c 0.90234,3.63281 1.5,7.3125 1.88281,11.02343 l -12.96094,0.1836 -0.15234,-23.40235 c 2.28516,0.12891 4.44531,0.86328 6.08203,2.21875 2.97656,2.46094 4.31641,6.625 5.14844,9.97657 z m -19.28125,-10.06641 c 1.24219,-0.80859 2.60937,-1.38281 4.01172,-1.73438 l 0.14843,23.06641 -13.68359,0.19531 c 0.125,-2.78515 0.42188,-5.55468 1.05859,-8.23437 1.41407,-5.94141 4.41797,-10.66016 8.46485,-13.29297 z m 0,0"
       style="fill:#000000;fill-opacity:1;fill-rule:nonzero;stroke:none;stroke-width:3.99333"
       id="path76" />
    <path
       d="m 89.730469,387.48828 c 0.980469,-14.43359 1.914062,-29.33203 -1.679688,-43.80469 -0.984375,-3.94921 -2.609375,-8.90234 -6.496093,-12.11328 -4.964844,-4.10937 -12.917969,-4.26172 -18.90625,-0.36328 -4.921876,3.19922 -8.542969,8.78906 -10.195313,15.7461 -1.429687,6.01953 -1.304687,12.16406 -1.1875,18.10546 L 51.71875,387.375 c -0.640625,0.25391 -1.265625,0.64063 -1.789062,1.24219 -1.246094,1.4375 -1.222657,3.30469 -1.210938,4.42187 0.01172,1.13282 0.03516,3.02344 1.3125,4.45313 1.363281,1.51953 3.351562,1.67969 4.6875,1.67969 0.195312,0 0.375,-0.004 0.539062,-0.008 l 31.285157,-0.59375 c 0.945312,-0.0195 2.527343,-0.0508 3.792969,-1.0664 1.585937,-1.26563 1.773437,-3.30078 1.875,-4.39453 0.09375,-1.02735 0.265624,-2.9336 -0.921876,-4.42579 -0.445312,-0.5625 -0.992187,-0.93359 -1.558593,-1.19531 z m -33.984375,-0.60156 -0.441406,-21.91016 c -0.03125,-1.59375 -0.05859,-3.20312 -0.0625,-4.8125 l 13.792968,-0.19922 0.175782,26.92188 c -2.304688,0.008 -4.609376,0.0117 -6.914063,0.0117 z m 17.503906,-0.004 -0.171875,-26.97656 13.261719,-0.1875 c 0.5625,9.03516 -0.0078,18.19141 -0.617188,27.16797 -4.15625,-0.0195 -8.316406,-0.0117 -12.472656,-0.004 z m 10.878906,-42.22265 c 0.902344,3.63281 1.503906,7.3125 1.882813,11.01953 l -12.960938,0.1875 -0.152343,-23.40625 c 2.285156,0.1289 4.445312,0.86719 6.082031,2.21875 2.980469,2.46484 4.316406,6.6289 5.148437,9.98047 z M 64.851562,334.58984 c 1.242188,-0.80468 2.609376,-1.3789 4.007813,-1.73437 l 0.152344,23.07031 -13.6875,0.19531 c 0.128906,-2.78906 0.425781,-5.55468 1.0625,-8.23437 1.410156,-5.94141 4.417969,-10.66406 8.464843,-13.29688 z M 88.1875,392.73828 c -0.08594,0.94141 -0.214844,1.48047 -0.375,1.61328 -0.195312,0.15625 -1,0.17188 -1.34375,0.17578 L 55.183594,395.125 c -0.496094,0.008 -1.816406,0.0352 -2.140625,-0.33203 -0.265625,-0.29297 -0.277344,-1.30859 -0.285157,-1.80078 -0.0039,-0.46875 -0.01562,-1.44922 0.226563,-1.73047 0.28125,-0.32422 1.496094,-0.33594 1.972656,-0.33594 0.02344,0 0.04297,0 0.05859,0 l 7.277344,0.008 c 3.277343,0.008 6.558593,0 9.839843,-0.008 4.746094,-0.0117 9.488282,-0.0234 14.234376,0.004 1.402343,0.008 1.703124,0.1914 1.765624,0.27344 0.117188,0.14453 0.132813,0.66406 0.05469,1.53515 z m 0,0"
       style="fill:#000000;fill-opacity:1;fill-rule:nonzero;stroke:none;stroke-width:3.99333"
       id="path78" />
    <path
       d="m 142.5,397.50391 c 1.58594,-1.26953 1.77344,-3.30078 1.87109,-4.39453 0.0938,-1.02735 0.26954,-2.9336 -0.91796,-4.42579 -0.44922,-0.5625 -0.99219,-0.92968 -1.5586,-1.19531 0.97656,-14.43359 1.91406,-29.33203 -1.67969,-43.80469 -0.98437,-3.95312 -2.60937,-8.90234 -6.49609,-12.11328 -4.96484,-4.10937 -12.91797,-4.26172 -18.91016,-0.36328 -4.91797,3.19922 -8.53906,8.79297 -10.1914,15.7461 -1.42969,6.02343 -1.3086,12.16406 -1.1875,18.10546 l 0.44922,22.31641 c -0.64063,0.25781 -1.26563,0.64063 -1.78516,1.24609 -1.24609,1.4336 -1.22266,3.30079 -1.21094,4.41797 0.0117,1.13282 0.0312,3.02344 1.3125,4.45313 1.36328,1.51953 3.35156,1.67969 4.6836,1.67969 0.19531,0 0.3789,-0.004 0.53906,-0.008 l 31.28906,-0.59375 c 0.94531,-0.0234 2.52344,-0.0508 3.79297,-1.0664 z m -34.58984,-10.61719 -0.44141,-21.91016 c -0.0312,-1.59375 -0.0625,-3.20312 -0.0625,-4.8125 l 13.79297,-0.19922 0.17578,26.92188 c -2.30859,0.008 -4.60938,0.0117 -6.91797,0.0117 z m 17.5039,-0.004 -0.17578,-26.97656 13.26563,-0.1875 c 0.55859,9.03516 -0.0117,18.19141 -0.61719,27.16797 -4.16016,-0.0195 -8.31641,-0.0117 -12.47266,-0.004 z m 10.87891,-42.22265 c 0.90234,3.63281 1.5,7.3125 1.88281,11.01953 l -12.96094,0.1875 -0.15234,-23.40625 c 2.28516,0.13281 4.44531,0.86719 6.08203,2.21875 2.97656,2.46484 4.31641,6.625 5.14844,9.98047 z m -19.28125,-10.07032 c 1.24219,-0.80468 2.60937,-1.3789 4.01172,-1.73437 l 0.14843,23.07031 -13.68359,0.19531 c 0.125,-2.78906 0.42188,-5.55468 1.05859,-8.23437 1.41407,-5.94141 4.41797,-10.66406 8.46485,-13.29688 z m -9.66797,60.53516 c -0.49609,0.008 -1.81641,0.0352 -2.14063,-0.33203 -0.26562,-0.29688 -0.27734,-1.3125 -0.28125,-1.79688 -0.008,-0.47265 -0.0156,-1.45312 0.22657,-1.73437 0.28125,-0.32422 1.49218,-0.33594 1.97265,-0.33594 0.0195,0 0.0391,0 0.0586,0 l 7.27343,0.008 c 3.28125,0.008 6.5625,0 9.84375,-0.008 4.74219,-0.0117 9.48829,-0.0234 14.23438,0.004 1.39844,0.008 1.69922,0.1914 1.76563,0.27344 0.11718,0.14453 0.13281,0.66406 0.0547,1.53906 -0.0859,0.9375 -0.21484,1.48047 -0.375,1.60937 -0.19531,0.15625 -1.0039,0.17188 -1.34765,0.17969 z m 0,0"
       style="fill:#000000;fill-opacity:1;fill-rule:nonzero;stroke:none;stroke-width:3.99333"
       id="path80" />
    <path
       d="m 410.68359,299.875 c 0.98047,-14.43359 1.91407,-29.33203 -1.67968,-43.80078 -0.98438,-3.95313 -2.60938,-8.90234 -6.4961,-12.11719 -4.96484,-4.10937 -12.91797,-4.25781 -18.91015,-0.36328 -4.91797,3.19922 -8.53907,8.79297 -10.19141,15.74609 -1.42969,6.01954 -1.30469,12.16407 -1.1875,18.10547 l 0.45313,22.31641 c -0.64454,0.25391 -1.26563,0.64062 -1.78907,1.24609 -1.24218,1.4336 -1.22265,3.30078 -1.21093,4.41797 0.0117,1.13281 0.0351,3.02344 1.3125,4.45313 1.36328,1.51953 3.34765,1.67968 4.68359,1.67968 0.19531,0 0.37891,-0.004 0.54297,-0.008 l 31.28515,-0.59375 c 0.94532,-0.0195 2.52735,-0.0508 3.79297,-1.0664 1.58594,-1.26954 1.77344,-3.30079 1.875,-4.39063 0.0938,-1.02734 0.26953,-2.93359 -0.92187,-4.42969 -0.44531,-0.55859 -0.99219,-0.92968 -1.5586,-1.19531 z m -33.98437,-0.60156 -0.44141,-21.91016 c -0.0312,-1.59375 -0.0625,-3.20312 -0.0625,-4.8125 l 13.79297,-0.19922 0.17578,26.92578 c -2.30468,0.004 -4.61328,0.008 -6.91406,0.008 z m 17.50391,-0.004 -0.17579,-26.97656 13.26563,-0.1875 c 0.55859,9.03516 -0.0117,18.19141 -0.61719,27.16797 -4.16015,-0.0195 -8.3164,-0.0156 -12.47265,-0.004 z m 10.8789,-42.22265 c 0.90235,3.63281 1.5,7.3125 1.88281,11.02343 l -12.96093,0.1836 -0.15235,-23.40235 c 2.28516,0.12891 4.44532,0.86328 6.08203,2.21875 2.98047,2.46094 4.31641,6.625 5.14844,9.97657 z m -19.28125,-10.07032 c 1.24219,-0.80468 2.61328,-1.3789 4.01172,-1.73047 l 0.15234,23.06641 -13.6875,0.19531 c 0.125,-2.78906 0.42188,-5.55468 1.0586,-8.23437 1.41406,-5.94141 4.42187,-10.66016 8.46484,-13.29688 z m 23.33985,58.15235 c -0.0859,0.9375 -0.21485,1.48047 -0.375,1.60937 -0.19532,0.15625 -1.00391,0.17188 -1.34766,0.17969 l -31.28516,0.59375 c -0.49609,0.008 -1.8125,0.0352 -2.13672,-0.32813 -0.26953,-0.29687 -0.27734,-1.3125 -0.28515,-1.80078 -0.004,-0.47265 -0.0156,-1.45312 0.22656,-1.73047 0.28125,-0.32812 1.49219,-0.33984 1.97266,-0.33984 0.0195,0 0.0391,0 0.0586,0 l 7.27344,0.0117 c 3.26562,0.004 6.53125,-0.004 9.79297,-0.0117 4.76172,-0.0117 9.51953,-0.0234 14.28515,0.004 1.40235,0.008 1.69922,0.19531 1.76563,0.27343 0.11719,0.14844 0.13281,0.66407 0.0547,1.53907 z m 0,0"
       style="fill:#000000;fill-opacity:1;fill-rule:nonzero;stroke:none;stroke-width:3.99333"
       id="path82" />
    <path
       d="m 423.14844,309.87891 c 1.35937,1.51953 3.34375,1.67968 4.67969,1.67968 0.19531,0 0.3789,-0.004 0.54296,-0.008 l 31.28907,-0.59765 c 0.94531,-0.0156 2.52343,-0.0469 3.79297,-1.0625 1.58593,-1.26954 1.76953,-3.30079 1.87109,-4.39454 0.0938,-1.02734 0.26953,-2.93359 -0.92188,-4.42578 -0.44531,-0.5625 -0.98828,-0.93359 -1.55468,-1.19531 0.97656,-14.43359 1.91406,-29.33203 -1.6836,-43.80078 -0.98047,-3.95313 -2.60547,-8.90625 -6.49218,-12.11719 -4.96875,-4.10937 -12.91797,-4.26172 -18.91016,-0.36328 -4.91797,3.19922 -8.53906,8.79297 -10.19141,15.74609 -1.43359,6.01954 -1.30859,12.16407 -1.1875,18.10547 l 0.44922,22.31641 c -0.64453,0.25781 -1.26562,0.64062 -1.78906,1.24219 -1.24219,1.4375 -1.22266,3.30468 -1.21094,4.42187 0.0156,1.13281 0.0352,3.02344 1.31641,4.45313 z m 35.6914,-10.60547 c -4.16015,-0.0195 -8.3164,-0.0156 -12.47265,-0.004 l -0.17578,-26.97656 13.26562,-0.1875 c 0.5586,9.03516 -0.0117,18.19141 -0.61719,27.16797 z m -16.51171,0.004 c -2.3086,0.004 -4.61329,0.008 -6.91407,0.008 l -6.55078,-0.0117 -0.4414,-21.91016 c -0.0312,-1.59375 -0.0625,-3.20312 -0.0625,-4.8125 l 13.79296,-0.19922 z m 18.97265,5.85157 c -0.0859,0.9375 -0.21094,1.48047 -0.375,1.60937 -0.19531,0.15625 -1,0.17188 -1.34375,0.17578 l -31.28515,0.59766 c -0.4961,0.0117 -1.81641,0.0352 -2.14063,-0.33203 -0.26562,-0.29688 -0.27734,-1.3125 -0.28125,-1.79688 -0.008,-0.47265 -0.0195,-1.45312 0.22266,-1.73437 0.28125,-0.32422 1.49609,-0.33594 1.97265,-0.33594 0.0234,0 0.0391,0 0.0586,0 l 7.27734,0.0117 c 3.26563,0.004 6.52734,-0.004 9.79297,-0.0117 4.75781,-0.0156 9.51953,-0.0273 14.28125,0.004 1.40234,0.008 1.70312,0.1914 1.76562,0.27343 0.11719,0.14844 0.13672,0.66407 0.0547,1.53907 z m -4.05469,-48.08203 c 0.90235,3.63281 1.5,7.3125 1.88282,11.02343 l -12.96485,0.1836 -0.15234,-23.40625 c 2.28906,0.13281 4.44922,0.86718 6.08594,2.22265 2.97656,2.46094 4.3164,6.625 5.14843,9.97657 z m -19.28125,-10.06641 c 1.24219,-0.80859 2.60938,-1.38281 4.01172,-1.73438 l 0.14844,23.06641 -13.68359,0.19531 c 0.125,-2.78515 0.42187,-5.55468 1.05859,-8.23437 1.41406,-5.94141 4.41797,-10.66016 8.46484,-13.29297 z m 0,0"
       style="fill:#000000;fill-opacity:1;fill-rule:nonzero;stroke:none;stroke-width:3.99333"
       id="path84" />
    <path
       d="m 410.68359,387.48828 c 0.98047,-14.43359 1.91407,-29.33203 -1.67968,-43.80469 -0.98438,-3.94921 -2.60938,-8.90234 -6.4961,-12.11328 -4.96484,-4.10937 -12.91797,-4.26172 -18.90625,-0.36328 -4.92187,3.19922 -8.54297,8.78906 -10.19531,15.7461 -1.42969,6.01953 -1.30469,12.16406 -1.1875,18.10546 l 0.45313,22.31641 c -0.64454,0.25391 -1.26563,0.64063 -1.78907,1.24219 -1.24218,1.4375 -1.22265,3.30469 -1.21093,4.42187 0.0117,1.12891 0.0351,3.02344 1.3125,4.45313 1.36328,1.51953 3.35156,1.67969 4.6875,1.67969 0.19531,0 0.375,-0.004 0.53906,-0.008 l 31.28515,-0.59375 c 0.94532,-0.0195 2.52735,-0.0508 3.79297,-1.0664 1.58985,-1.26953 1.77344,-3.30078 1.875,-4.39453 0.0938,-1.02344 0.26953,-2.9336 -0.92187,-4.42579 -0.44531,-0.5625 -0.99219,-0.93359 -1.5586,-1.19531 z m -33.98437,-0.60156 -0.44141,-21.91016 c -0.0312,-1.59375 -0.0625,-3.20312 -0.0625,-4.8125 l 13.79297,-0.19922 0.17578,26.92188 c -2.30468,0.008 -4.60937,0.0117 -6.91406,0.0117 z m 17.50391,-0.004 -0.17579,-26.97656 13.26563,-0.1875 c 0.55859,9.03516 -0.0117,18.19141 -0.61719,27.16797 -4.15625,-0.0195 -8.3164,-0.0117 -12.47265,-0.004 z m 10.8789,-42.22265 c 0.90235,3.63281 1.5,7.3125 1.88281,11.01953 l -12.96093,0.1875 -0.15235,-23.40625 c 2.28516,0.1289 4.44532,0.86719 6.08203,2.21875 2.98047,2.46484 4.31641,6.6289 5.14844,9.98047 z m -19.28125,-10.07032 c 1.24219,-0.80468 2.61328,-1.3789 4.01172,-1.73437 l 0.15234,23.07031 -13.6875,0.19531 c 0.125,-2.78906 0.42188,-5.55468 1.0586,-8.23437 1.41406,-5.94141 4.42187,-10.66406 8.46484,-13.29688 z m 23.33985,58.15235 c -0.0859,0.9375 -0.21094,1.47656 -0.375,1.60937 -0.19532,0.15625 -1.00391,0.17188 -1.34766,0.17578 l -31.28516,0.59766 c -0.49609,0.008 -1.8125,0.0352 -2.14062,-0.33203 -0.26563,-0.29688 -0.27735,-1.3125 -0.28125,-1.80078 -0.004,-0.46875 -0.0156,-1.45313 0.22265,-1.73047 0.28516,-0.32813 1.4961,-0.33984 1.97657,-0.33984 0.0195,0 0.0391,0 0.0586,0 l 7.27344,0.0117 c 3.28125,0.004 6.5625,-0.004 9.84375,-0.0117 4.74609,-0.0117 9.48437,-0.0195 14.23437,0.004 1.40235,0.008 1.69922,0.19531 1.76563,0.27735 0.11719,0.14453 0.13281,0.66406 0.0547,1.53906 z m 0,0"
       style="fill:#000000;fill-opacity:1;fill-rule:nonzero;stroke:none;stroke-width:3.99333"
       id="path86" />
    <path
       d="m 463.45313,397.50391 c 1.58593,-1.26953 1.76953,-3.30469 1.87109,-4.39453 0.0938,-1.02735 0.26953,-2.9375 -0.91797,-4.42579 -0.44922,-0.5625 -0.99219,-0.93359 -1.55859,-1.19531 0.97656,-14.43359 1.91406,-29.33203 -1.67969,-43.80469 -0.98438,-3.95312 -2.60938,-8.90234 -6.49609,-12.11718 -4.96485,-4.10547 -12.91797,-4.25782 -18.91016,-0.35938 -4.91797,3.19922 -8.53906,8.78906 -10.19141,15.7461 -1.42968,6.01953 -1.30859,12.16406 -1.1875,18.10546 l 0.44922,22.31641 c -0.64062,0.25781 -1.26562,0.64063 -1.78906,1.24609 -1.24219,1.4336 -1.22266,3.30079 -1.20703,4.41797 0.0117,1.13282 0.0312,3.02344 1.3125,4.45313 1.35937,1.51953 3.35156,1.67969 4.68359,1.67969 0.19531,0 0.37891,-0.004 0.53906,-0.008 l 31.28907,-0.59375 c 0.94531,-0.0234 2.52734,-0.0508 3.79297,-1.0664 z m -34.58985,-10.61719 -0.4414,-21.91016 c -0.0312,-1.59375 -0.0625,-3.20312 -0.0625,-4.8125 l 13.79296,-0.19922 0.17579,26.92188 c -2.30469,0.008 -4.60938,0.0117 -6.91407,0.0117 z m 17.50391,-0.004 -0.17578,-26.97656 13.26562,-0.1875 c 0.5586,9.03516 -0.0117,18.19141 -0.61719,27.16797 -4.16015,-0.0195 -8.3164,-0.0117 -12.47265,-0.004 z m 10.8789,-42.22265 c 0.90235,3.63281 1.5,7.3125 1.88282,11.01953 l -12.96485,0.1875 -0.15234,-23.40625 c 2.28906,0.13281 4.44922,0.86719 6.08594,2.21875 2.97656,2.46484 4.3164,6.6289 5.14843,9.98047 z m -19.28125,-10.07032 c 1.24219,-0.80468 2.60938,-1.3789 4.01172,-1.73437 l 0.14844,23.07031 -13.68359,0.19531 c 0.125,-2.78906 0.42187,-5.55468 1.05859,-8.23437 1.41406,-5.94141 4.41797,-10.66406 8.46484,-13.29688 z m -9.66796,60.53516 c -0.4961,0.008 -1.81641,0.0352 -2.14063,-0.33203 -0.26562,-0.29688 -0.27734,-1.3125 -0.28125,-1.79688 -0.008,-0.47265 -0.0195,-1.45312 0.22266,-1.73437 0.28125,-0.32422 1.49609,-0.33594 1.97265,-0.33594 0.0234,0 0.043,0 0.0586,0 l 7.27734,0.008 c 3.27734,0.008 6.5625,0 9.83984,-0.008 4.7461,-0.0117 9.49219,-0.0234 14.23438,0.004 1.40234,0.008 1.70312,0.1914 1.76562,0.27344 0.11719,0.14453 0.13672,0.66406 0.0547,1.53906 -0.0859,0.9375 -0.21094,1.48047 -0.375,1.60937 -0.19531,0.15625 -1,0.17188 -1.34375,0.17578 z m 0,0"
       style="fill:#000000;fill-opacity:1;fill-rule:nonzero;stroke:none;stroke-width:3.99333"
       id="path88" />
  </g>
</svg>
