<?xml version="1.0" encoding="UTF-8" standalone="no"?>
<svg
   xmlns:dc="http://purl.org/dc/elements/1.1/"
   xmlns:cc="http://creativecommons.org/ns#"
   xmlns:rdf="http://www.w3.org/1999/02/22-rdf-syntax-ns#"
   xmlns:svg="http://www.w3.org/2000/svg"
   xmlns="http://www.w3.org/2000/svg"
   xmlns:sodipodi="http://sodipodi.sourceforge.net/DTD/sodipodi-0.dtd"
   xmlns:inkscape="http://www.inkscape.org/namespaces/inkscape"
   id="Flat"
   height="170"
   viewBox="0 0 160 170"
   width="160"
   version="1.1"
   sodipodi:docname="science.svg"
   inkscape:version="1.0.2 (e86c870879, 2021-01-15, custom)">
  <metadata
     id="metadata23">
    <rdf:RDF>
      <cc:Work
         rdf:about="">
        <dc:format>image/svg+xml</dc:format>
        <dc:type
           rdf:resource="http://purl.org/dc/dcmitype/StillImage" />
        <dc:title></dc:title>
      </cc:Work>
    </rdf:RDF>
  </metadata>
  <defs
     id="defs21" />
  <sodipodi:namedview
     pagecolor="#ffffff"
     bordercolor="#666666"
     borderopacity="1"
     objecttolerance="10"
     gridtolerance="10"
     guidetolerance="10"
     inkscape:pageopacity="0"
     inkscape:pageshadow="2"
     inkscape:window-width="1920"
     inkscape:window-height="1017"
     id="namedview19"
     showgrid="false"
     inkscape:zoom="3.3203125"
     inkscape:cx="86.351847"
     inkscape:cy="78.544101"
     inkscape:window-x="-8"
     inkscape:window-y="-8"
     inkscape:window-maximized="1"
     inkscape:current-layer="Flat" />
  <path
     d="m 80.715293,162.89882 c -8.90418,0 -17.1188,-7.25136 -23.129981,-20.41851 -5.749661,-12.59208 -8.915909,-29.28756 -8.915909,-47.007367 0,-17.719803 3.166248,-34.41389 8.915909,-47.007358 6.011181,-13.167153 14.225801,-20.418525 23.129981,-20.418525 8.904181,0 17.118805,7.251372 23.129977,20.418525 5.74967,12.593468 8.91592,29.287555 8.91592,47.007358 0,17.719807 -3.16625,34.415287 -8.91592,47.007367 -6.011172,13.16715 -14.225796,20.41851 -23.129977,20.41851 z m 0,-130.356701 c -6.891011,0 -13.798904,6.474009 -18.952569,17.762225 -5.491293,12.027654 -8.515337,28.068833 -8.515337,45.168599 0,17.099767 3.024044,33.140947 8.515337,45.168597 5.153665,11.28823 12.061558,17.76223 18.952569,17.76223 6.891011,0 13.798905,-6.474 18.952571,-17.76223 5.491286,-12.02765 8.515336,-28.06883 8.515336,-45.168597 0,-17.099766 -3.02405,-33.140945 -8.515336,-45.168599 C 94.514198,39.016128 87.606304,32.542119 80.715293,32.542119 Z"
     fill="#3397e8"
     id="path2"
     style="stroke-width:1" />
  <path
     d="m 120.43503,142.67275 a 65.753589,64.56253 0 0 1 -11.52307,-1.08612 C 93.986874,138.96208 76.956768,131.8596 60.957571,121.58727 49.092293,113.96843 38.700269,105.16766 30.904534,96.135965 23.176037,87.18237 18.374305,78.450435 17.018648,70.884409 15.97916,65.082131 16.959128,60.165941 19.932251,56.272377 c 5.489288,-7.187599 17.063292,-9.642463 32.586378,-6.913119 14.925088,2.624553 31.955188,9.727026 47.954381,19.999359 11.86529,7.618845 22.25732,16.419609 30.05304,25.451306 7.7285,8.953587 12.53024,17.685517 13.88588,25.251267 1.0395,5.80257 0.0595,10.71876 -2.91359,14.61232 -4.02749,5.27242 -11.32936,7.99924 -21.06331,7.99924 z M 41.061365,52.778313 c -8.216051,0 -14.359135,2.12279 -17.465011,6.190538 -2.183985,2.859701 -2.879553,6.606894 -2.067819,11.136789 2.557663,14.271812 19.018379,33.00412 41.935769,47.71955 15.49476,9.94924 31.921427,16.8163 46.254526,19.33662 13.53366,2.37985 23.78263,0.49024 28.1154,-5.18477 2.18399,-2.8597 2.87955,-6.60689 2.06782,-11.1368 C 137.34439,106.56843 120.88367,87.83612 97.96628,73.120701 82.471522,63.171451 66.044855,56.304405 51.711759,53.784081 A 60.848278,59.746076 0 0 0 41.061365,52.778313 Z"
     fill="#1261a0"
     id="path4"
     style="stroke-width:1" />
  <path
     d="m 40.995556,142.67275 c -9.73537,0 -17.035252,-2.72513 -21.062162,-7.99924 -2.973115,-3.89356 -3.953089,-8.80975 -2.9136,-14.61232 1.355654,-7.56575 6.157388,-16.29768 13.885884,-25.251267 C 38.701414,85.778226 49.093437,76.977462 60.958715,69.358617 76.956768,59.086284 93.986874,51.983811 108.9131,49.359258 c 15.5248,-2.729625 27.09595,-0.274761 32.58524,6.913119 2.97311,3.893564 3.95309,8.809754 2.91359,14.612032 -1.35564,7.566026 -6.15738,16.297961 -13.88588,25.251556 -7.79572,9.031695 -18.18775,17.832465 -30.05304,25.451305 -15.998048,10.27233 -33.028149,17.37481 -47.954381,19.99936 a 65.751301,64.560284 0 0 1 -11.523073,1.08612 z m 21.216097,-71.432949 1.252651,1.8809 C 40.546914,87.83612 24.086198,106.56731 21.528535,120.84024 c -0.811734,4.52991 -0.116171,8.2771 2.067819,11.1368 4.333062,5.67501 14.580881,7.56462 28.115405,5.18477 14.333096,-2.52032 30.758332,-9.38738 46.254521,-19.33662 22.91853,-14.71543 39.37811,-33.446614 41.93577,-47.71955 0.81173,-4.529895 0.11617,-8.277088 -2.06782,-11.136789 -4.33306,-5.675012 -14.58087,-7.564622 -28.1154,-5.18477 -14.333099,2.520324 -30.759766,9.38737 -46.254526,19.33662 z"
     fill="#2978b8"
     id="path6"
     style="stroke-width:1" />
  <ellipse
     cx="80.715294"
     cy="95.472939"
     fill="#eb423f"
     id="circle8"
     style="stroke-width:1"
     rx="16.022945"
     ry="15.732706" />
  <g
     fill="#f7b030"
     id="g16"
     transform="matrix(0.28612402,0,0,0.28094117,7.4675433,23.552001)"
     style="stroke-width:3.52709">
    <circle
       cx="64"
       cy="296"
       r="24"
       id="circle10"
       style="stroke-width:3.52709" />
    <circle
       cx="384"
       cy="416"
       r="24"
       id="circle12"
       style="stroke-width:3.52709" />
    <circle
       cx="312"
       cy="64"
       r="24"
       id="circle14"
       style="stroke-width:3.52709" />
  </g>
</svg>
