<?xml version="1.0" encoding="UTF-8" standalone="no"?>
<svg
   xmlns:dc="http://purl.org/dc/elements/1.1/"
   xmlns:cc="http://creativecommons.org/ns#"
   xmlns:rdf="http://www.w3.org/1999/02/22-rdf-syntax-ns#"
   xmlns:svg="http://www.w3.org/2000/svg"
   xmlns="http://www.w3.org/2000/svg"
   xmlns:sodipodi="http://sodipodi.sourceforge.net/DTD/sodipodi-0.dtd"
   xmlns:inkscape="http://www.inkscape.org/namespaces/inkscape"
   id="Capa_1"
   enable-background="new 0 0 512 512"
   height="170"
   viewBox="0 0 160 170"
   width="160"
   version="1.1"
   sodipodi:docname="spending.svg"
   inkscape:version="1.0.2 (e86c870879, 2021-01-15, custom)">
  <metadata
     id="metadata73">
    <rdf:RDF>
      <cc:Work
         rdf:about="">
        <dc:format>image/svg+xml</dc:format>
        <dc:type
           rdf:resource="http://purl.org/dc/dcmitype/StillImage" />
        <dc:title></dc:title>
      </cc:Work>
    </rdf:RDF>
  </metadata>
  <defs
     id="defs71" />
  <sodipodi:namedview
     pagecolor="#ffffff"
     bordercolor="#666666"
     borderopacity="1"
     objecttolerance="10"
     gridtolerance="10"
     guidetolerance="10"
     inkscape:pageopacity="0"
     inkscape:pageshadow="2"
     inkscape:window-width="1920"
     inkscape:window-height="1017"
     id="namedview69"
     showgrid="false"
     inkscape:zoom="2.8284271"
     inkscape:cx="114.38047"
     inkscape:cy="98.216481"
     inkscape:window-x="-8"
     inkscape:window-y="-8"
     inkscape:window-maximized="1"
     inkscape:current-layer="g66" />
  <g
     id="g66"
     transform="matrix(0.31054822,0,0,0.31271779,-39.410132,28.82195)"
     style="stroke-width:3.20892">
    <g
       id="g32"
       transform="matrix(0.8576901,0,0,0.85353118,168.71096,5.9719106)"
       style="stroke-width:3.75046">
      <g
         fill="#31a7fb"
         id="g6"
         style="stroke-width:12.0349">
        <path
           d="m 44.874,95.184 h 10.918 v 56.165 h 53.282 V 95.184 h 10.918 c 8.79,0 13.295,-10.528 7.232,-16.882 L 89.665,38.885 c -3.936,-4.125 -10.528,-4.125 -14.464,0 L 37.642,78.302 c -6.064,6.353 -1.559,16.882 7.232,16.882 z"
           id="path2"
           style="stroke-width:3.75046" />
        <path
           d="m 350.539,95.184 h 10.918 v 56.165 h 53.282 V 95.184 h 10.918 c 8.79,0 13.295,-10.528 7.232,-16.882 L 395.33,38.885 c -3.936,-4.125 -10.528,-4.125 -14.464,0 l -37.559,39.417 c -6.064,6.353 -1.559,16.882 7.232,16.882 z"
           id="path4"
           style="stroke-width:3.75046" />
      </g>
      <g
         id="g28"
         style="stroke-width:3.75046">
        <g
           id="g26"
           style="stroke-width:3.75046">
          <g
             id="g14"
             style="stroke-width:3.75046">
            <path
               d="M 463.026,399.131 V 150.104 c 0,-5.524 -4.475,-9.999 -9.989,-9.999 H 17.494 c -5.514,0 -9.989,4.475 -9.989,9.999 v 249.027 c 0,5.514 4.475,9.989 9.989,9.989 h 435.543 c 5.514,0 9.989,-4.475 9.989,-9.989 z"
               fill="#a9eddc"
               id="path8"
               style="stroke-width:12.0349" />
            <path
               d="M 463.03,399.123 V 150.107 c 0,-5.527 -4.478,-9.995 -9.995,-9.995 h -29.986 c 5.517,0 9.995,4.468 9.995,9.995 v 249.016 c 0,5.527 -4.478,9.995 -9.995,9.995 h 29.986 c 5.517,0 9.995,-4.468 9.995,-9.995 z"
               fill="#64e0c4"
               id="path10"
               style="stroke-width:12.0349" />
            <path
               d="M 37.482,374.138 V 215.762 c 0,-2.557 1.948,-4.685 4.495,-4.965 19.029,-2.068 34.143,-17.181 36.22,-36.21 0.27,-2.547 2.397,-4.485 4.955,-4.485 h 344.892 c 2.767,0 5.005,2.238 5.005,4.995 v 158.367 c 0,2.567 -1.948,4.685 -4.495,4.965 -19.029,2.078 -34.143,17.181 -36.22,36.21 -0.27,2.547 -2.397,4.495 -4.955,4.495 H 42.486 c -2.767,-0.001 -5.004,-2.239 -5.004,-4.996 z"
               fill="#27d1b3"
               id="path12"
               style="stroke-width:12.0349" />
          </g>
          <g
             fill="#c8f2e7"
             id="g24"
             style="stroke-width:12.0349">
            <circle
               cx="235.265"
               cy="274.61499"
               r="62.846001"
               id="circle16"
               style="stroke-width:3.75046" />
            <g
               id="g22"
               style="stroke-width:3.75046">
              <path
                 d="m 77.417,314.475 h 13.41 c 5.52,0 9.995,4.475 9.995,9.995 v 13.41 c 0,5.52 -4.475,9.995 -9.995,9.995 h -13.41 c -5.52,0 -9.995,-4.475 -9.995,-9.995 v -13.41 c 0,-5.52 4.475,-9.995 9.995,-9.995 z"
                 id="path18"
                 style="stroke-width:3.75046" />
              <path
                 d="m 393.113,234.755 h -13.41 c -5.52,0 -9.995,-4.475 -9.995,-9.995 v -13.41 c 0,-5.52 4.475,-9.995 9.995,-9.995 h 13.41 c 5.52,0 9.995,4.475 9.995,9.995 v 13.41 c 10e-4,5.52 -4.474,9.995 -9.995,9.995 z"
                 id="path20"
                 style="stroke-width:3.75046" />
            </g>
          </g>
        </g>
      </g>
      <path
         d="M 208.628,95.182 V 170.1 h 53.275 V 95.182 h 10.925 c 8.784,0 13.291,-10.522 7.231,-16.881 L 242.496,38.889 c -3.936,-4.13 -10.526,-4.13 -14.462,0 l -37.563,39.412 c -6.06,6.359 -1.553,16.881 7.231,16.881 z"
         fill="#31a7fb"
         id="path30"
         style="stroke-width:12.0349" />
    </g>
    <g
       id="g64"
       transform="matrix(0.8576901,0,0,0.85353118,168.71096,5.9719106)"
       style="stroke-width:3.75046">
      <g
         id="g62"
         style="stroke-width:3.75046">
        <g
           id="g60"
           style="stroke-width:3.75046">
          <g
             id="g58"
             style="stroke-width:3.75046">
            <circle
               cx="415.34601"
               cy="387.05499"
               fill="#fccb90"
               r="89.153999"
               id="circle34"
               style="stroke-width:12.0349" />
            <path
               d="m 504.498,387.056 c 0,49.24 -39.916,89.156 -89.156,89.156 -4.432,0 -8.793,-0.321 -13.055,-0.952 43.054,-6.317 76.101,-43.395 76.101,-88.203 0,-44.808 -33.047,-81.887 -76.101,-88.203 4.261,-0.632 8.623,-0.952 13.055,-0.952 49.24,-10e-4 89.156,39.914 89.156,89.154 z"
               fill="#fcb44d"
               id="path36"
               style="stroke-width:12.0349" />
            <circle
               cx="415.34601"
               cy="387.05499"
               fill="#fee7c9"
               r="63.041"
               id="circle38"
               style="stroke-width:12.0349" />
            <g
               id="g56"
               style="stroke-width:3.75046">
              <path
                 d="m 235.265,204.269 c -38.789,0 -70.346,31.557 -70.346,70.346 0,38.789 31.557,70.346 70.346,70.346 38.789,0 70.346,-31.557 70.346,-70.346 0,-38.789 -31.557,-70.346 -70.346,-70.346 z m 0,125.692 c -30.518,0 -55.346,-24.828 -55.346,-55.346 0,-30.518 24.828,-55.346 55.346,-55.346 30.518,0 55.346,24.828 55.346,55.346 0,30.518 -24.828,55.346 -55.346,55.346 z"
                 id="path40"
                 style="stroke-width:3.75046" />
              <path
                 d="m 243.216,267.115 h -0.451 v -9.625 h 7.485 c 4.142,0 7.5,-3.358 7.5,-7.5 0,-4.142 -3.358,-7.5 -7.5,-7.5 h -7.485 v -1.669 c 0,-4.142 -3.358,-7.5 -7.5,-7.5 -4.142,0 -7.5,3.358 -7.5,7.5 v 1.669 h -0.451 c -10.925,0 -19.813,8.888 -19.813,19.813 0,10.925 8.888,19.813 19.813,19.813 h 0.451 v 9.625 h -7.485 c -4.142,0 -7.5,3.358 -7.5,7.5 0,4.142 3.358,7.5 7.5,7.5 h 7.485 v 1.669 c 0,4.142 3.358,7.5 7.5,7.5 4.142,0 7.5,-3.358 7.5,-7.5 v -1.669 h 0.451 c 10.925,0 19.813,-8.888 19.813,-19.813 0,-10.925 -8.888,-19.813 -19.813,-19.813 z m -15.902,0 c -2.654,0 -4.813,-2.159 -4.813,-4.813 0,-2.654 2.159,-4.813 4.813,-4.813 h 0.451 v 9.625 h -0.451 z m 15.902,24.625 h -0.451 v -9.625 h 0.451 c 2.654,0 4.813,2.159 4.813,4.813 0,2.654 -2.159,4.812 -4.813,4.812 z"
                 id="path42"
                 style="stroke-width:3.75046" />
              <path
                 d="M 90.828,306.974 H 77.417 c -9.647,0 -17.496,7.849 -17.496,17.496 v 13.411 c 0,9.647 7.849,17.495 17.496,17.495 h 13.411 c 9.647,0 17.495,-7.848 17.495,-17.495 V 324.47 c 0,-9.647 -7.848,-17.496 -17.495,-17.496 z m 2.495,30.907 c 0,1.376 -1.119,2.495 -2.495,2.495 H 77.417 c -1.376,0 -2.496,-1.119 -2.496,-2.495 V 324.47 c 0,-1.376 1.12,-2.496 2.496,-2.496 h 13.411 c 1.376,0 2.495,1.12 2.495,2.496 z"
                 id="path44"
                 style="stroke-width:3.75046" />
              <path
                 d="m 84.122,292.232 c 4.142,0 7.5,-3.358 7.5,-7.5 v -45.671 c 0,-4.142 -3.358,-7.5 -7.5,-7.5 -4.142,0 -7.5,3.358 -7.5,7.5 v 45.671 c 0,4.142 3.358,7.5 7.5,7.5 z"
                 id="path46"
                 style="stroke-width:3.75046" />
              <path
                 d="m 379.703,242.256 h 13.411 c 9.647,0 17.496,-7.849 17.496,-17.496 v -13.411 c 0,-9.647 -7.849,-17.495 -17.496,-17.495 h -13.411 c -9.647,0 -17.495,7.848 -17.495,17.495 v 13.411 c 0,9.647 7.848,17.496 17.495,17.496 z m -2.495,-30.907 c 0,-1.376 1.119,-2.495 2.495,-2.495 h 13.411 c 1.376,0 2.496,1.119 2.496,2.495 v 13.411 c 0,1.376 -1.12,2.496 -2.496,2.496 h -13.411 c -1.376,0 -2.495,-1.12 -2.495,-2.496 z"
                 id="path48"
                 style="stroke-width:3.75046" />
              <path
                 d="M 470.53,307.75 V 150.104 c 0,-9.647 -7.849,-17.496 -17.496,-17.496 h -30.799 v -29.927 h 3.425 c 7.115,0 13.274,-4.063 16.076,-10.603 2.801,-6.54 1.492,-13.802 -3.416,-18.952 L 400.757,33.714 c -3.285,-3.446 -7.899,-5.423 -12.66,-5.423 -4.761,0 -9.375,1.977 -12.66,5.423 l -37.562,39.412 c -4.909,5.15 -6.218,12.412 -3.417,18.952 2.801,6.54 8.961,10.603 16.076,10.603 h 3.425 v 29.927 h -84.558 v -29.927 h 3.426 c 7.115,0 13.275,-4.063 16.076,-10.603 2.801,-6.54 1.492,-13.802 -3.417,-18.952 L 247.923,33.714 c -3.285,-3.446 -7.899,-5.423 -12.66,-5.423 -4.761,0 -9.375,1.977 -12.66,5.423 L 185.04,73.126 c -4.908,5.15 -6.217,12.412 -3.416,18.952 2.802,6.54 8.961,10.603 16.076,10.603 h 3.425 v 29.927 H 116.57 v -29.927 h 3.425 c 7.115,0 13.275,-4.063 16.077,-10.603 2.802,-6.54 1.492,-13.802 -3.417,-18.952 L 95.093,33.715 c -3.285,-3.446 -7.899,-5.423 -12.66,-5.423 -4.761,0 -9.375,1.977 -12.66,5.423 L 32.209,73.127 c -4.909,5.15 -6.217,12.412 -3.416,18.952 2.801,6.54 8.961,10.603 16.076,10.603 h 3.425 v 29.927 H 17.496 C 7.849,132.609 0,140.457 0,150.104 v 150.067 c 0,4.142 3.358,7.5 7.5,7.5 4.142,0 7.5,-3.358 7.5,-7.5 V 150.104 c 0,-1.376 1.12,-2.496 2.496,-2.496 h 183.632 v 14.991 H 83.155 c -6.384,0 -11.723,4.806 -12.417,11.179 -1.686,15.448 -14.124,27.883 -29.575,29.567 -6.374,0.694 -11.181,6.033 -11.181,12.418 v 158.373 c 0,6.89 5.609,12.495 12.504,12.495 H 318.7 c -10e-4,0.142 -0.008,0.283 -0.008,0.424 0,4.95 0.376,9.814 1.097,14.566 H 17.496 c -1.376,0 -2.496,-1.12 -2.496,-2.496 v -65.294 c 0,-4.142 -3.358,-7.5 -7.5,-7.5 -4.142,0 -7.5,3.358 -7.5,7.5 v 65.294 c 0,9.647 7.849,17.496 17.496,17.496 h 305.828 c 12.521,38.877 49.036,67.087 92.023,67.087 53.295,0 96.654,-43.359 96.654,-96.654 C 512,354.26 495.578,325.233 470.53,307.75 Z M 55.795,87.681 H 44.87 c -1.428,0 -2.046,-0.945 -2.288,-1.509 -0.241,-0.563 -0.499,-1.664 0.486,-2.697 L 80.631,44.063 c 0.64,-0.671 1.403,-0.772 1.802,-0.772 0.399,0 1.162,0.101 1.802,0.772 l 37.563,39.413 c 0.985,1.034 0.727,2.133 0.486,2.696 -0.241,0.564 -0.859,1.509 -2.288,1.509 H 109.07 c -4.142,0 -7.5,3.358 -7.5,7.5 v 37.427 H 63.295 V 95.181 c 0,-4.142 -3.358,-7.5 -7.5,-7.5 z m 305.665,0 h -10.925 c -1.428,0 -2.046,-0.945 -2.288,-1.509 -0.242,-0.564 -0.499,-1.663 0.486,-2.697 l 37.563,-39.412 c 0.64,-0.671 1.403,-0.772 1.802,-0.772 0.399,0 1.162,0.101 1.802,0.772 l 37.563,39.412 c 0.985,1.034 0.728,2.133 0.486,2.697 -0.241,0.563 -0.859,1.509 -2.288,1.509 h -10.925 c -4.142,0 -7.5,3.358 -7.5,7.5 v 37.427 H 368.96 V 95.181 c 0,-4.142 -3.358,-7.5 -7.5,-7.5 z m -163.758,0 c -1.428,0 -2.046,-0.945 -2.288,-1.509 -0.242,-0.564 -0.5,-1.664 0.486,-2.697 l 37.563,-39.412 c 0.64,-0.671 1.403,-0.771 1.802,-0.771 0.399,0 1.162,0.1 1.802,0.771 l 37.563,39.413 c 0.985,1.034 0.727,2.133 0.486,2.697 -0.241,0.564 -0.859,1.509 -2.288,1.509 h -10.926 c -4.142,0 -7.5,3.358 -7.5,7.5 V 162.6 H 216.127 V 95.181 c 0,-4.142 -3.358,-7.5 -7.5,-7.5 z m 217.644,381.028 c -45.024,0 -81.654,-36.63 -81.654,-81.654 0,-16.667 4.992,-32.698 14.436,-46.362 2.355,-3.408 1.502,-8.079 -1.905,-10.434 -3.408,-2.357 -8.08,-1.502 -10.434,1.905 -8.233,11.911 -13.597,25.341 -15.862,39.467 H 44.982 V 217.966 c 20.64,-3.227 37.147,-19.73 40.376,-40.367 h 239.479 c 4.142,0 7.5,-3.358 7.5,-7.5 0,-4.142 -3.358,-7.5 -7.5,-7.5 h -55.434 v -14.991 h 183.632 c 1.376,0 2.496,1.12 2.496,2.496 V 299.16 c -4.797,-2.202 -9.804,-4.019 -14.982,-5.419 V 175.094 c 0,-6.89 -5.609,-12.495 -12.504,-12.495 h -69.547 c -4.142,0 -7.5,3.358 -7.5,7.5 0,4.142 3.358,7.5 7.5,7.5 h 67.051 v 113.34 c -3.354,-0.353 -6.757,-0.538 -10.202,-0.538 -7.274,0 -14.456,0.812 -21.438,2.394 v -28.297 c 0,-4.142 -3.358,-7.5 -7.5,-7.5 -4.142,0 -7.5,3.358 -7.5,7.5 v 33.028 c -5.956,2.427 -11.689,5.444 -17.11,9.058 -3.446,2.297 -4.378,6.954 -2.08,10.4 2.297,3.447 6.955,4.378 10.4,2.08 13.409,-8.939 29.049,-13.664 45.228,-13.664 45.024,0 81.654,36.63 81.654,81.654 0,45.024 -36.631,81.655 -81.655,81.655 z"
                 id="path50"
                 style="stroke-width:3.75046" />
              <path
                 d="m 415.346,316.513 c -38.896,0 -70.542,31.645 -70.542,70.542 0,38.897 31.645,70.541 70.542,70.541 38.897,0 70.541,-31.645 70.541,-70.541 0,-38.896 -31.644,-70.542 -70.541,-70.542 z m 0,126.083 c -30.625,0 -55.542,-24.916 -55.542,-55.541 0,-30.625 24.916,-55.542 55.542,-55.542 30.626,0 55.541,24.916 55.541,55.542 0,30.626 -24.915,55.541 -55.541,55.541 z"
                 id="path52"
                 style="stroke-width:3.75046" />
              <path
                 d="m 423.322,379.555 h -0.476 v -9.702 h 7.532 c 4.142,0 7.5,-3.358 7.5,-7.5 0,-4.142 -3.358,-7.5 -7.5,-7.5 h -7.532 v -1.698 c 0,-4.142 -3.358,-7.5 -7.5,-7.5 -4.142,0 -7.5,3.358 -7.5,7.5 v 1.698 h -0.476 c -10.946,0 -19.851,8.905 -19.851,19.851 0,10.946 8.905,19.851 19.851,19.851 h 0.476 v 9.702 h -7.532 c -4.142,0 -7.5,3.358 -7.5,7.5 0,4.142 3.358,7.5 7.5,7.5 h 7.532 v 1.698 c 0,4.142 3.358,7.5 7.5,7.5 4.142,0 7.5,-3.358 7.5,-7.5 v -1.698 h 0.476 c 10.946,0 19.851,-8.905 19.851,-19.851 0,-10.946 -8.905,-19.851 -19.851,-19.851 z m -15.952,0 c -2.675,0 -4.851,-2.176 -4.851,-4.851 0,-2.675 2.176,-4.851 4.851,-4.851 h 0.476 v 9.702 z m 15.952,24.702 h -0.476 v -9.702 h 0.476 c 2.675,0 4.851,2.176 4.851,4.851 0,2.675 -2.176,4.851 -4.851,4.851 z"
                 id="path54"
                 style="stroke-width:3.75046" />
            </g>
          </g>
        </g>
      </g>
    </g>
  </g>
</svg>
