<?xml version="1.0" encoding="UTF-8" standalone="no"?>
<svg
   xmlns:dc="http://purl.org/dc/elements/1.1/"
   xmlns:cc="http://creativecommons.org/ns#"
   xmlns:rdf="http://www.w3.org/1999/02/22-rdf-syntax-ns#"
   xmlns:svg="http://www.w3.org/2000/svg"
   xmlns="http://www.w3.org/2000/svg"
   xmlns:sodipodi="http://sodipodi.sourceforge.net/DTD/sodipodi-0.dtd"
   xmlns:inkscape="http://www.inkscape.org/namespaces/inkscape"
   version="1.1"
   id="Capa_1"
   x="0px"
   y="0px"
   width="160"
   height="170"
   viewBox="0 0 160 170"
   xml:space="preserve"
   sodipodi:docname="step.svg"
   inkscape:version="1.0.2 (e86c870879, 2021-01-15, custom)"><metadata
   id="metadata41"><rdf:RDF><cc:Work
       rdf:about=""><dc:format>image/svg+xml</dc:format><dc:type
         rdf:resource="http://purl.org/dc/dcmitype/StillImage" /><dc:title></dc:title></cc:Work></rdf:RDF></metadata><defs
   id="defs39" /><sodipodi:namedview
   pagecolor="#ffffff"
   bordercolor="#666666"
   borderopacity="1"
   objecttolerance="10"
   gridtolerance="10"
   guidetolerance="10"
   inkscape:pageopacity="0"
   inkscape:pageshadow="2"
   inkscape:window-width="1920"
   inkscape:window-height="1017"
   id="namedview37"
   showgrid="false"
   inkscape:zoom="3.2980378"
   inkscape:cx="133.37997"
   inkscape:cy="85.843593"
   inkscape:window-x="-8"
   inkscape:window-y="-8"
   inkscape:window-maximized="1"
   inkscape:current-layer="g4" />
<g
   id="g4"
   transform="matrix(0.28627561,0,0,0.24235344,51.141608,9.1580063e-5)"
   style="stroke-width:3.7965">
	<path
   d="m 140.24923,536.5498 c 30.17903,11.02426 56.82732,18.04611 95.11523,30.5963 -14.70909,198.25132 -190.457293,119.51972 -95.11523,-30.5963 z m 156.91576,-182.119 c -1.9819,-59.52657 -11.81112,-137.61214 -90.1051,-125.37686 -36.70217,10.21729 -63.82043,53.21327 -76.57474,127.39485 -7.00505,40.78696 -2.93162,98.03736 5.33139,132.35588 7.54448,24.18458 4.97864,22.69801 13.08753,27.29087 31.38488,7.54169 62.45501,15.89035 94.09497,24.4034 32.14248,-24.21237 58.54113,-152.75572 54.16595,-186.06814 z M 55.543905,349.86225 C 63.800401,315.53911 67.873838,258.2887 60.872042,217.50638 48.127494,143.32132 21.005984,100.3184 -15.702701,90.108062 -93.996688,77.872784 -103.82591,155.95719 -105.80781,215.48723 c -4.37518,33.30663 22.026732,161.85809 54.172473,186.06583 31.637782,-8.51306 62.703568,-16.85477 94.098225,-24.4034 8.099116,-4.58823 5.533275,-3.10282 13.081017,-27.28741 z m -99.554438,78.34491 c 14.703662,198.24901 190.451873,119.51741 95.111972,-30.5963 -30.17903,11.02542 -56.825143,18.04611 -95.111972,30.5963 z"
   id="path2"
   style="stroke-width:3.7965;fill:#ffffff;fill-opacity:1" />
</g>
<g
   id="g6"
   transform="matrix(0.28627561,0,0,0.24235344,51.141608,9.1580063e-5)"
   style="stroke-width:3.7965">
</g>
<g
   id="g8"
   transform="matrix(0.28627561,0,0,0.24235344,51.141608,9.1580063e-5)"
   style="stroke-width:3.7965">
</g>
<g
   id="g10"
   transform="matrix(0.28627561,0,0,0.24235344,51.141608,9.1580063e-5)"
   style="stroke-width:3.7965">
</g>
<g
   id="g12"
   transform="matrix(0.28627561,0,0,0.24235344,51.141608,9.1580063e-5)"
   style="stroke-width:3.7965">
</g>
<g
   id="g14"
   transform="matrix(0.28627561,0,0,0.24235344,51.141608,9.1580063e-5)"
   style="stroke-width:3.7965">
</g>
<g
   id="g16"
   transform="matrix(0.28627561,0,0,0.24235344,51.141608,9.1580063e-5)"
   style="stroke-width:3.7965">
</g>
<g
   id="g18"
   transform="matrix(0.28627561,0,0,0.24235344,51.141608,9.1580063e-5)"
   style="stroke-width:3.7965">
</g>
<g
   id="g20"
   transform="matrix(0.28627561,0,0,0.24235344,51.141608,9.1580063e-5)"
   style="stroke-width:3.7965">
</g>
<g
   id="g22"
   transform="matrix(0.28627561,0,0,0.24235344,51.141608,9.1580063e-5)"
   style="stroke-width:3.7965">
</g>
<g
   id="g24"
   transform="matrix(0.28627561,0,0,0.24235344,51.141608,9.1580063e-5)"
   style="stroke-width:3.7965">
</g>
<g
   id="g26"
   transform="matrix(0.28627561,0,0,0.24235344,51.141608,9.1580063e-5)"
   style="stroke-width:3.7965">
</g>
<g
   id="g28"
   transform="matrix(0.28627561,0,0,0.24235344,51.141608,9.1580063e-5)"
   style="stroke-width:3.7965">
</g>
<g
   id="g30"
   transform="matrix(0.28627561,0,0,0.24235344,51.141608,9.1580063e-5)"
   style="stroke-width:3.7965">
</g>
<g
   id="g32"
   transform="matrix(0.28627561,0,0,0.24235344,51.141608,9.1580063e-5)"
   style="stroke-width:3.7965">
</g>
<g
   id="g34"
   transform="matrix(0.28627561,0,0,0.24235344,51.141608,9.1580063e-5)"
   style="stroke-width:3.7965">
</g>
</svg>
