<?xml version="1.0" encoding="UTF-8" standalone="no"?>
<svg
   xmlns:dc="http://purl.org/dc/elements/1.1/"
   xmlns:cc="http://creativecommons.org/ns#"
   xmlns:rdf="http://www.w3.org/1999/02/22-rdf-syntax-ns#"
   xmlns:svg="http://www.w3.org/2000/svg"
   xmlns="http://www.w3.org/2000/svg"
   xmlns:sodipodi="http://sodipodi.sourceforge.net/DTD/sodipodi-0.dtd"
   xmlns:inkscape="http://www.inkscape.org/namespaces/inkscape"
   id="Layer_1"
   enable-background="new 0 0 512.056 512.056"
   height="170"
   viewBox="0 0 160.0175 170.01859"
   width="160"
   version="1.1"
   sodipodi:docname="target.svg"
   inkscape:version="1.0.2 (e86c870879, 2021-01-15, custom)">
  <metadata
     id="metadata9">
    <rdf:RDF>
      <cc:Work
         rdf:about="">
        <dc:format>image/svg+xml</dc:format>
        <dc:type
           rdf:resource="http://purl.org/dc/dcmitype/StillImage" />
        <dc:title></dc:title>
      </cc:Work>
    </rdf:RDF>
  </metadata>
  <defs
     id="defs7" />
  <sodipodi:namedview
     pagecolor="#ffffff"
     bordercolor="#666666"
     borderopacity="1"
     objecttolerance="10"
     gridtolerance="10"
     guidetolerance="10"
     inkscape:pageopacity="0"
     inkscape:pageshadow="2"
     inkscape:window-width="1920"
     inkscape:window-height="1017"
     id="namedview5"
     showgrid="false"
     inkscape:zoom="3.3203125"
     inkscape:cx="127.36945"
     inkscape:cy="102.33527"
     inkscape:window-x="-8"
     inkscape:window-y="-8"
     inkscape:window-maximized="1"
     inkscape:current-layer="Layer_1" />
  <path
     d="m 149.01385,49.36251 c 0.97614,-0.9757 1.40609,-2.370988 1.14856,-3.72679 -0.25724,-1.355803 -1.16886,-2.496668 -2.4345,-3.046942 L 133.66534,36.473484 128.7304,22.225317 c -0.47028,-1.357749 -1.60661,-2.377938 -3.00713,-2.699927 -1.40026,-0.321433 -2.86808,0.09954 -3.88455,1.115562 l -7.95486,7.953525 c -10.70335,-5.920655 -22.970763,-9.156119 -34.898886,-9.156119 -19.005848,0 -36.873976,7.399915 -50.313312,20.83699 C 15.232326,53.712424 7.8314446,71.57727 7.8314446,90.579644 c 0,19.002376 7.4011594,36.867776 20.8404954,50.304576 13.439058,13.43679 31.307464,20.83699 50.313313,20.83699 19.005848,0 36.873967,-7.39992 50.313307,-20.83699 13.43905,-13.4368 20.8405,-31.30192 20.8405,-50.304576 0,-11.837695 -2.94512,-23.454336 -8.54055,-33.802482 z m -29.21891,17.417453 -8.62119,-2.313152 20.08071,-19.945263 7.52825,3.273836 z m -1.57101,23.799681 c 0,21.632786 -17.60253,39.232366 -39.238956,39.232366 -21.636425,0 -39.238965,-17.59958 -39.238965,-39.232366 0,-21.632788 17.60254,-39.232368 39.238965,-39.232368 6.515124,0 12.067731,1.285177 17.383674,4.029593 l 2.151128,9.899921 -5.289801,5.254154 c -4.022762,-2.86565 -8.940461,-4.552618 -14.245278,-4.552618 -13.567819,0 -24.605734,11.036058 -24.605734,24.601596 0,13.565538 11.037915,24.601598 24.605734,24.601598 13.567819,0 24.605733,-11.03606 24.605733,-24.601598 0,-5.2561 -1.65805,-10.132097 -4.47746,-14.133885 l 5.21443,-5.179356 10.2595,2.752758 c 2.47679,5.071192 3.63703,10.359825 3.63703,16.560205 z m -22.976316,0 c 0,8.965651 -7.29548,16.259906 -16.26264,16.259906 -8.967158,0 -16.262639,-7.294255 -16.262639,-16.259906 0,-8.96565 7.295481,-16.259904 16.262639,-16.259904 2.986272,0 5.784825,0.812481 8.192642,2.222783 L 75.89942,87.74458 c -1.634413,1.623294 -1.643033,4.264274 -0.01947,5.898412 0.815398,0.820544 1.887208,1.231233 2.959574,1.231233 1.06291,0 2.126376,-0.403738 2.939828,-1.21177 L 93.062836,82.455114 c 1.386621,2.392676 2.184778,5.166288 2.184778,8.12453 z m 27.779156,-59.330006 2.49598,7.206109 -19.98059,19.845998 -1.70839,-7.862045 z m 18.76864,59.330006 c 0,16.774586 -6.53348,32.544836 -18.39681,44.406156 -11.86332,11.86133 -27.636496,18.39344 -44.413626,18.39344 -16.777129,0 -32.550306,-6.53239 -44.413631,-18.39344 C 22.708018,123.12448 16.17454,107.35423 16.17454,90.579644 c 0,-16.774586 6.533478,-32.544833 18.396803,-44.405885 11.863325,-11.86133 27.636502,-18.393709 44.413631,-18.393709 9.752244,0 19.773692,2.456628 28.728336,6.983665 L 96.323872,46.151236 c -0.01112,0.01112 -0.02085,0.0228 -0.03199,0.03392 -5.352096,-2.132971 -11.059607,-3.179574 -17.307194,-3.179574 -26.236809,0 -47.582062,21.341662 -47.582062,47.57406 0,26.232398 21.345253,47.574058 47.582062,47.574058 26.236812,0 47.582062,-21.34166 47.582062,-47.574058 0,-5.873665 -0.87269,-11.098065 -2.70817,-16.07889 0.0437,-0.04004 0.0895,-0.07702 0.13182,-0.119286 l 11.41559,-11.41366 c 4.19268,8.55802 6.38942,18.001928 6.38942,27.611836 z"
     id="path2"
     style="stroke-width:1" />
</svg>
