<?xml version="1.0" encoding="UTF-8" standalone="no"?>
<svg
   xmlns:dc="http://purl.org/dc/elements/1.1/"
   xmlns:cc="http://creativecommons.org/ns#"
   xmlns:rdf="http://www.w3.org/1999/02/22-rdf-syntax-ns#"
   xmlns:svg="http://www.w3.org/2000/svg"
   xmlns="http://www.w3.org/2000/svg"
   xmlns:sodipodi="http://sodipodi.sourceforge.net/DTD/sodipodi-0.dtd"
   xmlns:inkscape="http://www.inkscape.org/namespaces/inkscape"
   height="170pt"
   viewBox="-32 0 160 170"
   width="160pt"
   version="1.1"
   id="svg48"
   sodipodi:docname="taxes.svg"
   inkscape:version="1.0.2 (e86c870879, 2021-01-15, custom)">
  <metadata
     id="metadata54">
    <rdf:RDF>
      <cc:Work
         rdf:about="">
        <dc:format>image/svg+xml</dc:format>
        <dc:type
           rdf:resource="http://purl.org/dc/dcmitype/StillImage" />
        <dc:title></dc:title>
      </cc:Work>
    </rdf:RDF>
  </metadata>
  <defs
     id="defs52" />
  <sodipodi:namedview
     pagecolor="#ffffff"
     bordercolor="#666666"
     borderopacity="1"
     objecttolerance="10"
     gridtolerance="10"
     guidetolerance="10"
     inkscape:pageopacity="0"
     inkscape:pageshadow="2"
     inkscape:window-width="1920"
     inkscape:window-height="1017"
     id="namedview50"
     showgrid="false"
     inkscape:zoom="1.2451172"
     inkscape:cx="-15.767566"
     inkscape:cy="164.58571"
     inkscape:window-x="-8"
     inkscape:window-y="-8"
     inkscape:window-maximized="1"
     inkscape:current-layer="g46" />
  <path
     d="M 104.29503,163.23764 H 2.0463845 V 19.250736 c 0,-1.649467 1.278994,-2.987206 2.856024,-2.987206 H 104.29503 c 1.57703,0 2.85603,1.337739 2.85603,2.987206 V 160.25044 c 0,1.64947 -1.279,2.9872 -2.85603,2.9872 z m 0,0"
     fill="#ddf5ff"
     id="path2"
     style="stroke-width:0.999999" />
  <path
     d="m 99.724754,16.26353 v 57.917483 c 0,2.397389 -2.58157,3.841653 -4.462,2.469153 -4.16289,-3.038787 -9.22311,-4.822812 -14.673575,-4.822812 -14.173979,0 -25.705283,12.060957 -25.705283,26.885975 0,0.186138 0.0022,0.371159 0.0053,0.557296 0.03324,1.665165 -1.260767,3.027575 -2.853877,3.027575 H 2.0463845 v 60.93944 H 83.16003 v -35.1961 c 0,-1.42632 0.962733,-2.65866 2.301764,-2.9289 3.56788,-0.71988 6.87525,-2.21349 9.75593,-4.30812 1.90402,-1.38371 4.50703,9.1e-4 4.50703,2.42654 v 40.00658 h 4.569206 c 1.5781,0 2.85603,-1.33773 2.85603,-2.9872 V 19.250736 c 10e-4,-1.649467 -1.27793,-2.987206 -2.85496,-2.987206 z m 0,0"
     fill="#c1e9f4"
     id="path4"
     style="stroke-width:0.999999" />
  <path
     d="M 54.598723,28.810019 H 25.467067 c -3.155134,0 -5.713121,2.674357 -5.713121,5.974412 v 26.28831 c 0,3.300054 2.557987,5.974412 5.713121,5.974412 h 58.263309 c 3.155138,0 5.713128,-2.674358 5.713128,-5.974412 v -26.28831 c 0,-3.300055 -2.55799,-5.974412 -5.713128,-5.974412 z m 0,0"
     fill="#ffda88"
     id="path6"
     style="stroke-width:0.999999" />
  <path
     d="m 83.730376,28.810019 h -5.425797 c 3.15406,0 5.712048,2.674357 5.712048,5.974412 v 26.28831 c 0,3.300054 -2.557988,5.974412 -5.712048,5.974412 h 5.425797 c 3.155138,0 5.713128,-2.674358 5.713128,-5.974412 v -26.28831 c 0,-3.298934 -2.55799,-5.974412 -5.713128,-5.974412 z m 0,0"
     fill="#ffcd69"
     id="path8"
     style="stroke-width:0.999999" />
  <path
     d="m -12.805153,108.27148 c -1.577031,0 -2.856023,1.33775 -2.856023,2.98721 v 48.99175 c 0,1.64947 1.278992,2.98608 2.856023,2.98608 h 87.397111 c 1.57703,0 2.856024,-1.33661 2.856024,-2.98608 v -51.97896 z m 0,0"
     fill="#abde97"
     id="path10"
     style="stroke-width:0.999999" />
  <path
     d="m 72.59253,108.27148 v 54.96616 h 1.999428 c 1.57703,0 2.856024,-1.33773 2.856024,-2.9872 v -51.97896 z m 0,0"
     fill="#82cd64"
     id="path12"
     style="stroke-width:0.999999" />
  <path
     d="M 30.892869,153.97663 H 2.9061945 c -1.225389,0 -2.33606498,-0.80847 -2.70486098,-2.02959 -0.681843,-2.25722 -2.19562202,-3.98295 -4.41590202,-4.71965 -1.196442,-0.39695 -2.020872,-1.54183 -2.020872,-2.85489 v -17.08673 c 0,-1.26262 0.779403,-2.35478 1.913665,-2.78762 2.147378,-0.81968 3.78766202,-2.56894 4.51131602,-4.72188 0.395598,-1.17739 1.48268798,-1.9455 2.67591398,-1.9455 H 58.86775 c 1.222171,0 2.342495,0.78717 2.733807,1.99708 0.730086,2.25386 2.357505,3.95603 4.511317,4.71853 1.157848,0.4104 1.909376,1.58218 1.909376,2.85937 v 16.96899 c 0,1.28728 -0.778332,2.45906 -1.955476,2.83471 -2.187045,0.69858 -3.803745,2.34356 -4.499524,4.67255 -0.366652,1.23122 -1.419436,2.09576 -2.65233,2.09576 H 30.892869 Z m 0,0"
     fill="#6dc54a"
     id="path14"
     style="stroke-width:0.999999" />
  <path
     d="m 63.815402,128.00454 c 0.02681,0.0124 0.05361,0.0247 0.08041,0.0359 0.204766,0.0908 0.340922,0.29715 0.340922,0.52926 v 14.66804 c 0,0.23323 -0.136156,0.43843 -0.340922,0.52926 -2.531185,1.12357 -4.561704,3.24736 -5.634858,5.8948 -0.08791,0.21417 -0.284102,0.35658 -0.506022,0.35658 H -0.66705248 c 0.349499,0.55842 0.631456,1.17403 0.83944,1.83785 0.392381,1.24916 1.47196698,2.12155 2.72951798,2.12155 H 58.91492 c 1.232894,0 2.285678,-0.86567 2.65233,-2.09576 0.695779,-2.32899 2.31355,-3.97397 4.499524,-4.67255 1.176071,-0.37564 1.955476,-1.54743 1.955476,-2.83471 v -16.96898 c 0,-1.2772 -0.751528,-2.44898 -1.909376,-2.85938 -2.153812,-0.7625 -3.781231,-2.46467 -4.511317,-4.71853 -0.391312,-1.20991 -1.511636,-1.99708 -2.733807,-1.99708 h -0.744025 v 0.91164 c 0,3.9863 2.195622,7.67546 5.691677,9.26213 z m 0,0"
     fill="#5db33a"
     id="path16"
     style="stroke-width:0.999999" />
  <path
     d="m 100.58242,98.712208 c 0,11.549632 -8.951876,20.911562 -19.993241,20.911562 -11.041359,0 -19.993236,-9.36193 -19.993236,-20.911562 0,-11.548512 8.951877,-20.910443 19.993236,-20.910443 11.041365,0 19.993241,9.361931 19.993241,20.910443 z m 0,0"
     fill="#e5646e"
     id="path18"
     style="stroke-width:0.999999" />
  <path
     d="m 92.744434,82.115496 c 2.58479,3.5232 4.1243,7.928881 4.1243,12.713569 0,11.548505 -8.95081,20.911555 -19.992167,20.911555 -4.57457,0 -8.786778,-1.61022 -12.155256,-4.31373 3.653652,4.98204 9.401075,8.19688 15.867868,8.19688 11.041365,0 19.993241,-9.36193 19.993241,-20.911562 0,-6.763824 -3.074736,-12.775241 -7.837986,-16.596712 z m 0,0"
     fill="#e04955"
     id="path20"
     style="stroke-width:0.999999" />
  <path
     d="M 40.032358,35.830626 H 28.608263 c -1.182504,0 -2.142018,1.002463 -2.142018,2.240404 0,1.23682 0.958441,2.240405 2.142018,2.240405 h 3.570029 v 17.475826 c 0,1.236821 0.959515,2.240405 2.142019,2.240405 1.183577,0 2.142018,-1.003584 2.142018,-2.240405 V 40.311435 h 3.570029 c 1.183578,0 2.142019,-1.003585 2.142019,-2.240405 0,-1.237941 -0.958441,-2.240404 -2.142019,-2.240404 z m 0,0"
     fill="#495959"
     id="path22"
     style="stroke-width:0.999999" />
  <path
     d="m 57.454747,35.830626 h -5.712048 c -2.756321,0 -4.998042,2.344687 -4.998042,5.22761 v 16.727905 c 0,1.237941 0.959514,2.240405 2.142019,2.240405 1.182504,0 2.142018,-1.002464 2.142018,-2.240405 v -7.617152 h 7.140058 v 7.617152 c 0,1.237941 0.959514,2.240405 2.142019,2.240405 1.183576,0 2.142018,-1.002464 2.142018,-2.240405 V 41.058236 c 0,-2.882923 -2.241722,-5.22761 -4.998042,-5.22761 z m -6.426053,9.857556 v -4.629946 c 0,-0.411526 0.320553,-0.746801 0.714005,-0.746801 h 5.712048 c 0.393452,0 0.714005,0.334154 0.714005,0.746801 v 4.629946 z m 0,0"
     fill="#495959"
     id="path24"
     style="stroke-width:0.999999" />
  <path
     d="M 77.381513,47.928584 82.421372,39.2316 C 83.0346,38.174192 82.71083,36.796085 81.698783,36.154688 80.687815,35.513292 79.370224,35.851931 78.756996,36.909339 L 74.877131,43.605883 70.9962,36.909339 c -0.612158,-1.057408 -1.929745,-1.396047 -2.941789,-0.754651 -1.010972,0.641397 -1.334741,2.018383 -0.721509,3.076912 l 5.038778,8.696984 -5.038778,8.696987 c -0.613232,1.057407 -0.290536,2.435513 0.721509,3.076912 0.347355,0.219778 0.730088,0.324063 1.108533,0.324063 0.723655,0 1.431227,-0.383493 1.833256,-1.078715 l 3.880931,-6.696543 3.879865,6.696543 c 0.403102,0.695222 1.109604,1.078715 1.83433,1.078715 0.378446,0 0.761177,-0.104285 1.107457,-0.324063 1.012047,-0.641399 1.335817,-2.019505 0.722589,-3.076912 z m 0,0"
     fill="#495959"
     id="path26"
     style="stroke-width:0.999999" />
  <path
     d="m 42.868012,133.64143 h -1.480544 c -0.994891,-5.10651 -5.321808,-8.96161 -10.494599,-8.96161 -5.171719,0 -9.49971,3.8551 -10.494601,8.96161 h -1.516997 c -1.182504,0 -2.142015,1.00358 -2.142015,2.24041 0,1.23794 0.959511,2.24039 2.142015,2.24039 h 1.516997 c 0.994891,5.10764 5.322882,8.96275 10.494601,8.96275 5.172791,0 9.499708,-3.85511 10.494599,-8.96275 h 1.480544 c 1.182507,0 2.142019,-1.00245 2.142019,-2.24039 0,-1.23683 -0.959512,-2.24041 -2.142019,-2.24041 z m -11.975143,8.96162 c -3.543229,0 -6.426053,-3.01524 -6.426053,-6.72121 0,-3.70598 2.882824,-6.72122 6.426053,-6.72122 3.543228,0 6.426052,3.01524 6.426052,6.72122 0,3.70597 -2.882824,6.72121 -6.426052,6.72121 z m 0,0"
     fill="#5db33a"
     id="path28"
     style="stroke-width:0.999999" />
  <path
     d="m 57.387206,133.64143 h -7.190447 c -1.183577,0 -2.143092,1.00358 -2.143092,2.24041 0,1.23794 0.959515,2.24039 2.143092,2.24039 h 7.190447 c 1.183578,0 2.14309,-1.00245 2.14309,-2.24039 0,-1.23683 -0.959512,-2.24041 -2.14309,-2.24041 z m 0,0"
     fill="#5db33a"
     id="path30"
     style="stroke-width:0.999999" />
  <path
     d="M 11.59005,133.64143 H 4.3985305 c -1.182505,0 -2.142018,1.00358 -2.142018,2.24041 0,1.23794 0.959513,2.24039 2.142018,2.24039 H 11.59005 c 1.182505,0 2.142019,-1.00245 2.142019,-2.24039 0,-1.23683 -0.958441,-2.24041 -2.142019,-2.24041 z m 0,0"
     fill="#5db33a"
     id="path32"
     style="stroke-width:0.999999" />
  <g
     fill="#495959"
     id="g46">
    <path
       d="m 79.181539,92.679488 v -2.166399 c 0,-2.600348 -2.023014,-4.715165 -4.508101,-4.715165 -2.486154,0 -4.509173,2.114817 -4.509173,4.715165 v 2.166399 c 0,2.600348 2.023019,4.715165 4.509173,4.715165 2.485087,0 4.508101,-2.114817 4.508101,-4.715165 z m 0,0"
       id="path34"
       style="stroke-width:0.999999" />
    <path
       d="m 86.505994,100.02976 c -2.486151,0 -4.509166,2.11594 -4.509166,4.71516 v 2.1664 c 0,2.60035 2.023015,4.71516 4.509166,4.71516 2.48508,0 4.50811,-2.11481 4.50811,-4.71516 v -2.1664 c 0,-2.59922 -2.02303,-4.71516 -4.50811,-4.71516 z m 0,0"
       id="path36"
       style="stroke-width:0.999999" />
    <path
       d="m 86.904804,86.051343 c -1.04956,-0.571876 -2.34249,-0.146894 -2.890324,0.950882 L 73.365501,108.34998 c -0.546761,1.09665 -0.140443,2.45009 0.90805,3.02308 0.316261,0.17269 0.655041,0.25454 0.989536,0.25454 0.771893,0 1.51806,-0.43843 1.9008,-1.20429 L 87.812864,89.074431 c 0.54676,-1.096654 0.14044,-2.45009 -0.90806,-3.023088 z m 0,0"
       id="path38"
       style="stroke-width:0.999999" />
    <path
       d="M 56.311909,81.236379 H 19.753946 c -1.182504,0 -2.142018,-1.002461 -2.142018,-2.240402 0,-1.236823 0.959514,-2.240406 2.142018,-2.240406 h 36.557963 c 1.183577,0 2.143089,1.003583 2.143089,2.240406 0,1.237941 -0.959512,2.240402 -2.143089,2.240402 z m 0,0"
       id="path40"
       style="stroke-width:0.999999" />
    <path
       d="M 44.887814,101.25201 H 19.753946 c -1.182504,0 -2.142018,-1.00359 -2.142018,-2.240409 0,-1.237941 0.959514,-2.241528 2.142018,-2.241528 h 25.133868 c 1.183577,0 2.142019,1.003587 2.142019,2.241528 0,1.236819 -0.958442,2.240409 -2.142019,2.240409 z m 0,0"
       id="path42"
       style="stroke-width:0.999999" />
    <path
       d="M 44.887814,91.244194 H 19.753946 c -1.182504,0 -2.142018,-1.002464 -2.142018,-2.240405 0,-1.236822 0.959514,-2.240405 2.142018,-2.240405 h 25.133868 c 1.183577,0 2.142019,1.002463 2.142019,2.240405 0,1.237941 -0.958442,2.240405 -2.142019,2.240405 z m 0,0"
       id="path44"
       style="stroke-width:0.999999" />
  </g>
</svg>
