<?xml version="1.0" encoding="UTF-8" standalone="no"?>
<svg
   xmlns:dc="http://purl.org/dc/elements/1.1/"
   xmlns:cc="http://creativecommons.org/ns#"
   xmlns:rdf="http://www.w3.org/1999/02/22-rdf-syntax-ns#"
   xmlns:svg="http://www.w3.org/2000/svg"
   xmlns="http://www.w3.org/2000/svg"
   xmlns:sodipodi="http://sodipodi.sourceforge.net/DTD/sodipodi-0.dtd"
   xmlns:inkscape="http://www.inkscape.org/namespaces/inkscape"
   height="170pt"
   viewBox="0 0 160 170"
   width="160pt"
   version="1.1"
   id="svg24"
   sodipodi:docname="technology.svg"
   inkscape:version="1.0.2 (e86c870879, 2021-01-15, custom)">
  <metadata
     id="metadata30">
    <rdf:RDF>
      <cc:Work
         rdf:about="">
        <dc:format>image/svg+xml</dc:format>
        <dc:type
           rdf:resource="http://purl.org/dc/dcmitype/StillImage" />
        <dc:title></dc:title>
      </cc:Work>
    </rdf:RDF>
  </metadata>
  <defs
     id="defs28" />
  <sodipodi:namedview
     pagecolor="#ffffff"
     bordercolor="#666666"
     borderopacity="1"
     objecttolerance="10"
     gridtolerance="10"
     guidetolerance="10"
     inkscape:pageopacity="0"
     inkscape:pageshadow="2"
     inkscape:window-width="1920"
     inkscape:window-height="1017"
     id="namedview26"
     showgrid="false"
     inkscape:zoom="1.2852823"
     inkscape:cx="117.52465"
     inkscape:cy="76.095379"
     inkscape:window-x="-8"
     inkscape:window-y="-8"
     inkscape:window-maximized="1"
     inkscape:current-layer="svg24" />
  <g
     fill="#f0bc5e"
     id="g10"
     transform="matrix(0.28457432,0,0,0.27126407,9.92,28.592941)"
     style="stroke-width:3.5992">
    <path
       d="m 120,64 c -30.871094,0 -56,25.128906 -56,56 0,30.87109 25.128906,56 56,56 30.87109,0 56,-25.12891 56,-56 0,-30.871094 -25.12891,-56 -56,-56 z m 0,72 c -8.83984,0 -16,-7.16016 -16,-16 0,-8.83984 7.16016,-16 16,-16 8.83984,0 16,7.16016 16,16 0,8.83984 -7.16016,16 -16,16 z m 0,0"
       id="path2"
       style="stroke-width:3.5992" />
    <path
       d="m 352,272 c -44.11328,0 -80,35.88672 -80,80 0,44.11328 35.88672,80 80,80 44.11328,0 80,-35.88672 80,-80 0,-44.11328 -35.88672,-80 -80,-80 z m 0,120 c -22.08984,0 -40,-17.91016 -40,-40 0,-22.08984 17.91016,-40 40,-40 22.08984,0 40,17.91016 40,40 0,22.08984 -17.91016,40 -40,40 z m 0,0"
       id="path4"
       style="stroke-width:3.5992" />
    <path
       d="M 192,378.26563 99.007812,272 H 82.230469 L 75.6875,291.64844 57.167969,282.38281 26.382812,313.16797 35.648438,331.6875 16,338.23047 v 43.53125 l 19.648438,6.54297 -9.265626,18.51953 30.785157,30.78516 L 75.6875,428.34375 82.230469,448 h 43.531251 l 6.54297,-19.64844 18.51953,9.26563 30.78516,-30.78516 L 172.34375,388.3125 192,381.76953 Z M 104,392 c -17.671875,0 -32,-14.32812 -32,-32 0,-17.67187 14.328125,-32 32,-32 17.67187,0 32,14.32813 32,32 0,17.67188 -14.32813,32 -32,32 z m 0,0"
       id="path6"
       style="stroke-width:3.5992" />
    <path
       d="M 448,82.230469 428.35156,75.6875 437.61719,57.167969 406.83203,26.382812 388.3125,35.648438 381.76953,16 H 338.23828 L 331.69531,35.648438 313.17578,26.382812 282.39062,57.167969 291.65625,75.6875 272,82.230469 V 98.960938 L 378.38281,192 h 3.37891 l 6.54297,-19.64844 18.51953,9.26563 30.78516,-30.78516 L 428.34375,132.3125 448,125.76953 Z M 360,136 c -17.67187,0 -32,-14.32813 -32,-32 0,-17.671875 14.32813,-32 32,-32 17.67188,0 32,14.328125 32,32 0,17.67187 -14.32812,32 -32,32 z m 0,0"
       id="path8"
       style="stroke-width:3.5992" />
  </g>
  <path
     d="m 44.068918,85.015868 v -4.340226 c -11.298489,0 -20.489351,-8.76098 -20.489351,-19.531013 h -4.553189 c 0,13.161606 11.235128,23.871239 25.04254,23.871239 z m 0,0"
     id="path12"
     style="stroke-width:1" />
  <path
     d="m 44.068918,67.654967 c 3.765052,0 6.829784,-2.921386 6.829784,-6.510338 0,-3.588951 -3.064732,-6.510337 -6.829784,-6.510337 -3.765052,0 -6.829783,2.921386 -6.829783,6.510337 0,3.588952 3.064731,6.510338 6.829783,6.510338 z m 0,-8.68045 c 1.256129,0 2.276595,0.972737 2.276595,2.170112 0,1.197376 -1.020466,2.170113 -2.276595,2.170113 -1.256128,0 -2.276594,-0.972737 -2.276594,-2.170113 0,-1.197375 1.020466,-2.170112 2.276594,-2.170112 z m 0,0"
     id="path14"
     style="stroke-width:1" />
  <path
     d="m 151.06886,132.12893 v -16.10207 l -6.16059,-2.04826 c -0.69142,-2.16587 -1.59628,-4.25333 -2.70456,-6.23271 l 2.83685,-5.59482 -2.19879,-2.09594 c -1.01824,-1.274727 -2.689,-2.956357 -3.95291,-4.173864 -1.57294,-1.516326 -3.3871,-3.161922 -4.61878,-4.189758 L 68.585662,36.935371 c -6.449609,-5.379717 -14.720051,-8.34243 -23.291739,-8.34243 v 0.05828 c -0.410189,-0.01272 -0.810371,-0.05828 -1.225005,-0.05828 C 25.239214,28.592941 9.92,43.195637 9.92,61.144629 c 0,0.39524 0.0478,0.776705 0.061139,1.167708 H 9.92 c 0,8.17077 3.108085,16.052263 8.751772,22.200208 l 57.436214,62.564515 c 1.034917,1.12638 2.587847,2.69463 4.049626,4.09863 1.383965,1.32665 3.289278,3.07503 4.71882,4.11452 l 2.206561,2.10336 5.869345,-2.70416 c 2.075392,1.05433 4.266392,1.91898 6.538542,2.57806 l 2.1532,5.87245 h 16.89216 l 2.14876,-5.87245 c 2.27214,-0.65908 4.46203,-1.52162 6.53854,-2.57806 l 5.86934,2.70416 11.94768,-11.38885 -2.83685,-5.59482 c 1.10605,-1.97938 2.01314,-4.06685 2.70456,-6.23272 z M 77.976615,107.74589 c -1.106058,1.97938 -2.013139,4.06684 -2.704566,6.23271 l -6.16059,2.04826 v 16.10207 l 6.16059,2.04825 c 0.691427,2.16587 1.596282,4.25334 2.704566,6.23272 L 77.2863,141.77046 30.805087,91.139442 c 4.07964,1.645597 8.562797,2.556876 13.263831,2.556876 18.829705,0 34.148919,-14.602696 34.148919,-32.551689 0,-4.485394 -0.955991,-8.760981 -2.684558,-12.651925 l 53.147591,44.302933 -1.45511,0.670741 c -2.07539,-1.054327 -4.26639,-1.918982 -6.53854,-2.578066 l -2.15098,-5.872444 h -16.89216 l -2.148755,5.872444 c -2.272147,0.659084 -4.462037,1.52162 -6.538539,2.578066 L 87.087441,90.762214 75.139764,102.15107 Z M 44.068918,32.933166 c 16.318559,0 29.59573,12.656164 29.59573,28.211463 0,15.555299 -13.277171,28.211464 -29.59573,28.211464 -16.318558,0 -29.595729,-12.656165 -29.595729,-28.211464 0,-15.555299 13.277171,-28.211463 29.595729,-28.211463 z m 97.087642,97.895604 -0.31236,1.10942 c -0.72367,2.57807 -1.79082,5.03852 -3.17256,7.31566 l -0.60583,0.99604 2.46556,4.86474 -7.37225,7.02744 -5.10344,-2.35025 -1.04492,0.57749 c -2.38887,1.315 -4.97227,2.33224 -7.67461,3.02417 l -1.16387,0.29776 -1.86863,5.10845 h -10.42698 l -1.86863,-5.10845 -1.16386,-0.29776 c -2.704573,-0.68981 -5.28575,-1.70705 -7.674618,-3.02417 l -1.044923,-0.57749 -5.103439,2.35025 -7.372253,-7.02744 2.465569,-4.86474 -0.605831,-0.99604 c -1.379519,-2.27714 -2.446673,-4.73971 -3.172559,-7.31566 l -0.312366,-1.10942 -5.359112,-1.78124 v -9.93928 l 5.359112,-1.78123 0.312366,-1.10943 c 0.723664,-2.57807 1.790817,-5.03852 3.172559,-7.31565 l 0.605831,-0.99605 -2.465569,-4.86474 7.372253,-7.027431 5.103439,2.350244 1.044923,-0.57749 c 2.388868,-1.314996 4.972268,-2.332237 7.674618,-3.024171 l 1.16386,-0.297756 1.86863,-5.108453 h 10.42698 l 1.86863,5.108453 1.16387,0.297756 c 2.70456,0.689816 5.28574,1.707056 7.67461,3.024171 l 1.04492,0.57749 5.10344,-2.350244 7.37225,7.027431 -2.46556,4.86474 0.60583,0.99605 c 1.37952,2.27713 2.44667,4.7397 3.17256,7.31565 l 0.31236,1.10943 5.35911,1.78123 v 9.93928 z m 0,0"
     id="path16"
     style="stroke-width:1" />
  <path
     d="m 110.09016,111.05722 c -7.53344,0 -13.659567,5.83959 -13.659567,13.02067 0,7.18108 6.126127,13.02068 13.659567,13.02068 7.53344,0 13.65957,-5.8396 13.65957,-13.02068 0,-7.18108 -6.12613,-13.02067 -13.65957,-13.02067 z m 0,21.70112 c -5.02229,0 -9.10638,-3.89306 -9.10638,-8.68045 0,-4.78739 4.08409,-8.68045 9.10638,-8.68045 5.02229,0 9.10638,3.89306 9.10638,8.68045 0,4.78739 -4.08409,8.68045 -9.10638,8.68045 z m 0,0"
     id="path18"
     style="stroke-width:1" />
  <path
     d="m 112.36676,67.654967 c 6.27619,0 11.38297,-4.867918 11.38297,-10.850563 0,-5.982644 -5.10678,-10.850563 -11.38297,-10.850563 -6.2762,0 -11.38298,4.867919 -11.38298,10.850563 0,5.982645 5.10678,10.850563 11.38298,10.850563 z m 0,-17.3609 c 3.76505,0 6.82978,2.921386 6.82978,6.510337 0,3.588951 -3.06473,6.510338 -6.82978,6.510338 -3.76506,0 -6.82979,-2.921387 -6.82979,-6.510338 0,-3.588951 3.06473,-6.510337 6.82979,-6.510337 z m 0,0"
     id="path20"
     style="stroke-width:1" />
  <path
     d="m 39.515729,115.39744 c -6.276198,0 -11.382973,4.86792 -11.382973,10.85056 0,5.98265 5.106775,10.85057 11.382973,10.85057 6.276199,0 11.382973,-4.86792 11.382973,-10.85057 0,-5.98264 -5.106774,-10.85056 -11.382973,-10.85056 z m 0,17.3609 c -3.765051,0 -6.829783,-2.92138 -6.829783,-6.51034 0,-3.58895 3.064732,-6.51033 6.829783,-6.51033 3.765052,0 6.829784,2.92138 6.829784,6.51033 0,3.58896 -3.064732,6.51034 -6.829784,6.51034 z m 0,0"
     id="path22"
     style="stroke-width:1" />
</svg>
