<?xml version="1.0" encoding="UTF-8" standalone="no"?>
<svg
   xmlns:dc="http://purl.org/dc/elements/1.1/"
   xmlns:cc="http://creativecommons.org/ns#"
   xmlns:rdf="http://www.w3.org/1999/02/22-rdf-syntax-ns#"
   xmlns:svg="http://www.w3.org/2000/svg"
   xmlns="http://www.w3.org/2000/svg"
   xmlns:sodipodi="http://sodipodi.sourceforge.net/DTD/sodipodi-0.dtd"
   xmlns:inkscape="http://www.inkscape.org/namespaces/inkscape"
   height="170"
   viewBox="0 0 160 170"
   width="160"
   version="1.1"
   id="svg77"
   sodipodi:docname="trash.svg"
   inkscape:version="1.0.2 (e86c870879, 2021-01-15, custom)">
  <metadata
     id="metadata83">
    <rdf:RDF>
      <cc:Work
         rdf:about="">
        <dc:format>image/svg+xml</dc:format>
        <dc:type
           rdf:resource="http://purl.org/dc/dcmitype/StillImage" />
        <dc:title></dc:title>
      </cc:Work>
    </rdf:RDF>
  </metadata>
  <defs
     id="defs81" />
  <sodipodi:namedview
     pagecolor="#ffffff"
     bordercolor="#666666"
     borderopacity="1"
     objecttolerance="10"
     gridtolerance="10"
     guidetolerance="10"
     inkscape:pageopacity="0"
     inkscape:pageshadow="2"
     inkscape:window-width="1920"
     inkscape:window-height="1017"
     id="namedview79"
     showgrid="false"
     inkscape:zoom="3.3203125"
     inkscape:cx="55.42652"
     inkscape:cy="58.84181"
     inkscape:window-x="-8"
     inkscape:window-y="-8"
     inkscape:window-maximized="1"
     inkscape:current-layer="svg77" />
  <g
     id="Flat"
     transform="matrix(0.27027451,0,0,0.27614087,10.470902,22.921188)"
     style="stroke-width:3.66043">
    <path
       d="M 216,372.027 H 320 V 432 H 216 Z"
       fill="#1a1e38"
       id="path2"
       style="stroke-width:12.7126" />
    <path
       d="M 202.97,397.16992 A 70.54624,70.54624 0 0 1 154.18,416 H 101.82 C 37.68,416 5.55,338.45 50.91,293.09 L 88,256 h 80 l 9.05,9.05 28.04,28.04 c 31.4,31.4 25.67,78.23007 -2.12,104.07992 z"
       fill="#2f4054"
       id="path4"
       style="stroke-width:12.7126" />
    <path
       d="M 88,360 H 72 v -26.74707 a 116.48215,116.48215 0 0 1 34.3418,-82.9082 l 12.00146,-12.00147 11.31348,11.31348 -12.00147,12.00146 A 100.5875,100.5875 0 0 0 88,333.25293 Z"
       fill="#262d43"
       id="path6"
       style="stroke-width:12.7126" />
    <path
       d="M 176,333.25 V 360 h -16 v -26.75 a 101.76326,101.76326 0 0 0 -2.11,-20.71 100.51743,100.51743 0 0 0 -27.55,-50.88013 l -12,-11.99994 11.32,-11.31993 12,12 A 116.61581,116.61581 0 0 1 176,333.25 Z"
       fill="#262d43"
       id="path8"
       style="stroke-width:12.7126" />
    <rect
       fill="#ae7d4d"
       height="24"
       rx="12"
       width="112"
       x="72"
       y="232"
       id="rect10"
       style="stroke-width:12.7126" />
    <path
       d="m 80,208 v -16 a 16,16 0 0 1 16,-16 16,16 0 0 1 16,16 16,16 0 0 0 16,16 16,16 0 0 0 16,-16 16,16 0 0 1 16,-16 16,16 0 0 1 16,16 v 16 a 24,24 0 0 1 -24,24 H 104 A 24,24 0 0 1 80,208 Z"
       fill="#2f4054"
       id="path12"
       style="stroke-width:12.7126" />
    <path
       d="m 202.97,397.16992 a 87.24606,87.24606 0 0 1 -38.44995,-43.49 c -12.62,-30.46 -7.73,-63.59 12.53,-88.62988 L 205.09,293.09 c 31.4,31.4 25.67,78.23007 -2.12,104.07992 z"
       fill="#262d43"
       id="path14"
       style="stroke-width:12.7126" />
    <path
       d="M 176,333.25 V 360 h -8.58 c -1.04,-2.05 -2,-4.16 -2.9,-6.32007 A 91.00847,91.00847 0 0 1 160,339.73 v -6.48 a 101.76326,101.76326 0 0 0 -2.11,-20.71 84.788,84.788 0 0 1 7.37,-28.44 116.69757,116.69757 0 0 1 10.74,49.15 z"
       fill="#1a1e38"
       id="path16"
       style="stroke-width:12.7126" />
    <path
       d="M 298.17993,392 H 245.82 c -64.14,0 -96.27,-77.55 -50.91,-122.91 L 232,232 h 80 l 13.74,13.74 23.3501,23.35 C 394.45,314.45 362.32007,392 298.17993,392 Z"
       fill="#2f4054"
       id="path18"
       style="stroke-width:12.7126" />
    <path
       d="m 232,336 h -16 v -26.74707 a 116.48215,116.48215 0 0 1 34.3418,-82.9082 l 12.00146,-12.00147 11.31348,11.31348 -12.00147,12.00146 A 100.5875,100.5875 0 0 0 232,309.25293 Z"
       fill="#262d43"
       id="path20"
       style="stroke-width:12.7126" />
    <path
       d="M 320,309.25 V 336 h -16 v -26.75 a 100.55719,100.55719 0 0 0 -29.65991,-71.59 l -12,-12 11.31982,-11.32 12,12 A 117.227,117.227 0 0 1 320,309.25 Z"
       fill="#262d43"
       id="path22"
       style="stroke-width:12.7126" />
    <rect
       fill="#ae7d4d"
       height="24"
       rx="12"
       width="112"
       x="216"
       y="208"
       id="rect24"
       style="stroke-width:12.7126" />
    <path
       d="m 224,184 v -16 a 16,16 0 0 1 16,-16 16,16 0 0 1 16,16 16,16 0 0 0 16,16 16,16 0 0 0 16,-16 16,16 0 0 1 16,-16 16,16 0 0 1 16,16 v 16 a 24,24 0 0 1 -24,24 h -48 a 24,24 0 0 1 -24,-24 z"
       fill="#2f4054"
       id="path26"
       style="stroke-width:12.7126" />
    <path
       d="M 298.17993,392 H 272.89 a 88.21411,88.21411 0 0 1 22.71,-38.23 l 21.57995,-21.58008 A 27.92736,27.92736 0 0 1 322.57007,294.11 39.78661,39.78661 0 0 1 320,280 v -16 a 31.77841,31.77841 0 0 1 5.74,-18.26 l 23.3501,23.35 C 394.45,314.45 362.32007,392 298.17993,392 Z"
       fill="#262d43"
       id="path28"
       style="stroke-width:12.7126" />
    <path
       d="M 320,309.25 V 336 h -6.63 l 3.80993,-3.81006 A 27.9064,27.9064 0 0 1 319.37,297.1 116.54927,116.54927 0 0 1 320,309.25 Z"
       fill="#1a1e38"
       id="path30"
       style="stroke-width:12.7126" />
    <path
       d="M 461.08831,365.08831 424,328 h -80 l -37.08831,37.08831 C 261.55422,410.44578 293.67823,488 357.82338,488 h 52.35324 c 64.14515,0 96.26916,-77.55422 50.91169,-122.91169 z"
       fill="#2f4054"
       id="path32"
       style="stroke-width:12.7126" />
    <path
       d="m 344,432 h -16 v -26.74707 a 116.48215,116.48215 0 0 1 34.3418,-82.9082 l 12.00146,-12.00147 11.31348,11.31348 -12.00147,12.00146 A 100.5875,100.5875 0 0 0 344,405.25293 Z"
       fill="#262d43"
       id="path34"
       style="stroke-width:12.7126" />
    <path
       d="M 432,432 H 416 V 405.25293 A 100.5875,100.5875 0 0 0 386.34473,333.6582 l -12.00147,-12.00146 11.31348,-11.31348 12.00146,12.00147 A 116.48215,116.48215 0 0 1 432,405.25293 Z"
       fill="#262d43"
       id="path36"
       style="stroke-width:12.7126" />
    <rect
       fill="#ae7d4d"
       height="24"
       rx="12"
       width="112"
       x="328"
       y="304"
       id="rect38"
       style="stroke-width:12.7126" />
    <path
       d="m 336,280 v -16 a 16,16 0 0 1 16,-16 16,16 0 0 1 16,16 16,16 0 0 0 16,16 16,16 0 0 0 16,-16 16,16 0 0 1 16,-16 16,16 0 0 1 16,16 v 16 a 24,24 0 0 1 -24,24 h -48 a 24,24 0 0 1 -24,-24 z"
       fill="#2f4054"
       id="path40"
       style="stroke-width:12.7126" />
    <path
       d="m 368,456 a 32.00409,32.00409 0 0 1 -32,32 H 56 a 32,32 0 0 1 0,-64 c 0.34,0 0.68,0.02 1.02,0.03 A 31.99483,31.99483 0 0 1 96.49,385.1499 48.0007,48.0007 0 0 1 192,392 h 16 v 40 h 56 A 32.001,32.001 0 0 1 327.27,425.21 32.012,32.012 0 0 1 368,456 Z"
       fill="#ae7d4d"
       id="path42"
       style="stroke-width:12.7126" />
    <g
       fill="#976342"
       id="g50"
       style="stroke-width:12.7126">
      <path
         d="M 87.75,420 77.17,432 A 31.95594,31.95594 0 0 0 57.02,424.03 32.11328,32.11328 0 0 1 57.01,408.01 47.94751,47.94751 0 0 1 87.75,420 Z"
         id="path44"
         style="stroke-width:3.66043" />
      <path
         d="M 129.57,391.99 115.72,400 a 32.12985,32.12985 0 0 0 -19.23,-14.8501 47.79032,47.79032 0 0 1 4.89,-15.23 48.16238,48.16238 0 0 1 28.19,22.0701 z"
         id="path46"
         style="stroke-width:3.66043" />
      <path
         d="M 327.27,425.21 A 32.23474,32.23474 0 0 0 308.28,440 l -13.84009,-8.02 a 48.07938,48.07938 0 0 1 25.51009,-21.19 31.79479,31.79479 0 0 1 7.32,14.42 z"
         id="path48"
         style="stroke-width:3.66043" />
    </g>
    <path
       d="m 272,368 v 64 c 0,13.25 -17.91,24 -40,24 -22.09,0 -40,-10.75 -40,-24 v -64 z"
       fill="#efbf33"
       id="path52"
       style="stroke-width:12.7126" />
    <ellipse
       cx="192"
       cy="324"
       fill="#efdd9b"
       rx="24"
       ry="36"
       id="ellipse54"
       style="stroke-width:12.7126" />
    <ellipse
       cx="232"
       cy="368"
       fill="#e98704"
       rx="40"
       ry="24"
       id="ellipse56"
       style="stroke-width:12.7126" />
    <path
       d="m 106.34326,157.65674 -8,-8 a 41.988,41.988 0 0 1 0,-59.31348 25.97112,25.97112 0 0 0 0,-36.68652 l 11.31348,-11.31348 a 41.988,41.988 0 0 1 0,59.31348 25.97112,25.97112 0 0 0 0,36.68652 l 8,8 z"
       fill="#efdd9b"
       id="path58"
       style="stroke-width:12.7126" />
    <path
       d="M 80,20.686 H 96 V 43.313 H 80 Z"
       fill="#efbf33"
       transform="matrix(0.707,-0.707,0.707,0.707,3.147,71.598)"
       id="path60"
       style="stroke-width:12.7126" />
    <path
       d="m 200,160 h -12 a 36,36 0 0 1 0,-72 h 44 v 16 h -44 a 20,20 0 0 0 0,40 h 12 z"
       fill="#efdd9b"
       id="path62"
       style="stroke-width:12.7126" />
    <path
       d="m 248,88 h 16 v 16 h -16 z"
       fill="#efbf33"
       id="path64"
       style="stroke-width:12.7126" />
    <path
       d="m 354.34326,157.65674 -12,-12 a 36.32468,36.32468 0 0 1 0,-51.31348 20.30779,20.30779 0 0 0 0,-28.68652 l -12,-12 11.31348,-11.31348 12,12 a 36.32468,36.32468 0 0 1 0,51.31348 20.30779,20.30779 0 0 0 0,28.68652 l 12,12 z"
       fill="#efdd9b"
       id="path66"
       style="stroke-width:12.7126" />
    <path
       d="m 312,20.686 h 16 v 22.627 h -16 z"
       fill="#efbf33"
       transform="matrix(0.707,-0.707,0.707,0.707,71.098,235.647)"
       id="path68"
       style="stroke-width:12.7126" />
    <path
       d="m 459.71582,253.65674 -11.31348,-11.31348 8,-8 a 25.972,25.972 0 0 0 0,-36.68652 41.98847,41.98847 0 0 1 -4.8e-4,-59.31348 25.97157,25.97157 0 0 0 4.8e-4,-36.68652 l 11.31348,-11.31348 a 41.9889,41.9889 0 0 1 0,59.31348 25.97156,25.97156 0 0 0 -4.9e-4,36.68652 41.98846,41.98846 0 0 1 4.9e-4,59.31348 z"
       fill="#efdd9b"
       id="path70"
       style="stroke-width:12.7126" />
    <path
       d="m 438.059,68.686 h 16 v 22.627 h -16 z"
       fill="#efbf33"
       transform="matrix(0.707,-0.707,0.707,0.707,74.079,338.843)"
       id="path72"
       style="stroke-width:12.7126" />
    <path
       d="m 16,480 h 480 v 16 H 16 Z"
       fill="#262d43"
       id="path74"
       style="stroke-width:12.7126" />
  </g>
</svg>
