<?xml version="1.0" encoding="UTF-8" standalone="no"?>
<svg
   xmlns:dc="http://purl.org/dc/elements/1.1/"
   xmlns:cc="http://creativecommons.org/ns#"
   xmlns:rdf="http://www.w3.org/1999/02/22-rdf-syntax-ns#"
   xmlns:svg="http://www.w3.org/2000/svg"
   xmlns="http://www.w3.org/2000/svg"
   xmlns:sodipodi="http://sodipodi.sourceforge.net/DTD/sodipodi-0.dtd"
   xmlns:inkscape="http://www.inkscape.org/namespaces/inkscape"
   height="170pt"
   viewBox="1 1 159.99999 169.99999"
   width="160pt"
   version="1.1"
   id="svg26"
   sodipodi:docname="unemployment.svg"
   inkscape:version="1.0.2 (e86c870879, 2021-01-15, custom)">
  <metadata
     id="metadata32">
    <rdf:RDF>
      <cc:Work
         rdf:about="">
        <dc:format>image/svg+xml</dc:format>
        <dc:type
           rdf:resource="http://purl.org/dc/dcmitype/StillImage" />
        <dc:title></dc:title>
      </cc:Work>
    </rdf:RDF>
  </metadata>
  <defs
     id="defs30" />
  <sodipodi:namedview
     pagecolor="#ffffff"
     bordercolor="#666666"
     borderopacity="1"
     objecttolerance="10"
     gridtolerance="10"
     guidetolerance="10"
     inkscape:pageopacity="0"
     inkscape:pageshadow="2"
     inkscape:window-width="1920"
     inkscape:window-height="1017"
     id="namedview28"
     showgrid="false"
     inkscape:zoom="2.4951076"
     inkscape:cx="149.2472"
     inkscape:cy="127.35028"
     inkscape:window-x="-8"
     inkscape:window-y="-8"
     inkscape:window-maximized="1"
     inkscape:current-layer="svg26" />
  <path
     d="m 101.28157,112.02289 c -1.501447,1.52073 -1.501447,3.98532 0,5.50604 l 9.25005,9.36259 c 1.50244,1.51971 3.93741,1.51971 5.43985,0 1.50245,-1.52073 1.50245,-3.98531 0,-5.50604 l -9.25005,-9.36259 c -1.50245,-1.52072 -3.93741,-1.52072 -5.43985,0 z m 0,0"
     fill="#fd1f47"
     id="path2"
     style="stroke-width:1" />
  <path
     d="m 106.72242,112.02289 9.24805,9.36056 c 1.50345,1.52174 1.50144,3.98633 0,5.50604 l -14.6879,-14.8666 c 1.50144,-1.51971 3.9364,-1.52174 5.43985,0 z m 0,0"
     fill="#fe4a60"
     id="path4"
     style="stroke-width:1" />
  <path
     d="m 112.71217,123.59155 c -4.915,4.97479 -4.915,13.04071 0,18.01551 l 14.42147,14.59794 c 4.91499,4.97479 12.88397,4.97479 17.79897,0 4.91499,-4.97479 4.91499,-13.04072 0,-18.01551 l -14.42247,-14.59794 c -4.914,-4.9748 -12.88297,-4.9748 -17.79797,0 z m 0,0"
     fill="#fe4a60"
     id="path6"
     style="stroke-width:1" />
  <path
     d="m 130.51114,123.59155 14.42147,14.59692 c 4.91499,4.97581 4.91399,13.04174 0,18.0145 l -32.21944,-32.61142 c 0.94754,-0.95907 2.01027,-1.73363 3.14311,-2.32265 4.73471,-2.46459 10.6874,-1.69206 14.65486,2.32265 z m 0,0"
     fill="#ff7579"
     id="path8"
     style="stroke-width:1" />
  <path
     d="m 32.336358,42.238891 c -20.004557,20.248948 -20.004557,53.078342 0,73.326269 20.005559,20.24896 52.440347,20.24896 72.444902,0 20.00556,-20.247927 20.00556,-53.077321 0,-73.326269 -20.004555,-20.247935 -52.439343,-20.247935 -72.444902,0 z m 0,0"
     fill="#ffb826"
     id="path10"
     style="stroke-width:1" />
  <path
     d="m 32.336358,42.237877 72.446912,73.328303 c 1.27808,-1.29363 2.47702,-2.63998 3.59084,-4.03296 16.33058,-20.362495 15.13062,-50.341038 -3.59285,-69.293315 -20.004555,-20.246921 -52.440346,-20.249963 -72.444902,-0.002 z m 0,0"
     fill="#ffcc4b"
     id="path12"
     style="stroke-width:1" />
  <path
     d="m 99.3364,47.749995 c -16.997662,-17.205473 -44.557516,-17.205473 -61.556182,0 -16.997663,17.20446 -16.997663,45.099609 0,62.305075 16.998666,17.20446 44.55852,17.20446 61.556182,0 16.99866,-17.205468 16.99866,-45.100615 0,-62.305075 z m 0,0"
     fill="#d9e4ef"
     id="path14"
     style="stroke-width:1" />
  <path
     d="m 47.957781,62.496965 h -8.239409 c -2.124457,0 -3.84626,1.742749 -3.84626,3.893054 0,2.150301 1.721803,3.893054 3.84626,3.893054 h 4.393149 V 85.15474 c 0,1.301738 -1.046704,2.361176 -2.333798,2.361176 -1.286092,0 -2.332796,-1.059438 -2.332796,-2.361176 0,-2.150305 -1.722803,-3.893054 -3.84626,-3.893054 -2.124457,0 -3.846259,1.742749 -3.846259,3.893054 0,5.59525 4.497319,10.147284 10.025315,10.147284 5.528999,0 10.026317,-4.552034 10.026317,-10.147284 V 66.390019 c 0,-2.150305 -1.721801,-3.893054 -3.846259,-3.893054 z m 0,0"
     fill="#1d9cfd"
     id="path16"
     style="stroke-width:1" />
  <path
     d="M 99.3374,110.05507 67.460522,77.789365 67.367372,77.694065 37.782221,47.747967 c 16.997663,-17.201418 44.560521,-17.201418 61.555179,0 17.00067,17.2075 17.00067,45.099607 0,62.307103 z m 0,0"
     fill="#eff6fe"
     id="path18"
     style="stroke-width:1" />
  <path
     d="m 105.36121,72.645263 c 0,-5.60539 -4.4823,-10.147286 -10.026322,-10.147286 h -8.238409 c -2.125459,0 -3.84626,1.741737 -3.84626,3.893054 v 25.018954 c 0,2.149289 1.720801,3.893053 3.84626,3.893053 h 8.238409 c 5.539012,0 10.026322,-4.536827 10.026322,-10.147286 0,-2.300349 -0.75123,-4.477012 -2.13348,-6.255244 1.38225,-1.78026 2.13348,-3.957938 2.13348,-6.255245 z M 95.334888,87.516931 h -4.39215 v -4.723369 h 4.39215 c 1.290099,0 2.333797,1.053355 2.333797,2.36219 0,1.302756 -1.043698,2.361179 -2.333797,2.361179 z m 0,-12.509477 h -4.39215 v -4.723369 h 4.39215 c 1.287094,0 2.333797,1.051326 2.333797,2.361178 0,1.303768 -1.043698,2.362191 -2.333797,2.362191 z m 0,0"
     fill="#3ab4fb"
     id="path20"
     style="stroke-width:1" />
  <path
     d="m 67.522625,62.496965 c -6.105938,0 -11.05199,5.000139 -11.05199,11.186445 v 10.433182 c 0,6.170085 4.928021,11.185432 11.060002,11.185432 6.104935,0 11.051987,-4.999128 11.051987,-11.185432 V 73.68341 c 0,-6.171099 -4.92802,-11.186445 -11.059999,-11.186445 z m 3.367479,21.619627 c 0,1.867449 -1.487421,3.399324 -3.367479,3.399324 -1.856023,0 -3.35947,-1.518696 -3.35947,-3.399324 V 73.68341 c 0,-1.867448 1.48742,-3.400337 3.367482,-3.400337 1.856021,0 3.359467,1.51971 3.359467,3.400337 z m 0,0"
     fill="#1d9cfd"
     id="path22"
     style="stroke-width:1" />
  <path
     d="m 67.521621,62.497977 c -4.11069,0 -7.695524,2.265879 -9.600625,5.634791 l 6.241159,6.317087 V 73.68341 c 0,-1.868462 1.487421,-3.399325 3.369482,-3.399325 1.854018,0 3.359467,1.517683 3.359467,3.399325 v 7.579289 l 6.910247,6.994317 c 0.504822,-1.279434 0.782273,-2.676474 0.782273,-4.139412 V 73.68341 c 0,-6.171097 -4.92902,-11.185433 -11.062003,-11.185433 z m 0,0"
     fill="#3ab4fb"
     id="path24"
     style="stroke-width:1" />
</svg>
