<?xml version="1.0" encoding="UTF-8" standalone="no"?>
<svg
   xmlns:dc="http://purl.org/dc/elements/1.1/"
   xmlns:cc="http://creativecommons.org/ns#"
   xmlns:rdf="http://www.w3.org/1999/02/22-rdf-syntax-ns#"
   xmlns:svg="http://www.w3.org/2000/svg"
   xmlns="http://www.w3.org/2000/svg"
   xmlns:sodipodi="http://sodipodi.sourceforge.net/DTD/sodipodi-0.dtd"
   xmlns:inkscape="http://www.inkscape.org/namespaces/inkscape"
   version="1.1"
   id="Capa_1"
   x="0px"
   y="0px"
   viewBox="0 0 160 170"
   xml:space="preserve"
   sodipodi:docname="university.svg"
   width="160"
   height="170"
   inkscape:version="1.0.2 (e86c870879, 2021-01-15, custom)"><metadata
   id="metadata185"><rdf:RDF><cc:Work
       rdf:about=""><dc:format>image/svg+xml</dc:format><dc:type
         rdf:resource="http://purl.org/dc/dcmitype/StillImage" /><dc:title></dc:title></cc:Work></rdf:RDF></metadata><defs
   id="defs183" /><sodipodi:namedview
   pagecolor="#ffffff"
   bordercolor="#666666"
   borderopacity="1"
   objecttolerance="10"
   gridtolerance="10"
   guidetolerance="10"
   inkscape:pageopacity="0"
   inkscape:pageshadow="2"
   inkscape:window-width="1920"
   inkscape:window-height="1017"
   id="namedview181"
   showgrid="false"
   inkscape:zoom="2.8173764"
   inkscape:cx="79.451997"
   inkscape:cy="79.608579"
   inkscape:window-x="-8"
   inkscape:window-y="-8"
   inkscape:window-maximized="1"
   inkscape:current-layer="Capa_1" />
<rect
   x="13.947021"
   y="75.133972"
   style="fill:#e1e6e9;stroke-width:1"
   width="131.99504"
   height="79.800507"
   id="rect2" />
<rect
   x="132.5735"
   y="88.114975"
   style="fill:#2d93ba;stroke-width:1"
   width="7.8743715"
   height="13.167837"
   id="rect4" />
<polygon
   style="fill:#27a2db;stroke-width:3.00142"
   points="392.024,204.925 368.812,245.167 368.812,204.925 "
   id="polygon6"
   transform="matrix(0.33925172,0,0,0.32720816,7.4537431,21.061519)" />
<rect
   x="132.5735"
   y="108.72517"
   style="fill:#2d93ba;stroke-width:1"
   width="7.8743715"
   height="13.167837"
   id="rect8" />
<polygon
   style="fill:#27a2db;stroke-width:3.00142"
   points="392.024,267.916 368.812,308.158 368.812,267.916 "
   id="polygon10"
   transform="matrix(0.33925172,0,0,0.32720816,7.4537431,21.061519)" />
<rect
   x="132.5735"
   y="129.34123"
   style="fill:#2d93ba;stroke-width:1"
   width="7.8743715"
   height="13.167837"
   id="rect12" />
<polygon
   style="fill:#27a2db;stroke-width:3.00142"
   points="392.024,330.907 368.812,371.149 368.812,330.907 "
   id="polygon14"
   transform="matrix(0.33925172,0,0,0.32720816,7.4537431,21.061519)" />
<rect
   x="119.60391"
   y="88.114975"
   style="fill:#2d93ba;stroke-width:1"
   width="7.8743715"
   height="13.167837"
   id="rect16" />
<polygon
   style="fill:#27a2db;stroke-width:3.00142"
   points="353.809,204.925 330.596,245.167 330.596,204.925 "
   id="polygon18"
   transform="matrix(0.33925172,0,0,0.32720816,7.4537431,21.061519)" />
<rect
   x="119.60391"
   y="108.72517"
   style="fill:#2d93ba;stroke-width:1"
   width="7.8743715"
   height="13.167837"
   id="rect20" />
<polygon
   style="fill:#27a2db;stroke-width:3.00142"
   points="353.809,267.916 330.596,308.158 330.596,267.916 "
   id="polygon22"
   transform="matrix(0.33925172,0,0,0.32720816,7.4537431,21.061519)" />
<rect
   x="119.60391"
   y="129.34123"
   style="fill:#2d93ba;stroke-width:1"
   width="7.8743715"
   height="13.167837"
   id="rect24" />
<polygon
   style="fill:#27a2db;stroke-width:3.00142"
   points="353.809,330.907 330.596,371.149 330.596,330.907 "
   id="polygon26"
   transform="matrix(0.33925172,0,0,0.32720816,7.4537431,21.061519)" />
<rect
   x="106.64925"
   y="88.114975"
   style="fill:#2d93ba;stroke-width:1"
   width="7.8743715"
   height="13.167837"
   id="rect28" />
<polygon
   style="fill:#27a2db;stroke-width:3.00142"
   points="315.593,204.925 292.38,245.167 292.38,204.925 "
   id="polygon30"
   transform="matrix(0.33925172,0,0,0.32720816,7.4537431,21.061519)" />
<rect
   x="106.64925"
   y="108.72517"
   style="fill:#2d93ba;stroke-width:1"
   width="7.8743715"
   height="13.167837"
   id="rect32" />
<polygon
   style="fill:#27a2db;stroke-width:3.00142"
   points="315.593,267.916 292.38,308.158 292.38,267.916 "
   id="polygon34"
   transform="matrix(0.33925172,0,0,0.32720816,7.4537431,21.061519)" />
<rect
   x="106.64925"
   y="129.34123"
   style="fill:#2d93ba;stroke-width:1"
   width="7.8743715"
   height="13.167837"
   id="rect36" />
<polygon
   style="fill:#27a2db;stroke-width:3.00142"
   points="315.593,330.907 292.38,371.149 292.38,330.907 "
   id="polygon38"
   transform="matrix(0.33925172,0,0,0.32720816,7.4537431,21.061519)" />
<polygon
   style="fill:#d5d6db;stroke-width:3.00142"
   points="273.794,409.124 152.254,409.124 152.254,143.165 152.254,44.439 213.024,44.439 273.794,44.439 273.794,143.165 "
   id="polygon40"
   transform="matrix(0.33925172,0,0,0.32720816,7.4537431,21.061519)" />
<rect
   y="154.93153"
   style="fill:#3a556a;stroke-width:1"
   width="144.74751"
   height="5.5075679"
   id="rect42"
   x="7.4537435" />
<rect
   x="71.109238"
   y="129.38312"
   style="fill:#fcd462;stroke-width:1"
   width="17.224827"
   height="25.544159"
   id="rect44" />
<rect
   x="45.979843"
   y="88.114975"
   style="fill:#2d93ba;stroke-width:1"
   width="7.8743715"
   height="13.167837"
   id="rect46" />
<polygon
   style="fill:#27a2db;stroke-width:3.00142"
   points="136.775,204.925 113.562,245.167 113.562,204.925 "
   id="polygon48"
   transform="matrix(0.33925172,0,0,0.32720816,7.4537431,21.061519)" />
<rect
   x="45.979843"
   y="108.72517"
   style="fill:#2d93ba;stroke-width:1"
   width="7.8743715"
   height="13.167837"
   id="rect50" />
<polygon
   style="fill:#27a2db;stroke-width:3.00142"
   points="136.775,267.916 113.562,308.158 113.562,267.916 "
   id="polygon52"
   transform="matrix(0.33925172,0,0,0.32720816,7.4537431,21.061519)" />
<rect
   x="45.979843"
   y="129.34123"
   style="fill:#2d93ba;stroke-width:1"
   width="7.8743715"
   height="13.167837"
   id="rect54" />
<polygon
   style="fill:#27a2db;stroke-width:3.00142"
   points="136.775,330.907 113.562,371.149 113.562,330.907 "
   id="polygon56"
   transform="matrix(0.33925172,0,0,0.32720816,7.4537431,21.061519)" />
<rect
   x="33.014664"
   y="88.114975"
   style="fill:#2d93ba;stroke-width:1"
   width="7.8743715"
   height="13.167837"
   id="rect58" />
<polygon
   style="fill:#27a2db;stroke-width:3.00142"
   points="98.559,204.925 75.347,245.167 75.347,204.925 "
   id="polygon60"
   transform="matrix(0.33925172,0,0,0.32720816,7.4537431,21.061519)" />
<rect
   x="33.014664"
   y="108.72517"
   style="fill:#2d93ba;stroke-width:1"
   width="7.8743715"
   height="13.167837"
   id="rect62" />
<polygon
   style="fill:#27a2db;stroke-width:3.00142"
   points="98.559,267.916 75.347,308.158 75.347,267.916 "
   id="polygon64"
   transform="matrix(0.33925172,0,0,0.32720816,7.4537431,21.061519)" />
<rect
   x="33.014664"
   y="129.34123"
   style="fill:#2d93ba;stroke-width:1"
   width="7.8743715"
   height="13.167837"
   id="rect66" />
<polygon
   style="fill:#27a2db;stroke-width:3.00142"
   points="98.559,330.907 75.347,371.149 75.347,330.907 "
   id="polygon68"
   transform="matrix(0.33925172,0,0,0.32720816,7.4537431,21.061519)" />
<rect
   x="20.051178"
   y="88.114975"
   style="fill:#2d93ba;stroke-width:1"
   width="7.8743715"
   height="13.167837"
   id="rect70" />
<polygon
   style="fill:#27a2db;stroke-width:3.00142"
   points="60.343,204.925 37.131,245.167 37.131,204.925 "
   id="polygon72"
   transform="matrix(0.33925172,0,0,0.32720816,7.4537431,21.061519)" />
<rect
   x="20.051178"
   y="108.72517"
   style="fill:#2d93ba;stroke-width:1"
   width="7.8743715"
   height="13.167837"
   id="rect74" />
<polygon
   style="fill:#27a2db;stroke-width:3.00142"
   points="60.343,267.916 37.131,308.158 37.131,267.916 "
   id="polygon76"
   transform="matrix(0.33925172,0,0,0.32720816,7.4537431,21.061519)" />
<rect
   x="20.051178"
   y="129.34123"
   style="fill:#2d93ba;stroke-width:1"
   width="7.8743715"
   height="13.167837"
   id="rect78" />
<polygon
   style="fill:#27a2db;stroke-width:3.00142"
   points="60.343,330.907 37.131,371.149 37.131,330.907 "
   id="polygon80"
   transform="matrix(0.33925172,0,0,0.32720816,7.4537431,21.061519)" />
<rect
   x="64.513168"
   y="98.997269"
   style="fill:#2d93ba;stroke-width:1"
   width="11.80562"
   height="9.915061"
   id="rect82" />
<polygon
   style="fill:#27a2db;stroke-width:3.00142"
   points="203.01,238.184 168.213,268.487 168.213,238.184 "
   id="polygon84"
   transform="matrix(0.33925172,0,0,0.32720816,7.4537431,21.061519)" />
<rect
   x="82.432777"
   y="98.997269"
   style="fill:#2d93ba;stroke-width:1"
   width="11.80562"
   height="9.915061"
   id="rect86" />
<polygon
   style="fill:#27a2db;stroke-width:3.00142"
   points="255.809,238.184 221.012,268.487 221.012,238.184 "
   id="polygon88"
   transform="matrix(0.33925172,0,0,0.32720816,7.4537431,21.061519)" />
<rect
   x="64.969116"
   y="85.825172"
   style="fill:#2d93ba;stroke-width:1"
   width="11.80562"
   height="9.915061"
   id="rect90" />
<polygon
   style="fill:#27a2db;stroke-width:3.00142"
   points="204.332,197.91 169.535,228.213 169.535,197.91 "
   id="polygon92"
   transform="matrix(0.33925172,0,0,0.32720816,7.4537431,21.061519)" />
<rect
   x="82.881607"
   y="85.825172"
   style="fill:#2d93ba;stroke-width:1"
   width="11.80562"
   height="9.915061"
   id="rect94" />
<polygon
   style="fill:#27a2db;stroke-width:3.00142"
   points="257.131,197.91 222.334,228.213 222.334,197.91 "
   id="polygon96"
   transform="matrix(0.33925172,0,0,0.32720816,7.4537431,21.061519)" />
<rect
   x="64.77066"
   y="112.9095"
   style="fill:#2d93ba;stroke-width:1"
   width="11.80562"
   height="9.915061"
   id="rect98" />
<polygon
   style="fill:#27a2db;stroke-width:3.00142"
   points="203.75,280.717 168.953,311.02 168.953,280.717 "
   id="polygon100"
   transform="matrix(0.33925172,0,0,0.32720816,7.4537431,21.061519)" />
<rect
   x="82.683151"
   y="112.9095"
   style="fill:#2d93ba;stroke-width:1"
   width="11.80562"
   height="9.915061"
   id="rect102" />
<polygon
   style="fill:#27a2db;stroke-width:3.00142"
   points="256.549,280.717 221.752,311.02 221.752,280.717 "
   id="polygon104"
   transform="matrix(0.33925172,0,0,0.32720816,7.4537431,21.061519)" />
<g
   id="g112"
   transform="matrix(0.33925172,0,0,0.32720816,7.4537431,21.061519)"
   style="stroke-width:3.00142">
	<rect
   x="211.584"
   y="331.048"
   style="fill:#3a556a;stroke-width:3.00142"
   width="2.846"
   height="78.067001"
   id="rect106" />
	<circle
   style="fill:#3a556a;stroke-width:3.00142"
   cx="204.67599"
   cy="371.155"
   r="3.793"
   id="circle108" />
	<circle
   style="fill:#3a556a;stroke-width:3.00142"
   cx="220.33099"
   cy="371.155"
   r="3.793"
   id="circle110" />
</g>
<polygon
   style="fill:#64798a;stroke-width:3.00142"
   points="310.347,44.439 118.631,44.439 147,0.706 281.978,0.706 "
   id="polygon114"
   transform="matrix(0.33925172,0,0,0.32720816,7.4537431,21.061519)" />
<g
   id="g124"
   transform="matrix(0.33925172,0,0,0.32720816,7.4537431,21.061519)"
   style="stroke-width:3.00142">
	<polygon
   style="fill:#3a556a;stroke-width:3.00142"
   points="0.036,165.256 152.254,165.256 152.254,127.146 24.963,127.146 "
   id="polygon116" />
	<polygon
   style="fill:#3a556a;stroke-width:3.00142"
   points="426.012,165.256 273.794,165.256 273.794,127.146 401.085,127.146 "
   id="polygon118" />
	<rect
   x="136.91701"
   y="44.438999"
   style="fill:#3a556a;stroke-width:3.00142"
   width="15.317"
   height="120.815"
   id="rect120" />
	<rect
   x="273.79199"
   y="44.438999"
   style="fill:#3a556a;stroke-width:3.00142"
   width="15.317"
   height="120.815"
   id="rect122" />
</g>
<ellipse
   style="fill:#ffffff;stroke-width:1"
   cx="79.723175"
   cy="57.318474"
   id="circle126"
   rx="14.532526"
   ry="14.016616" />
<path
   style="fill:#fcd462;stroke-width:1"
   d="m 79.722838,72.267959 c -8.547108,0 -15.500071,-6.706131 -15.500071,-14.949487 0,-8.243354 6.952963,-14.949485 15.500071,-14.949485 8.546429,0 15.499394,6.706131 15.499394,14.949485 0,8.243356 -6.952965,14.949487 -15.499394,14.949487 z m 0,-28.02636 c -7.476429,0 -13.558534,5.866187 -13.558534,13.076873 0,7.210687 6.082105,13.076874 13.558534,13.076874 7.47575,0 13.557855,-5.866187 13.557855,-13.076874 0,-7.210686 -6.082105,-13.076873 -13.557855,-13.076873 z"
   id="path128" />
<g
   id="g144"
   transform="matrix(0.33925172,0,0,0.32720816,7.4537431,21.061519)"
   style="stroke-width:3.00142">
	<path
   style="fill:#2f4859;stroke-width:3.00142"
   d="m 207.522,74.829 h 2.99 v 8.232 h -1.319 v -6.995 h -1.671 z"
   id="path130" />
	<path
   style="fill:#2f4859;stroke-width:3.00142"
   d="m 216.036,78.045 c 0.235,-0.322 0.354,-0.648 0.354,-0.978 0,-0.33 -0.127,-0.611 -0.378,-0.842 -0.25,-0.232 -0.568,-0.348 -0.952,-0.348 -0.677,0 -1.238,0.346 -1.684,1.037 l -1.119,-0.648 c 0.36,-0.541 0.759,-0.95 1.196,-1.224 0.435,-0.275 0.996,-0.413 1.684,-0.413 0.686,0 1.29,0.218 1.807,0.654 0.518,0.436 0.777,1.03 0.777,1.785 0,0.423 -0.11,0.828 -0.329,1.213 -0.221,0.385 -0.625,0.879 -1.214,1.484 l -1.931,1.967 h 3.733 v 1.33 h -5.63 v -1.178 l 2.497,-2.508 c 0.556,-0.566 0.954,-1.01 1.189,-1.331 z"
   id="path132" />
	<path
   style="fill:#2f4859;stroke-width:3.00142"
   d="m 179.787,113.787 c 0.73,0 1.267,-0.247 1.613,-0.741 0.346,-0.495 0.522,-1.162 0.531,-2.002 -0.196,0.22 -0.479,0.426 -0.849,0.618 -0.368,0.192 -0.777,0.289 -1.225,0.289 -0.738,0 -1.356,-0.246 -1.854,-0.737 -0.498,-0.491 -0.748,-1.142 -0.748,-1.955 0,-0.812 0.269,-1.466 0.806,-1.961 0.539,-0.495 1.215,-0.741 2.033,-0.741 1.319,0 2.229,0.588 2.732,1.766 0.282,0.676 0.423,1.437 0.423,2.285 0,0.848 -0.091,1.554 -0.271,2.12 -0.18,0.565 -0.428,1.012 -0.741,1.343 -0.613,0.643 -1.364,0.965 -2.255,0.965 -0.892,0 -1.699,-0.278 -2.421,-0.836 l 0.694,-1.025 c 0.18,0.157 0.422,0.299 0.725,0.424 0.303,0.125 0.572,0.188 0.807,0.188 z m 0.254,-3.062 c 0.475,0 0.871,-0.131 1.189,-0.395 0.318,-0.263 0.477,-0.604 0.477,-1.025 0,-0.419 -0.153,-0.781 -0.459,-1.083 -0.307,-0.303 -0.69,-0.453 -1.149,-0.453 -0.459,0 -0.837,0.135 -1.136,0.406 -0.299,0.271 -0.448,0.618 -0.448,1.042 0,0.424 0.135,0.782 0.406,1.072 0.271,0.291 0.644,0.436 1.12,0.436 z"
   id="path134" />
	<path
   style="fill:#2f4859;stroke-width:3.00142"
   d="m 213.575,140.235 c -0.73,0 -1.269,0.247 -1.614,0.742 -0.346,0.495 -0.522,1.162 -0.529,2.002 0.195,-0.22 0.479,-0.426 0.847,-0.618 0.37,-0.192 0.777,-0.289 1.225,-0.289 0.738,0 1.356,0.246 1.854,0.736 0.5,0.491 0.748,1.143 0.748,1.955 0,0.813 -0.269,1.467 -0.806,1.962 -0.539,0.494 -1.215,0.741 -2.031,0.741 -1.319,0 -2.231,-0.589 -2.732,-1.766 -0.282,-0.676 -0.423,-1.437 -0.423,-2.285 0,-0.848 0.089,-1.554 0.269,-2.12 0.182,-0.565 0.428,-1.013 0.743,-1.343 0.612,-0.644 1.364,-0.965 2.255,-0.965 0.891,0 1.697,0.278 2.421,0.836 l -0.696,1.025 c -0.18,-0.157 -0.422,-0.298 -0.724,-0.423 -0.304,-0.127 -0.572,-0.19 -0.807,-0.19 z m -0.253,3.062 c -0.475,0 -0.873,0.131 -1.191,0.394 -0.318,0.264 -0.477,0.605 -0.477,1.025 0,0.42 0.154,0.781 0.461,1.084 0.305,0.303 0.69,0.453 1.154,0.453 0.462,0 0.849,-0.135 1.154,-0.406 0.307,-0.271 0.459,-0.617 0.459,-1.037 0,-0.419 -0.141,-0.777 -0.423,-1.072 -0.284,-0.294 -0.663,-0.441 -1.137,-0.441 z"
   id="path136" />
	<path
   style="fill:#2f4859;stroke-width:3.00142"
   d="m 243.381,109.854 v -1.237 h 4.817 v 1.084 l -1.991,2.226 c 0.754,0.024 1.343,0.261 1.767,0.712 0.423,0.452 0.636,0.991 0.636,1.619 0,0.84 -0.286,1.5 -0.853,1.979 -0.569,0.479 -1.303,0.719 -2.197,0.719 -0.896,0 -1.772,-0.287 -2.627,-0.86 l 0.589,-1.119 c 0.675,0.471 1.382,0.707 2.121,0.707 0.479,0 0.873,-0.112 1.183,-0.336 0.31,-0.224 0.466,-0.546 0.466,-0.965 0,-0.42 -0.174,-0.756 -0.519,-1.008 -0.346,-0.251 -0.824,-0.376 -1.436,-0.376 -0.307,0 -0.6,0.043 -0.884,0.129 v -1.059 l 1.908,-2.214 h -2.98 z"
   id="path138" />
	<rect
   x="213.325"
   y="90.365997"
   style="fill:#2f4859;stroke-width:3.00142"
   width="1.758"
   height="22.259001"
   id="rect140" />
	<rect
   x="196.254"
   y="111.699"
   style="fill:#2f4859;stroke-width:3.00142"
   width="16.191999"
   height="1.9069999"
   id="rect142" />
</g>
<rect
   x="-20.502575"
   y="-105.19457"
   transform="matrix(-0.76268596,0.64676899,-0.67368315,-0.73902031,0,0)"
   style="fill:#e56353;stroke-width:1.00032"
   width="0.37046549"
   height="12.659075"
   id="rect146" />
<ellipse
   style="fill:#27a2db;stroke-width:1"
   cx="80.102455"
   cy="57.915958"
   id="circle148"
   rx="0.97127759"
   ry="0.9367969" />
<g
   id="g150">
</g>
<g
   id="g152">
</g>
<g
   id="g154">
</g>
<g
   id="g156">
</g>
<g
   id="g158">
</g>
<g
   id="g160">
</g>
<g
   id="g162">
</g>
<g
   id="g164">
</g>
<g
   id="g166">
</g>
<g
   id="g168">
</g>
<g
   id="g170">
</g>
<g
   id="g172">
</g>
<g
   id="g174">
</g>
<g
   id="g176">
</g>
<g
   id="g178">
</g>
</svg>
